<svg xmlns="http://www.w3.org/2000/svg" width="22.251" height="22.251" viewBox="0 0 22.251 22.251">
  <g id="Icon_feather-instagram" data-name="Icon feather-instagram" transform="translate(-2 -2)">
    <path id="Path_1" data-name="Path 1" d="M8.063,3H18.188a5.063,5.063,0,0,1,5.063,5.063V18.188a5.063,5.063,0,0,1-5.063,5.063H8.063A5.063,5.063,0,0,1,3,18.188V8.063A5.063,5.063,0,0,1,8.063,3Z" fill="none" stroke="#fff" stroke-linecap="round" stroke-linejoin="round" stroke-width="2"/>
    <path id="Path_2" data-name="Path 2" d="M20.122,15.391a4.05,4.05,0,1,1-3.412-3.412,4.05,4.05,0,0,1,3.412,3.412Z" transform="translate(-2.946 -2.903)" fill="none" stroke="#fff" stroke-linecap="round" stroke-linejoin="round" stroke-width="2"/>
    <path id="Path_3" data-name="Path 3" d="M26.25,9.75h0" transform="translate(-7.555 -2.193)" fill="none" stroke="#fff" stroke-linecap="round" stroke-linejoin="round" stroke-width="2"/>
  </g>
</svg>
