<svg xmlns="http://www.w3.org/2000/svg" width="23.388" height="16.445" viewBox="0 0 23.388 16.445">
  <path id="Icon_awesome-youtube" data-name="Icon awesome-youtube" d="M23.949,7.073a2.939,2.939,0,0,0-2.068-2.081C20.057,4.5,12.744,4.5,12.744,4.5s-7.314,0-9.137.492A2.939,2.939,0,0,0,1.539,7.073a30.828,30.828,0,0,0-.489,5.666A30.828,30.828,0,0,0,1.539,18.4a2.9,2.9,0,0,0,2.068,2.048c1.824.492,9.137.492,9.137.492s7.314,0,9.137-.492A2.9,2.9,0,0,0,23.949,18.4a30.828,30.828,0,0,0,.489-5.666,30.828,30.828,0,0,0-.489-5.666Zm-13.6,9.143V9.261l6.113,3.478-6.113,3.477Z" transform="translate(-1.05 -4.5)" fill="#fff"/>
</svg>
