<svg xmlns="http://www.w3.org/2000/svg" width="1440" height="74.946" viewBox="0 0 1440 74.946">
  <path id="back_2" d="M1440,75H705.525c42.846,0,88.179-1.086,134.742-3.22,42.36-1.942,86.683-4.8,131.738-8.49,75.863-6.216,155.152-14.884,235.665-25.763,31.623-4.273,63.519-8.9,94.8-13.76,25.049-3.889,49.733-7.928,73.364-12,38.53-6.643,61.613-11.2,64.118-11.7l.047-.01ZM702,75H0V.054C.2.1,21.935,4.8,59.586,11.764c22.047,4.077,45.15,8.116,68.667,12,29.378,4.857,59.463,9.486,89.418,13.76C293.927,48.406,369.825,57.074,443.256,63.29c43.611,3.691,86.817,6.548,128.417,8.49C616.245,73.86,660.094,74.943,702,75Z" transform="translate(0 -0.054)" fill="#fff"/>
</svg>
