<svg xmlns="http://www.w3.org/2000/svg" width="1440.001" height="75" viewBox="0 0 1440.001 75">
  <path id="back_grey" d="M705.339,769.5c-42.923,0-87.895-1.083-133.667-3.22-41.608-1.942-84.814-4.8-128.417-8.49-73.433-6.216-149.331-14.884-225.585-25.763-29.952-4.273-60.036-8.9-89.418-13.759-23.5-3.886-46.607-7.924-68.668-12C22.356,699.381.9,694.748,0,694.554V694.5H1440v.054l-.047.01c-2.527.5-25.8,5.092-64.119,11.7-23.656,4.079-48.339,8.117-73.364,12-31.282,4.857-63.177,9.487-94.8,13.759-80.511,10.879-159.8,19.547-235.665,25.763-45.048,3.691-89.371,6.548-131.739,8.49C793.658,768.417,748.262,769.5,705.339,769.5Z" transform="translate(0.001 -694.5)" fill="#f5f8ff"/>
</svg>
