<svg xmlns="http://www.w3.org/2000/svg" width="1440" height="119" viewBox="0 0 1440 119">
  <path id="cloud_white" d="M69,119V5.889A102.522,102.522,0,0,1,194.332,55.464,102.47,102.47,0,0,1,327.961,100.63a102.363,102.363,0,0,1,92.024.593A102.274,102.274,0,0,1,546.7,88.133,102.484,102.484,0,0,1,631.593,43c44.81,0,82.924,28.876,96.992,69.154a102.385,102.385,0,0,1,89.5,4.585,102.345,102.345,0,0,1,146.544-23.86A102.356,102.356,0,0,1,1114.24,68.153,102.674,102.674,0,0,1,1204.614,14c50.337,0,92.222,36.431,101.065,84.539a102.408,102.408,0,0,1,86.736,2.272A102.583,102.583,0,0,1,1509,45.917V119Z" transform="translate(-69)" fill="#fff"/>
</svg>
