<svg xmlns="http://www.w3.org/2000/svg" width="129.5" height="129.5" viewBox="0 0 129.5 129.5">
  <path id="Icon_metro-qrcode" data-name="Icon metro-qrcode" d="M42.254,9.433H9.879V41.808H42.254Zm8.094-8.094V49.9H1.785V1.339ZM17.973,17.526H34.16V33.714H17.973ZM123.191,9.433H90.816V41.808h32.375V9.433Zm8.094-8.094V49.9H82.723V1.339h48.562ZM98.91,17.526H115.1V33.714H98.91ZM42.254,90.37H9.879v32.375H42.254Zm8.094-8.094v48.562H1.785V82.276ZM17.973,98.464H34.16v16.187H17.973ZM58.441,1.339h8.094V9.433H58.441Zm8.094,8.094h8.094v8.094H66.535Zm-8.094,8.094h8.094V25.62H58.441Zm8.094,8.094h8.094v8.094H66.535Zm-8.094,8.094h8.094v8.094H58.441Zm8.094,8.094h8.094V49.9H66.535ZM58.441,49.9h8.094V58H58.441Zm0,16.187h8.094v8.094H58.441Zm8.094,8.094h8.094v8.094H66.535Zm-8.094,8.094h8.094V90.37H58.441Zm8.094,8.094h8.094v8.094H66.535Zm-8.094,8.094h8.094v8.094H58.441Zm8.094,8.094h8.094v8.094H66.535Zm-8.094,8.094h8.094v8.094H58.441Zm8.094,8.094h8.094v8.094H66.535Zm56.656-56.656h8.094v8.094h-8.094Zm-113.312,0h8.094v8.094H9.879ZM17.973,58h8.094v8.094H17.973ZM1.785,58H9.879v8.094H1.785ZM34.16,58h8.094v8.094H34.16Zm8.094,8.094h8.094v8.094H42.254ZM50.348,58h8.094v8.094H50.348Zm24.281,8.094h8.094v8.094H74.629ZM82.723,58h8.094v8.094H82.723Zm8.094,8.094H98.91v8.094H90.816ZM98.91,58H107v8.094H98.91ZM107,66.089H115.1v8.094H107ZM115.1,58h8.094v8.094H115.1Zm8.094,24.281h8.094V90.37h-8.094Zm-48.562,0h8.094V90.37H74.629Zm8.094-8.094h8.094v8.094H82.723Zm8.094,8.094H98.91V90.37H90.816Zm16.188,0H115.1V90.37H107Zm8.094-8.094h8.094v8.094H115.1Zm8.094,24.281h8.094v8.094h-8.094Zm-48.562,0h8.094v8.094H74.629Zm8.094-8.094h8.094v8.094H82.723Zm16.187,0H107v8.094H98.91ZM107,98.464H115.1v8.094H107ZM115.1,90.37h8.094v8.094H115.1Zm8.094,24.281h8.094v8.094h-8.094Zm-40.469-8.094h8.094v8.094H82.723Zm8.094,8.094H98.91v8.094H90.816Zm8.094-8.094H107v8.094H98.91ZM107,114.651H115.1v8.094H107Zm-24.281,8.094h8.094v8.094H82.723Zm16.187,0H107v8.094H98.91Zm16.187,0h8.094v8.094H115.1Z" transform="translate(-1.785 -1.339)" fill="#202020"/>
</svg>
