<svg xmlns="http://www.w3.org/2000/svg" xmlns:xlink="http://www.w3.org/1999/xlink" width="1440" height="900" viewBox="0 0 1440 900">
  <defs>
    <clipPath id="clip-Login_back">
      <rect width="1440" height="900"/>
    </clipPath>
  </defs>
  <g id="Login_back" clip-path="url(#clip-Login_back)">
    <rect width="1440" height="900" fill="#fff"/>
    <g id="Group_318" data-name="Group 318" transform="translate(-323.008 -52.115)" style="isolation: isolate">
      <g id="Group_308" data-name="Group 308" transform="matrix(-0.602, -0.799, 0.799, -0.602, 1563.206, 814.827)" opacity="0.918">
        <g id="Group_5" data-name="Group 5" transform="translate(0 0)">
          <g id="Group_4" data-name="Group 4" transform="translate(0 0)">
            <path id="Path_3" data-name="Path 3" d="M46.159,8.71A73.568,73.568,0,0,0,32.266,20.255c-.029.042-.05.085-.072.12A142.592,142.592,0,0,0,17.849,37.216C12.087,21.906,1.883,20.262,1.883,20.262c9.217-9.719,17.772,4.274,17.772,4.274a98.025,98.025,0,0,1,15.29-11.8A17.846,17.846,0,0,0,0,17.858c0,7.3,4.4,14.246,8.653,19.867a84.942,84.942,0,0,0,5.832,6.89c.649.7,1.311,1.375,1.989,2.046.246.24,1.171,1.382,1.375,1.382S18.887,47,19.133,46.752c.656-.642,1.291-1.3,1.919-1.961a86.884,86.884,0,0,0,6-7.066c3.935-5.206,8-11.546,8.576-18.246A74.637,74.637,0,0,1,51.921,6.1C50.882,6.1,46.18,8.7,46.159,8.71ZM20.247,12.081a3.481,3.481,0,1,1-3.477,3.484A3.482,3.482,0,0,1,20.247,12.081Z" fill="#efefef"/>
          </g>
        </g>
      </g>
      <g id="Group_306" data-name="Group 306" transform="translate(1563.179 508.928) rotate(83)" opacity="0.907">
        <g id="Group_5-2" data-name="Group 5" transform="translate(0 0)">
          <g id="Group_4-2" data-name="Group 4" transform="translate(0 0)">
            <path id="Path_3-2" data-name="Path 3" d="M43.624,8.231a69.528,69.528,0,0,0-13.13,10.911c-.027.04-.047.08-.068.113A134.758,134.758,0,0,0,16.869,35.172C11.423,20.7,1.78,19.15,1.78,19.15c8.71-9.185,16.8,4.039,16.8,4.039a92.642,92.642,0,0,1,14.45-11.151A16.866,16.866,0,0,0,0,16.877c0,6.9,4.158,13.463,8.178,18.776a80.272,80.272,0,0,0,5.512,6.512c.613.66,1.239,1.3,1.88,1.933.233.227,1.106,1.306,1.3,1.306s.98-.987,1.213-1.22c.62-.607,1.22-1.226,1.813-1.853a82.105,82.105,0,0,0,5.672-6.678c3.719-4.92,7.558-10.912,8.105-17.244a70.537,70.537,0,0,1,15.4-12.643C48.087,5.766,43.643,8.218,43.624,8.231ZM19.135,11.417A3.289,3.289,0,1,1,15.85,14.71,3.291,3.291,0,0,1,19.135,11.417Z" fill="#efefef"/>
          </g>
        </g>
      </g>
      <g id="Group_305" data-name="Group 305" transform="matrix(-0.978, -0.208, 0.208, -0.978, 1550.416, 467.241)" opacity="0.814">
        <g id="Group_5-3" data-name="Group 5" transform="translate(0)">
          <g id="Group_4-3" data-name="Group 4" transform="translate(0 0)">
            <path id="Path_3-3" data-name="Path 3" d="M54.447,10.274c-5.516,3.286-11.255,8.377-16.387,13.618-.034.05-.059.1-.085.141A168.193,168.193,0,0,0,21.054,43.9c-6.8-18.059-18.833-20-18.833-20,10.871-11.464,20.963,5.041,20.963,5.041A115.623,115.623,0,0,1,41.22,15.024,21.05,21.05,0,0,0,0,21.064c0,8.61,5.19,16.8,10.207,23.434a100.191,100.191,0,0,0,6.879,8.127c.765.824,1.547,1.622,2.346,2.413.291.283,1.381,1.631,1.622,1.631s1.223-1.232,1.514-1.522c.773-.757,1.523-1.531,2.263-2.313A102.481,102.481,0,0,0,31.911,44.5c4.642-6.14,9.434-13.619,10.116-21.522A88.038,88.038,0,0,1,61.243,7.2C60.018,7.2,54.471,10.257,54.447,10.274ZM23.883,14.25a4.106,4.106,0,1,1-4.1,4.11A4.107,4.107,0,0,1,23.883,14.25Z" fill="#efefef"/>
          </g>
        </g>
      </g>
      <g id="Group_304" data-name="Group 304" transform="translate(1491.852 301.076) rotate(41)" opacity="0.876">
        <g id="Group_5-4" data-name="Group 5" transform="translate(0 0)">
          <g id="Group_4-4" data-name="Group 4" transform="translate(0 0)">
            <path id="Path_3-4" data-name="Path 3" d="M53.051,10.01c-5.375,3.2-10.966,8.163-15.967,13.269-.033.048-.057.1-.082.138A163.882,163.882,0,0,0,20.514,42.773c-6.622-17.6-18.35-19.485-18.35-19.485C12.757,12.117,22.59,28.2,22.59,28.2a112.659,112.659,0,0,1,17.573-13.56A20.51,20.51,0,0,0,0,20.524C0,28.913,5.057,36.9,9.945,43.357a97.621,97.621,0,0,0,6.7,7.919c.746.8,1.507,1.581,2.286,2.351.283.276,1.346,1.589,1.58,1.589s1.192-1.2,1.475-1.483c.753-.738,1.484-1.491,2.205-2.254a99.855,99.855,0,0,0,6.9-8.121c4.523-5.983,9.192-13.27,9.857-20.97A85.779,85.779,0,0,1,59.673,7.012C58.479,7.012,53.075,9.994,53.051,10.01Zm-29.78,3.875a4,4,0,1,1-4,4A4,4,0,0,1,23.271,13.885Z" fill="#efefef"/>
          </g>
        </g>
      </g>
      <g id="Group_323" data-name="Group 323" transform="translate(1337.962 151.173) rotate(41)" opacity="0.876">
        <g id="Group_5-5" data-name="Group 5" transform="translate(0 0)">
          <g id="Group_4-5" data-name="Group 4" transform="translate(0 0)">
            <path id="Path_3-5" data-name="Path 3" d="M53.051,10.01c-5.375,3.2-10.966,8.163-15.967,13.269-.033.048-.057.1-.082.138A163.882,163.882,0,0,0,20.514,42.773c-6.622-17.6-18.35-19.485-18.35-19.485C12.757,12.117,22.59,28.2,22.59,28.2a112.659,112.659,0,0,1,17.573-13.56A20.51,20.51,0,0,0,0,20.524C0,28.913,5.057,36.9,9.945,43.357a97.621,97.621,0,0,0,6.7,7.919c.746.8,1.507,1.581,2.286,2.351.283.276,1.346,1.589,1.58,1.589s1.192-1.2,1.475-1.483c.753-.738,1.484-1.491,2.205-2.254a99.855,99.855,0,0,0,6.9-8.121c4.523-5.983,9.192-13.27,9.857-20.97A85.779,85.779,0,0,1,59.673,7.012C58.479,7.012,53.075,9.994,53.051,10.01Zm-29.78,3.875a4,4,0,1,1-4,4A4,4,0,0,1,23.271,13.885Z" fill="#efefef"/>
          </g>
        </g>
      </g>
      <g id="Group_303" data-name="Group 303" transform="matrix(-0.891, -0.454, 0.454, -0.891, 1543.29, 245.889)" opacity="0.876">
        <g id="Group_5-6" data-name="Group 5" transform="translate(0)">
          <g id="Group_4-6" data-name="Group 4" transform="translate(0 0)">
            <path id="Path_3-6" data-name="Path 3" d="M44.01,8.3A70.143,70.143,0,0,0,30.764,19.312c-.028.04-.048.081-.068.114A135.955,135.955,0,0,0,17.019,35.484C11.525,20.886,1.8,19.319,1.8,19.319c8.788-9.267,16.945,4.075,16.945,4.075A93.463,93.463,0,0,1,33.319,12.145,17.015,17.015,0,0,0,0,17.026c0,6.959,4.195,13.583,8.251,18.942a80.988,80.988,0,0,0,5.561,6.569c.619.666,1.25,1.311,1.9,1.95.235.229,1.116,1.318,1.311,1.318s.989-1,1.224-1.231c.625-.612,1.231-1.237,1.83-1.87a82.833,82.833,0,0,0,5.722-6.737c3.752-4.963,7.625-11.009,8.177-17.4A71.162,71.162,0,0,1,49.5,5.817C48.514,5.817,44.03,8.291,44.01,8.3ZM19.3,11.519a3.319,3.319,0,1,1-3.315,3.322A3.32,3.32,0,0,1,19.3,11.519Z" fill="#efefef"/>
          </g>
        </g>
      </g>
      <g id="Group_302" data-name="Group 302" transform="matrix(0.616, 0.788, -0.788, 0.616, 1505.118, 128.179)" opacity="0.852">
        <g id="Group_5-7" data-name="Group 5" transform="translate(0 0)">
          <g id="Group_4-7" data-name="Group 4" transform="translate(0 0)">
            <path id="Path_3-7" data-name="Path 3" d="M33.4,6.3a53.225,53.225,0,0,0-10.051,8.353c-.021.03-.036.061-.052.087A103.161,103.161,0,0,0,12.914,26.925C8.745,15.849,1.362,14.66,1.362,14.66,8.03,7.628,14.22,17.751,14.22,17.751A70.92,70.92,0,0,1,25.282,9.215,12.911,12.911,0,0,0,0,12.92C0,18.2,3.183,23.226,6.261,27.293a61.452,61.452,0,0,0,4.219,4.985c.469.505.949,1,1.439,1.48.178.173.847,1,.995,1s.75-.755.929-.934c.474-.464.934-.939,1.388-1.419a62.854,62.854,0,0,0,4.342-5.112c2.847-3.766,5.786-8.353,6.2-13.2A54,54,0,0,1,37.564,4.414C36.812,4.414,33.41,6.291,33.4,6.3ZM14.649,8.74a2.518,2.518,0,1,1-2.515,2.521A2.519,2.519,0,0,1,14.649,8.74Z" fill="#efefef"/>
          </g>
        </g>
      </g>
      <g id="Group_300" data-name="Group 300" transform="matrix(-0.105, 0.995, -0.995, -0.105, 1422.992, 795.52)" opacity="0.827">
        <g id="Group_5-8" data-name="Group 5" transform="translate(0 0)">
          <g id="Group_4-8" data-name="Group 4" transform="translate(0 0)">
            <path id="Path_3-8" data-name="Path 3" d="M33.785,6.375a53.846,53.846,0,0,0-10.168,8.45c-.021.031-.036.062-.052.088a104.367,104.367,0,0,0-10.5,12.327C8.847,16.033,1.378,14.83,1.378,14.83c6.746-7.114,13.008,3.128,13.008,3.128A71.746,71.746,0,0,1,25.577,9.323,13.062,13.062,0,0,0,0,13.07C0,18.413,3.22,23.5,6.334,27.611A62.167,62.167,0,0,0,10.6,32.654c.475.511.96,1.007,1.456,1.5.18.176.857,1.012,1.006,1.012s.759-.764.94-.945c.48-.47.945-.95,1.4-1.435A63.589,63.589,0,0,0,19.8,27.611c2.88-3.81,5.854-8.451,6.277-13.355A54.628,54.628,0,0,1,38,4.465C37.242,4.465,33.8,6.365,33.785,6.375ZM14.819,8.842a2.548,2.548,0,1,1-2.545,2.55A2.549,2.549,0,0,1,14.819,8.842Z" fill="#efefef"/>
          </g>
        </g>
      </g>
      <g id="Group_299" data-name="Group 299" transform="translate(1436.065 658.43) rotate(139)" opacity="0.841">
        <g id="Group_5-9" data-name="Group 5" transform="translate(0 0)">
          <g id="Group_4-9" data-name="Group 4" transform="translate(0 0)">
            <path id="Path_3-9" data-name="Path 3" d="M35.517,6.7a56.606,56.606,0,0,0-10.69,8.883c-.022.032-.038.065-.055.092A109.718,109.718,0,0,0,13.734,28.636C9.3,16.855,1.449,15.591,1.449,15.591c7.092-7.479,13.675,3.288,13.675,3.288A75.425,75.425,0,0,1,26.888,9.8,13.732,13.732,0,0,0,0,13.74C0,19.357,3.385,24.7,6.658,29.027a65.352,65.352,0,0,0,4.488,5.3c.5.538,1.009,1.058,1.531,1.574.19.185.9,1.064,1.058,1.064s.8-.8.988-.993c.5-.494.993-1,1.476-1.509a66.85,66.85,0,0,0,4.618-5.437c3.028-4.005,6.154-8.884,6.6-14.039A57.429,57.429,0,0,1,39.95,4.694C39.151,4.694,35.533,6.691,35.517,6.7ZM15.579,9.3A2.678,2.678,0,1,1,12.9,11.977,2.679,2.679,0,0,1,15.579,9.3Z" fill="#efefef"/>
          </g>
        </g>
      </g>
      <g id="Group_298" data-name="Group 298" transform="translate(1421.966 586.371) rotate(-167)" opacity="0.907">
        <g id="Group_5-10" data-name="Group 5" transform="translate(0 0)">
          <g id="Group_4-10" data-name="Group 4" transform="translate(0 0)">
            <path id="Path_3-10" data-name="Path 3" d="M52.251,9.859c-5.294,3.154-10.8,8.039-15.727,13.069-.033.048-.056.1-.081.136A161.411,161.411,0,0,0,20.205,42.128C13.683,24.8,2.132,22.937,2.132,22.937c10.433-11,20.118,4.838,20.118,4.838A110.961,110.961,0,0,1,39.557,14.419,20.2,20.2,0,0,0,0,20.214C0,28.477,4.98,36.34,9.8,42.7a96.151,96.151,0,0,0,6.6,7.8c.734.791,1.484,1.557,2.252,2.315.279.271,1.325,1.565,1.556,1.565s1.174-1.182,1.453-1.461c.742-.726,1.461-1.469,2.172-2.22a98.345,98.345,0,0,0,6.794-8c4.455-5.893,9.053-13.07,9.708-20.654A84.487,84.487,0,0,1,58.774,6.906C57.6,6.906,52.275,9.844,52.251,9.859ZM22.92,13.675a3.94,3.94,0,1,1-3.936,3.944A3.942,3.942,0,0,1,22.92,13.675Z" fill="#efefef"/>
          </g>
        </g>
      </g>
      <g id="Group_297" data-name="Group 297" transform="translate(1436.505 477.522) rotate(140)" opacity="0.986">
        <g id="Group_5-11" data-name="Group 5" transform="translate(0 0)">
          <g id="Group_4-11" data-name="Group 4" transform="translate(0 0)">
            <path id="Path_3-11" data-name="Path 3" d="M33.574,6.335a53.512,53.512,0,0,0-10.1,8.4c-.021.031-.036.062-.052.087a103.715,103.715,0,0,0-10.434,12.25C8.792,15.933,1.37,14.738,1.37,14.738,8.073,7.669,14.3,17.846,14.3,17.846A71.3,71.3,0,0,1,25.417,9.265,12.98,12.98,0,0,0,0,12.989C0,18.3,3.2,23.35,6.294,27.439a61.782,61.782,0,0,0,4.242,5.011c.472.508.954,1,1.447,1.488.179.174.852,1.005,1,1.005s.754-.759.934-.939c.477-.467.939-.944,1.4-1.426a63.189,63.189,0,0,0,4.365-5.14c2.862-3.786,5.817-8.4,6.238-13.271a54.286,54.286,0,0,1,11.849-9.73C37.009,4.437,33.589,6.325,33.574,6.335ZM14.727,8.787A2.532,2.532,0,1,1,12.2,11.322,2.533,2.533,0,0,1,14.727,8.787Z" fill="#efefef"/>
          </g>
        </g>
      </g>
      <g id="Group_295" data-name="Group 295" transform="translate(1373.407 289.454) rotate(160)" opacity="0.944">
        <g id="Group_5-12" data-name="Group 5" transform="translate(0 0)">
          <g id="Group_4-12" data-name="Group 4" transform="translate(0 0)">
            <path id="Path_3-12" data-name="Path 3" d="M43.608,8.228A69.5,69.5,0,0,0,30.483,19.135c-.027.04-.047.08-.068.113A134.708,134.708,0,0,0,16.863,35.159C11.419,20.7,1.779,19.143,1.779,19.143c8.707-9.182,16.79,4.037,16.79,4.037A92.606,92.606,0,0,1,33.014,12.033,16.86,16.86,0,0,0,0,16.871c0,6.9,4.157,13.458,8.175,18.769a80.24,80.24,0,0,0,5.51,6.509c.613.66,1.239,1.3,1.879,1.932.233.227,1.106,1.306,1.3,1.306s.98-.986,1.213-1.219c.619-.606,1.219-1.226,1.813-1.852a82.076,82.076,0,0,0,5.67-6.676c3.718-4.918,7.556-10.908,8.1-17.237A70.51,70.51,0,0,1,49.051,5.764C48.07,5.764,43.627,8.215,43.608,8.228ZM19.128,11.413a3.288,3.288,0,1,1-3.285,3.292A3.29,3.29,0,0,1,19.128,11.413Z" fill="#efefef"/>
          </g>
        </g>
      </g>
      <g id="Group_294" data-name="Group 294" transform="matrix(-0.574, 0.819, -0.819, -0.574, 1484.456, 71.836)" opacity="0.835">
        <g id="Group_5-13" data-name="Group 5" transform="translate(0 0)">
          <g id="Group_4-13" data-name="Group 4" transform="translate(0 0)">
            <path id="Path_3-13" data-name="Path 3" d="M33.035,6.233A52.65,52.65,0,0,0,23.092,14.5c-.021.03-.036.061-.051.086A102.049,102.049,0,0,0,12.774,26.635C8.651,15.677,1.348,14.5,1.348,14.5c6.6-6.956,12.719,3.059,12.719,3.059A70.154,70.154,0,0,1,25.009,9.116,12.772,12.772,0,0,0,0,12.78C0,18,3.149,22.976,6.193,27a60.792,60.792,0,0,0,4.174,4.931c.464.5.938.984,1.424,1.464.176.172.838.989.984.989s.742-.747.919-.924c.469-.459.924-.929,1.373-1.4A62.178,62.178,0,0,0,19.362,27c2.816-3.725,5.724-8.263,6.138-13.058A53.415,53.415,0,0,1,37.159,4.366C36.415,4.366,33.05,6.223,33.035,6.233ZM14.491,8.646A2.491,2.491,0,1,1,12,11.14,2.492,2.492,0,0,1,14.491,8.646Z" fill="#efefef"/>
          </g>
        </g>
      </g>
      <g id="Group_292" data-name="Group 292" transform="translate(1182.294 841.59) rotate(-106)" opacity="0.865">
        <g id="Group_5-14" data-name="Group 5">
          <g id="Group_4-14" data-name="Group 4" transform="translate(0 0)">
            <path id="Path_3-14" data-name="Path 3" d="M53.668,10.127c-5.437,3.239-11.094,8.258-16.153,13.423-.034.049-.058.1-.083.139A165.79,165.79,0,0,0,20.753,43.271c-6.7-17.8-18.564-19.712-18.564-19.712,10.716-11.3,20.663,4.969,20.663,4.969A113.971,113.971,0,0,1,40.63,14.81,20.749,20.749,0,0,0,0,20.763c0,8.487,5.116,16.563,10.061,23.1a98.756,98.756,0,0,0,6.781,8.011c.754.812,1.525,1.6,2.313,2.378.287.279,1.361,1.607,1.6,1.607s1.206-1.214,1.493-1.5c.762-.746,1.5-1.509,2.231-2.28a101.016,101.016,0,0,0,6.978-8.216c4.576-6.052,9.3-13.424,9.971-21.214A86.779,86.779,0,0,1,60.368,7.093C59.16,7.093,53.693,10.111,53.668,10.127Zm-30.127,3.92A4.047,4.047,0,1,1,19.5,18.1,4.049,4.049,0,0,1,23.541,14.046Z" fill="#efefef"/>
          </g>
        </g>
      </g>
      <g id="Group_291" data-name="Group 291" transform="matrix(-0.485, 0.875, -0.875, -0.485, 1238.405, 654.812)" opacity="0.934">
        <g id="Group_5-15" data-name="Group 5" transform="translate(0 0)">
          <g id="Group_4-15" data-name="Group 4" transform="translate(0 0)">
            <path id="Path_3-15" data-name="Path 3" d="M46.264,8.73A73.737,73.737,0,0,0,32.34,20.3c-.029.042-.05.085-.072.12A142.917,142.917,0,0,0,17.89,37.3c-5.775-15.345-16-16.992-16-16.992C11.125,10.567,19.7,24.592,19.7,24.592A98.247,98.247,0,0,1,35.025,12.766,17.887,17.887,0,0,0,0,17.9c0,7.316,4.41,14.278,8.673,19.912a85.131,85.131,0,0,0,5.845,6.906c.65.7,1.314,1.379,1.994,2.05.247.24,1.173,1.386,1.378,1.386s1.04-1.047,1.287-1.294c.657-.643,1.294-1.3,1.923-1.965a87.076,87.076,0,0,0,6.015-7.083c3.944-5.217,8.016-11.572,8.6-18.288A74.806,74.806,0,0,1,52.039,6.115C51,6.115,46.285,8.716,46.264,8.73ZM20.294,12.109A3.489,3.489,0,1,1,16.809,15.6,3.49,3.49,0,0,1,20.294,12.109Z" fill="#efefef"/>
          </g>
        </g>
      </g>
      <g id="Group_290" data-name="Group 290" transform="translate(1213.1 598.752) rotate(-159)" opacity="0.933">
        <g id="Group_5-16" data-name="Group 5" transform="translate(0)">
          <g id="Group_4-16" data-name="Group 4" transform="translate(0 0)">
            <path id="Path_3-16" data-name="Path 3" d="M36.581,6.9a58.3,58.3,0,0,0-11.01,9.149c-.023.033-.039.067-.057.1A113,113,0,0,0,14.145,29.494C9.579,17.36,1.492,16.058,1.492,16.058c7.3-7.7,14.084,3.387,14.084,3.387a77.683,77.683,0,0,1,12.117-9.35A14.143,14.143,0,0,0,0,14.152C0,19.936,3.487,25.442,6.858,29.9a67.317,67.317,0,0,0,4.622,5.46c.514.554,1.039,1.09,1.576,1.621.2.19.928,1.1,1.089,1.1s.822-.827,1.017-1.023c.52-.509,1.023-1.028,1.521-1.554a68.851,68.851,0,0,0,4.756-5.6c3.119-4.125,6.338-9.15,6.8-14.46a59.148,59.148,0,0,1,12.911-10.6C40.324,4.835,36.6,6.891,36.581,6.9ZM16.046,9.574a2.758,2.758,0,1,1-2.755,2.761A2.76,2.76,0,0,1,16.046,9.574Z" fill="#efefef"/>
          </g>
        </g>
      </g>
      <g id="Group_289" data-name="Group 289" transform="translate(1210.882 385.404) rotate(79)" opacity="0.852">
        <g id="Group_5-17" data-name="Group 5" transform="translate(0 0)">
          <g id="Group_4-17" data-name="Group 4" transform="translate(0 0)">
            <path id="Path_3-17" data-name="Path 3" d="M50.855,9.6c-5.152,3.069-10.512,7.825-15.306,12.72-.032.046-.055.093-.079.132A157.1,157.1,0,0,0,19.665,41C13.317,24.135,2.075,22.324,2.075,22.324c10.154-10.708,19.58,4.708,19.58,4.708a108,108,0,0,1,16.846-13A19.662,19.662,0,0,0,0,19.674c0,8.042,4.847,15.7,9.534,21.889a93.58,93.58,0,0,0,6.426,7.591c.715.77,1.445,1.515,2.191,2.254.272.264,1.29,1.523,1.515,1.523s1.143-1.15,1.414-1.422c.722-.707,1.422-1.43,2.114-2.16a95.724,95.724,0,0,0,6.612-7.785c4.336-5.735,8.811-12.721,9.449-20.1A82.23,82.23,0,0,1,57.2,6.721C56.059,6.721,50.878,9.581,50.855,9.6ZM22.307,13.31a3.835,3.835,0,1,1-3.83,3.839A3.836,3.836,0,0,1,22.307,13.31Z" fill="#efefef"/>
          </g>
        </g>
      </g>
      <g id="Group_288" data-name="Group 288" transform="matrix(-0.719, -0.695, 0.695, -0.719, 1238.536, 379.731)" opacity="0.872">
        <g id="Group_5-18" data-name="Group 5" transform="translate(0 0)">
          <g id="Group_4-18" data-name="Group 4" transform="translate(0 0)">
            <path id="Path_3-18" data-name="Path 3" d="M47.319,8.929c-4.794,2.856-9.781,7.281-14.242,11.835-.03.043-.051.087-.074.123A146.176,146.176,0,0,0,18.3,38.152C12.391,22.456,1.93,20.772,1.93,20.772c9.448-9.964,18.219,4.381,18.219,4.381a100.488,100.488,0,0,1,15.674-12.1A18.295,18.295,0,0,0,0,18.306c0,7.483,4.51,14.6,8.871,20.367a87.074,87.074,0,0,0,5.979,7.063c.665.716,1.344,1.41,2.039,2.1.253.246,1.2,1.417,1.409,1.417s1.063-1.07,1.316-1.323c.672-.658,1.323-1.33,1.967-2.01a89.063,89.063,0,0,0,6.152-7.244c4.034-5.336,8.2-11.836,8.792-18.7a76.512,76.512,0,0,1,16.7-13.714C52.161,6.254,47.34,8.915,47.319,8.929ZM20.756,12.385a3.568,3.568,0,1,1-3.564,3.572A3.57,3.57,0,0,1,20.756,12.385Z" fill="#efefef"/>
          </g>
        </g>
      </g>
      <g id="Group_287" data-name="Group 287" transform="translate(1353.041 290.463) rotate(140)" opacity="0.825">
        <g id="Group_5-19" data-name="Group 5" transform="translate(0 0)">
          <g id="Group_4-19" data-name="Group 4" transform="translate(0 0)">
            <path id="Path_3-19" data-name="Path 3" d="M44.611,8.418A71.1,71.1,0,0,0,31.184,19.576c-.028.041-.048.082-.069.116A137.809,137.809,0,0,0,17.251,35.968C11.682,21.171,1.82,19.583,1.82,19.583,10.727,10.189,19,23.713,19,23.713a94.737,94.737,0,0,1,14.777-11.4A17.247,17.247,0,0,0,0,17.259c0,7.054,4.252,13.768,8.363,19.2A82.086,82.086,0,0,0,14,43.118c.627.675,1.267,1.329,1.922,1.977.238.232,1.131,1.336,1.329,1.336s1-1.009,1.241-1.247c.634-.62,1.248-1.254,1.855-1.9a83.962,83.962,0,0,0,5.8-6.829c3.8-5.031,7.729-11.159,8.289-17.634A72.132,72.132,0,0,1,50.179,5.9C49.175,5.9,44.631,8.4,44.611,8.418ZM19.568,11.676a3.364,3.364,0,1,1-3.36,3.368A3.365,3.365,0,0,1,19.568,11.676Z" fill="#efefef"/>
          </g>
        </g>
      </g>
      <g id="Group_286" data-name="Group 286" transform="translate(1247.728 82.324) rotate(74)" opacity="0.914">
        <g id="Group_5-20" data-name="Group 5" transform="translate(0 0)">
          <g id="Group_4-20" data-name="Group 4" transform="translate(0 0)">
            <path id="Path_3-20" data-name="Path 3" d="M51.348,9.689c-5.2,3.1-10.614,7.9-15.455,12.843-.032.047-.055.094-.08.133A158.624,158.624,0,0,0,19.856,41.4c-6.41-17.032-17.761-18.86-17.761-18.86,10.253-10.812,19.77,4.754,19.77,4.754A109.045,109.045,0,0,1,38.874,14.169,19.852,19.852,0,0,0,0,19.865c0,8.12,4.894,15.847,9.626,22.1a94.491,94.491,0,0,0,6.488,7.665c.722.777,1.459,1.53,2.213,2.275.274.267,1.3,1.538,1.529,1.538s1.154-1.162,1.428-1.436c.729-.714,1.436-1.443,2.135-2.181A96.653,96.653,0,0,0,30.1,41.966c4.378-5.791,8.9-12.844,9.54-20.3A83.027,83.027,0,0,1,57.758,6.787C56.6,6.787,51.372,9.674,51.348,9.689Zm-28.825,3.75a3.872,3.872,0,1,1-3.868,3.876A3.874,3.874,0,0,1,22.524,13.439Z" fill="#efefef"/>
          </g>
        </g>
      </g>
      <g id="Group_285" data-name="Group 285" transform="matrix(-0.087, 0.996, -0.996, -0.087, 1105.506, 844.28)" opacity="0.823">
        <g id="Group_5-21" data-name="Group 5" transform="translate(0 0)">
          <g id="Group_4-21" data-name="Group 4" transform="translate(0 0)">
            <path id="Path_3-21" data-name="Path 3" d="M32.254,6.086a51.409,51.409,0,0,0-9.708,8.067c-.02.029-.035.059-.05.084A99.636,99.636,0,0,0,12.472,26.005C8.446,15.307,1.316,14.159,1.316,14.159c6.44-6.792,12.418,2.986,12.418,2.986A68.5,68.5,0,0,1,24.418,8.9,12.47,12.47,0,0,0,0,12.478c0,5.1,3.074,9.954,6.047,13.882a59.348,59.348,0,0,0,4.075,4.814c.453.488.916.961,1.39,1.429.172.168.818.966.961.966s.725-.73.9-.9c.458-.448.9-.907,1.341-1.37A60.705,60.705,0,0,0,18.9,26.361c2.75-3.637,5.588-8.068,5.993-12.75A52.153,52.153,0,0,1,36.28,4.263C35.555,4.263,32.269,6.076,32.254,6.086ZM14.148,8.442a2.432,2.432,0,1,1-2.429,2.435A2.433,2.433,0,0,1,14.148,8.442Z" fill="#efefef"/>
          </g>
        </g>
      </g>
      <g id="Group_284" data-name="Group 284" transform="matrix(-0.951, 0.309, -0.309, -0.951, 1170.444, 788.962)" opacity="0.949">
        <g id="Group_5-22" data-name="Group 5" transform="translate(0 0)">
          <g id="Group_4-22" data-name="Group 4" transform="translate(0 0)">
            <path id="Path_3-22" data-name="Path 3" d="M36.433,6.875a58.066,58.066,0,0,0-10.966,9.113c-.023.033-.039.067-.057.095A112.545,112.545,0,0,0,14.088,29.375C9.541,17.29,1.486,15.993,1.486,15.993c7.275-7.671,14.027,3.373,14.027,3.373a77.37,77.37,0,0,1,12.068-9.313A14.086,14.086,0,0,0,0,14.095c0,5.761,3.473,11.244,6.83,15.681a67.035,67.035,0,0,0,4.6,5.438c.512.551,1.035,1.086,1.57,1.615.195.189.924,1.091,1.085,1.091S14.907,37.1,15.1,36.9c.517-.507,1.019-1.024,1.515-1.548a68.569,68.569,0,0,0,4.737-5.577c3.106-4.109,6.313-9.113,6.769-14.4A58.91,58.91,0,0,1,40.981,4.815C40.161,4.815,36.449,6.864,36.433,6.875ZM15.981,9.535a2.747,2.747,0,1,1-2.744,2.75A2.748,2.748,0,0,1,15.981,9.535Z" fill="#efefef"/>
          </g>
        </g>
      </g>
      <g id="Group_282" data-name="Group 282" transform="translate(1123.399 584.63) rotate(-169)" opacity="0.948">
        <g id="Group_5-23" data-name="Group 5" transform="translate(0 0)">
          <g id="Group_4-23" data-name="Group 4" transform="translate(0 0)">
            <path id="Path_3-23" data-name="Path 3" d="M41.216,7.777A65.69,65.69,0,0,0,28.811,18.086c-.026.038-.044.076-.064.107A127.322,127.322,0,0,0,15.938,33.231C10.793,19.56,1.681,18.093,1.681,18.093c8.23-8.678,15.869,3.816,15.869,3.816A87.526,87.526,0,0,1,31.2,11.373,15.935,15.935,0,0,0,0,15.945c0,6.517,3.929,12.72,7.727,17.74a75.846,75.846,0,0,0,5.208,6.152c.579.624,1.171,1.228,1.776,1.826.22.214,1.045,1.234,1.228,1.234s.926-.932,1.146-1.152c.585-.573,1.153-1.159,1.713-1.751a77.578,77.578,0,0,0,5.359-6.31c3.514-4.648,7.141-10.31,7.658-16.292A66.644,66.644,0,0,1,46.361,5.447C45.433,5.447,41.234,7.765,41.216,7.777Zm-23.137,3.01a3.108,3.108,0,1,1-3.1,3.111A3.109,3.109,0,0,1,18.079,10.787Z" fill="#efefef"/>
          </g>
        </g>
      </g>
      <g id="Group_281" data-name="Group 281" transform="translate(1100.109 416.101) rotate(76)" opacity="0.962">
        <g id="Group_5-24" data-name="Group 5" transform="translate(0 0)">
          <g id="Group_4-24" data-name="Group 4" transform="translate(0 0)">
            <path id="Path_3-24" data-name="Path 3" d="M38.282,7.224A61.014,61.014,0,0,0,26.76,16.8c-.024.035-.041.07-.06.1A118.259,118.259,0,0,0,14.8,30.866C10.025,18.168,1.562,16.8,1.562,16.8,9.206,8.744,16.3,20.349,16.3,20.349a81.3,81.3,0,0,1,12.681-9.785A14.8,14.8,0,0,0,0,14.81c0,6.054,3.649,11.815,7.177,16.477A70.446,70.446,0,0,0,12.014,37c.538.579,1.087,1.141,1.65,1.7.2.2.971,1.146,1.14,1.146s.86-.866,1.065-1.07c.544-.532,1.071-1.076,1.591-1.626a72.057,72.057,0,0,0,4.977-5.861C25.7,26.97,29.07,21.712,29.55,16.155A61.9,61.9,0,0,1,43.061,5.06C42.2,5.06,38.3,7.212,38.282,7.224Zm-21.49,2.8a2.887,2.887,0,1,1-2.883,2.89A2.888,2.888,0,0,1,16.792,10.02Z" fill="#efefef"/>
          </g>
        </g>
      </g>
      <g id="Group_280" data-name="Group 280" transform="matrix(0.208, 0.978, -0.978, 0.208, 1093.425, 331.928)" opacity="0.968">
        <g id="Group_5-25" data-name="Group 5" transform="translate(0 0)">
          <g id="Group_4-25" data-name="Group 4" transform="translate(0 0)">
            <path id="Path_3-25" data-name="Path 3" d="M36.776,6.939a58.615,58.615,0,0,0-11.069,9.2c-.023.033-.04.068-.057.1A113.608,113.608,0,0,0,14.221,29.651C9.63,17.453,1.5,16.144,1.5,16.144c7.343-7.744,14.16,3.4,14.16,3.4a78.1,78.1,0,0,1,12.182-9.4A14.218,14.218,0,0,0,0,14.228c0,5.815,3.505,11.35,6.894,15.829a67.675,67.675,0,0,0,4.647,5.489c.517.557,1.045,1.1,1.585,1.63.2.191.933,1.1,1.1,1.1s.826-.832,1.023-1.028c.522-.511,1.028-1.034,1.529-1.562a69.221,69.221,0,0,0,4.782-5.63c3.135-4.147,6.372-9.2,6.833-14.537A59.465,59.465,0,0,1,41.367,4.861C40.539,4.861,36.793,6.928,36.776,6.939ZM16.132,9.625a2.773,2.773,0,1,1-2.77,2.776A2.774,2.774,0,0,1,16.132,9.625Z" fill="#efefef"/>
          </g>
        </g>
      </g>
      <g id="Group_278" data-name="Group 278" transform="matrix(-0.978, 0.208, -0.208, -0.978, 1094.122, 170.438)" opacity="0.936">
        <g id="Group_5-26" data-name="Group 5">
          <g id="Group_4-26" data-name="Group 4" transform="translate(0 0)">
            <path id="Path_3-26" data-name="Path 3" d="M39.316,7.419a62.663,62.663,0,0,0-11.833,9.834c-.025.036-.042.072-.061.1A121.453,121.453,0,0,0,15.2,31.7C10.3,18.658,1.6,17.259,1.6,17.259,9.454,8.98,16.741,20.9,16.741,20.9a83.494,83.494,0,0,1,13.023-10.05A15.2,15.2,0,0,0,0,15.21c0,6.217,3.748,12.134,7.371,16.922A72.342,72.342,0,0,0,12.338,38c.553.6,1.117,1.172,1.694,1.742.21.2,1,1.177,1.171,1.177s.883-.889,1.093-1.1c.558-.547,1.1-1.105,1.634-1.67a74,74,0,0,0,5.112-6.019c3.352-4.434,6.812-9.834,7.3-15.541A63.572,63.572,0,0,1,44.224,5.2C43.339,5.2,39.334,7.407,39.316,7.419ZM17.246,10.29a2.965,2.965,0,1,1-2.961,2.968A2.966,2.966,0,0,1,17.246,10.29Z" fill="#efefef"/>
          </g>
        </g>
      </g>
      <g id="Group_276" data-name="Group 276" transform="translate(967.39 719.558) rotate(51)" opacity="0.829">
        <g id="Group_5-27" data-name="Group 5" transform="translate(0 0)">
          <g id="Group_4-27" data-name="Group 4" transform="translate(0 0)">
            <path id="Path_3-27" data-name="Path 3" d="M31.591,5.961a50.35,50.35,0,0,0-9.508,7.9c-.02.029-.034.058-.049.082a97.589,97.589,0,0,0-9.818,11.526c-3.943-10.478-10.927-11.6-10.927-11.6C7.6,7.216,13.452,16.793,13.452,16.793A67.088,67.088,0,0,1,23.916,8.718,12.214,12.214,0,0,0,0,12.222c0,5,3.011,9.75,5.922,13.6a58.13,58.13,0,0,0,3.992,4.716c.444.478.9.941,1.361,1.4.169.164.8.946.941.946s.71-.715.879-.883c.449-.439.883-.888,1.313-1.342a59.454,59.454,0,0,0,4.107-4.836c2.693-3.563,5.474-7.9,5.87-12.488a51.082,51.082,0,0,1,11.15-9.156C34.824,4.175,31.605,5.952,31.591,5.961ZM13.857,8.268a2.382,2.382,0,1,1-2.38,2.385A2.383,2.383,0,0,1,13.857,8.268Z" fill="#efefef"/>
          </g>
        </g>
      </g>
      <g id="Group_275" data-name="Group 275" transform="translate(1034.52 666.755) rotate(98)" opacity="0.86">
        <g id="Group_5-28" data-name="Group 5" transform="translate(0 0)">
          <g id="Group_4-28" data-name="Group 4" transform="translate(0 0)">
            <path id="Path_3-28" data-name="Path 3" d="M40.7,7.68a64.869,64.869,0,0,0-12.25,10.18c-.026.037-.044.075-.063.106a125.725,125.725,0,0,0-12.648,14.85C10.658,19.315,1.66,17.866,1.66,17.866c8.127-8.57,15.67,3.768,15.67,3.768a86.432,86.432,0,0,1,13.482-10.4A15.735,15.735,0,0,0,0,15.745c0,6.436,3.879,12.561,7.63,17.517a74.886,74.886,0,0,0,5.142,6.075c.572.616,1.156,1.213,1.754,1.8.217.211,1.032,1.219,1.212,1.219s.915-.921,1.132-1.138c.578-.566,1.138-1.144,1.692-1.729a76.6,76.6,0,0,0,5.292-6.231c3.47-4.59,7.052-10.18,7.562-16.088A65.808,65.808,0,0,1,45.78,5.379C44.864,5.379,40.718,7.667,40.7,7.68ZM17.853,10.652a3.069,3.069,0,1,1-3.066,3.072A3.07,3.07,0,0,1,17.853,10.652Z" fill="#efefef"/>
          </g>
        </g>
      </g>
      <g id="Group_274" data-name="Group 274" transform="matrix(0.017, 1, -1, 0.017, 949.155, 506.494)" opacity="0.8">
        <g id="Group_5-29" data-name="Group 5" transform="translate(0 0)">
          <g id="Group_4-29" data-name="Group 4" transform="translate(0 0)">
            <path id="Path_3-29" data-name="Path 3" d="M41.538,7.838a66.2,66.2,0,0,0-12.5,10.389c-.026.038-.045.076-.065.108A128.319,128.319,0,0,0,16.063,33.491C10.877,19.713,1.695,18.234,1.695,18.234,9.989,9.488,17.688,22.08,17.688,22.08A88.212,88.212,0,0,1,31.447,11.462,16.06,16.06,0,0,0,0,16.07c0,6.568,3.959,12.82,7.787,17.879a76.443,76.443,0,0,0,5.248,6.2c.584.629,1.18,1.238,1.79,1.841.222.216,1.054,1.244,1.237,1.244s.933-.94,1.155-1.161c.59-.578,1.162-1.168,1.727-1.765a78.186,78.186,0,0,0,5.4-6.359c3.541-4.684,7.2-10.39,7.718-16.42A67.165,67.165,0,0,1,46.724,5.49C45.789,5.49,41.557,7.826,41.538,7.838ZM18.221,10.872a3.132,3.132,0,1,1-3.129,3.136A3.134,3.134,0,0,1,18.221,10.872Z" fill="#efefef"/>
          </g>
        </g>
      </g>
      <g id="Group_273" data-name="Group 273" transform="translate(954.623 380.055) rotate(106)" opacity="0.823">
        <g id="Group_5-30" data-name="Group 5" transform="translate(0)">
          <g id="Group_4-30" data-name="Group 4" transform="translate(0 0)">
            <path id="Path_3-30" data-name="Path 3" d="M41.489,7.829A66.126,66.126,0,0,0,29,18.206c-.026.038-.045.076-.064.108A128.164,128.164,0,0,0,16.044,33.451C10.865,19.69,1.693,18.213,1.693,18.213c8.284-8.736,15.974,3.841,15.974,3.841a88.109,88.109,0,0,1,13.743-10.6A16.04,16.04,0,0,0,0,16.051c0,6.561,3.955,12.8,7.778,17.857A76.349,76.349,0,0,0,13.02,40.1c.583.628,1.179,1.236,1.788,1.839.222.216,1.052,1.243,1.236,1.243s.932-.939,1.154-1.16c.589-.577,1.16-1.166,1.725-1.762a78.091,78.091,0,0,0,5.394-6.351c3.537-4.679,7.189-10.378,7.709-16.4A67.085,67.085,0,0,1,46.668,5.484C45.734,5.484,41.508,7.816,41.489,7.829ZM18.2,10.859a3.128,3.128,0,1,1-3.125,3.132A3.13,3.13,0,0,1,18.2,10.859Z" fill="#efefef"/>
          </g>
        </g>
      </g>
      <g id="Group_272" data-name="Group 272" transform="matrix(0.985, 0.174, -0.174, 0.985, 956.294, 290.463)" opacity="0.837">
        <g id="Group_5-31" data-name="Group 5">
          <g id="Group_4-31" data-name="Group 4" transform="translate(0 0)">
            <path id="Path_3-31" data-name="Path 3" d="M46.007,8.681A73.326,73.326,0,0,0,32.16,20.188c-.029.042-.05.084-.072.119a142.119,142.119,0,0,0-14.3,16.786C12.048,21.834,1.877,20.2,1.877,20.2c9.186-9.687,17.714,4.259,17.714,4.259A97.7,97.7,0,0,1,34.83,12.7,17.787,17.787,0,0,0,0,17.8C0,25.074,4.385,32,8.625,37.6a84.658,84.658,0,0,0,5.813,6.867c.647.7,1.307,1.371,1.983,2.039.246.239,1.167,1.378,1.37,1.378s1.034-1.041,1.279-1.286c.653-.64,1.287-1.293,1.913-1.954A86.582,86.582,0,0,0,26.964,37.6c3.922-5.188,7.971-11.508,8.548-18.186A74.39,74.39,0,0,1,51.75,6.081C50.714,6.081,46.027,8.667,46.007,8.681Zm-25.826,3.36a3.469,3.469,0,1,1-3.465,3.473A3.471,3.471,0,0,1,20.181,12.041Z" fill="#efefef"/>
          </g>
        </g>
      </g>
      <g id="Group_271" data-name="Group 271" transform="matrix(0.978, 0.208, -0.208, 0.978, 957.066, 156.092)" opacity="0.924">
        <g id="Group_5-32" data-name="Group 5">
          <g id="Group_4-32" data-name="Group 4" transform="translate(0 0)">
            <path id="Path_3-32" data-name="Path 3" d="M42.806,8.077A68.224,68.224,0,0,0,29.923,18.784c-.027.039-.046.079-.067.111a132.235,132.235,0,0,0-13.3,15.618C11.21,20.315,1.746,18.791,1.746,18.791c8.547-9.013,16.481,3.963,16.481,3.963A90.9,90.9,0,0,1,32.407,11.812,16.55,16.55,0,0,0,0,16.561c0,6.769,4.08,13.211,8.025,18.424a78.773,78.773,0,0,0,5.409,6.39c.6.648,1.216,1.276,1.845,1.9.229.222,1.086,1.282,1.275,1.282s.962-.968,1.19-1.2c.608-.6,1.2-1.2,1.78-1.818a80.569,80.569,0,0,0,5.566-6.553c3.65-4.827,7.417-10.707,7.953-16.921A69.215,69.215,0,0,1,48.15,5.658C47.187,5.658,42.826,8.064,42.806,8.077ZM18.777,11.2a3.228,3.228,0,1,1-3.224,3.231A3.229,3.229,0,0,1,18.777,11.2Z" fill="#efefef"/>
          </g>
        </g>
      </g>
      <g id="Group_269" data-name="Group 269" transform="matrix(-0.848, 0.53, -0.53, -0.848, 879.194, 877.437)" opacity="0.994">
        <g id="Group_5-33" data-name="Group 5" transform="translate(0 0)">
          <g id="Group_4-33" data-name="Group 4" transform="translate(0 0)">
            <path id="Path_3-33" data-name="Path 3" d="M39.123,7.382a62.355,62.355,0,0,0-11.775,9.785c-.025.036-.042.072-.061.1A120.857,120.857,0,0,0,15.129,31.543C10.245,18.567,1.6,17.174,1.6,17.174,9.408,8.936,16.659,20.8,16.659,20.8a83.084,83.084,0,0,1,12.959-10A15.126,15.126,0,0,0,0,15.136C0,21.322,3.729,27.21,7.334,31.974a71.991,71.991,0,0,0,4.943,5.84c.55.592,1.111,1.166,1.686,1.734.209.2.992,1.172,1.165,1.172s.879-.885,1.088-1.094c.556-.544,1.094-1.1,1.626-1.662a73.637,73.637,0,0,0,5.087-5.989c3.336-4.412,6.779-9.786,7.269-15.465A63.26,63.26,0,0,1,44.007,5.171C43.126,5.171,39.141,7.37,39.123,7.382ZM17.161,10.24a2.95,2.95,0,1,1-2.947,2.953A2.951,2.951,0,0,1,17.161,10.24Z" fill="#efefef"/>
          </g>
        </g>
      </g>
      <g id="Group_268" data-name="Group 268" transform="matrix(-0.407, 0.914, -0.914, -0.407, 808.233, 765.788)" opacity="0.929">
        <g id="Group_5-34" data-name="Group 5" transform="translate(0 0)">
          <g id="Group_4-34" data-name="Group 4" transform="translate(0 0)">
            <path id="Path_3-34" data-name="Path 3" d="M31.614,5.965A50.387,50.387,0,0,0,22.1,13.873c-.02.029-.034.058-.049.082a97.661,97.661,0,0,0-9.825,11.535C8.279,15,1.29,13.878,1.29,13.878,7.6,7.221,13.462,16.8,13.462,16.8A67.137,67.137,0,0,1,23.934,8.724,12.223,12.223,0,0,0,0,12.231c0,5,3.013,9.757,5.927,13.607a58.178,58.178,0,0,0,3.994,4.719c.444.478.9.942,1.362,1.4.169.164.8.947.942.947s.71-.715.879-.884c.449-.44.884-.889,1.314-1.343a59.5,59.5,0,0,0,4.11-4.84c2.7-3.565,5.478-7.908,5.874-12.5A51.119,51.119,0,0,1,35.56,4.178C34.849,4.178,31.628,5.956,31.614,5.965ZM13.867,8.274a2.384,2.384,0,1,1-2.381,2.386A2.385,2.385,0,0,1,13.867,8.274Z" fill="#efefef"/>
          </g>
        </g>
      </g>
      <g id="Group_267" data-name="Group 267" transform="matrix(-0.799, 0.602, -0.602, -0.799, 857.702, 686.805)" opacity="0.906">
        <g id="Group_5-35" data-name="Group 5" transform="translate(0 0)">
          <g id="Group_4-35" data-name="Group 4" transform="translate(0 0)">
            <path id="Path_3-35" data-name="Path 3" d="M40.464,7.635A64.492,64.492,0,0,0,28.285,17.756c-.025.037-.044.074-.063.105A125,125,0,0,0,15.647,32.625c-5.051-13.422-14-14.862-14-14.862,8.08-8.52,15.58,3.746,15.58,3.746a85.932,85.932,0,0,1,13.4-10.343A15.644,15.644,0,0,0,0,15.655c0,6.4,3.857,12.488,7.586,17.416a74.464,74.464,0,0,0,5.113,6.04c.569.612,1.149,1.206,1.744,1.793.216.21,1.026,1.212,1.205,1.212s.909-.915,1.125-1.131c.575-.563,1.132-1.137,1.682-1.719a76.16,76.16,0,0,0,5.261-6.195c3.45-4.563,7.011-10.122,7.518-16A65.429,65.429,0,0,1,45.516,5.348C44.605,5.348,40.483,7.623,40.464,7.635ZM17.75,10.591A3.051,3.051,0,1,1,14.7,13.645,3.053,3.053,0,0,1,17.75,10.591Z" fill="#efefef"/>
          </g>
        </g>
      </g>
      <g id="Group_266" data-name="Group 266" transform="matrix(0.848, 0.53, -0.53, 0.848, 769.058, 557.693)" opacity="0.835">
        <g id="Group_5-36" data-name="Group 5" transform="translate(0)">
          <g id="Group_4-36" data-name="Group 4" transform="translate(0 0)">
            <path id="Path_3-36" data-name="Path 3" d="M34.727,6.553a55.348,55.348,0,0,0-10.452,8.686c-.022.032-.037.064-.054.09A107.278,107.278,0,0,0,13.429,28C9.094,16.481,1.417,15.244,1.417,15.244,8.351,7.932,14.787,18.46,14.787,18.46a73.749,73.749,0,0,1,11.5-8.877A13.426,13.426,0,0,0,0,13.435c0,5.491,3.31,10.718,6.51,14.947A63.9,63.9,0,0,0,10.9,33.566c.488.526.986,1.035,1.5,1.539.185.18.881,1.04,1.034,1.04s.78-.786.966-.971c.493-.483.971-.976,1.444-1.475a65.365,65.365,0,0,0,4.515-5.316c2.961-3.916,6.017-8.687,6.452-13.727A56.152,56.152,0,0,1,39.062,4.59C38.281,4.59,34.743,6.542,34.727,6.553ZM15.233,9.089a2.619,2.619,0,1,1-2.616,2.621A2.62,2.62,0,0,1,15.233,9.089Z" fill="#efefef"/>
          </g>
        </g>
      </g>
      <g id="Group_264" data-name="Group 264" transform="matrix(0.951, 0.309, -0.309, 0.951, 839.163, 295.209)" opacity="0.885">
        <g id="Group_5-37" data-name="Group 5" transform="translate(0 0)">
          <g id="Group_4-37" data-name="Group 4" transform="translate(0 0)">
            <path id="Path_3-37" data-name="Path 3" d="M36.78,6.94a58.621,58.621,0,0,0-11.07,9.2c-.023.033-.04.068-.057.1a113.618,113.618,0,0,0-11.43,13.419C9.631,17.455,1.5,16.145,1.5,16.145,8.844,8.4,15.661,19.55,15.661,19.55a78.106,78.106,0,0,1,12.183-9.4A14.22,14.22,0,0,0,0,14.229c0,5.816,3.506,11.351,6.9,15.83a67.68,67.68,0,0,0,4.647,5.49c.517.557,1.045,1.1,1.585,1.63.2.191.933,1.1,1.1,1.1s.826-.832,1.023-1.028c.522-.511,1.029-1.034,1.529-1.562a69.22,69.22,0,0,0,4.782-5.631c3.136-4.148,6.373-9.2,6.834-14.539A59.471,59.471,0,0,1,41.371,4.861C40.543,4.861,36.8,6.929,36.78,6.94ZM16.133,9.626a2.773,2.773,0,1,1-2.77,2.776A2.775,2.775,0,0,1,16.133,9.626Z" fill="#efefef"/>
          </g>
        </g>
      </g>
      <g id="Group_322" data-name="Group 322" transform="matrix(0.951, 0.309, -0.309, 0.951, 849.529, 418.799)" opacity="0.885">
        <g id="Group_5-38" data-name="Group 5" transform="translate(0 0)">
          <g id="Group_4-38" data-name="Group 4" transform="translate(0 0)">
            <path id="Path_3-38" data-name="Path 3" d="M36.78,6.94a58.621,58.621,0,0,0-11.07,9.2c-.023.033-.04.068-.057.1a113.618,113.618,0,0,0-11.43,13.419C9.631,17.455,1.5,16.145,1.5,16.145,8.844,8.4,15.661,19.55,15.661,19.55a78.106,78.106,0,0,1,12.183-9.4A14.22,14.22,0,0,0,0,14.229c0,5.816,3.506,11.351,6.9,15.83a67.68,67.68,0,0,0,4.647,5.49c.517.557,1.045,1.1,1.585,1.63.2.191.933,1.1,1.1,1.1s.826-.832,1.023-1.028c.522-.511,1.029-1.034,1.529-1.562a69.22,69.22,0,0,0,4.782-5.631c3.136-4.148,6.373-9.2,6.834-14.539A59.471,59.471,0,0,1,41.371,4.861C40.543,4.861,36.8,6.929,36.78,6.94ZM16.133,9.626a2.773,2.773,0,1,1-2.77,2.776A2.775,2.775,0,0,1,16.133,9.626Z" fill="#efefef"/>
          </g>
        </g>
      </g>
      <g id="Group_263" data-name="Group 263" transform="translate(856.092 263.023) rotate(141)" opacity="0.993">
        <g id="Group_5-39" data-name="Group 5" transform="translate(0 0)">
          <g id="Group_4-39" data-name="Group 4" transform="translate(0 0)">
            <path id="Path_3-39" data-name="Path 3" d="M30.291,5.716a48.276,48.276,0,0,0-9.117,7.576c-.019.028-.033.056-.047.079a93.572,93.572,0,0,0-9.413,11.052C7.932,14.375,1.236,13.3,1.236,13.3,7.284,6.919,12.9,16.1,12.9,16.1A64.326,64.326,0,0,1,22.932,8.359,11.711,11.711,0,0,0,0,11.719c0,4.79,2.887,9.348,5.679,13.037a55.744,55.744,0,0,0,3.827,4.521c.426.458.86.9,1.305,1.342.162.157.768.907.9.907s.681-.685.842-.847c.43-.421.847-.851,1.259-1.287a57.006,57.006,0,0,0,3.938-4.637C20.336,21.34,23,17.179,23.381,12.782A48.978,48.978,0,0,1,34.072,4,20.048,20.048,0,0,0,30.291,5.716Zm-17,2.212a2.284,2.284,0,1,1-2.281,2.287A2.285,2.285,0,0,1,13.287,7.928Z" fill="#efefef"/>
          </g>
        </g>
      </g>
      <g id="Group_262" data-name="Group 262" transform="translate(850.249 135.987) rotate(93)" opacity="0.819">
        <g id="Group_5-40" data-name="Group 5" transform="translate(0 0)">
          <g id="Group_4-40" data-name="Group 4" transform="translate(0 0)">
            <path id="Path_3-40" data-name="Path 3" d="M28.953,5.463A46.145,46.145,0,0,0,20.239,12.7c-.018.026-.031.053-.045.075a89.44,89.44,0,0,0-9,10.564C7.582,13.74,1.181,12.71,1.181,12.71c5.781-6.1,11.148,2.681,11.148,2.681a61.486,61.486,0,0,1,9.591-7.4A11.194,11.194,0,0,0,0,11.2c0,4.578,2.76,8.936,5.428,12.462a53.284,53.284,0,0,0,3.658,4.322c.407.438.822.863,1.248,1.283.155.15.734.867.862.867s.651-.655.805-.81c.411-.4.81-.814,1.2-1.23a54.5,54.5,0,0,0,3.764-4.432c2.468-3.265,5.016-7.242,5.379-11.445A46.816,46.816,0,0,1,32.567,3.827,19.163,19.163,0,0,0,28.953,5.463ZM12.7,7.578a2.183,2.183,0,1,1-2.181,2.186A2.184,2.184,0,0,1,12.7,7.578Z" fill="#efefef"/>
          </g>
        </g>
      </g>
      <g id="Group_261" data-name="Group 261" transform="matrix(0.921, 0.391, -0.391, 0.921, 549.772, 795.445)" opacity="0.838">
        <g id="Group_5-41" data-name="Group 5">
          <g id="Group_4-41" data-name="Group 4" transform="translate(0 0)">
            <path id="Path_3-41" data-name="Path 3" d="M48.317,9.117c-4.9,2.916-9.988,7.434-14.542,12.085-.03.044-.052.089-.075.125A149.255,149.255,0,0,0,18.684,38.956C12.652,22.93,1.971,21.21,1.971,21.21c9.647-10.174,18.6,4.473,18.6,4.473a102.607,102.607,0,0,1,16-12.35A18.68,18.68,0,0,0,0,18.692c0,7.64,4.605,14.912,9.058,20.8a88.908,88.908,0,0,0,6.1,7.212c.679.731,1.372,1.44,2.082,2.141.258.251,1.225,1.447,1.439,1.447s1.086-1.093,1.344-1.351c.686-.672,1.351-1.358,2.009-2.052a90.938,90.938,0,0,0,6.282-7.4c4.119-5.449,8.371-12.086,8.977-19.1a78.124,78.124,0,0,1,17.053-14C53.261,6.386,48.338,9.1,48.317,9.117ZM21.194,12.646a3.643,3.643,0,1,1-3.639,3.647A3.645,3.645,0,0,1,21.194,12.646Z" fill="#efefef"/>
          </g>
        </g>
      </g>
      <g id="Group_260" data-name="Group 260" transform="matrix(0.574, 0.819, -0.819, 0.574, 698.635, 753.979)" opacity="0.831">
        <g id="Group_5-42" data-name="Group 5" transform="translate(0 0)">
          <g id="Group_4-42" data-name="Group 4" transform="translate(0 0)">
            <path id="Path_3-42" data-name="Path 3" d="M51.871,9.788c-5.255,3.131-10.722,7.981-15.612,12.974-.033.047-.056.1-.081.135a160.237,160.237,0,0,0-16.12,18.926C13.583,24.617,2.116,22.77,2.116,22.77c10.357-10.922,19.971,4.8,19.971,4.8A110.157,110.157,0,0,1,39.27,14.314,20.054,20.054,0,0,0,0,20.067c0,8.2,4.944,16.009,9.724,22.326a95.449,95.449,0,0,0,6.554,7.743c.729.785,1.473,1.546,2.235,2.3.277.269,1.316,1.553,1.545,1.553s1.166-1.173,1.443-1.45c.737-.721,1.451-1.458,2.156-2.2A97.635,97.635,0,0,0,30.4,42.393c4.422-5.85,8.987-12.975,9.638-20.5A83.873,83.873,0,0,1,58.346,6.856C57.179,6.856,51.895,9.772,51.871,9.788ZM22.753,13.576a3.911,3.911,0,1,1-3.907,3.916A3.913,3.913,0,0,1,22.753,13.576Z" fill="#efefef"/>
          </g>
        </g>
      </g>
      <g id="Group_259" data-name="Group 259" transform="matrix(-0.105, -0.995, 0.995, -0.105, 537.187, 730.57)" opacity="0.94">
        <g id="Group_5-43" data-name="Group 5" transform="translate(0 0)">
          <g id="Group_4-43" data-name="Group 4" transform="translate(0 0)">
            <path id="Path_3-43" data-name="Path 3" d="M41.559,7.842A66.238,66.238,0,0,0,29.051,18.237c-.026.038-.045.076-.065.108A128.382,128.382,0,0,0,16.071,33.508C10.883,19.723,1.7,18.243,1.7,18.243c8.3-8.751,16,3.848,16,3.848A88.256,88.256,0,0,1,31.463,11.468,16.068,16.068,0,0,0,0,16.078C0,22.65,3.961,28.9,7.791,33.965a76.472,76.472,0,0,0,5.251,6.2c.584.629,1.181,1.238,1.791,1.842.222.216,1.054,1.245,1.238,1.245s.934-.94,1.156-1.162c.59-.578,1.162-1.168,1.728-1.765a78.221,78.221,0,0,0,5.4-6.362c3.543-4.687,7.2-10.4,7.722-16.428A67.2,67.2,0,0,1,46.747,5.493C45.812,5.493,41.578,7.829,41.559,7.842ZM18.23,10.877a3.134,3.134,0,1,1-3.13,3.137A3.135,3.135,0,0,1,18.23,10.877Z" fill="#efefef"/>
          </g>
        </g>
      </g>
      <g id="Group_258" data-name="Group 258" transform="matrix(-0.951, 0.309, -0.309, -0.951, 620.253, 602.113)" opacity="0.812">
        <g id="Group_5-44" data-name="Group 5" transform="translate(0 0)">
          <g id="Group_4-44" data-name="Group 4" transform="translate(0 0)">
            <path id="Path_3-44" data-name="Path 3" d="M28.825,5.439a45.941,45.941,0,0,0-8.676,7.21c-.018.026-.031.053-.045.075a89.044,89.044,0,0,0-8.958,10.517c-3.6-9.561-9.97-10.587-9.97-10.587,5.755-6.069,11.1,2.669,11.1,2.669a61.214,61.214,0,0,1,9.548-7.368A11.144,11.144,0,0,0,0,11.152c0,4.558,2.748,8.9,5.4,12.407a53.043,53.043,0,0,0,3.642,4.3c.405.436.819.859,1.242,1.277.154.15.731.863.858.863s.648-.652.8-.806c.409-.4.806-.81,1.2-1.224a54.261,54.261,0,0,0,3.748-4.413c2.458-3.251,4.994-7.21,5.356-11.394A46.609,46.609,0,0,1,32.423,3.81,19.078,19.078,0,0,0,28.825,5.439ZM12.644,7.544A2.174,2.174,0,1,1,10.473,9.72,2.174,2.174,0,0,1,12.644,7.544Z" fill="#efefef"/>
          </g>
        </g>
      </g>
      <g id="Group_256" data-name="Group 256" transform="matrix(-0.848, 0.53, -0.53, -0.848, 698.435, 311.664)" opacity="0.809">
        <g id="Group_5-45" data-name="Group 5" transform="translate(0)">
          <g id="Group_4-45" data-name="Group 4" transform="translate(0 0)">
            <path id="Path_3-45" data-name="Path 3" d="M35.466,6.692a56.526,56.526,0,0,0-10.675,8.871c-.022.032-.038.065-.055.092a109.557,109.557,0,0,0-11.022,12.94C9.287,16.831,1.447,15.569,1.447,15.569,8.528,8.1,15.1,18.852,15.1,18.852A75.319,75.319,0,0,1,26.85,9.787,13.712,13.712,0,0,0,0,13.721c0,5.608,3.381,10.946,6.649,15.265a65.264,65.264,0,0,0,4.481,5.294c.5.537,1.007,1.057,1.528,1.572.189.184.9,1.062,1.056,1.062s.8-.8.986-.992c.5-.493.992-1,1.474-1.507a66.751,66.751,0,0,0,4.611-5.429c3.024-4,6.145-8.871,6.59-14.019A57.346,57.346,0,0,1,39.893,4.688C39.1,4.688,35.482,6.681,35.466,6.692ZM15.557,9.282a2.674,2.674,0,1,1-2.671,2.677A2.675,2.675,0,0,1,15.557,9.282Z" fill="#efefef"/>
          </g>
        </g>
      </g>
      <g id="Group_320" data-name="Group 320" transform="matrix(-0.848, 0.53, -0.53, -0.848, 609.929, 341.964)" opacity="0.809">
        <g id="Group_5-46" data-name="Group 5" transform="translate(0)">
          <g id="Group_4-46" data-name="Group 4" transform="translate(0 0)">
            <path id="Path_3-46" data-name="Path 3" d="M35.466,6.692a56.526,56.526,0,0,0-10.675,8.871c-.022.032-.038.065-.055.092a109.557,109.557,0,0,0-11.022,12.94C9.287,16.831,1.447,15.569,1.447,15.569,8.528,8.1,15.1,18.852,15.1,18.852A75.319,75.319,0,0,1,26.85,9.787,13.712,13.712,0,0,0,0,13.721c0,5.608,3.381,10.946,6.649,15.265a65.264,65.264,0,0,0,4.481,5.294c.5.537,1.007,1.057,1.528,1.572.189.184.9,1.062,1.056,1.062s.8-.8.986-.992c.5-.493.992-1,1.474-1.507a66.751,66.751,0,0,0,4.611-5.429c3.024-4,6.145-8.871,6.59-14.019A57.346,57.346,0,0,1,39.893,4.688C39.1,4.688,35.482,6.681,35.466,6.692ZM15.557,9.282a2.674,2.674,0,1,1-2.671,2.677A2.675,2.675,0,0,1,15.557,9.282Z" fill="#efefef"/>
          </g>
        </g>
      </g>
      <g id="Group_321" data-name="Group 321" transform="matrix(-0.848, 0.53, -0.53, -0.848, 698.641, 470.263)" opacity="0.809">
        <g id="Group_5-47" data-name="Group 5" transform="translate(0)">
          <g id="Group_4-47" data-name="Group 4" transform="translate(0 0)">
            <path id="Path_3-47" data-name="Path 3" d="M51.629,9.742C46.4,12.858,40.957,17.686,36.09,22.655c-.033.047-.056.095-.08.134A159.489,159.489,0,0,0,19.965,41.627C13.52,24.5,2.106,22.664,2.106,22.664c10.309-10.871,19.878,4.78,19.878,4.78a109.643,109.643,0,0,1,17.1-13.2A19.961,19.961,0,0,0,0,19.974C0,28.138,4.921,35.908,9.679,42.2A95.007,95.007,0,0,0,16.2,49.9c.726.781,1.467,1.538,2.225,2.288.276.268,1.31,1.546,1.538,1.546s1.16-1.168,1.436-1.444c.733-.718,1.444-1.451,2.146-2.193a97.167,97.167,0,0,0,6.713-7.9c4.4-5.822,8.945-12.914,9.593-20.408A83.481,83.481,0,0,1,58.074,6.824C56.912,6.824,51.652,9.726,51.629,9.742ZM22.647,13.513a3.893,3.893,0,1,1-3.889,3.9A3.895,3.895,0,0,1,22.647,13.513Z" fill="#efefef"/>
          </g>
        </g>
      </g>
      <g id="Group_255" data-name="Group 255" transform="translate(726.365 137.861) rotate(90)" opacity="0.894">
        <g id="Group_5-48" data-name="Group 5" transform="translate(0 0)">
          <g id="Group_4-48" data-name="Group 4" transform="translate(0 0)">
            <path id="Path_3-48" data-name="Path 3" d="M32.123,6.061A51.2,51.2,0,0,0,22.455,14.1c-.02.029-.035.059-.05.083A99.233,99.233,0,0,0,12.422,25.9C8.412,15.245,1.31,14.1,1.31,14.1c6.414-6.764,12.368,2.974,12.368,2.974A68.218,68.218,0,0,1,24.319,8.864,12.419,12.419,0,0,0,0,12.428c0,5.08,3.062,9.914,6.022,13.826a59.111,59.111,0,0,0,4.059,4.795c.452.486.913.957,1.384,1.424.172.167.815.962.957.962s.722-.727.893-.9c.456-.447.9-.9,1.335-1.365a60.462,60.462,0,0,0,4.177-4.918c2.739-3.623,5.566-8.035,5.968-12.7a51.941,51.941,0,0,1,11.338-9.31C35.41,4.246,32.138,6.052,32.123,6.061ZM14.091,8.408a2.422,2.422,0,1,1-2.42,2.425A2.423,2.423,0,0,1,14.091,8.408Z" fill="#efefef"/>
          </g>
        </g>
      </g>
      <g id="Group_254" data-name="Group 254" transform="matrix(-0.875, -0.485, 0.485, -0.875, 631.256, 218.519)" opacity="0.926">
        <g id="Group_5-49" data-name="Group 5" transform="translate(0)">
          <g id="Group_4-49" data-name="Group 4" transform="translate(0 0)">
            <path id="Path_3-49" data-name="Path 3" d="M28.169,5.315a44.9,44.9,0,0,0-8.478,7.046c-.018.026-.03.052-.044.073a87.018,87.018,0,0,0-8.754,10.278C7.377,13.369,1.149,12.366,1.149,12.366c5.625-5.931,10.846,2.608,10.846,2.608a59.824,59.824,0,0,1,9.331-7.2A10.891,10.891,0,0,0,0,10.9c0,4.454,2.685,8.694,5.281,12.124a51.836,51.836,0,0,0,3.559,4.2c.4.426.8.839,1.214,1.248.15.146.714.844.839.844s.633-.637.783-.788c.4-.392.788-.792,1.171-1.2a53.019,53.019,0,0,0,3.663-4.312c2.4-3.177,4.881-7.046,5.234-11.135a45.549,45.549,0,0,1,9.942-8.164A18.645,18.645,0,0,0,28.169,5.315ZM12.356,7.373A2.124,2.124,0,1,1,10.235,9.5,2.125,2.125,0,0,1,12.356,7.373Z" fill="#efefef"/>
          </g>
        </g>
      </g>
      <g id="Group_253" data-name="Group 253" transform="matrix(-0.799, -0.602, 0.602, -0.799, 490.132, 881.917)" opacity="0.838">
        <g id="Group_5-50" data-name="Group 5" transform="translate(0)">
          <g id="Group_4-50" data-name="Group 4" transform="translate(0 0)">
            <path id="Path_3-50" data-name="Path 3" d="M43.329,8.176A69.059,69.059,0,0,0,30.288,19.013c-.027.039-.047.08-.067.113A133.852,133.852,0,0,0,16.755,34.935C11.346,20.563,1.768,19.02,1.768,19.02,10.419,9.9,18.45,23.032,18.45,23.032A92.016,92.016,0,0,1,32.8,11.957,16.752,16.752,0,0,0,0,16.763c0,6.852,4.13,13.372,8.123,18.649A79.736,79.736,0,0,0,13.6,41.88c.609.656,1.231,1.291,1.867,1.92.231.225,1.1,1.3,1.29,1.3s.974-.98,1.205-1.212c.615-.6,1.212-1.218,1.8-1.841A81.559,81.559,0,0,0,25.4,35.412c3.694-4.886,7.507-10.838,8.05-17.128A70.063,70.063,0,0,1,48.738,5.727C47.763,5.727,43.349,8.163,43.329,8.176ZM19.006,11.34a3.267,3.267,0,1,1-3.264,3.271A3.269,3.269,0,0,1,19.006,11.34Z" fill="#efefef"/>
          </g>
        </g>
      </g>
      <g id="Group_251" data-name="Group 251" transform="matrix(-0.996, -0.087, 0.087, -0.996, 509.627, 662.975)" opacity="0.801">
        <g id="Group_5-51" data-name="Group 5" transform="translate(0 0)">
          <g id="Group_4-51" data-name="Group 4" transform="translate(0 0)">
            <path id="Path_3-51" data-name="Path 3" d="M36,6.794A57.385,57.385,0,0,0,25.168,15.8c-.023.033-.039.066-.056.094A111.222,111.222,0,0,0,13.923,29.029C9.428,17.087,1.469,15.8,1.469,15.8c7.189-7.581,13.862,3.333,13.862,3.333a76.459,76.459,0,0,1,11.926-9.2A13.92,13.92,0,0,0,0,13.929c0,5.693,3.432,11.112,6.75,15.5A66.248,66.248,0,0,0,11.3,34.8c.506.545,1.023,1.073,1.551,1.6.192.187.913,1.078,1.072,1.078s.809-.814,1-1.007c.511-.5,1.007-1.012,1.5-1.529A67.768,67.768,0,0,0,21.1,29.426c3.07-4.06,6.238-9.006,6.689-14.232A58.218,58.218,0,0,1,40.5,4.759C39.689,4.759,36.02,6.783,36,6.794ZM15.793,9.423a2.715,2.715,0,1,1-2.712,2.718A2.716,2.716,0,0,1,15.793,9.423Z" fill="#efefef"/>
          </g>
        </g>
      </g>
      <g id="Group_250" data-name="Group 250" transform="translate(515.933 488.904) rotate(43)" opacity="0.86">
        <g id="Group_5-52" data-name="Group 5" transform="translate(0)">
          <g id="Group_4-52" data-name="Group 4" transform="translate(0 0)">
            <path id="Path_3-52" data-name="Path 3" d="M31.76,5.993A50.621,50.621,0,0,0,22.2,13.937c-.02.029-.034.058-.049.082a98.111,98.111,0,0,0-9.87,11.588C8.317,15.073,1.3,13.942,1.3,13.942c6.342-6.687,12.228,2.94,12.228,2.94a67.447,67.447,0,0,1,10.52-8.118A12.279,12.279,0,0,0,0,12.287c0,5.022,3.027,9.8,5.954,13.67A58.443,58.443,0,0,0,9.967,30.7c.446.481.9.946,1.369,1.407.17.165.806.951.946.951s.714-.718.883-.888c.451-.442.888-.893,1.32-1.349a59.779,59.779,0,0,0,4.129-4.862c2.708-3.582,5.5-7.944,5.9-12.554A51.354,51.354,0,0,1,35.725,4.2C35.01,4.2,31.774,5.983,31.76,5.993ZM13.931,8.312a2.395,2.395,0,1,1-2.392,2.4A2.4,2.4,0,0,1,13.931,8.312Z" fill="#efefef"/>
          </g>
        </g>
      </g>
      <g id="Group_249" data-name="Group 249" transform="translate(526.516 471.068) rotate(-158)" opacity="0.962">
        <g id="Group_5-53" data-name="Group 5" transform="translate(0)">
          <g id="Group_4-53" data-name="Group 4" transform="translate(0 0)">
            <path id="Path_3-53" data-name="Path 3" d="M32.067,6.051a51.107,51.107,0,0,0-9.651,8.021c-.02.029-.035.059-.05.083a99.059,99.059,0,0,0-9.966,11.7C8.4,15.218,1.308,14.076,1.308,14.076c6.4-6.752,12.346,2.969,12.346,2.969a68.1,68.1,0,0,1,10.622-8.2A12.4,12.4,0,0,0,0,12.406c0,5.071,3.057,9.9,6.012,13.8a59.011,59.011,0,0,0,4.052,4.787c.451.485.911.955,1.382,1.421.171.167.813.96.955.96s.721-.725.892-.9c.455-.446.9-.9,1.333-1.362a60.351,60.351,0,0,0,4.169-4.909c2.734-3.616,5.556-8.021,5.958-12.676A51.851,51.851,0,0,1,36.07,4.238C35.348,4.238,32.081,6.041,32.067,6.051Zm-18,2.342a2.418,2.418,0,1,1-2.415,2.421A2.419,2.419,0,0,1,14.066,8.393Z" fill="#efefef"/>
          </g>
        </g>
      </g>
      <g id="Group_248" data-name="Group 248" transform="matrix(0.996, 0.087, -0.087, 0.996, 439.203, 320.248)" opacity="0.843">
        <g id="Group_5-54" data-name="Group 5" transform="translate(0)">
          <g id="Group_4-54" data-name="Group 4" transform="translate(0 0)">
            <path id="Path_3-54" data-name="Path 3" d="M29.775,5.618a47.456,47.456,0,0,0-8.962,7.447c-.019.027-.032.055-.046.077a91.978,91.978,0,0,0-9.253,10.864C7.8,14.13,1.215,13.07,1.215,13.07,7.16,6.8,12.679,15.827,12.679,15.827a63.231,63.231,0,0,1,9.863-7.611A11.512,11.512,0,0,0,0,11.519c0,4.708,2.838,9.189,5.582,12.815a54.784,54.784,0,0,0,3.762,4.444c.419.451.846.887,1.283,1.319.159.155.755.892.887.892s.669-.674.828-.833c.423-.414.833-.837,1.238-1.265a56.041,56.041,0,0,0,3.871-4.558c2.539-3.358,5.159-7.448,5.532-11.77A48.144,48.144,0,0,1,33.492,3.935,19.708,19.708,0,0,0,29.775,5.618ZM13.061,7.793a2.245,2.245,0,1,1-2.243,2.248A2.246,2.246,0,0,1,13.061,7.793Z" fill="#efefef"/>
          </g>
        </g>
      </g>
      <g id="Group_247" data-name="Group 247" transform="translate(482.564 243.729) rotate(-121)" opacity="0.918">
        <g id="Group_5-55" data-name="Group 5" transform="translate(0 0)">
          <g id="Group_4-55" data-name="Group 4" transform="translate(0 0)">
            <path id="Path_3-55" data-name="Path 3" d="M39.293,7.414a62.625,62.625,0,0,0-11.826,9.828c-.025.036-.042.072-.061.1A121.382,121.382,0,0,0,15.194,31.681C10.289,18.647,1.6,17.249,1.6,17.249c7.846-8.274,15.129,3.638,15.129,3.638A83.442,83.442,0,0,1,29.747,10.843,15.191,15.191,0,0,0,0,15.2c0,6.213,3.745,12.127,7.366,16.912a72.306,72.306,0,0,0,4.965,5.865c.552.595,1.116,1.171,1.693,1.741.21.2,1,1.177,1.17,1.177s.883-.889,1.093-1.1c.558-.546,1.1-1.1,1.633-1.669a73.954,73.954,0,0,0,5.109-6.015c3.35-4.431,6.808-9.829,7.3-15.532A63.534,63.534,0,0,1,44.2,5.193C43.314,5.193,39.311,7.4,39.293,7.414Zm-22.057,2.87a2.963,2.963,0,1,1-2.96,2.966A2.964,2.964,0,0,1,17.236,10.284Z" fill="#efefef"/>
          </g>
        </g>
      </g>
      <g id="Group_246" data-name="Group 246" transform="translate(492.362 52.965) rotate(30)" opacity="0.89">
        <g id="Group_5-56" data-name="Group 5" transform="translate(0 0)">
          <g id="Group_4-56" data-name="Group 4" transform="translate(0 0)">
            <path id="Path_3-56" data-name="Path 3" d="M44.78,8.45A71.369,71.369,0,0,0,31.3,19.65c-.028.041-.048.082-.07.116A138.331,138.331,0,0,0,17.316,36.1C11.726,21.251,1.827,19.657,1.827,19.657,10.768,10.228,19.068,23.8,19.068,23.8A95.1,95.1,0,0,1,33.9,12.357,17.313,17.313,0,0,0,0,17.324C0,24.4,4.268,31.144,8.395,36.6a82.4,82.4,0,0,0,5.658,6.684c.629.678,1.272,1.334,1.93,1.984.239.233,1.136,1.341,1.334,1.341s1.006-1.013,1.245-1.252c.636-.623,1.252-1.259,1.862-1.9A84.283,84.283,0,0,0,26.245,36.6c3.818-5.05,7.759-11.2,8.32-17.7a72.406,72.406,0,0,1,15.8-12.978C49.362,5.918,44.8,8.436,44.78,8.45ZM19.642,11.72A3.377,3.377,0,1,1,16.27,15.1,3.378,3.378,0,0,1,19.642,11.72Z" fill="#efefef"/>
          </g>
        </g>
      </g>
      <g id="Group_245" data-name="Group 245" transform="translate(397.221 870.432) rotate(99)" opacity="0.979">
        <g id="Group_5-57" data-name="Group 5" transform="translate(0 0)">
          <g id="Group_4-57" data-name="Group 4" transform="translate(0 0)">
            <path id="Path_3-57" data-name="Path 3" d="M41.953,7.916A66.865,66.865,0,0,0,29.326,18.409c-.026.038-.045.077-.065.109A129.6,129.6,0,0,0,16.223,33.825C10.986,19.91,1.711,18.416,1.711,18.416,10.088,9.583,17.864,22.3,17.864,22.3a89.092,89.092,0,0,1,13.9-10.724A16.22,16.22,0,0,0,0,16.23c0,6.634,4,12.948,7.865,18.057a77.2,77.2,0,0,0,5.3,6.262c.59.635,1.192,1.25,1.808,1.859.224.218,1.064,1.256,1.249,1.256s.943-.949,1.167-1.173c.6-.583,1.173-1.179,1.744-1.782a78.969,78.969,0,0,0,5.455-6.423c3.577-4.731,7.269-10.494,7.795-16.583A67.836,67.836,0,0,1,47.19,5.545C46.246,5.545,41.972,7.9,41.953,7.916ZM18.4,10.98a3.163,3.163,0,1,1-3.16,3.167A3.165,3.165,0,0,1,18.4,10.98Z" fill="#efefef"/>
          </g>
        </g>
      </g>
      <g id="Group_244" data-name="Group 244" transform="translate(299.007 783.51) rotate(20)" opacity="0.833">
        <g id="Group_5-58" data-name="Group 5" transform="translate(0 0)">
          <g id="Group_4-58" data-name="Group 4" transform="translate(0 0)">
            <path id="Path_3-58" data-name="Path 3" d="M28.833,5.44a45.954,45.954,0,0,0-8.678,7.212c-.018.026-.031.053-.045.075a89.068,89.068,0,0,0-8.96,10.52c-3.6-9.563-9.973-10.59-9.973-10.59,5.757-6.071,11.1,2.669,11.1,2.669a61.229,61.229,0,0,1,9.551-7.37A11.147,11.147,0,0,0,0,11.155c0,4.559,2.748,8.9,5.405,12.41a53.059,53.059,0,0,0,3.643,4.3c.405.436.819.859,1.242,1.278.154.15.731.863.859.863s.648-.652.8-.806c.41-.4.806-.81,1.2-1.225A54.263,54.263,0,0,0,16.9,23.564c2.458-3.252,5-7.212,5.357-11.4A46.621,46.621,0,0,1,32.432,3.811,19.084,19.084,0,0,0,28.833,5.44ZM12.647,7.546a2.174,2.174,0,1,1-2.172,2.176A2.175,2.175,0,0,1,12.647,7.546Z" fill="#efefef"/>
          </g>
        </g>
      </g>
      <g id="Group_243" data-name="Group 243" transform="matrix(-0.891, 0.454, -0.454, -0.891, 366.215, 731.051)" opacity="0.952">
        <g id="Group_5-59" data-name="Group 5" transform="translate(0)">
          <g id="Group_4-59" data-name="Group 4" transform="translate(0 0)">
            <path id="Path_3-59" data-name="Path 3" d="M49.137,9.272c-4.978,2.966-10.157,7.56-14.789,12.29-.031.045-.053.09-.076.128A151.79,151.79,0,0,0,19,39.617C12.867,23.319,2,21.57,2,21.57c9.811-10.346,18.919,4.549,18.919,4.549A104.349,104.349,0,0,1,37.2,13.559,19,19,0,0,0,0,19.01c0,7.77,4.684,15.165,9.212,21.149a90.421,90.421,0,0,0,6.208,7.334c.691.744,1.4,1.464,2.117,2.177.262.255,1.246,1.472,1.463,1.472s1.1-1.112,1.367-1.374c.7-.683,1.374-1.381,2.043-2.087A92.481,92.481,0,0,0,28.8,40.159c4.189-5.541,8.514-12.291,9.129-19.423A79.452,79.452,0,0,1,55.271,6.494C54.165,6.494,49.159,9.257,49.137,9.272ZM21.554,12.86a3.705,3.705,0,1,1-3.7,3.709A3.707,3.707,0,0,1,21.554,12.86Z" fill="#efefef"/>
          </g>
        </g>
      </g>
      <g id="Group_242" data-name="Group 242" transform="translate(435.854 600.094) rotate(120)" opacity="0.963">
        <g id="Group_5-60" data-name="Group 5" transform="translate(0)">
          <g id="Group_4-60" data-name="Group 4" transform="translate(0 0)">
            <path id="Path_3-60" data-name="Path 3" d="M40.35,7.614A64.31,64.31,0,0,0,28.206,17.706c-.025.037-.044.074-.063.1A124.644,124.644,0,0,0,15.6,32.533C10.566,19.149,1.646,17.713,1.646,17.713c8.057-8.5,15.536,3.736,15.536,3.736A85.689,85.689,0,0,1,30.547,11.134,15.6,15.6,0,0,0,0,15.61c0,6.381,3.846,12.453,7.564,17.367A74.248,74.248,0,0,0,12.663,39c.567.611,1.146,1.2,1.739,1.788C14.617,41,15.425,42,15.6,42s.907-.913,1.122-1.128c.573-.561,1.128-1.134,1.677-1.714a75.939,75.939,0,0,0,5.246-6.177c3.44-4.55,6.991-10.093,7.5-15.95A65.244,65.244,0,0,1,45.387,5.333C44.479,5.333,40.368,7.6,40.35,7.614ZM17.7,10.561a3.043,3.043,0,1,1-3.039,3.046A3.044,3.044,0,0,1,17.7,10.561Z" fill="#efefef"/>
          </g>
        </g>
      </g>
      <g id="Group_241" data-name="Group 241" transform="matrix(-0.588, 0.809, -0.809, -0.588, 424.095, 411.051)" opacity="0.868">
        <g id="Group_5-61" data-name="Group 5" transform="translate(0 0)">
          <g id="Group_4-61" data-name="Group 4" transform="translate(0 0)">
            <path id="Path_3-61" data-name="Path 3" d="M38.588,7.281a61.5,61.5,0,0,0-11.614,9.652c-.024.035-.042.071-.06.1A119.2,119.2,0,0,0,14.922,31.112C10.1,18.313,1.574,16.939,1.574,16.939c7.7-8.125,14.857,3.573,14.857,3.573a81.948,81.948,0,0,1,12.782-9.864A14.919,14.919,0,0,0,0,14.929c0,6.1,3.678,11.909,7.234,16.609A71.009,71.009,0,0,0,12.11,37.3c.542.584,1.1,1.15,1.663,1.71.206.2.979,1.156,1.149,1.156s.867-.873,1.073-1.079c.548-.537,1.079-1.085,1.6-1.639a72.636,72.636,0,0,0,5.017-5.907c3.29-4.352,6.686-9.652,7.17-15.253A62.4,62.4,0,0,1,43.405,5.1C42.537,5.1,38.606,7.27,38.588,7.281ZM16.927,10.1a2.91,2.91,0,1,1-2.907,2.913A2.911,2.911,0,0,1,16.927,10.1Z" fill="#efefef"/>
          </g>
        </g>
      </g>
      <g id="Group_240" data-name="Group 240" transform="translate(330.79 350.159) rotate(141)" opacity="0.89">
        <g id="Group_5-62" data-name="Group 5" transform="translate(0)">
          <g id="Group_4-62" data-name="Group 4" transform="translate(0 0)">
            <path id="Path_3-62" data-name="Path 3" d="M31.375,5.92a50,50,0,0,0-9.443,7.847c-.02.029-.034.058-.049.081A96.92,96.92,0,0,0,12.132,25.3C8.216,14.89,1.28,13.773,1.28,13.773c6.265-6.606,12.08,2.9,12.08,2.9a66.629,66.629,0,0,1,10.393-8.02A12.13,12.13,0,0,0,0,12.138c0,4.961,2.991,9.683,5.882,13.5a57.73,57.73,0,0,0,3.964,4.683c.441.475.891.935,1.352,1.39.168.163.8.94.934.94s.705-.71.873-.877c.446-.436.877-.882,1.3-1.333a59.053,59.053,0,0,0,4.079-4.8c2.675-3.538,5.436-7.848,5.829-12.4A50.731,50.731,0,0,1,35.291,4.147C34.585,4.147,31.389,5.911,31.375,5.92ZM13.762,8.212A2.366,2.366,0,1,1,11.4,10.58,2.367,2.367,0,0,1,13.762,8.212Z" fill="#efefef"/>
          </g>
        </g>
      </g>
      <g id="Group_239" data-name="Group 239" transform="matrix(-0.719, 0.695, -0.695, -0.719, 417.353, 240.906)" opacity="0.914">
        <g id="Group_5-63" data-name="Group 5" transform="translate(0 0)">
          <g id="Group_4-63" data-name="Group 4" transform="translate(0 0)">
            <path id="Path_3-63" data-name="Path 3" d="M31.727,5.987a50.566,50.566,0,0,0-9.549,7.935c-.02.029-.034.058-.049.082a98.008,98.008,0,0,0-9.86,11.576C8.308,15.057,1.294,13.927,1.294,13.927c6.335-6.68,12.215,2.937,12.215,2.937a67.377,67.377,0,0,1,10.509-8.11A12.266,12.266,0,0,0,0,12.274c0,5.017,3.024,9.792,5.948,13.656a58.387,58.387,0,0,0,4.009,4.736c.446.48.9.945,1.367,1.406.169.165.8.95.945.95s.713-.718.882-.887c.451-.441.887-.892,1.319-1.348a59.714,59.714,0,0,0,4.125-4.857c2.7-3.578,5.5-7.936,5.895-12.541a51.3,51.3,0,0,1,11.2-9.2C34.973,4.193,31.741,5.977,31.727,5.987ZM13.917,8.3a2.392,2.392,0,1,1-2.39,2.395A2.393,2.393,0,0,1,13.917,8.3Z" fill="#efefef"/>
          </g>
        </g>
      </g>
      <g id="Group_238" data-name="Group 238" transform="translate(328.323 115.714) rotate(76)" opacity="0.884">
        <g id="Group_5-64" data-name="Group 5">
          <g id="Group_4-64" data-name="Group 4" transform="translate(0 0)">
            <path id="Path_3-64" data-name="Path 3" d="M53.783,10.148C48.334,13.394,42.666,18.424,37.6,23.6c-.034.049-.058.1-.084.14A166.143,166.143,0,0,0,20.8,43.364c-6.714-17.839-18.6-19.754-18.6-19.754C12.933,12.285,22.9,28.589,22.9,28.589A114.216,114.216,0,0,1,40.717,14.841,20.794,20.794,0,0,0,0,20.807c0,8.5,5.127,16.6,10.083,23.149a98.964,98.964,0,0,0,6.8,8.028c.756.814,1.528,1.6,2.318,2.383.287.279,1.364,1.611,1.6,1.611s1.209-1.217,1.5-1.5c.764-.748,1.5-1.512,2.236-2.285a101.232,101.232,0,0,0,6.993-8.234c4.585-6.065,9.319-13.453,9.993-21.26A86.965,86.965,0,0,1,60.5,7.108C59.287,7.108,53.807,10.132,53.783,10.148ZM23.592,14.076a4.055,4.055,0,1,1-4.051,4.06A4.057,4.057,0,0,1,23.592,14.076Z" fill="#efefef"/>
          </g>
        </g>
      </g>
      <g id="Group_317" data-name="Group 317" transform="translate(1688.04 851.912) rotate(112)" opacity="0.952">
        <g id="Group_5-65" data-name="Group 5" transform="translate(0 0)">
          <g id="Group_4-65" data-name="Group 4" transform="translate(0 0)">
            <path id="Path_3-65" data-name="Path 3" d="M50.587,9.545C45.462,12.6,40.13,17.329,35.361,22.2c-.032.046-.055.093-.079.131A156.272,156.272,0,0,0,19.562,40.787c-6.315-16.779-17.5-18.58-17.5-18.58,10.1-10.652,19.477,4.684,19.477,4.684A107.426,107.426,0,0,1,38.3,13.959,19.558,19.558,0,0,0,0,19.571c0,8,4.822,15.612,9.484,21.773a93.084,93.084,0,0,0,6.392,7.551c.711.766,1.437,1.507,2.18,2.242.27.263,1.283,1.515,1.507,1.515s1.137-1.144,1.407-1.414c.718-.7,1.415-1.422,2.1-2.149a95.221,95.221,0,0,0,6.577-7.744c4.313-5.7,8.765-12.654,9.4-20A81.8,81.8,0,0,1,56.9,6.686C55.763,6.686,50.61,9.53,50.587,9.545ZM22.19,13.24a3.814,3.814,0,1,1-3.81,3.819A3.816,3.816,0,0,1,22.19,13.24Z" fill="#efefef"/>
          </g>
        </g>
      </g>
      <g id="Group_316" data-name="Group 316" transform="matrix(-0.995, 0.105, -0.105, -0.995, 1812.043, 848.051)" opacity="0.808">
        <g id="Group_5-66" data-name="Group 5" transform="translate(0 0)">
          <g id="Group_4-66" data-name="Group 4" transform="translate(0 0)">
            <path id="Path_3-66" data-name="Path 3" d="M53.866,10.164c-5.457,3.251-11.135,8.288-16.213,13.473-.034.049-.058.1-.084.14A166.4,166.4,0,0,0,20.83,43.43C14.106,25.563,2.2,23.646,2.2,23.646c10.755-11.342,20.74,4.987,20.74,4.987A114.392,114.392,0,0,1,40.78,14.864,20.826,20.826,0,0,0,0,20.839c0,8.518,5.134,16.624,10.1,23.184a99.114,99.114,0,0,0,6.806,8.04c.757.815,1.53,1.605,2.321,2.387.288.28,1.366,1.613,1.6,1.613s1.21-1.219,1.5-1.506c.765-.749,1.506-1.514,2.239-2.288a101.385,101.385,0,0,0,7-8.246C36.163,37.949,40.9,30.55,41.579,22.731A87.1,87.1,0,0,1,60.59,7.119C59.378,7.119,53.89,10.148,53.866,10.164ZM23.628,14.1a4.062,4.062,0,1,1-4.057,4.066A4.063,4.063,0,0,1,23.628,14.1Z" fill="#efefef"/>
          </g>
        </g>
      </g>
      <g id="Group_315" data-name="Group 315" transform="matrix(-0.985, 0.174, -0.174, -0.985, 1756.742, 692.41)" opacity="0.868">
        <g id="Group_5-67" data-name="Group 5" transform="translate(0 0)">
          <g id="Group_4-67" data-name="Group 4" transform="translate(0 0)">
            <path id="Path_3-67" data-name="Path 3" d="M44.92,8.476A71.594,71.594,0,0,0,31.4,19.711c-.028.041-.048.082-.07.117A138.764,138.764,0,0,0,17.37,36.217c-5.607-14.9-15.538-16.5-15.538-16.5,8.969-9.458,17.3,4.159,17.3,4.159A95.4,95.4,0,0,1,34.007,12.4,17.367,17.367,0,0,0,0,17.378c0,7.1,4.282,13.863,8.421,19.334A82.656,82.656,0,0,0,14.1,43.417c.631.68,1.276,1.338,1.936,1.991.24.233,1.139,1.345,1.338,1.345S18.38,45.737,18.62,45.5c.638-.625,1.256-1.263,1.867-1.908a84.54,84.54,0,0,0,5.84-6.877c3.83-5.066,7.783-11.236,8.346-17.756A72.633,72.633,0,0,1,50.527,5.937C49.517,5.937,44.94,8.463,44.92,8.476ZM19.7,11.757a3.387,3.387,0,1,1-3.383,3.391A3.389,3.389,0,0,1,19.7,11.757Z" fill="#efefef"/>
          </g>
        </g>
      </g>
      <g id="Group_314" data-name="Group 314" transform="translate(1765.289 534.621) rotate(155)" opacity="0.946">
        <g id="Group_5-68" data-name="Group 5" transform="translate(0 0)">
          <g id="Group_4-68" data-name="Group 4" transform="translate(0 0)">
            <path id="Path_3-68" data-name="Path 3" d="M54.516,10.287c-5.523,3.29-11.269,8.388-16.408,13.635-.034.05-.059.1-.085.142a168.406,168.406,0,0,0-16.942,19.89C14.276,25.872,2.224,23.931,2.224,23.931c10.885-11.479,20.99,5.047,20.99,5.047A115.773,115.773,0,0,1,41.272,15.043,21.077,21.077,0,0,0,0,21.091c0,8.621,5.2,16.825,10.22,23.464a100.317,100.317,0,0,0,6.888,8.137c.766.825,1.549,1.624,2.349,2.416.291.283,1.383,1.633,1.624,1.633s1.225-1.233,1.516-1.524c.774-.758,1.525-1.532,2.266-2.316a102.616,102.616,0,0,0,7.088-8.346C36.6,38.407,41.4,30.918,42.08,23.005a88.149,88.149,0,0,1,19.241-15.8C60.094,7.205,54.54,10.27,54.516,10.287Zm-30.6,3.982a4.111,4.111,0,1,1-4.106,4.115A4.112,4.112,0,0,1,23.913,14.268Z" fill="#efefef"/>
          </g>
        </g>
      </g>
      <g id="Group_313" data-name="Group 313" transform="matrix(-0.875, -0.485, 0.485, -0.875, 1700.505, 547.92)" opacity="0.967">
        <g id="Group_5-69" data-name="Group 5" transform="translate(0)">
          <g id="Group_4-69" data-name="Group 4" transform="translate(0 0)">
            <path id="Path_3-69" data-name="Path 3" d="M41.748,7.877A66.538,66.538,0,0,0,29.183,18.319c-.026.038-.045.077-.065.108A128.966,128.966,0,0,0,16.144,33.66C10.932,19.813,1.7,18.326,1.7,18.326c8.336-8.791,16.074,3.865,16.074,3.865A88.656,88.656,0,0,1,31.606,11.52,16.141,16.141,0,0,0,0,16.151c0,6.6,3.979,12.884,7.826,17.969A76.823,76.823,0,0,0,13.1,40.351c.587.632,1.186,1.244,1.8,1.85.223.217,1.059,1.25,1.243,1.25s.938-.944,1.161-1.167c.593-.58,1.167-1.174,1.736-1.773a78.58,78.58,0,0,0,5.428-6.391c3.559-4.708,7.233-10.443,7.757-16.5a67.5,67.5,0,0,1,14.734-12.1C46.02,5.518,41.767,7.865,41.748,7.877ZM18.313,10.927a3.148,3.148,0,1,1-3.145,3.151A3.149,3.149,0,0,1,18.313,10.927Z" fill="#efefef"/>
          </g>
        </g>
      </g>
      <g id="Group_312" data-name="Group 312" transform="translate(1711.103 316.102) rotate(30)" opacity="0.938">
        <g id="Group_5-70" data-name="Group 5" transform="translate(0 0)">
          <g id="Group_4-70" data-name="Group 4" transform="translate(0 0)">
            <path id="Path_3-70" data-name="Path 3" d="M52.7,9.944c-5.339,3.18-10.893,8.108-15.861,13.181-.033.048-.057.1-.082.137A162.788,162.788,0,0,0,20.378,42.488C13.8,25.009,2.15,23.133,2.15,23.133c10.522-11.1,20.29,4.879,20.29,4.879A111.91,111.91,0,0,1,39.9,14.542,20.374,20.374,0,0,0,0,20.387C0,28.72,5.023,36.651,9.879,43.069a96.968,96.968,0,0,0,6.658,7.866c.741.8,1.5,1.57,2.271,2.335.281.274,1.337,1.578,1.569,1.578s1.184-1.192,1.466-1.473c.748-.733,1.474-1.481,2.191-2.239a99.191,99.191,0,0,0,6.852-8.067c4.493-5.943,9.131-13.182,9.791-20.831a85.209,85.209,0,0,1,18.6-15.273C58.09,6.965,52.721,9.928,52.7,9.944ZM23.116,13.792a3.974,3.974,0,1,1-3.969,3.978A3.975,3.975,0,0,1,23.116,13.792Z" fill="#efefef"/>
          </g>
        </g>
      </g>
      <g id="Group_311" data-name="Group 311" transform="translate(1728.581 261.3) rotate(-172)" opacity="0.908">
        <g id="Group_5-71" data-name="Group 5" transform="translate(0 0)">
          <g id="Group_4-71" data-name="Group 4" transform="translate(0 0)">
            <path id="Path_3-71" data-name="Path 3" d="M51.618,9.74c-5.23,3.115-10.67,7.942-15.536,12.91-.032.047-.056.095-.08.134A159.453,159.453,0,0,0,19.96,41.617C13.517,24.5,2.106,22.659,2.106,22.659,12.412,11.79,21.98,27.438,21.98,27.438a109.619,109.619,0,0,1,17.1-13.194A19.956,19.956,0,0,0,0,19.969C0,28.132,4.92,35.9,9.677,42.186a94.978,94.978,0,0,0,6.522,7.7c.726.781,1.466,1.538,2.224,2.287.276.268,1.309,1.546,1.537,1.546s1.16-1.168,1.435-1.443c.733-.718,1.443-1.451,2.146-2.193a97.157,97.157,0,0,0,6.711-7.9c4.4-5.821,8.943-12.911,9.59-20.4A83.463,83.463,0,0,1,58.061,6.822C56.9,6.822,51.641,9.724,51.618,9.74ZM22.642,13.51a3.892,3.892,0,1,1-3.888,3.9A3.894,3.894,0,0,1,22.642,13.51Z" fill="#efefef"/>
          </g>
        </g>
      </g>
      <g id="Group_310" data-name="Group 310" transform="matrix(-0.407, -0.914, 0.914, -0.407, 1661.175, 152.628)" opacity="0.845">
        <g id="Group_5-72" data-name="Group 5" transform="translate(0 0)">
          <g id="Group_4-72" data-name="Group 4" transform="translate(0 0)">
            <path id="Path_3-72" data-name="Path 3" d="M52.433,9.894c-5.312,3.164-10.838,8.067-15.781,13.114-.033.048-.057.1-.082.136a161.972,161.972,0,0,0-16.295,19.13C13.73,24.883,2.139,23.016,2.139,23.016c10.469-11.04,20.188,4.854,20.188,4.854a111.346,111.346,0,0,1,17.368-13.4A20.272,20.272,0,0,0,0,20.285c0,8.291,5,16.182,9.829,22.567a96.485,96.485,0,0,0,6.625,7.826c.737.794,1.489,1.562,2.259,2.324.28.272,1.33,1.57,1.562,1.57s1.178-1.186,1.458-1.466c.745-.729,1.466-1.474,2.18-2.227a98.687,98.687,0,0,0,6.817-8.027c4.47-5.913,9.085-13.115,9.742-20.726A84.78,84.78,0,0,1,58.978,6.93C57.8,6.93,52.456,9.878,52.433,9.894ZM23,13.723a3.954,3.954,0,1,1-3.949,3.958A3.955,3.955,0,0,1,23,13.723Z" fill="#efefef"/>
          </g>
        </g>
      </g>
      <g id="Group_309" data-name="Group 309" transform="translate(1510.736 873.998) rotate(69)" opacity="0.946">
        <g id="Group_5-73" data-name="Group 5" transform="translate(0 0)">
          <g id="Group_4-73" data-name="Group 4" transform="translate(0 0)">
            <path id="Path_3-73" data-name="Path 3" d="M37.6,7.095a59.926,59.926,0,0,0-11.317,9.4c-.024.034-.041.069-.058.1A116.149,116.149,0,0,0,14.539,30.315C9.846,17.844,1.534,16.505,1.534,16.505,9.041,8.588,16.01,19.986,16.01,19.986a79.846,79.846,0,0,1,12.455-9.611A14.537,14.537,0,0,0,0,14.546c0,5.946,3.584,11.6,7.049,16.183A69.183,69.183,0,0,0,11.8,36.341c.529.569,1.068,1.12,1.62,1.666.2.2.954,1.126,1.12,1.126s.845-.851,1.046-1.051c.534-.523,1.051-1.057,1.563-1.6a70.771,70.771,0,0,0,4.889-5.756c3.206-4.24,6.515-9.4,6.986-14.862a60.8,60.8,0,0,1,13.27-10.9C41.447,4.969,37.616,7.083,37.6,7.095ZM16.493,9.841a2.835,2.835,0,1,1-2.832,2.838A2.836,2.836,0,0,1,16.493,9.841Z" fill="#efefef"/>
          </g>
        </g>
      </g>
      <g id="Group_324" data-name="Group 324" transform="translate(1338.507 841.307) rotate(69)" opacity="0.946">
        <g id="Group_5-74" data-name="Group 5" transform="translate(0 0)">
          <g id="Group_4-74" data-name="Group 4" transform="translate(0 0)">
            <path id="Path_3-74" data-name="Path 3" d="M37.6,7.095a59.926,59.926,0,0,0-11.317,9.4c-.024.034-.041.069-.058.1A116.149,116.149,0,0,0,14.539,30.315C9.846,17.844,1.534,16.505,1.534,16.505,9.041,8.588,16.01,19.986,16.01,19.986a79.846,79.846,0,0,1,12.455-9.611A14.537,14.537,0,0,0,0,14.546c0,5.946,3.584,11.6,7.049,16.183A69.183,69.183,0,0,0,11.8,36.341c.529.569,1.068,1.12,1.62,1.666.2.2.954,1.126,1.12,1.126s.845-.851,1.046-1.051c.534-.523,1.051-1.057,1.563-1.6a70.771,70.771,0,0,0,4.889-5.756c3.206-4.24,6.515-9.4,6.986-14.862a60.8,60.8,0,0,1,13.27-10.9C41.447,4.969,37.616,7.083,37.6,7.095ZM16.493,9.841a2.835,2.835,0,1,1-2.832,2.838A2.836,2.836,0,0,1,16.493,9.841Z" fill="#efefef"/>
          </g>
        </g>
      </g>
      <g id="Group_307" data-name="Group 307" transform="translate(1638.03 598.346) rotate(98)" opacity="0.9">
        <g id="Group_5-75" data-name="Group 5" transform="translate(0 0)">
          <g id="Group_4-75" data-name="Group 4" transform="translate(0 0)">
            <path id="Path_3-75" data-name="Path 3" d="M39.914,7.531A63.616,63.616,0,0,0,27.9,17.515c-.025.036-.043.073-.062.1a123.3,123.3,0,0,0-12.4,14.563C10.452,18.942,1.628,17.521,1.628,17.521,9.6,9.117,17,21.217,17,21.217a84.764,84.764,0,0,1,13.221-10.2A15.432,15.432,0,0,0,0,15.442C0,21.753,3.8,27.76,7.483,32.621a73.443,73.443,0,0,0,5.043,5.958c.561.6,1.134,1.189,1.72,1.769.213.207,1.012,1.2,1.189,1.2s.9-.9,1.11-1.116c.567-.555,1.116-1.122,1.659-1.7a75.118,75.118,0,0,0,5.19-6.11c3.4-4.5,6.916-9.984,7.416-15.777A64.539,64.539,0,0,1,44.9,5.275C44,5.275,39.932,7.519,39.914,7.531ZM17.508,10.447A3.01,3.01,0,1,1,14.5,13.46,3.011,3.011,0,0,1,17.508,10.447Z" fill="#efefef"/>
          </g>
        </g>
      </g>
      <g id="Group_301" data-name="Group 301" transform="translate(1449.587 945.6) rotate(-172)" opacity="0.976">
        <g id="Group_5-76" data-name="Group 5" transform="translate(0 0)">
          <g id="Group_4-76" data-name="Group 4" transform="translate(0 0)">
            <path id="Path_3-76" data-name="Path 3" d="M27.85,5.255a44.387,44.387,0,0,0-8.382,6.966c-.018.025-.03.051-.043.072a86.033,86.033,0,0,0-8.655,10.161C7.293,13.217,1.136,12.225,1.136,12.225,6.7,6.361,11.859,14.8,11.859,14.8a59.141,59.141,0,0,1,9.225-7.119A10.767,10.767,0,0,0,0,10.774c0,4.4,2.655,8.6,5.221,11.987A51.247,51.247,0,0,0,8.74,26.918c.391.421.791.83,1.2,1.234.149.145.706.834.829.834s.626-.63.774-.779c.4-.387.779-.783,1.158-1.183a52.41,52.41,0,0,0,3.621-4.263C18.7,19.62,21.148,15.795,21.5,11.752a45.032,45.032,0,0,1,9.829-8.072A18.434,18.434,0,0,0,27.85,5.255ZM12.216,7.289a2.1,2.1,0,1,1-2.1,2.1A2.1,2.1,0,0,1,12.216,7.289Z" fill="#efefef"/>
          </g>
        </g>
      </g>
      <g id="Group_325" data-name="Group 325" transform="translate(1512.578 716.758) rotate(-172)" opacity="0.976">
        <g id="Group_5-77" data-name="Group 5" transform="translate(0 0)">
          <g id="Group_4-77" data-name="Group 4" transform="translate(0 0)">
            <path id="Path_3-77" data-name="Path 3" d="M27.85,5.255a44.387,44.387,0,0,0-8.382,6.966c-.018.025-.03.051-.043.072a86.033,86.033,0,0,0-8.655,10.161C7.293,13.217,1.136,12.225,1.136,12.225,6.7,6.361,11.859,14.8,11.859,14.8a59.141,59.141,0,0,1,9.225-7.119A10.767,10.767,0,0,0,0,10.774c0,4.4,2.655,8.6,5.221,11.987A51.247,51.247,0,0,0,8.74,26.918c.391.421.791.83,1.2,1.234.149.145.706.834.829.834s.626-.63.774-.779c.4-.387.779-.783,1.158-1.183a52.41,52.41,0,0,0,3.621-4.263C18.7,19.62,21.148,15.795,21.5,11.752a45.032,45.032,0,0,1,9.829-8.072A18.434,18.434,0,0,0,27.85,5.255ZM12.216,7.289a2.1,2.1,0,1,1-2.1,2.1A2.1,2.1,0,0,1,12.216,7.289Z" fill="#efefef"/>
          </g>
        </g>
      </g>
      <g id="Group_293" data-name="Group 293" transform="translate(1219.878 913.135) rotate(137)" opacity="0.854">
        <g id="Group_5-78" data-name="Group 5" transform="translate(0 0)">
          <g id="Group_4-78" data-name="Group 4" transform="translate(0 0)">
            <path id="Path_3-78" data-name="Path 3" d="M50.812,9.588c-5.148,3.067-10.5,7.818-15.293,12.709-.032.046-.055.093-.079.132A156.969,156.969,0,0,0,19.649,40.968C13.306,24.114,2.073,22.305,2.073,22.305c10.146-10.7,19.564,4.7,19.564,4.7A107.907,107.907,0,0,1,38.468,14.021,19.645,19.645,0,0,0,0,19.658c0,8.035,4.843,15.682,9.526,21.87a93.5,93.5,0,0,0,6.42,7.585c.714.769,1.443,1.514,2.19,2.252.271.264,1.289,1.522,1.513,1.522s1.142-1.149,1.413-1.421c.722-.706,1.421-1.428,2.112-2.158a95.647,95.647,0,0,0,6.607-7.779c4.332-5.73,8.8-12.71,9.441-20.085A82.16,82.16,0,0,1,57.155,6.716C56.012,6.716,50.835,9.573,50.812,9.588ZM22.289,13.3a3.831,3.831,0,1,1-3.827,3.836A3.833,3.833,0,0,1,22.289,13.3Z" fill="#efefef"/>
          </g>
        </g>
      </g>
      <g id="Group_277" data-name="Group 277" transform="matrix(-0.996, -0.087, 0.087, -0.996, 906.712, 939.257)" opacity="0.835">
        <g id="Group_5-79" data-name="Group 5" transform="translate(0 0)">
          <g id="Group_4-79" data-name="Group 4" transform="translate(0 0)">
            <path id="Path_3-79" data-name="Path 3" d="M48.6,9.17C43.673,12.1,38.551,16.647,33.97,21.324c-.031.044-.052.089-.076.126a150.12,150.12,0,0,0-15.1,17.731C12.726,23.062,1.982,21.332,1.982,21.332c9.7-10.233,18.71,4.5,18.71,4.5A103.2,103.2,0,0,1,36.79,13.41,18.788,18.788,0,0,0,0,18.8c0,7.684,4.632,15,9.11,20.916a89.42,89.42,0,0,0,6.14,7.254c.683.735,1.38,1.448,2.094,2.154.26.252,1.233,1.455,1.447,1.455s1.092-1.1,1.351-1.359c.69-.676,1.359-1.366,2.02-2.064a91.462,91.462,0,0,0,6.318-7.44c4.143-5.48,8.42-12.156,9.029-19.209A78.577,78.577,0,0,1,54.662,6.423C53.569,6.423,48.618,9.155,48.6,9.17Zm-27.28,3.549a3.664,3.664,0,1,1-3.66,3.668A3.666,3.666,0,0,1,21.316,12.719Z" fill="#efefef"/>
          </g>
        </g>
      </g>
    </g>
  </g>
</svg>
