<svg xmlns="http://www.w3.org/2000/svg" xmlns:xlink="http://www.w3.org/1999/xlink" width="664.499" height="538.376" viewBox="0 0 664.499 538.376">
  <defs>
    <clipPath id="clip-path">
      <path id="_Icon_Color" data-name="🎨 Icon Color" d="M6.708.477A1.234,1.234,0,0,1,8.393.225a1.139,1.139,0,0,1,.261,1.628L4.67,7.11a.741.741,0,0,1-1.105.085L.352,4.085a1.137,1.137,0,0,1,0-1.647,1.236,1.236,0,0,1,1.705,0L3.883,4.2Z" transform="translate(0)" fill="#fff"/>
    </clipPath>
    <linearGradient id="linear-gradient" x1="0.5" y1="-0.205" x2="0.5" y2="1.145" gradientUnits="objectBoundingBox">
      <stop offset="0" stop-color="#fff"/>
      <stop offset="0.217" stop-color="#e2e2e2"/>
      <stop offset="1" stop-color="#929292"/>
    </linearGradient>
    <linearGradient id="linear-gradient-2" x1="0.5" y1="1" x2="0.5" gradientUnits="objectBoundingBox">
      <stop offset="0" stop-color="#c6c6c6"/>
      <stop offset="0.114" stop-color="#c3c3c3"/>
      <stop offset="0.162" stop-color="#bcbcbc"/>
      <stop offset="0.187" stop-color="#b5b5b5"/>
      <stop offset="1" stop-color="#5c5c5c"/>
    </linearGradient>
  </defs>
  <g id="_4" data-name="4" transform="translate(108.16)">
    <path id="Path_2" data-name="Path 2" d="M139.8,19.725S-12.875,42.94,1.117,165.7s115.6,87.615,138.68,159.031S194.914,541.26,360.7,504.346,565.583,346.879,542.188,264.993,453.812,25.219,369.444,6.648,139.8,19.725,139.8,19.725Z" transform="translate(-108.371 28.115)" fill="#36f" opacity="0.1"/>
    <g id="Group_8922" data-name="Group 8922" transform="translate(0 55.147)">
      <g id="Group_8921" data-name="Group 8921" transform="translate(0 0)">
        <g id="Group_8919" data-name="Group 8919" transform="translate(31.29 0)">
          <path id="Path_11331" data-name="Path 11331" d="M1564.97,1306.648c-1,9.786-2.64,20.106-8.975,27.634-5.814,6.913-14.217,10.189-23.219,11.892-9.059,1.717-18.72,1.842-26.955,2.484-20.5,1.6-41.331,1.893-61.539-2.457-9.191-1.981-18.757-5.3-24.487-12.754-6.018-7.839-6.569-18.72-5.071-28.138,1.552-9.763,1.96-19.7,2.66-29.683q2.312-33.035,6.856-65.869c1.737-12.551,3.775-25.268,9.157-36.741,7.71-16.442,20.829-24.355,35.919-28.25.365-.094.73-.186,1.1-.277q1.4-.34,2.826-.639,1.385-.289,2.789-.544,1.8-.325,3.627-.592c.308-.047.616-.091.923-.135,9.992-1.393,20.438-1.619,30.47-1.809a72.506,72.506,0,0,1,9.364.409c.839.095,1.67.2,2.5.328.247.033.5.074.747.115,1.819.294,3.624.673,5.4,1.136.622.166,1.237.338,1.849.524l.2.061c7.947,2.423,15.174,6.744,20.384,13.674,7.119,9.475,8.958,21.789,10.367,33.56,1.042,8.714,1.974,17.456,2.745,26.208C1567.235,1246.708,1568,1276.8,1564.97,1306.648Z" transform="translate(-1396.247 -989.183)" fill="#e6e6e6" fill-rule="evenodd"/>
          <g id="Group_8891" data-name="Group 8891" transform="translate(79.924 101.852)">
            <path id="Path_11332" data-name="Path 11332" d="M1575.389,1141.946l-.7,1.183-15.681,26.576-10.722-8.61-9.431-7.572-7.818-6.281-4.3-3.452-.625-.5q1.044-.188,2.1-.355c.46-.074.919-.145,1.383-.213.156-.024.311-.047.466-.067s.3-.048.456-.068c2.813-.392,5.662-.693,8.526-.923,7.315-.6,14.735-.751,21.945-.886a72.446,72.446,0,0,1,9.32.406l.043,0c.839.095,1.67.2,2.5.328.034,0,.064.01.1.014.217.031.433.068.649.1C1574.2,1141.726,1574.794,1141.83,1575.389,1141.946Z" transform="translate(-1526.111 -1091.038)" fill="#fc9592" fill-rule="evenodd"/>
            <path id="Path_11333" data-name="Path 11333" d="M1575.389,1141.946l-.7,1.183-15.681,26.576-10.722-8.61-9.431-7.572-7.818-6.281-4.3-3.452-.625-.5q1.044-.188,2.1-.355c.46-.074.919-.145,1.383-.213.156-.024.311-.047.466-.067s.3-.048.456-.068c2.813-.392,5.662-.693,8.526-.923,7.315-.6,14.735-.751,21.945-.886a72.446,72.446,0,0,1,9.32.406l.043,0c.839.095,1.67.2,2.5.328.034,0,.064.01.1.014.217.031.433.068.649.1C1574.2,1141.726,1574.794,1141.83,1575.389,1141.946Z" transform="translate(-1526.111 -1091.038)" fill="#fc9592" fill-rule="evenodd"/>
            <path id="Path_11334" data-name="Path 11334" d="M1580.167,1056.548a20.689,20.689,0,0,1-1.048,5.97,20.208,20.208,0,0,1-19.129,14.031,18.437,18.437,0,0,1-1.842-.088,19.661,19.661,0,0,1-7.592-2.3,20.45,20.45,0,0,1-9.657-11.551,20.5,20.5,0,0,1-.977-4.59c-.017-.159-.034-.321-.041-.483a21.089,21.089,0,0,1,.054-3.772l.051-.476,3.309-31.552a17.293,17.293,0,0,1,5.469-10.935,16.687,16.687,0,0,1,5.219-3.255,16.254,16.254,0,0,1,6.007-1.139,16.943,16.943,0,0,1,16.709,15.33l1.589,15.195,1.2,11.419.223,2.113.344,3.3c.048.453.081.9.1,1.349C1580.174,1055.594,1580.181,1056.074,1580.167,1056.548Z" transform="translate(-1535.97 -1006.404)" fill="#fc9592" fill-rule="evenodd"/>
            <path id="Path_11335" data-name="Path 11335" d="M1581.342,1048.347a24.154,24.154,0,0,1-22.064,6.653c-2.481-.561-5.4-1.43-7.321.23a4.382,4.382,0,0,0-1.2,1.8,10,10,0,0,0-.507,1.978,25.35,25.35,0,0,0,.321,9.884,24.79,24.79,0,0,0,1.508,4.486c.109.253.223.514.331.784a20.445,20.445,0,0,1-9.658-11.551,20.492,20.492,0,0,1-.977-4.59c-.017-.159-.034-.321-.041-.483a21.078,21.078,0,0,1,.054-3.772l.051-.476,3.309-31.552a17.3,17.3,0,0,1,5.469-10.935,16.691,16.691,0,0,1,5.22-3.255,16.254,16.254,0,0,1,6.007-1.139,16.942,16.942,0,0,1,16.709,15.33l1.589,15.195Z" transform="translate(-1537.824 -1006.404)" fill="#f97d7d" fill-rule="evenodd"/>
          </g>
          <g id="Group_8907" data-name="Group 8907" transform="translate(47.141)">
            <path id="Path_11336" data-name="Path 11336" d="M1440,789.128l.845,44.408a48.864,48.864,0,0,0,48.857,47.935c.308,0,.623,0,.93-.008a49.021,49.021,0,0,0,47.82-45.514c.1-1.406.138-2.836.108-4.273l-.845-44.4A48.866,48.866,0,0,0,1440,789.128Z" transform="translate(-1424.644 -736.323)" fill="#fdafab" fill-rule="evenodd"/>
            <path id="Path_11337" data-name="Path 11337" d="M1431.817,834.146a50.147,50.147,0,0,1,1.177,7.26c.134,1.542-.514,16.316,2.963,15.012,1.394-.523,1.462-1.731,1.82-3.177,3.162-12.778,6.274-26.541,1.483-38.8a13.793,13.793,0,0,0-3.57-5.575,6.9,6.9,0,0,0-11.275,5.406c.088,3.118,1.826,5.907,3.257,8.679A49.391,49.391,0,0,1,1431.817,834.146Z" transform="translate(-1322.032 -779.117)" fill="#01004c" fill-rule="evenodd"/>
            <path id="Path_11338" data-name="Path 11338" d="M1669.825,823.942a19.526,19.526,0,0,0-1.956,5.8,53.794,53.794,0,0,0-.162,11.53c.088,1.695.117,3.548-.914,4.9s-3.55,1.554-4.211-.008c-.406-.957-.1-2.361-1.029-2.825-.965-.481-1.876.688-2.452,1.6-1.272,2.016-4.545,5.206-7.232,4.713-2.724-.5-4.6-5.182-5.539-7.37a51.343,51.343,0,0,1-2.071-34.282,33.672,33.672,0,0,1,5.582-11.456c2.726-3.468,7.016-7.29,11.635-6.665,4.834.655,7.7,3.785,11.449,6.566,3.552,2.635,7.44,6.855,7.661,11.526.217,4.6-3.819,7.053-6.541,10.045A27.989,27.989,0,0,0,1669.825,823.942Z" transform="translate(-1641.515 -768.113)" fill="#01004c" fill-rule="evenodd"/>
            <g id="Group_8893" data-name="Group 8893" transform="translate(0 72.558)">
              <path id="Path_11339" data-name="Path 11339" d="M1687.535,945.809c2.644,5.371,7.393,8.714,11.858,8.829a8.792,8.792,0,0,0,1.621-.1,8.581,8.581,0,0,0,2.444-.792,7.894,7.894,0,0,0,1.352-.861,8.087,8.087,0,0,0,1.422-1.391c2.951-3.627,3.336-9.782.569-15.407a16.748,16.748,0,0,0-6.885-7.424,11.771,11.771,0,0,0-1.806-.814,9.14,9.14,0,0,0-7.231.292C1685.552,930.832,1684.062,938.739,1687.535,945.809Z" transform="translate(-1685.661 -927.248)" fill="#fdafab" fill-rule="evenodd"/>
              <g id="Group_8892" data-name="Group 8892" transform="translate(3.928 5.567)">
                <path id="Path_11340" data-name="Path 11340" d="M1719.531,948.908a.338.338,0,0,0,.329-.414,8,8,0,0,0-9.944-5.919.338.338,0,1,0,.182.651,7.315,7.315,0,0,1,8.869,4.62,7.23,7.23,0,0,0-5.651-.128.338.338,0,0,0,.238.633,6.3,6.3,0,0,1,5.782.5A.337.337,0,0,0,1719.531,948.908Z" transform="translate(-1709.669 -942.291)" fill="#fc9795"/>
              </g>
            </g>
            <g id="Group_8895" data-name="Group 8895" transform="translate(100.716 72.556)">
              <path id="Path_11341" data-name="Path 11341" d="M1431.326,928.139c-5.318-2.684-12.447.87-15.922,7.941s-1.98,14.98,3.336,17.666,12.45-.872,15.923-7.94S1436.646,930.824,1431.326,928.139Z" transform="translate(-1413.529 -927.244)" fill="#fdafab" fill-rule="evenodd"/>
              <g id="Group_8894" data-name="Group 8894" transform="translate(8.345 5.567)">
                <path id="Path_11342" data-name="Path 11342" d="M1425.931,948.9a.339.339,0,0,0,.195-.062,6.3,6.3,0,0,1,5.781-.5.338.338,0,1,0,.238-.632,7.232,7.232,0,0,0-5.651.128,7.317,7.317,0,0,1,8.87-4.619.338.338,0,1,0,.181-.651,8,8,0,0,0-9.944,5.919.338.338,0,0,0,.329.413Z" transform="translate(-1425.593 -942.285)" fill="#fc9795"/>
              </g>
            </g>
            <g id="Group_8896" data-name="Group 8896" transform="translate(27.401 81.451)">
              <circle id="Ellipse_677" data-name="Ellipse 677" cx="14.815" cy="14.815" r="14.815" transform="translate(20.952 41.903) rotate(-135)" fill="#ff8a93" opacity="0"/>
              <ellipse id="Ellipse_678" data-name="Ellipse 678" cx="14.047" cy="14.047" rx="14.047" ry="14.047" transform="translate(9.336 37.067) rotate(-99.217)" fill="#ff8a93" opacity="0.111"/>
              <circle id="Ellipse_679" data-name="Ellipse 679" cx="13.278" cy="13.278" r="13.278" transform="translate(20.952 39.73) rotate(-135)" fill="#ff8a93" opacity="0.222"/>
              <circle id="Ellipse_680" data-name="Ellipse 680" cx="12.51" cy="12.51" r="12.51" transform="translate(20.952 38.643) rotate(-135)" fill="#ff8a93" opacity="0.333"/>
              <circle id="Ellipse_681" data-name="Ellipse 681" cx="11.742" cy="11.742" r="11.742" transform="translate(20.952 37.557) rotate(-135)" fill="#ff8a93" opacity="0.444"/>
              <circle id="Ellipse_682" data-name="Ellipse 682" cx="10.973" cy="10.973" r="10.973" transform="translate(20.952 36.47) rotate(-135)" fill="#ff8a93" opacity="0.556"/>
              <ellipse id="Ellipse_683" data-name="Ellipse 683" cx="10.205" cy="10.205" rx="10.205" ry="10.205" transform="translate(10.747 10.747)" fill="#ff8a93" opacity="0.667"/>
              <circle id="Ellipse_684" data-name="Ellipse 684" cx="9.436" cy="9.436" r="9.436" transform="translate(20.952 34.297) rotate(-135)" fill="#ff8a93" opacity="0.778"/>
              <circle id="Ellipse_685" data-name="Ellipse 685" cx="8.668" cy="8.668" r="8.668" transform="translate(20.952 33.21) rotate(-135)" fill="#ff8a93" opacity="0.889"/>
              <circle id="Ellipse_686" data-name="Ellipse 686" cx="7.9" cy="7.9" r="7.9" transform="translate(20.952 32.123) rotate(-135)" fill="#ff8a93"/>
            </g>
            <g id="Group_8897" data-name="Group 8897" transform="translate(81.097 85.053)">
              <ellipse id="Ellipse_687" data-name="Ellipse 687" cx="14.815" cy="14.815" rx="14.815" ry="14.815" transform="translate(5.098 34.346) rotate(-99.217)" fill="#ff8a93" opacity="0"/>
              <ellipse id="Ellipse_688" data-name="Ellipse 688" cx="14.047" cy="14.047" rx="14.047" ry="14.047" transform="translate(5.734 33.464) rotate(-99.217)" fill="#ff8a93" opacity="0.111"/>
              <ellipse id="Ellipse_689" data-name="Ellipse 689" cx="13.278" cy="13.278" rx="13.278" ry="13.278" transform="translate(24.535 34.698) rotate(-157.5)" fill="#ff8a93" opacity="0.222"/>
              <ellipse id="Ellipse_690" data-name="Ellipse 690" cx="12.51" cy="12.51" rx="12.51" ry="12.51" transform="translate(24.119 33.694) rotate(-157.5)" fill="#ff8a93" opacity="0.333"/>
              <ellipse id="Ellipse_691" data-name="Ellipse 691" cx="11.742" cy="11.742" rx="11.742" ry="11.742" transform="translate(7.64 30.82) rotate(-99.217)" fill="#ff8a93" opacity="0.444"/>
              <ellipse id="Ellipse_692" data-name="Ellipse 692" cx="10.973" cy="10.973" rx="10.973" ry="10.973" transform="translate(8.275 29.938) rotate(-99.217)" fill="#ff8a93" opacity="0.556"/>
              <ellipse id="Ellipse_693" data-name="Ellipse 693" cx="10.205" cy="10.205" rx="10.205" ry="10.205" transform="translate(7.144 7.144)" fill="#ff8a93" opacity="0.667"/>
              <ellipse id="Ellipse_694" data-name="Ellipse 694" cx="9.436" cy="9.436" rx="9.436" ry="9.436" transform="translate(22.456 29.678) rotate(-157.5)" fill="#ff8a93" opacity="0.778"/>
              <ellipse id="Ellipse_695" data-name="Ellipse 695" cx="8.668" cy="8.668" rx="8.668" ry="8.668" transform="translate(22.04 28.674) rotate(-157.5)" fill="#ff8a93" opacity="0.889"/>
              <ellipse id="Ellipse_696" data-name="Ellipse 696" cx="7.9" cy="7.9" rx="7.9" ry="7.9" transform="translate(10.817 26.412) rotate(-99.217)" fill="#ff8a93"/>
            </g>
            <path id="Path_11343" data-name="Path 11343" d="M1534.45,960.928c.171,1.746.247,3.716-.924,5.022-1.258,1.4-3.4,1.446-5.285,1.383-1.685-.056-3.551-.189-4.721-1.4-1.429-1.483-1.167-3.855-.809-5.883q1.971-11.15,3.941-22.3a3.641,3.641,0,0,1,1.17-2.5c3.043-2.1,4.113,8.661,4.375,10.034Q1533.677,953.047,1534.45,960.928Z" transform="translate(-1451.123 -859.559)" fill="#fc9795" fill-rule="evenodd"/>
            <path id="Path_11344" data-name="Path 11344" d="M1440.419,984.655a49.032,49.032,0,0,0,48.5,42.925c.307,0,.622,0,.93-.008a48.572,48.572,0,0,0,14.737-2.577,49.526,49.526,0,0,0,28.9-26.309c1.791-3.969,6.881-15.49,2.245-18.213-6.578-3.863-15.246-1.036-22.167-4.131-3.618-1.617-6.713-4.708-10.663-5.027-3.456-.278-6.643,1.647-9.862,2.933-8.974,3.586-18.881,2.39-28.3,2.625a45.5,45.5,0,0,0-13.588,2C1449.423,979.46,1440.129,982.269,1440.419,984.655Z" transform="translate(-1423.861 -882.433)" fill="#fff" fill-rule="evenodd"/>
            <g id="Group_8898" data-name="Group 8898" transform="translate(18.145 76.956)">
              <path id="Path_11345" data-name="Path 11345" d="M1683.739,968.429h0a.768.768,0,0,0,.765-.772c-.038-8.54-2.7-19.3-6.946-28.09a.768.768,0,1,0-1.384.669c4.153,8.593,6.756,19.1,6.793,27.428A.769.769,0,0,0,1683.739,968.429Z" transform="translate(-1676.1 -939.133)" fill="#fff"/>
            </g>
            <g id="Group_8899" data-name="Group 8899" transform="translate(13.731 99.848)">
              <path id="Path_11346" data-name="Path 11346" d="M1698.817,1001.089a8.293,8.293,0,0,0,3.228,3.942.768.768,0,1,0,.83-1.292,6.845,6.845,0,0,1-2.436-2.751A8.771,8.771,0,0,1,1698.817,1001.089Z" transform="translate(-1698.817 -1000.989)" fill="#fff"/>
            </g>
            <g id="Group_8900" data-name="Group 8900" transform="translate(107.521 71.25)">
              <path id="Path_11347" data-name="Path 11347" d="M1446.005,953.715h0a.768.768,0,0,1-.871-.649c-1.235-8.451-.207-19.49,2.682-28.812a.769.769,0,0,1,1.468.455c-2.826,9.116-3.834,19.9-2.63,28.135A.769.769,0,0,1,1446.005,953.715Z" transform="translate(-1444.616 -923.713)" fill="#fff"/>
            </g>
            <g id="Group_8901" data-name="Group 8901" transform="translate(111.039 98.324)">
              <path id="Path_11348" data-name="Path 11348" d="M1440.3,996.97a8.292,8.292,0,0,1-3.228,3.942.767.767,0,1,1-.83-1.291,6.855,6.855,0,0,0,2.436-2.751A8.715,8.715,0,0,0,1440.3,996.97Z" transform="translate(-1435.882 -996.87)" fill="#fff"/>
            </g>
            <g id="Group_8902" data-name="Group 8902" transform="translate(53.797 97.896)">
              <path id="Path_11349" data-name="Path 11349" d="M1484.3,1000.4a37.486,37.486,0,0,0,13.064-2.348c.324-.12.648-.246.971-.371a18.459,18.459,0,0,1,3.884-1.188c2.979-.443,5.817.615,8.562,1.639.556.207,1.11.414,1.665.608a28.285,28.285,0,0,0,11.849,1.4.338.338,0,1,0-.061-.674,27.606,27.606,0,0,1-11.564-1.365c-.55-.193-1.1-.4-1.652-.6-2.825-1.053-5.746-2.142-8.9-1.674a18.977,18.977,0,0,0-4.029,1.227c-.321.124-.641.249-.963.369a36.83,36.83,0,0,1-17.9,1.953.338.338,0,1,0-.094.669A37.168,37.168,0,0,0,1484.3,1000.4Z" transform="translate(-1478.852 -995.714)" fill="#e6e6e6"/>
            </g>
            <g id="Group_8903" data-name="Group 8903" transform="translate(53.797 102.151)">
              <path id="Path_11350" data-name="Path 11350" d="M1484.3,1011.9a37.483,37.483,0,0,0,13.064-2.348c.324-.121.648-.246.971-.372a18.467,18.467,0,0,1,3.884-1.189c2.979-.443,5.817.615,8.562,1.639.556.207,1.11.414,1.665.608a28.294,28.294,0,0,0,11.849,1.4.338.338,0,1,0-.061-.674,27.626,27.626,0,0,1-11.564-1.365c-.55-.193-1.1-.4-1.652-.6-2.825-1.053-5.746-2.142-8.9-1.674a18.949,18.949,0,0,0-4.029,1.227c-.321.124-.641.249-.963.369a36.825,36.825,0,0,1-17.9,1.953.338.338,0,1,0-.094.669A37.149,37.149,0,0,0,1484.3,1011.9Z" transform="translate(-1478.852 -1007.211)" fill="#e6e6e6"/>
            </g>
            <g id="Group_8906" data-name="Group 8906" transform="translate(49.102 64.901)">
              <path id="Path_11351" data-name="Path 11351" d="M1581.356,911.184a1.511,1.511,0,1,0,1.265-2.745c-.026-.011-9.157-4.471-17.034.617a1.512,1.512,0,1,0,1.64,2.542C1573.67,907.435,1581.337,911.176,1581.356,911.184Z" transform="translate(-1564.893 -906.597)" fill="#01004c" fill-rule="evenodd"/>
              <path id="Path_11352" data-name="Path 11352" d="M1468.592,911.532a1.511,1.511,0,1,1-1.411-2.672c.026-.013,8.9-4.962,17.043-.307a1.513,1.513,0,1,1-1.5,2.627C1476.064,907.371,1468.611,911.522,1468.592,911.532Z" transform="translate(-1429.921 -906.557)" fill="#01004c" fill-rule="evenodd"/>
              <g id="Group_8904" data-name="Group 8904" transform="translate(7.584 10.368)">
                <ellipse id="Ellipse_697" data-name="Ellipse 697" cx="4.587" cy="3.502" rx="4.587" ry="3.502" transform="translate(0.018 9.189) rotate(-90.116)" fill="#fff"/>
                <path id="Path_11353" data-name="Path 11353" d="M1582.924,942.127c0,2.144-1.319,3.884-2.956,3.887s-2.967-1.732-2.971-3.876,1.319-3.885,2.956-3.888S1582.919,939.983,1582.924,942.127Z" transform="translate(-1576.38 -936.89)" fill="#01004c" fill-rule="evenodd"/>
              </g>
              <g id="Group_8905" data-name="Group 8905" transform="translate(40.694 10.338)">
                <ellipse id="Ellipse_698" data-name="Ellipse 698" cx="4.587" cy="3.502" rx="4.587" ry="3.502" transform="matrix(-0.011, -1, 1, -0.011, 0.099, 9.25)" fill="#fff"/>
                <path id="Path_11354" data-name="Path 11354" d="M1493.334,942.1c.023,2.144-1.284,3.9-2.921,3.914s-2.982-1.706-3.006-3.849,1.284-3.9,2.921-3.914S1493.311,939.956,1493.334,942.1Z" transform="translate(-1486.745 -936.859)" fill="#01004c" fill-rule="evenodd"/>
              </g>
            </g>
            <path id="Path_11355" data-name="Path 11355" d="M1460.456,731.846q.619-.075,1.226-.137c15.468-1.566,31.644.248,45.293,7.693a52.84,52.84,0,0,1,20.068,19.121,44.09,44.09,0,0,1,5.252,13.243c.639,2.968,3.724,9.647.067,11.771-1.484.862-4.4-.053-6.032-.1a76.716,76.716,0,0,1-24.364-4.676c1.492,1.2.591,3.859-1.143,4.677s-3.769.391-5.634-.051l-19-4.5c1.349.56,1.179,2.731.022,3.623-2.121,1.636-6.764.828-9.255.714A57.2,57.2,0,0,1,1455.8,781.6c.619.211.58,1.2.07,1.6a2.782,2.782,0,0,1-1.878.375c-11.637-.464-26.348-2.951-30.065-16.017C1417.537,745.113,1442.577,734.031,1460.456,731.846Z" transform="translate(-1413.863 -731.19)" fill="#01004c" fill-rule="evenodd"/>
            <path id="Path_11356" data-name="Path 11356" d="M1472.13,787.152q.263-2.753.525-5.507l24.277,7.388q.231-2.485.461-4.969l28.8,5.99q-.03-1.871-.061-3.742a65.445,65.445,0,0,0,14.686.914c1.745-.089,3.771-.422,4.606-1.956,1.12-2.055-.742-4.435-2.538-5.937-18.26-15.268-44-18.307-67.662-15.712-5.992.657-14.31,3.329-14.87,10.695-.227,2.983,1.716,5.57,3.671,7.633C1464.639,782.6,1472.088,787.594,1472.13,787.152Z" transform="translate(-1439.356 -751.098)" fill="#342e74" fill-rule="evenodd"/>
          </g>
          <path id="Path_11357" data-name="Path 11357" d="M1444.817,933.184a.741.741,0,0,0,.7-.514l3.184-9.9a.741.741,0,0,0-1.41-.453l-3.183,9.9a.741.741,0,0,0,.7.967Z" transform="translate(-1289.18 -851.262)" fill="#01004c"/>
          <g id="Group_8908" data-name="Group 8908" transform="translate(73.07 152.326)">
            <path id="Path_11358" data-name="Path 11358" d="M1609.686,1172.437a.919.919,0,0,1-.254.573,169.512,169.512,0,0,0-11.615,14.14c-7.575-12.839-23.223-24.993-28.138-39.076q1.937-.5,3.921-.916,1.384-.288,2.789-.544c1.189-.215,3.161-.932,4.288-.436,1.323.582,2.772,2.623,3.844,3.62q4.1,3.808,8.264,7.537,4.41,3.946,8.9,7.8,2.3,1.977,4.624,3.93C1607.2,1169.815,1609.751,1171.216,1609.686,1172.437Z" transform="translate(-1569.68 -1144.816)" fill="#fff" fill-rule="evenodd"/>
            <path id="Path_11359" data-name="Path 11359" d="M1533.3,1144.624c-.253,1.349-1.146,2.961-1.44,4.11a106.3,106.3,0,0,0-2.248,12.575c-1.112,8.289-2.414,16.493-6.734,23.815a168.678,168.678,0,0,0-11.611-14.14v0a2.361,2.361,0,0,1-.416-1.842c.25-2.671,2.687-6.808,3.343-8.2a111.089,111.089,0,0,1,8.248-14.83,18.41,18.41,0,0,1,2.667-3.323c.247.033.5.074.747.115a55.946,55.946,0,0,1,7.247,1.66Z" transform="translate(-1471.518 -1142.789)" fill="#fff" fill-rule="evenodd"/>
          </g>
          <path id="Path_11360" data-name="Path 11360" d="M1575.041,1400.452l.74-.006c-.453-53.98-.155-108.718.886-162.695l-.74-.014C1574.886,1291.721,1574.588,1346.466,1575.041,1400.452Z" transform="translate(-1465.498 -1050.272)" fill="#8ec2fe"/>
          <circle id="Ellipse_699" data-name="Ellipse 699" cx="3.038" cy="3.038" r="3.038" transform="translate(118.629 209.776) rotate(-170.783)" fill="#fff"/>
          <ellipse id="Ellipse_700" data-name="Ellipse 700" cx="3.038" cy="3.038" rx="3.038" ry="3.038" transform="translate(112.387 236.675)" fill="#fff"/>
          <ellipse id="Ellipse_701" data-name="Ellipse 701" cx="3.038" cy="3.038" rx="3.038" ry="3.038" transform="translate(111.672 277.068)" fill="#fff"/>
          <ellipse id="Ellipse_702" data-name="Ellipse 702" cx="3.038" cy="3.038" rx="3.038" ry="3.038" transform="translate(113.066 329.29) rotate(-112.5)" fill="#fff"/>
          <path id="Path_11361" data-name="Path 11361" d="M1558.21,1218.966l-15.392,124.2,12.822,12.866,12.766-14.309Z" transform="translate(-1445.387 -1038.448)" fill="#f56751" fill-rule="evenodd"/>
          <path id="Path_11362" data-name="Path 11362" d="M1550.837,1229.442l7.722,9.572,8.379-11.633-7.228-8.414Z" transform="translate(-1446.887 -1038.448)" fill="#f56751" fill-rule="evenodd"/>
          <g id="Group_8913" data-name="Group 8913" transform="translate(124.553 169.398)">
            <path id="Path_11363" data-name="Path 11363" d="M1401.767,1400.987c.007.071.011.143.015.215a.031.031,0,0,1,0,.015c0,.091.008.181.01.272a18.57,18.57,0,0,1-10.339,17.127,18.545,18.545,0,0,1-25.994-11.39c-.057-.183-.107-.368-.161-.556l-.23-.887-5.572-21.364-.923-3.532-2.412-9.243-.833-3.191a18.563,18.563,0,0,1,21.015-22.977c.591.1,1.174.229,1.745.386a18.52,18.52,0,0,1,12.806,12.13c.121.359.228.728.324,1.1l4.1,15.715,5.873,22.5A19.4,19.4,0,0,1,1401.767,1400.987Z" transform="translate(-1333.718 -1287.376)" fill="#fdafab" fill-rule="evenodd"/>
            <path id="Path_11369" data-name="Path 11369" d="M1330.9,1223.955c16.924,56.527,30.121,115.359,25.214,174.143-.033.392-.067.788-.1,1.181-.329,3.778-.659,7.883,1.406,11.065a9.025,9.025,0,0,0,2.294,2.394c2.487,1.821,5.84,2.576,9.067,3.053.459.07.918.133,1.37.192a46.828,46.828,0,0,0,10.336.444c3.908-.378,7.505-1.632,9.981-4.615,1.928-2.324,2.787-5.329,3.568-8.245,8.327-31.15,13.127-63.44,11.621-95.652s-9.493-64.391-25.484-92.391c-2.7-4.723-5.244-9.4-8.053-13.482-6.251-9.071-13.826-15.218-27.375-12.461-6.051,1.229-11.935,4.641-14.785,10.118C1326.122,1207.072,1328.509,1215.994,1330.9,1223.955Z" transform="translate(-1327.938 -1188.917)" fill="#5e9cd3" fill-rule="evenodd"/>
            <path id="Path_11370" data-name="Path 11370" d="M1369.73,1223.955c16.924,56.527,30.121,115.359,25.214,174.143a35.539,35.539,0,0,0,3.656-.111c1.01-.078,2.014-.181,3-.289a85.624,85.624,0,0,0,9.677-1.484c5.3-1.2,10.255-3.275,13.69-7.368a17.348,17.348,0,0,0,1.262-1.71c3.475-5.329,3.989-12.242,4.112-18.708q.039-1.943.045-3.882a453.366,453.366,0,0,0-2.483-46.553c-.759-7.875-1.621-15.747-2.484-23.608q-.483-4.408-.973-8.815c-.781-7.054-1.588-14.1-2.468-21.143-.145-1.155-.292-2.313-.44-3.467q-.483-3.792-1.011-7.58c-1.965-14.255-4.345-28.455-7.564-42.486-.685-2.972-1.262-5.958-2.01-8.852-6.251-9.071-13.826-15.218-27.375-12.461-6.051,1.229-11.935,4.641-14.785,10.118C1364.956,1207.072,1367.343,1215.994,1369.73,1223.955Z" transform="translate(-1366.773 -1188.917)" fill="#478cbf" fill-rule="evenodd"/>
          </g>
          <path id="Path_11371" data-name="Path 11371" d="M1397.361,1317.924q.345,7.165.849,14.316.516,7.266,1.2,14.511c.475,5,.552,8.312,1.4,10.557.971,2.589,2.96,3.759,7.745,4.472,7.147,1.062,14.425,1.572,21.527-.226,17.116-4.33,24.845-19.91,23.481-41.1q-2.975-46.243-5.946-92.49c-1.054-16.381-3.11-32.8-7.19-48.237-4.92-18.611-15.008-28.669-27.658-32.34-.107-.03-.256.257-.443.818-2.165,6.534-9.208,50.066-9.806,54.38-2.626,19.008-4.375,38.212-5.236,57.479S1396.443,1298.663,1397.361,1317.924Z" transform="translate(-1276.602 -993.359)" fill="#64a3e6" fill-rule="evenodd"/>
          <path id="Path_11372" data-name="Path 11372" d="M1489.481,1319.321q.344,7.164.848,14.316c4.046-32.661,4.4-63.027,16.174-92.031q-2.262-8.082-4.524-16.169,4.884-3.4,9.763-6.8c-4.847-22.067-2.452-46.969-7.3-69.032-2.165,6.534-9.208,50.066-9.806,54.38-2.626,19.007-4.374,38.211-5.237,57.479S1488.563,1300.059,1489.481,1319.321Z" transform="translate(-1368.722 -994.755)" fill="#8ec2fe" fill-rule="evenodd"/>
          <path id="Path_11373" data-name="Path 11373" d="M1684,1318.072q-.517,7.165-1.278,14.316-.776,7.266-1.808,14.512c-.713,5-.832,8.312-2.1,10.557-1.464,2.59-4.459,3.759-11.662,4.472-5.26.521-10.571.909-15.874.96q-1.07.011-2.143,0a91.6,91.6,0,0,1-14.393-1.187c-25.768-4.33-37.407-19.91-35.352-41.1q3.1-32.015,6.2-64.033c.987-10.172,2.3-20.4,3.005-30.565.683-9.824.747-19.555,2.843-29.233a71.062,71.062,0,0,1,4.215-13.332,57.367,57.367,0,0,1,2.6-5.219c.936-1.663,1.958-3.282,3.049-4.844a62.212,62.212,0,0,1,27.756-21.989c2.6-1.038,8.461-3.932,11.246-3.35,1.656.345,1.876,1.947,2.444,3.573,1.579,4.523,2.819,9.178,4.083,13.8,3.377,12.348,6.794,24.794,9.411,37.329a421.576,421.576,0,0,1,7.883,57.479A416.719,416.719,0,0,1,1684,1318.072Z" transform="translate(-1582.904 -993.721)" fill="#64a3e6" fill-rule="evenodd"/>
          <path id="Path_11374" data-name="Path 11374" d="M1731.14,1405.264a91.588,91.588,0,0,1-14.393-1.187c-25.768-4.33-37.407-19.91-35.352-41.1q3.1-32.015,6.2-64.033c.987-10.172,2.3-20.4,3.006-30.565.683-9.824.747-19.556,2.842-29.234a71.063,71.063,0,0,1,4.215-13.332,57.308,57.308,0,0,1,2.6-5.219c.936-1.663,1.957-3.282,3.049-4.844,6.524-.115,13.66-1.487,18.44.761,11.568,5.439,14.965,25.66,14.982,37.224.024,14.837-4.029,29.294-6.848,43.833A268.034,268.034,0,0,0,1731.14,1405.264Z" transform="translate(-1664.905 -1036.096)" fill="#3d89e6" fill-rule="evenodd"/>
          <path id="Path_11375" data-name="Path 11375" d="M1633.919,1318.744q-.519,7.164-1.278,14.316c-6.092-32.661-7.862-65.664-25.591-94.668q3.406-8.082,6.811-16.168-7.354-3.4-14.7-6.8c7.3-22.067,4.933-44.332,12.23-66.4,3.259,6.535,13.862,50.066,14.763,54.38a421.277,421.277,0,0,1,7.884,57.479A416.878,416.878,0,0,1,1633.919,1318.744Z" transform="translate(-1532.819 -994.392)" fill="#8ec2fe" fill-rule="evenodd"/>
          <g id="Group_8918" data-name="Group 8918" transform="translate(0 180.414)">
            <path id="Path_11376" data-name="Path 11376" d="M1733.55,1437.5c0,.072,0,.143.008.215a.028.028,0,0,0,0,.015c.008.09.011.182.019.272a18.572,18.572,0,0,0,19.762,17.059,18.117,18.117,0,0,0,2.4-.321,18.594,18.594,0,0,0,11.91-8.128,18.313,18.313,0,0,0,2.661-6.712c.038-.189.068-.377.1-.57l.136-.906,3.3-21.83.547-3.609,1.431-9.445.495-3.261a18.562,18.562,0,0,0-23.307-20.649c-.578.162-1.144.351-1.695.566a18.52,18.52,0,0,0-11.465,13.4c-.083.37-.151.748-.208,1.129l-2.435,16.059-3.485,22.989A19.378,19.378,0,0,0,1733.55,1437.5Z" transform="translate(-1724.099 -1319.643)" fill="#fdafab" fill-rule="evenodd"/>
            <path id="Path_11382" data-name="Path 11382" d="M1709.05,1248.361c-12.971,29.522-17.539,62.361-15.665,94.552s10.033,63.8,21.577,93.909c1.081,2.819,2.25,5.716,4.41,7.824,5.178,5.054,13.607,3.711,20.643,2.021,4.667-1.121,9.895-2.666,12.071-6.944,1.72-3.379.962-7.428.237-11.15-11.353-58.307-4.374-118.615,6.613-176.992,1.536-8.165,2.976-17.289-1.609-24.217-3.408-5.149-9.615-7.927-15.761-8.517C1721.605,1216.93,1716.1,1232.315,1709.05,1248.361Z" transform="translate(-1692.981 -1218.684)" fill="#64a3e6" fill-rule="evenodd"/>
          </g>
        </g>
        <path id="Path_11469" data-name="Path 11469" d="M0,0H556.339V315.4H0Z" transform="translate(0 18.695)" fill="none"/>
      </g>
    </g>
    <g id="Toggle_On" data-name="Toggle On" transform="translate(339.177 260.216)">
      <rect id="_Background" data-name="🎨 Background" width="38" height="24" rx="12" fill="#037317" stroke="rgba(0,0,0,0)" stroke-width="1"/>
      <circle id="_Toggle_Mark" data-name="🎨 Toggle Mark" cx="10.5" cy="10.5" r="10.5" transform="translate(15.783 1.481)" fill="#fff"/>
      <g id="_Icon" data-name="🎨 Icon" transform="translate(21.835 7.557)">
        <rect id="_8_Toggle_Checkmark:_Toggle_background" data-name=" 8) Toggle/Checkmark: Toggle background" width="8.887" height="8.887" fill="none"/>
        <g id="Group_44" data-name="Group 44" transform="translate(0 1.111)">
          <path id="_Icon_Color-3" data-name="🎨 Icon Color" d="M6.708.477A1.234,1.234,0,0,1,8.393.225a1.139,1.139,0,0,1,.261,1.628L4.67,7.11a.741.741,0,0,1-1.105.085L.352,4.085a1.137,1.137,0,0,1,0-1.647,1.236,1.236,0,0,1,1.705,0L3.883,4.2Z" transform="translate(0 0)" fill="#037317"/>
        </g>
      </g>
    </g>
    <g id="Toggle_Off" data-name="Toggle Off" transform="translate(406.177 315.216)">
      <rect id="_Background-2" data-name="🎨 Background" width="38" height="24" rx="12" fill="#037317" stroke="rgba(0,0,0,0)" stroke-width="1"/>
      <circle id="_Toggle_Mark-2" data-name="🎨 Toggle Mark" cx="10.5" cy="10.5" r="10.5" transform="translate(15.783 1.481)" fill="#fff"/>
      <g id="_Icon-2" data-name="🎨 Icon" transform="translate(21.835 7.557)">
        <rect id="_8_Toggle_Checkmark:_Toggle_background-2" data-name=" 8) Toggle/Checkmark: Toggle background" width="8.887" height="8.887" fill="none"/>
        <g id="Group_44-2" data-name="Group 44" transform="translate(0 1.111)">
          <path id="_Icon_Color-4" data-name="🎨 Icon Color" d="M6.708.477A1.234,1.234,0,0,1,8.393.225a1.139,1.139,0,0,1,.261,1.628L4.67,7.11a.741.741,0,0,1-1.105.085L.352,4.085a1.137,1.137,0,0,1,0-1.647,1.236,1.236,0,0,1,1.705,0L3.883,4.2Z" transform="translate(0 0)" fill="#037317"/>
        </g>
      </g>
    </g>
    <rect id="Rectangle_4695" data-name="Rectangle 4695" width="86" height="21" rx="10.5" transform="translate(241.177 269.216)" fill="#5699e8"/>
    <rect id="Rectangle_4696" data-name="Rectangle 4696" width="153" height="21" rx="10.5" transform="translate(241.177 325.216)" fill="#5699e8"/>
    <g id="Group_8770" data-name="Group 8770" transform="translate(223.704)">
      <path id="Path_11169" data-name="Path 11169" d="M1275.2,1151.062s-8.114,0-16.228-7.007-2.95-17.7-2.95-17.7-11.8-5.532-29.874-8.851a216.673,216.673,0,0,0-33.82-3.261.134.134,0,0,1,0-.024,2.156,2.156,0,0,1-.276.021c-.552-.006-.854-.005-.854-.005a.144.144,0,0,1,.006.031,222.848,222.848,0,0,0-34.1,3.239c-18.073,3.314-29.874,8.851-29.874,8.851s5.163,10.7-2.951,17.7-16.228,7.007-16.228,7.007-3.688,63.067,0,81.139,30.611,44.995,49.052,59.009a407.072,407.072,0,0,0,34.374,23.429v.175l.147-.087.147.087s0-.062,0-.175a406.957,406.957,0,0,0,34.374-23.429c18.441-14.015,45.364-40.938,49.052-59.009S1275.2,1151.062,1275.2,1151.062Z" transform="translate(-1106.415 -1114.216)" fill="url(#linear-gradient)"/>
      <path id="Path_11170" data-name="Path 11170" d="M1292,1259.4c-2.542,12.458-24.844,36.476-44.076,51.095-10.464,7.953-20.262,14.472-26.489,18.455-6.22-3.98-16.013-10.5-26.485-18.455-2.385-1.814-4.817-3.77-7.253-5.83-17.207-14.567-34.6-34.35-36.823-45.265-2.129-10.424-1.409-43.867-.267-67.963a43.491,43.491,0,0,0,12.163-7.48,26.34,26.34,0,0,0,9.136-19.169,138.48,138.48,0,0,1,17.4-4.376,208.306,208.306,0,0,1,31.7-3.016l1.033-.026a202.409,202.409,0,0,1,31.521,3.041,138.659,138.659,0,0,1,17.41,4.379,26.332,26.332,0,0,0,9.135,19.166,43.42,43.42,0,0,0,12.162,7.48c.491,10.387.907,22.512,1.047,33.779C1293.5,1240.088,1293.213,1253.47,1292,1259.4Z" transform="translate(-1136.226 -1144.068)" fill="#0294ff"/>
      <path id="Path_11171" data-name="Path 11171" d="M1377.708,1411.658c-2.542,12.458-24.844,36.476-44.076,51.095-10.464,7.954-20.262,14.472-26.489,18.455-6.22-3.98-16.013-10.5-26.485-18.455-2.385-1.813-4.818-3.77-7.253-5.83a74.771,74.771,0,0,1,10.6-3.067,143.318,143.318,0,0,0,39.024-16.174,151.115,151.115,0,0,0,52.016-51.921,89.248,89.248,0,0,0,3.977-8.286C1379.206,1392.349,1378.919,1405.731,1377.708,1411.658Z" transform="translate(-1221.932 -1296.329)" fill="#0b85ff"/>
      <path id="Path_11173" data-name="Path 11173" d="M1191.593,1314.781V1114.267l-.389,0a.148.148,0,0,1,.006.03,222.947,222.947,0,0,0-34.1,3.239c-18.073,3.314-29.874,8.851-29.874,8.851s5.163,10.7-2.951,17.7-16.228,7.007-16.228,7.007-3.688,63.067,0,81.139,30.611,44.995,49.052,59.01a407.1,407.1,0,0,0,34.374,23.429v.175Z" transform="translate(-1106.415 -1114.25)" fill="#fff" opacity="0.32"/>
      <g id="Group_8769" data-name="Group 8769" transform="translate(12.209 12.222)">
        <path id="Path_11174" data-name="Path 11174" d="M1219.028,1327.8l-.581-.372c-6.354-4.062-16.119-10.57-26.559-18.5-19.389-14.737-41.889-39.043-44.48-51.737-2.108-10.332-1.473-43.211-.288-68.229l.033-.69.641-.259a42.53,42.53,0,0,0,11.863-7.3,25.209,25.209,0,0,0,8.761-18.4l.032-.749.714-.23a138.853,138.853,0,0,1,17.543-4.408,209.291,209.291,0,0,1,31.861-3.034l1.056-.026h.022a204.185,204.185,0,0,1,31.7,3.061,139.283,139.283,0,0,1,17.546,4.411l.714.23.033.75a25.215,25.215,0,0,0,8.763,18.4,42.5,42.5,0,0,0,11.861,7.3l.641.259.033.69c1.185,25.02,1.82,57.9-.287,68.229-2.591,12.694-25.091,37-44.48,51.737-10.415,7.916-20.192,14.432-26.56,18.5Zm-69.786-138.055c-1.158,24.8-1.771,56.968.279,67.011,1.14,5.587,6.655,14.195,15.53,24.237a204.428,204.428,0,0,0,28.141,26.214c10.069,7.652,19.509,13.971,25.835,18.031,6.339-4.07,15.789-10.4,25.835-18.031A204.427,204.427,0,0,0,1273,1281c8.875-10.042,14.39-18.65,15.53-24.238,2.049-10.039,1.437-42.2.278-67.011a44.747,44.747,0,0,1-11.822-7.4,27.225,27.225,0,0,1-9.466-19.182,137.265,137.265,0,0,0-16.569-4.117,201.863,201.863,0,0,0-31.32-3.025l-1.014.025a207.2,207.2,0,0,0-31.526,3,136.817,136.817,0,0,0-16.565,4.114,27.219,27.219,0,0,1-9.465,19.185A44.785,44.785,0,0,1,1149.242,1189.748Z" transform="translate(-1146.025 -1153.867)" fill="url(#linear-gradient-2)"/>
      </g>
      <g id="Symbols" transform="translate(51.472 46.447)">
        <g id="icons_icon-lock" data-name="icons/icon-lock">
          <g id="Group">
            <g id="Shape" transform="translate(-0.75 -0.873)" fill="#dbf3ff">
              <path d="M 23.2164192199707 88.43868255615234 C 18.88407707214355 88.43868255615234 15.14253616333008 88.43868255615234 12.04892444610596 88.09148406982422 C 9.384818077087402 87.79196166992188 6.010488986968994 87.13082122802734 3.541889190673828 84.65599060058594 C 1.062230229377747 82.18308258056641 0.4011949598789215 78.81196594238281 0.1025596782565117 76.15154266357422 C -0.2505109012126923 73.05328369140625 -0.2502873837947845 69.30300903320313 -0.2499932646751404 64.55500030517578 L -0.2499815076589584 64.13533782958984 C -0.2499815076589584 63.95101547241211 -0.2392277270555496 63.76433181762695 -0.2179815024137497 63.57943725585938 L -0.2179815024137497 47.49016571044922 L -0.218040332198143 46.86734008789063 C -0.2186756134033203 42.20915222167969 -0.2191697359085083 38.52982330322266 0.1238655596971512 35.47397613525391 C 0.427712619304657 32.80756378173828 1.093853831291199 29.4321403503418 3.570383310317993 26.96234130859375 C 6.044536113739014 24.48843574523926 9.415288925170898 23.82779884338379 12.07537174224854 23.52873992919922 C 12.38558578491211 23.49328231811523 12.72707748413086 23.47605514526367 13.06748867034912 23.46275329589844 L 13.06748867034912 20.84722328186035 C 13.06748867034912 20.70039749145508 13.07487201690674 20.56587600708008 13.08999443054199 20.43825340270996 C 13.14348793029785 17.67545318603516 13.73136425018311 14.99533462524414 14.83760643005371 12.47111701965332 C 15.91393661499023 10.01515293121338 17.43312454223633 7.810187816619873 19.35299491882324 5.917446613311768 C 21.27487754821777 4.022716999053955 23.50274848937988 2.535176038742065 25.97470092773438 1.496129035949707 C 28.53705406188965 0.4191054701805115 31.25185394287109 -0.1270004212856293 34.043701171875 -0.1270004212856293 C 36.83155822753906 -0.1270004212856293 39.54296112060547 0.4178348779678345 42.10255813598633 1.492376089096069 C 44.57197189331055 2.529058456420898 46.79832458496094 4.013387680053711 48.71977233886719 5.904140949249268 C 50.6391716003418 7.792858600616455 52.1593132019043 9.99354076385498 53.23799514770508 12.44504642486572 C 54.34731292724609 14.96622276306152 54.93917083740234 17.64400482177734 54.99740600585938 20.40481567382813 C 55.01251220703125 20.54085159301758 55.01987838745117 20.68625450134277 55.01987838745117 20.84722328186035 L 55.01987838745117 23.45892524719238 C 55.36803436279297 23.47435188293457 55.71924591064453 23.4929141998291 56.03841781616211 23.52871704101563 C 58.69492340087891 23.82736396789551 62.06211090087891 24.48750495910645 64.54367828369141 26.96234130859375 C 67.02462768554688 29.4365406036377 67.68592071533203 32.81077575683594 67.98486328125 35.4739875793457 C 68.33793640136719 38.57223510742188 68.33771514892578 42.32250595092773 68.33741760253906 47.07051849365234 L 68.33740997314453 47.49016571044922 L 68.33740997314453 47.50081253051758 L 68.33740997314453 47.50614166259766 L 68.33740997314453 64.13001251220703 L 68.33740997314453 64.15132904052734 L 68.33740997314453 64.36923217773438 C 68.33748626708984 69.19680786132813 68.33754730224609 73.00994110107422 67.98484039306641 76.14640808105469 C 67.68624114990234 78.80660247802734 67.02523040771484 82.17770385742188 64.54367828369141 84.65251922607422 C 62.06956100463867 87.12642669677734 58.69878387451172 87.78705596923828 56.03867721557617 88.08612060546875 C 52.94633483886719 88.43328094482422 49.10859680175781 88.43328094482422 44.66486740112305 88.43328094482422 L 44.44855880737305 88.43328094482422 L 44.22890090942383 88.43328094482422 C 44.20773696899414 88.43328094482422 44.18740844726563 88.43437957763672 44.16748809814453 88.43519592285156 C 44.12166595458984 88.43708038330078 44.07672500610352 88.43864440917969 44.03180694580078 88.43864440917969 L 24.08757209777832 88.43864440917969 L 24.05560684204102 88.43864440917969 L 23.63032531738281 88.43865966796875 L 23.2164192199707 88.43868255615234 Z M 9.655368804931641 78.53932189941406 C 9.903324127197266 78.78110504150391 10.66868686676025 79.22193908691406 13.01391220092773 79.4886474609375 C 15.44204235076904 79.75957489013672 19.12206649780273 79.78052520751953 24.05560684204102 79.78052520751953 L 24.08757209777832 79.78052520751953 L 43.82332229614258 79.78052520751953 C 43.84882354736328 79.77883148193359 43.87390518188477 79.77752685546875 43.89899444580078 79.77632904052734 C 43.912841796875 79.77567291259766 43.92671203613281 79.77530670166016 43.94121932983398 79.77397918701172 L 43.98641967773438 79.76986694335938 L 44.03180694580078 79.76986694335938 C 49.33049011230469 79.76986694335938 52.71754837036133 79.75093078613281 55.07028961181641 79.48841094970703 C 57.42814636230469 79.22026824951172 58.18874740600586 78.77202606201172 58.43209075927734 78.52870178222656 C 58.67340850830078 78.28741455078125 59.11833572387695 77.5302734375 59.38673782348633 75.17062377929688 C 59.65768814086914 72.74793243408203 59.67864227294922 69.07520294189453 59.67864227294922 64.15132904052734 L 59.67864227294922 47.50614166259766 L 59.67864227294922 47.4954948425293 L 59.67864227294922 47.49016571044922 C 59.67864227294922 42.55397415161133 59.65768814086914 38.87211608886719 59.38648986816406 36.44215393066406 C 59.11833572387695 34.08458709716797 58.67340850830078 33.32744598388672 58.43207550048828 33.08613967895508 C 58.19077301025391 32.84487152099609 57.43312454223633 32.40073013305664 55.0703010559082 32.13710403442383 C 52.63993453979492 31.86592864990234 48.9621696472168 31.8449764251709 44.03180694580078 31.8449764251709 C 43.93148803710938 31.8449764251709 43.84292221069336 31.83957099914551 43.76403427124023 31.83432960510254 L 24.66692352294922 31.83432960510254 L 24.66159439086914 31.83965873718262 L 24.24738311767578 31.83965873718262 C 24.23868942260742 31.83983421325684 24.22800636291504 31.84053993225098 24.21732521057129 31.8410701751709 C 24.1740779876709 31.84323501586914 24.13081932067871 31.8449764251709 24.08757209777832 31.8449764251709 C 19.15408897399902 31.8449764251709 15.47411251068115 31.86592864990234 13.0437593460083 32.13710403442383 C 10.69980335235596 32.39862060546875 9.933681488037109 32.84429931640625 9.685372352600098 33.08810043334961 C 9.443603515625 33.33152770996094 9.000332832336426 34.09093475341797 8.732653617858887 36.44424819946289 C 8.461700439453125 38.87211608886719 8.44074821472168 42.55397415161133 8.44074821472168 47.49016571044922 L 8.44074821472168 64.13533782958984 C 8.44074821472168 64.33744812011719 8.432456016540527 64.50417327880859 8.414113998413086 64.66524505615234 C 8.414295196533203 69.34751129150391 8.435818672180176 72.84432220458984 8.700712203979492 75.17607116699219 C 8.966765403747559 77.52016448974609 9.411300659179688 78.28909301757813 9.655368804931641 78.53932189941406 Z M 34.043701171875 8.531069755554199 C 27.2518424987793 8.531069755554199 21.72625350952148 14.05607032775879 21.72625350952148 20.84722328186035 L 21.72625350952148 23.19889831542969 C 21.88540649414063 23.19779014587402 22.04545783996582 23.19654083251953 22.20845413208008 23.19527053833008 C 22.72462463378906 23.19125175476074 23.25802612304688 23.18708610534668 23.85197067260742 23.18691062927246 C 23.92168807983398 23.18159484863281 23.99971389770508 23.1762580871582 24.08757209777832 23.1762580871582 L 44.03180694580078 23.1762580871582 C 44.13216400146484 23.1762580871582 44.22070693969727 23.18168067932129 44.29953384399414 23.18691062927246 C 44.88162994384766 23.18706512451172 45.40419769287109 23.19122886657715 45.9099006652832 23.19527053833008 C 46.06237411499023 23.19648551940918 46.21219253540039 23.19767951965332 46.36117172241211 23.19875144958496 L 46.36117172241211 20.84722328186035 C 46.36117172241211 14.05607032775879 40.8355712890625 8.531069755554199 34.043701171875 8.531069755554199 Z" stroke="none"/>
              <path d="M 34.043701171875 0.8730010986328125 C 23.16601181030273 0.8730010986328125 14.26993942260742 9.677627563476563 14.08882522583008 20.51165771484375 C 14.07283782958984 20.62350463867188 14.06747436523438 20.73536682128906 14.06747436523438 20.84721374511719 L 14.06747436523438 24.4212646484375 C 13.46023941040039 24.45855331420898 12.74642562866211 24.45855331420898 12.18708801269531 24.52248001098633 C 9.060150146484375 24.87401580810547 6.306098937988281 25.64102935791016 4.276512145996094 27.67040252685547 C 2.241600036621094 29.69979095458984 1.474525451660156 32.45356750488281 1.11761474609375 35.58552932739258 C 0.7660369873046875 38.71747970581055 0.7820281982421875 42.50459289550781 0.7820281982421875 47.49016571044922 L 0.7820281982421875 63.63997650146484 C 0.760711669921875 63.80510330200195 0.7500228881835938 63.97023010253906 0.7500228881835938 64.13534545898438 C 0.7500228881835938 69.12090301513672 0.7394027709960938 72.90802764892578 1.096298217773438 76.03997802734375 C 1.447891235351563 79.17192840576172 2.214973449707031 81.92039489746094 4.249889373779297 83.94977569580078 C 6.279460906982422 85.98446655273438 9.033512115478516 86.74617004394531 12.16046142578125 87.09771728515625 C 15.11435699462891 87.42923736572266 18.64632797241211 87.43867492675781 23.21636581420898 87.43867492675781 C 23.49232482910156 87.43867492675781 23.77198028564453 87.43864440917969 24.05561447143555 87.43864440917969 C 24.06626129150391 87.43864440917969 24.07692337036133 87.43864440917969 24.08757400512695 87.43864440917969 L 44.03181457519531 87.43864440917969 C 44.09572601318359 87.43864440917969 44.15965270996094 87.43328094482422 44.22890090942383 87.43328094482422 C 44.37510681152344 87.43328094482422 44.52050018310547 87.43328094482422 44.66469573974609 87.43328094482422 C 49.32228851318359 87.43328094482422 52.93525695800781 87.42824554443359 55.92696380615234 87.09237670898438 C 59.05391311645508 86.7408447265625 61.80263900756836 85.97916412353516 63.83753967285156 83.9444580078125 C 65.87245178222656 81.91505432128906 66.63953399658203 79.16661834716797 66.99109649658203 76.03465270996094 C 67.34269714355469 72.90802764892578 67.33740234375 69.12090301513672 67.33740234375 64.15132904052734 L 67.33740234375 64.13002014160156 L 67.33740234375 47.50614166259766 C 67.33740234375 47.50614166259766 67.33740234375 47.50614166259766 67.33740234375 47.50081634521484 C 67.33740234375 47.49549102783203 67.33740234375 47.49549102783203 67.33740234375 47.49016571044922 C 67.33740234375 42.50459289550781 67.3480224609375 38.71747970581055 66.99109649658203 35.58552932739258 C 66.63953399658203 32.45356750488281 65.87245178222656 29.69979095458984 63.83753967285156 27.67040252685547 C 61.80263900756836 25.64102935791016 59.05391311645508 24.87401580810547 55.92696380615234 24.52248001098633 C 55.35697555541992 24.45855331420898 54.63251495361328 24.45322799682617 54.01987457275391 24.41061782836914 L 54.01987457275391 20.84721374511719 C 54.01987457275391 20.72470092773438 54.01456451416016 20.59686279296875 53.99860000610352 20.474365234375 C 53.79617309570313 9.656326293945313 44.90542602539063 0.8730010986328125 34.043701171875 0.8730010986328125 M 47.36117553710938 24.20288848876953 C 46.33306121826172 24.20288848876953 45.41682434082031 24.18690490722656 44.26618957519531 24.18690490722656 C 44.18630218505859 24.18157958984375 44.11171340942383 24.17625427246094 44.03181457519531 24.17625427246094 L 24.08757400512695 24.17625427246094 C 24.02365112304688 24.17625427246094 23.95972442626953 24.18157958984375 23.89047622680664 24.18690490722656 C 22.71321105957031 24.18690490722656 21.77566146850586 24.20288848876953 20.72624969482422 24.20288848876953 L 20.72624969482422 20.84721374511719 C 20.72624969482422 13.46474456787109 26.65518951416016 7.531082153320313 34.043701171875 7.531082153320313 C 41.43223571777344 7.531082153320313 47.36117553710938 13.46474456787109 47.36117553710938 20.84721374511719 L 47.36117553710938 24.20288848876953 M 43.86135101318359 80.78053283691406 L 24.08757400512695 80.78053283691406 C 24.07692337036133 80.78053283691406 24.06626129150391 80.78053283691406 24.05561447143555 80.78053283691406 C 19.07488632202148 80.78053283691406 15.38327407836914 80.75921630859375 12.90091323852539 80.48223876953125 C 10.41853713989258 80.19992828369141 9.422386169433594 79.71524047851563 8.948287963867188 79.24650573730469 C 8.479511260986328 78.77245330810547 7.989425659179688 77.77641296386719 7.707099914550781 75.2889404296875 C 7.4354248046875 72.89736938476563 7.414112091064453 69.3179931640625 7.414112091064453 64.60406494140625 C 7.4354248046875 64.44427490234375 7.440750122070313 64.28980255126953 7.440750122070313 64.13534545898438 L 7.440750122070313 47.49016571044922 C 7.440750122070313 42.50459289550781 7.462051391601563 38.8133544921875 7.739063262939453 36.33123016357422 C 8.021389007568359 33.84910583496094 8.511474609375 32.84772872924805 8.980251312255859 32.37900543212891 C 9.454349517822266 31.9102668762207 10.45050048828125 31.42024230957031 12.932861328125 31.14326477050781 C 15.41524887084961 30.86629104614258 19.10683822631836 30.84497833251953 24.08757400512695 30.84497833251953 C 24.14083862304688 30.84497833251953 24.19411087036133 30.83965301513672 24.24738693237305 30.83965301513672 L 24.25271224975586 30.83432769775391 L 43.79742431640625 30.83432769775391 C 43.87732696533203 30.83965301513672 43.95190048217773 30.84497833251953 44.03181457519531 30.84497833251953 C 49.00720977783203 30.84497833251953 52.69879913330078 30.86629104614258 55.18118667602539 31.14326477050781 C 57.6635627746582 31.42024230957031 58.6650390625 31.90495300292969 59.1391487121582 32.37900543212891 C 59.60791397094727 32.84772872924805 60.09798812866211 33.84910583496094 60.38032531738281 36.33123016357422 C 60.6573371887207 38.8133544921875 60.67863845825195 42.50459289550781 60.67863845825195 47.49016571044922 C 60.67863845825195 47.49016571044922 60.67863845825195 47.49016571044922 60.67863845825195 47.49549102783203 C 60.67863845825195 47.50081634521484 60.67863845825195 47.50614166259766 60.67863845825195 47.50614166259766 L 60.67863845825195 64.15132904052734 C 60.67863845825195 69.12090301513672 60.6573371887207 72.80681610107422 60.38032531738281 75.28364562988281 C 60.09798812866211 77.76575469970703 59.60791397094727 78.76712799072266 59.1391487121582 79.23585510253906 C 58.6650390625 79.70991516113281 57.6635627746582 80.19992828369141 55.18118667602539 80.48223876953125 C 52.69879913330078 80.75921630859375 49.00720977783203 80.76988220214844 44.03181457519531 80.76988220214844 C 43.97321319580078 80.77520751953125 43.91993713378906 80.77520751953125 43.86135101318359 80.78053283691406 M 34.043701171875 -1.126998901367188 C 36.96520233154297 -1.126998901367188 39.80682373046875 -0.5559310913085938 42.48963928222656 0.570343017578125 C 45.07667541503906 1.656402587890625 47.40877532958984 3.211128234863281 49.42116546630859 5.191368103027344 C 51.4312629699707 7.169342041015625 53.02338790893555 9.474327087402344 54.15330123901367 12.04230499267578 C 55.31025695800781 14.67172241210938 55.93013000488281 17.46329498291016 55.99625778198242 20.34140777587891 C 56.01212310791016 20.50026702880859 56.01987457275391 20.66693115234375 56.01987457275391 20.84721374511719 L 56.01987457275391 22.52132415771484 C 56.06346893310547 22.52558135986328 56.10684204101563 22.53011322021484 56.14986419677734 22.53494262695313 C 58.96823883056641 22.85179138183594 62.54903793334961 23.56081390380859 65.24982452392578 26.25426483154297 C 67.95098876953125 28.94810485839844 68.66145324707031 32.536865234375 68.97861480712891 35.36243057250977 C 69.33793640136719 38.51535415649414 69.33771514892578 42.29054260253906 69.33740997314453 47.07009124755859 L 69.33740234375 47.49016571044922 L 69.33740234375 47.50081634521484 L 69.33740234375 47.50614166259766 L 69.33740234375 64.13002014160156 L 69.33740234375 64.15132904052734 L 69.33740234375 64.36945343017578 C 69.33747863769531 69.22825622558594 69.33753967285156 73.06602478027344 68.97857666015625 76.25815582275391 C 68.66176605224609 79.08052062988281 67.95158386230469 82.6661376953125 65.24983978271484 85.36058044433594 C 62.55723571777344 88.05293273925781 58.97243881225586 88.76260375976563 56.15039825439453 89.07985687255859 C 53.00230026245117 89.43328094482422 49.1385498046875 89.43328094482422 44.66469955444336 89.43328094482422 L 44.23663711547852 89.43328094482422 L 44.20853805541992 89.43435668945313 C 44.16451263427734 89.43616485595703 44.10420989990234 89.43864440917969 44.03181457519531 89.43864440917969 L 24.08757400512695 89.43864440917969 L 24.05561447143555 89.43864440917969 L 23.63036346435547 89.43866729736328 L 23.21636199951172 89.43868255615234 C 18.85401153564453 89.43868255615234 15.08655166625977 89.43868255615234 11.93740081787109 89.08524322509766 C 9.111515045166016 88.76753234863281 5.523818969726563 88.05750274658203 2.83587646484375 85.36419677734375 C 0.1353607177734375 82.66996002197266 -0.5743942260742188 79.08535003662109 -0.8912124633789063 76.26309204101563 C -1.250511169433594 73.11015319824219 -1.250289916992188 69.33497619628906 -1.249984741210938 64.55544281005859 L -1.249977111816406 64.13534545898438 C -1.249977111816406 63.93276214599609 -1.239227294921875 63.7280158996582 -1.217971801757813 63.52481842041016 L -1.217971801757813 47.49016571044922 L -1.218040466308594 46.86708068847656 C -1.218673706054688 42.17776489257813 -1.21917724609375 38.47385406494141 -0.869903564453125 35.3624153137207 C -0.5474090576171875 32.53244018554688 0.1680908203125 28.94309234619141 2.864227294921875 26.25426483154297 C 5.556850433349609 23.56192016601563 9.141635894775391 22.85225677490234 11.96364974975586 22.53500366210938 C 11.99806213378906 22.53107452392578 12.03267288208008 22.52735137939453 12.06747436523438 22.52381896972656 L 12.06747436523438 20.84721374511719 C 12.06747436523438 20.67999267578125 12.07524490356445 20.52342987060547 12.09111785888672 20.37256622314453 C 12.15283203125 17.49388885498047 12.76853179931641 14.70100402832031 13.92169952392578 12.06971740722656 C 15.04917526245117 9.497039794921875 16.64032363891602 7.187530517578125 18.65093612670898 5.205329895019531 C 20.66378784179688 3.220916748046875 22.99748611450195 1.662803649902344 25.58721160888672 0.5742645263671875 C 28.27289962768555 -0.5546112060546875 31.11806106567383 -1.126998901367188 34.043701171875 -1.126998901367188 Z M 45.36117553710938 22.19107055664063 L 45.36117553710938 20.84721374511719 C 45.36117553710938 14.60747528076172 40.28417587280273 9.531082153320313 34.043701171875 9.531082153320313 C 27.80323791503906 9.531082153320313 22.72624969482422 14.60747528076172 22.72624969482422 20.84721374511719 L 22.72624969482422 22.19136810302734 C 23.07156372070313 22.18899536132813 23.43033981323242 22.18714141845703 23.81477355957031 22.18692779541016 C 23.8902473449707 22.18152618408203 23.98271179199219 22.17625427246094 24.08757400512695 22.17625427246094 L 44.03181457519531 22.17625427246094 C 44.14826965332031 22.17625427246094 44.24819564819336 22.18154144287109 44.33242416381836 22.18692016601563 C 44.69515228271484 22.18711090087891 45.03453826904297 22.18881988525391 45.36117553710938 22.19107055664063 Z M 43.73152160644531 32.83432769775391 L 25.08113861083984 32.83432769775391 L 25.07581329345703 32.83965301513672 L 24.2708625793457 32.83965301513672 L 24.26729965209961 32.83982849121094 C 24.22872543334961 32.84175491333008 24.16415023803711 32.84497833251953 24.08757400512695 32.84497833251953 C 19.18663787841797 32.84497833251953 15.53364944458008 32.8654899597168 13.15463638305664 33.13092803955078 C 11.00260925292969 33.37105178833008 10.46366882324219 33.74005889892578 10.39263916015625 33.7962646484375 C 10.3385009765625 33.86622619628906 9.970314025878906 34.41150665283203 9.726249694824219 36.55725479125977 C 9.461261749267578 38.93166732788086 9.440750122070313 42.58651733398438 9.440750122070313 47.49016571044922 L 9.440750122070313 64.13534545898438 C 9.440750122070313 64.27799224853516 9.437610626220703 64.4830322265625 9.414115905761719 64.71768951416016 C 9.414455413818359 69.34035491943359 9.436325073242188 72.79203796386719 9.694324493408203 75.06320190429688 C 9.936981201171875 77.20121765136719 10.30161666870117 77.75172424316406 10.36358261108398 77.83164978027344 C 10.43867874145508 77.88909912109375 10.98683929443359 78.25167083740234 13.12691116333008 78.49505615234375 C 15.50168609619141 78.76001739501953 19.1546630859375 78.78053283691406 24.05561447143555 78.78053283691406 L 24.08757400512695 78.78053283691406 L 43.79196166992188 78.78053283691406 C 43.81496429443359 78.77920532226563 43.83499145507813 78.77825164794922 43.85148620605469 78.7774658203125 L 43.86496734619141 78.77680206298828 L 43.94112396240234 78.76988220214844 L 44.03181457519531 78.76988220214844 C 49.29579925537109 78.76988220214844 52.65807342529297 78.75135803222656 54.95941162109375 78.49458312988281 C 57.15591812133789 78.24477386474609 57.67242050170898 77.86454772949219 57.72399139404297 77.82210540771484 C 57.76674652099609 77.76891326904297 58.14439392089844 77.24440002441406 58.39313888549805 75.05760192871094 C 58.65812683105469 72.68825531005859 58.67863845825195 69.04258728027344 58.67863845825195 64.15132904052734 L 58.67863845825195 47.50614166259766 L 58.67863845825195 47.49549102783203 L 58.67863845825195 47.49016571044922 C 58.67863845825195 42.58651733398438 58.65812683105469 38.93166732788086 58.39266204833984 36.55305480957031 C 58.14506912231445 34.37638854980469 57.76885986328125 33.84888458251953 57.724365234375 33.79321670532227 C 57.66971588134766 33.74922180175781 57.14798736572266 33.3751220703125 54.95941162109375 33.13092803955078 C 52.58039855957031 32.8654899597168 48.92962646484375 32.84497833251953 44.03181457519531 32.84497833251953 C 43.91548919677734 32.84497833251953 43.815673828125 32.83970642089844 43.73152160644531 32.83432769775391 Z" stroke="none" fill="#dbf3ff"/>
            </g>
            <g id="Path" transform="translate(21.533 35.833)" fill="#dbf3ff" fill-rule="evenodd">
              <path d="M 11.7717227935791 31.0911693572998 C 11.23882293701172 31.0911693572998 10.71973323822021 30.98774909973145 10.22886276245117 30.78377914428711 C 9.736863136291504 30.57665061950684 9.285182952880859 30.2708797454834 8.918323516845703 29.89772987365723 C 8.544023513793945 29.51701927185059 8.253383636474609 29.07349014282227 8.054472923278809 28.57946968078613 C 7.857184886932373 28.08948135375977 7.760031700134277 27.57033348083496 7.765673160552979 27.03628921508789 L 7.765673160552979 20.78003311157227 C 6.925042152404785 20.19364929199219 6.21577262878418 19.42616653442383 5.69459342956543 18.53417015075684 C 5.075953006744385 17.4657096862793 4.750003337860107 16.25140953063965 4.750003337860107 15.01912975311279 C 4.750003337860107 13.16963958740234 5.500143051147461 11.3588399887085 6.808083057403564 10.05103969573975 C 8.138302803039551 8.726590156555176 9.90056324005127 7.998010158538818 11.7717227935791 7.998010158538818 C 13.64598274230957 7.998010158538818 15.40994358062744 8.726590156555176 16.73866271972656 10.04953956604004 C 18.04810333251953 11.3588399887085 18.79824256896973 13.16963958740234 18.79824256896973 15.01912975311279 C 18.79265403747559 16.25406074523926 18.46504402160645 17.46512985229492 17.8508129119873 18.52594947814941 C 17.33307647705078 19.42012596130371 16.62308502197266 20.18926239013672 15.77776336669922 20.77658653259277 L 15.77776336669922 27.0310001373291 C 15.78862762451172 27.55556488037109 15.69148349761963 28.07648849487305 15.48896312713623 28.57946968078613 C 15.28610706329346 29.08329200744629 14.99426078796387 29.52803611755371 14.62148666381836 29.90141296386719 C 14.24791812896729 30.28042411804199 13.81130027770996 30.57668685913086 13.32369327545166 30.78198051452637 C 12.82851314544678 30.98774909973145 12.3078031539917 31.0911693572998 11.7717227935791 31.0911693572998 Z" stroke="none"/>
              <path d="M 11.7717227935791 8.998010635375977 C 10.17490291595459 8.998010635375977 8.64542293548584 9.632820129394531 7.515153884887695 10.75816917419434 C 6.384872436523438 11.88833999633789 5.750003814697266 13.42247009277344 5.750003814697266 15.01913070678711 C 5.750003814697266 16.07715034484863 6.028963088989258 17.11594009399414 6.558023452758789 18.02968978881836 C 7.091903686523438 18.94343948364258 7.851833343505859 19.70329093933105 8.765673637390137 20.2322998046875 L 8.765673637390137 27.04214096069336 C 8.760863304138184 27.44129943847656 8.833003044128418 27.83565902709961 8.98210334777832 28.20595932006836 C 9.131203651428223 28.57627105712891 9.352453231811523 28.91291999816895 9.631413459777832 29.19665908813477 C 9.910372734069824 29.48040008544922 10.2470531463623 29.70643043518066 10.61258316040039 29.86032867431641 C 10.98293304443359 30.01422119140625 11.37732315063477 30.09117126464844 11.7717227935791 30.09117126464844 C 12.17092323303223 30.09117126464844 12.5653133392334 30.01422119140625 12.9356632232666 29.86032867431641 C 13.30120277404785 29.70643043518066 13.63306331634521 29.48040008544922 13.91202354431152 29.19665908813477 C 14.19580364227295 28.91291999816895 14.41223335266113 28.57627105712891 14.56133365631104 28.20595932006836 C 14.71043300628662 27.83565902709961 14.78738307952881 27.44129943847656 14.77776336669922 27.04214096069336 L 14.77776336669922 20.22750091552734 C 15.69641304016113 19.6984806060791 16.45634269714355 18.93862915039063 16.98541259765625 18.02487945556641 C 17.51447296142578 17.11113929748535 17.79343414306641 16.07715034484863 17.79824256896973 15.01913070678711 C 17.79824256896973 13.42247009277344 17.16337203979492 11.88833999633789 16.0330924987793 10.75816917419434 C 14.90282344818115 9.632820129394531 13.3733434677124 8.998010635375977 11.7717227935791 8.998010635375977 M 11.7717227935791 6.998008728027344 C 13.91226291656494 6.998008728027344 15.92679309844971 7.830059051513672 17.44422340393066 9.340879440307617 C 18.94133377075195 10.83783912658691 19.79824256896973 12.9063892364502 19.79824256896973 15.01913070678711 L 19.79824256896973 15.02367973327637 L 19.7982234954834 15.02821922302246 C 19.79183387756348 16.43276023864746 19.41768264770508 17.81553077697754 18.71622276306152 19.02703094482422 C 18.21475982666016 19.89309120178223 17.55537033081055 20.65650177001953 16.77776336669922 21.27766036987305 L 16.77776336669922 27.02119255065918 C 16.7899055480957 27.67775726318359 16.66842842102051 28.32749938964844 16.41659355163574 28.95296859741211 C 16.16401481628418 29.58027648925781 15.79962730407715 30.13559150695801 15.3333854675293 30.60370254516602 C 14.86688041687012 31.07693099975586 14.32133197784424 31.44696044921875 13.71172332763672 31.70362091064453 L 13.70741271972656 31.70544052124023 L 13.70310306549072 31.70722961425781 C 13.0899829864502 31.96199035644531 12.44018363952637 32.09117126464844 11.7717227935791 32.09117126464844 C 11.10645294189453 32.09117126464844 10.4582633972168 31.96199035644531 9.84514331817627 31.70722961425781 L 9.840823173522949 31.70542907714844 L 9.836503028869629 31.70360946655273 C 9.228053092956543 31.44744110107422 8.663972854614258 31.06539916992188 8.205233573913574 30.59881019592285 C 7.738062858581543 30.12363052368164 7.375244140625 29.56988906860352 7.126842498779297 28.95294952392578 C 6.880960464477539 28.3422966003418 6.759466171264648 27.69607543945313 6.76567268371582 27.03208351135254 L 6.76567268371582 21.28008270263672 C 5.992816925048828 20.66096496582031 5.334877014160156 19.90074157714844 4.831172943115234 19.03863906860352 L 4.829183578491211 19.03524017333984 L 4.827213287353516 19.03182983398438 C 4.122493743896484 17.81469917297363 3.750003814697266 16.4271297454834 3.750003814697266 15.01913070678711 C 3.750003814697266 12.9063892364502 4.606912612915039 10.83783912658691 6.10101318359375 9.343889236450195 C 7.621453285217285 7.830059051513672 9.634283065795898 6.998008728027344 11.7717227935791 6.998008728027344 Z" stroke="none" fill="#dbf3ff"/>
            </g>
          </g>
        </g>
      </g>
    </g>
    <g id="Group_19" data-name="Group 19" transform="translate(191.017 368.115)">
      <rect id="Rectangle_5" data-name="Rectangle 5" width="111.578" height="34.464" rx="3.02" fill="#c6e0ff"/>
      <g id="Group_17" data-name="Group 17" transform="translate(8.087 4.847)">
        <path id="Subtraction_5" data-name="Subtraction 5" d="M16.977,13.843H1.256A1.257,1.257,0,0,1,0,12.587V1.256A1.257,1.257,0,0,1,1.256,0H16.977a1.257,1.257,0,0,1,1.256,1.256V12.587A1.257,1.257,0,0,1,16.977,13.843ZM9.115,3.172a1.917,1.917,0,0,0-.947,3.587L7.5,10.548h3.225l-.664-3.789a1.918,1.918,0,0,0-.949-3.587Z" transform="translate(0 10.596)" fill="#073a93" stroke="rgba(0,0,0,0)" stroke-miterlimit="10" stroke-width="1"/>
        <path id="Path_44" data-name="Path 44" d="M409.928,172.6h-1.719v-2.724a4.587,4.587,0,0,0-9.174,0V172.6h-1.72v-2.724a6.306,6.306,0,0,1,12.613,0Z" transform="translate(-394.506 -163.572)" fill="#073a93"/>
      </g>
      <g id="Group_18" data-name="Group 18" transform="translate(43.365 15.11)">
        <circle id="Ellipse_3" data-name="Ellipse 3" cx="3.155" cy="3.155" r="3.155" fill="#073a93"/>
        <circle id="Ellipse_4" data-name="Ellipse 4" cx="3.155" cy="3.155" r="3.155" transform="translate(12.041)" fill="#073a93"/>
        <path id="Path_46" data-name="Path 46" d="M436.4,172.674a3.155,3.155,0,1,1-3.154-3.154A3.156,3.156,0,0,1,436.4,172.674Z" transform="translate(-406.008 -169.52)" fill="#073a93"/>
        <path id="Path_47" data-name="Path 47" d="M443.379,172.674a3.155,3.155,0,1,1-3.156-3.154A3.156,3.156,0,0,1,443.379,172.674Z" transform="translate(-400.945 -169.52)" fill="#073a93"/>
        <path id="Path_48" data-name="Path 48" d="M450.356,172.674a3.154,3.154,0,1,1-3.154-3.154A3.155,3.155,0,0,1,450.356,172.674Z" transform="translate(-395.882 -169.52)" fill="#073a93"/>
      </g>
    </g>
    <g id="Group_68" data-name="Group 68" transform="translate(356.432 122.87)">
      <rect id="Rectangle_16" data-name="Rectangle 16" width="110.793" height="67.258" rx="2.998" transform="translate(0.14 0) rotate(0.119)" fill="#fcdb54"/>
      <g id="Group_65" data-name="Group 65" transform="translate(52.591 22.198)">
        <path id="Path_111" data-name="Path 111" d="M146.033,196.362h-45.57a1.942,1.942,0,0,0-1.936,1.936h0a1.942,1.942,0,0,0,1.936,1.938h45.57a1.943,1.943,0,0,0,1.938-1.938h0A1.942,1.942,0,0,0,146.033,196.362Z" transform="translate(-98.527 -196.362)" fill="#fff"/>
        <path id="Path_112" data-name="Path 112" d="M135.77,201.9H100.463a1.942,1.942,0,0,0-1.936,1.936h0a1.943,1.943,0,0,0,1.936,1.938H135.77a1.945,1.945,0,0,0,1.938-1.938h0A1.943,1.943,0,0,0,135.77,201.9Z" transform="translate(-98.527 -192.345)" fill="#fff"/>
        <rect id="Rectangle_17" data-name="Rectangle 17" width="34.34" height="3.873" rx="1.122" transform="translate(0 18.655)" fill="#fff"/>
      </g>
      <g id="Group_67" data-name="Group 67" transform="translate(12.504 16.258)">
        <g id="Group_66" data-name="Group 66" transform="translate(6.576)">
          <path id="Path_113" data-name="Path 113" d="M93.714,200.473a7.309,7.309,0,1,1-7.3-7.554A7.432,7.432,0,0,1,93.714,200.473Z" transform="translate(-79.105 -192.919)" fill="#fff"/>
        </g>
        <path id="Path_114" data-name="Path 114" d="M98.475,205.759l-4.4-1.432a15.812,15.812,0,0,0-9.764-.005l-4.434,1.437a6.62,6.62,0,0,0-4.579,6.3v7.123h27.76v-7.123A6.62,6.62,0,0,0,98.475,205.759Z" transform="translate(-75.294 -185.206)" fill="#fff"/>
      </g>
    </g>
    <path id="Path_109" data-name="Path 109" d="M91.373,218.4H167.5a18.409,18.409,0,0,0,18.472-17.83c.006-.229.01-.461.01-.69a28.464,28.464,0,0,0-35.4-27.612,24.289,24.289,0,0,0-47.691,1.413A24.292,24.292,0,0,0,75.507,209.4,18.386,18.386,0,0,0,91.373,218.4Z" transform="translate(346.434 55.079)" fill="#2f7ecc" opacity="0.382"/>
    <g id="Group_8973" data-name="Group 8973" transform="translate(217.572 208.786)">
      <rect id="Rectangle_11" data-name="Rectangle 11" width="45.14" height="32.463" rx="3" fill="#489bff"/>
      <g id="Group_37" data-name="Group 37" transform="translate(9.401 9.594)">
        <path id="Path_72" data-name="Path 72" d="M670.253,121.333H644.111A1.114,1.114,0,0,0,643,122.444h0a1.113,1.113,0,0,0,1.111,1.111h26.142a1.114,1.114,0,0,0,1.111-1.111h0A1.115,1.115,0,0,0,670.253,121.333Z" transform="translate(-643 -121.333)" fill="#fff"/>
        <path id="Path_73" data-name="Path 73" d="M664.365,127.5H644.111A1.114,1.114,0,0,0,643,128.611h0a1.113,1.113,0,0,0,1.111,1.111h20.254a1.114,1.114,0,0,0,1.111-1.111h0A1.115,1.115,0,0,0,664.365,127.5Z" transform="translate(-643 -122.02)" fill="#fff"/>
        <path id="Path_74" data-name="Path 74" d="M661.588,133.375H644.111A1.114,1.114,0,0,0,643,134.486h0a1.114,1.114,0,0,0,1.111,1.111h17.477a1.114,1.114,0,0,0,1.111-1.111h0A1.115,1.115,0,0,0,661.588,133.375Z" transform="translate(-643 -122.674)" fill="#fff"/>
      </g>
    </g>
  </g>
</svg>
