<svg xmlns="http://www.w3.org/2000/svg" width="14" height="17.5" viewBox="0 0 14 17.5">
  <path id="address.svg" d="M144.842,1272.405a20.723,20.723,0,0,1-2.47,3.068,23.4,23.4,0,0,0-2.592,3.207.682.682,0,0,1-.578.319h-.409a.686.686,0,0,1-.578-.318,23.232,23.232,0,0,0-2.592-3.207,20.847,20.847,0,0,1-2.47-3.068A7.329,7.329,0,0,1,132,1268.5a7,7,0,0,1,14,0A7.325,7.325,0,0,1,144.842,1272.405Zm-5.845-9.54a5.645,5.645,0,0,0-5.634,5.633c0,2.473,1.516,4.132,3.268,6.053a28.042,28.042,0,0,1,2.366,2.838,28.106,28.106,0,0,1,2.366-2.838c1.752-1.921,3.266-3.58,3.268-6.054A5.644,5.644,0,0,0,139,1262.865Zm3.239,7.327a.683.683,0,0,1-.458-.851,2.9,2.9,0,1,0-1.984,1.959.683.683,0,0,1,.373,1.315,4.266,4.266,0,1,1,2.919-2.881A.683.683,0,0,1,142.237,1270.192Z" transform="translate(-131.998 -1261.498)" fill="#36f"/>
</svg>
