<svg id="alert" xmlns="http://www.w3.org/2000/svg" xmlns:xlink="http://www.w3.org/1999/xlink" width="30" height="30" viewBox="0 0 30 30">
  <defs>
    <linearGradient id="linear-gradient" x1="0.024" x2="1" y2="1" gradientUnits="objectBoundingBox">
      <stop offset="0" stop-color="#ff7500"/>
      <stop offset="1" stop-color="#dc033a"/>
    </linearGradient>
  </defs>
  <path id="bg" d="M15,0A15,15,0,1,1,0,15,15,15,0,0,1,15,0Z" transform="translate(0 0)" fill="url(#linear-gradient)"/>
  <path id="alert-2" data-name="alert" d="M1.347,12.9A1.347,1.347,0,0,1,.194,10.856L6.346.652a1.348,1.348,0,0,1,2.309,0l6.153,10.2A1.348,1.348,0,0,1,13.653,12.9ZM7.183,1.156,1.03,11.361a.371.371,0,0,0,.317.562H13.653a.37.37,0,0,0,.317-.562L7.818,1.156a.372.372,0,0,0-.635,0ZM6.816,10a.692.692,0,0,1,.7-.7.7.7,0,1,1-.7.7ZM6.97,8.277c0-1.079-.127-2.628-.127-3.707,0-.353.29-.553.661-.553a.582.582,0,0,1,.653.553c0,1.079-.127,2.627-.127,3.707,0,.28-.308.4-.525.4C7.215,8.676,6.97,8.558,6.97,8.277Z" transform="translate(7.5 8.25)" fill="#fff"/>
</svg>
