<svg xmlns="http://www.w3.org/2000/svg" xmlns:xlink="http://www.w3.org/1999/xlink" width="1366" height="768" viewBox="0 0 1366 768">
  <defs>
    <linearGradient id="linear-gradient" x1="1" y1="1" x2="0" gradientUnits="objectBoundingBox">
      <stop offset="0" stop-color="#091850"/>
      <stop offset="1" stop-color="#113cb4"/>
    </linearGradient>
    <clipPath id="clip-path">
      <rect id="Rectangle_1691" data-name="Rectangle 1691" width="1366" height="768" fill="url(#linear-gradient)"/>
    </clipPath>
    <radialGradient id="radial-gradient" cx="0.637" cy="0.484" r="1.003" gradientTransform="translate(0.191) scale(0.618 1)" gradientUnits="objectBoundingBox">
      <stop offset="0" stop-color="#363885"/>
      <stop offset="0.047" stop-color="#382879"/>
      <stop offset="0.125" stop-color="#3a156a"/>
      <stop offset="0.204" stop-color="#3c0961"/>
      <stop offset="0.288" stop-color="#3d065f"/>
      <stop offset="0.315" stop-color="#360965"/>
      <stop offset="0.383" stop-color="#2a0f6f"/>
      <stop offset="0.455" stop-color="#271273"/>
      <stop offset="0.484" stop-color="#2d0e6c"/>
      <stop offset="0.558" stop-color="#390862"/>
      <stop offset="0.636" stop-color="#3d065f"/>
      <stop offset="0.772" stop-color="#220336"/>
      <stop offset="0.922" stop-color="#09000f"/>
      <stop offset="1"/>
    </radialGradient>
    <radialGradient id="radial-gradient-2" cx="0.621" cy="0.579" r="0.662" gradientTransform="translate(0.202) scale(0.596 1)" gradientUnits="objectBoundingBox">
      <stop offset="0.015" stop-color="#43e8e1"/>
      <stop offset="0.03" stop-color="#42e2de"/>
      <stop offset="0.048" stop-color="#41d1d8"/>
      <stop offset="0.07" stop-color="#3eb6ce"/>
      <stop offset="0.093" stop-color="#3b90c0"/>
      <stop offset="0.117" stop-color="#3760ae"/>
      <stop offset="0.121" stop-color="#3759ac"/>
      <stop offset="0.133" stop-color="#386ab2"/>
      <stop offset="0.18" stop-color="#3eadcb"/>
      <stop offset="0.215" stop-color="#41d7db"/>
      <stop offset="0.232" stop-color="#43e8e1"/>
      <stop offset="0.255" stop-color="#3dd4cf"/>
      <stop offset="0.302" stop-color="#2da0a1"/>
      <stop offset="0.354" stop-color="#1b6269"/>
      <stop offset="0.356" stop-color="#1d6c71"/>
      <stop offset="0.364" stop-color="#278d8f"/>
      <stop offset="0.373" stop-color="#30a9a9"/>
      <stop offset="0.383" stop-color="#37c0bd"/>
      <stop offset="0.394" stop-color="#3cd2cd"/>
      <stop offset="0.408" stop-color="#40ded8"/>
      <stop offset="0.426" stop-color="#42e5df"/>
      <stop offset="0.47" stop-color="#43e8e1"/>
      <stop offset="0.471" stop-color="#41e2db"/>
      <stop offset="0.479" stop-color="#35b8b3"/>
      <stop offset="0.488" stop-color="#2a9290"/>
      <stop offset="0.497" stop-color="#217372"/>
      <stop offset="0.507" stop-color="#195a5a"/>
      <stop offset="0.518" stop-color="#144648"/>
      <stop offset="0.531" stop-color="#10383a"/>
      <stop offset="0.547" stop-color="#0d3033"/>
      <stop offset="0.576" stop-color="#0d2e31"/>
      <stop offset="0.581" stop-color="#0f4446"/>
      <stop offset="0.591" stop-color="#126968"/>
      <stop offset="0.601" stop-color="#158784"/>
      <stop offset="0.612" stop-color="#179f9a"/>
      <stop offset="0.623" stop-color="#18afa9"/>
      <stop offset="0.636" stop-color="#19b9b3"/>
      <stop offset="0.652" stop-color="#1abdb6"/>
      <stop offset="0.818" stop-color="#020708"/>
      <stop offset="1"/>
    </radialGradient>
    <radialGradient id="radial-gradient-3" cx="0.389" cy="0.786" r="0.662" gradientTransform="translate(0.202) scale(0.596 1)" gradientUnits="objectBoundingBox">
      <stop offset="0" stop-color="#3d065f"/>
      <stop offset="0.092" stop-color="#330550"/>
      <stop offset="0.352" stop-color="#1d022d"/>
      <stop offset="0.598" stop-color="#0d0114"/>
      <stop offset="0.821" stop-color="#030005"/>
      <stop offset="1"/>
    </radialGradient>
  </defs>
  <g id="background" clip-path="url(#clip-path)">
    <rect width="1366" height="768" fill="#fff"/>
    <g id="BG">
      <rect id="Rectangle_1691-2" data-name="Rectangle 1691" width="1366" height="768" fill="url(#linear-gradient)"/>
    </g>
    <g id="Mask_Group_229" data-name="Mask Group 229" clip-path="url(#clip-path)">
      <g id="Pattern" transform="translate(748.913 150.278)">
        <path id="Path_11094" data-name="Path 11094" d="M1425.728,778.894l-45.748,7-42.558-24.57,15.325-33.388,28.9-4.421L1410.5,719.1l15.227,8.791v-1.042l-14.3-8.253,14.3-31.141V684.09l-41.834-24.154,7.648-16.659,7.659-16.683,26.527-4.06v-.745l-26.835,4.105-42.529-24.554,15.326-33.388,28.9-4.421,25.143-3.848v-.727l-25.458,3.9-28.858,4.415-42.443-24.5,15.309-33.343,57.828-8.849,23.623,13.639v-1.042l-22.748-13.135,15.307-33.343,7.441-1.138V464.7l-7.892,1.207-42.386-24.472,15.325-33.388,28.9-4.421,6.057-.928v-.724l-6.375.976-28.855,4.415-42.441-24.5,15.307-33.345,57.828-8.849,4.538,2.62v-1.042l-3.662-2.114,3.662-7.977v-3.135l-4.988,10.868-57.828,8.847-42.388-24.472,15.328-33.388,28.9-4.421,28.932-4.426,32.048,18.5v-.989l-31.192-18.009,15.516-33.8-43.524-25.127-58.543,8.958L1265.6,207.1l15.516-33.8-43.523-25.13-58.544,8.958-42.436-24.5,15.514-33.8L1108.6,73.7l-59.217,9.062-15.506,33.777-58.5,8.953-15.508,33.777-58.5,8.953L885.858,202l-58.5,8.953-15.508,33.777-58.5,8.953-15.506,33.777-58.5,8.953-15.508,33.777-58.5,8.953-15.506,33.777-58.507,8.953L515.8,415.647,457.3,424.6l-15.506,33.777-58.507,8.953L367.78,501.108l-58.5,8.953L293.77,543.838l-58.507,8.953-15.506,33.777-58.5,8.953L145.56,629.71l43.025,24.843-15.516,33.8,43.523,25.13,58.544-8.961,42.439,24.5-15.519,33.8,43.523,25.13,58.544-8.961,42.388,24.472-15.519,33.8,43.523,25.127,58.544-8.958L553.6,865.293h1.711l-21.4-12.353,15.326-33.388,57.83-8.849,42.386,24.472-13.827,30.118h1.291l13.745-29.94,28.9-4.421,28.858-4.415,42.444,24.5-6.553,14.273h1.437l6.442-14.029,57.828-8.849,39.628,22.878h1.806l-40.559-23.416L826.2,808.534l57.83-8.849,42.386,24.472-15.328,33.388-28.9,4.421-21.751,3.328h4.741l17.328-2.65,28.855-4.418,12.241,7.067h1.809L912.3,857.722l15.325-33.388,28.9-4.423,28.858-4.415,42.587,24.589-7.651,16.659-3.925,8.55h1.257l3.842-8.367,7.659-16.681,57.828-8.849L1129.5,855.95l-4.288,9.343h1.291l4.209-9.165,28.9-4.421,28.858-4.418,31.181,18h1.809L1189.4,846.785l15.326-33.388,28.9-4.423,28.858-4.415,42.587,24.589-15.317,33.364-18.179,2.782h4.742l14.429-2.206,15.506-33.778,58.507-8.953,15.506-33.777,45.47-6.959Zm-89.518-17.747-28.9,4.421-28.855,4.415L1235.872,745.4l7.648-16.662,7.659-16.681,57.828-8.849,42.531,24.554ZM890.573,547.084l-15.325,33.385-28.9,4.423-28.858,4.416-42.441-24.5,15.307-33.345,57.828-8.847Zm-41.51-25.01,15.307-33.345,57.828-8.847,42.388,24.472L949.26,537.739l-28.9,4.423-28.855,4.415Zm42.722,25.185,28.9-4.421,28.858-4.415,42.441,24.5-15.307,33.342-57.83,8.85-42.386-24.472Zm101.521,15.911,57.828-8.849,42.388,24.472-15.328,33.388-28.9,4.423-28.855,4.416L978,596.516Zm57.377-9.629-57.828,8.847L950.47,537.917,965.8,504.529l28.9-4.421,28.858-4.415,42.444,24.5Zm-27.413-58.533-28.9,4.423-28.858,4.415-42.444-24.5L938.382,446l57.828-8.849,42.388,24.475Zm-26.185-58.4,15.307-33.345,57.828-8.847,42.388,24.472-15.328,33.388-28.9,4.421-28.858,4.415Zm72.686-42.974-57.831,8.849-42.386-24.472,15.328-33.388,28.893-4.421,28.858-4.418,42.444,24.506Zm-58.706,9.385-15.307,33.345-57.828,8.85-42.388-24.472,15.328-33.388,28.9-4.423,28.858-4.415Zm-74.01,42.73L921.749,479.1l-57.83,8.849-42.385-24.472,15.325-33.388,28.9-4.423,28.856-4.415Zm-74.012,42.73L847.737,521.83l-57.828,8.849-42.388-24.472,15.328-33.388,28.9-4.423,28.858-4.415Zm-74.01,42.73L773.728,564.56,715.9,573.41l-42.386-24.472,15.325-33.388,28.9-4.423,28.858-4.415Zm-74.012,42.73-15.307,33.345-57.828,8.849L599.5,591.668l15.328-33.388,28.9-4.423,28.858-4.415Zm-74.01,42.73-15.307,33.345-57.83,8.847L525.489,634.4l15.325-33.385,28.9-4.423,28.855-4.415Zm1.326.244,57.828-8.847,42.386,24.472L727.226,665.93l-28.9,4.423-28.858,4.415-42.441-24.5Zm58.7-9.385,15.307-33.345,57.83-8.849,42.386,24.474L801.236,623.2l-28.9,4.423-28.856,4.415ZM817.773,589.99l28.9-4.421,28.855-4.415,42.444,24.5L902.661,639l-57.828,8.849-42.386-24.472ZM919.3,605.9l57.828-8.849,42.386,24.472-15.326,33.388-28.9,4.421-28.858,4.418-42.441-24.5Zm101.425,15.8,28.9-4.421,28.858-4.415,42.441,24.5-15.307,33.343-57.83,8.849-42.386-24.472Zm58.684-9.343,15.326-33.388,28.9-4.421,28.858-4.416,42.444,24.5-15.309,33.343-57.828,8.849Zm72.8-42.908-28.9,4.423-28.858,4.415-42.441-24.5,15.307-33.345,57.828-8.849,42.385,24.472ZM1124.7,510.809l-57.828,8.849-42.388-24.472,15.328-33.388,28.9-4.421,28.858-4.415,42.441,24.5Zm-26.2-58.353,15.326-33.385,28.9-4.423,28.858-4.416,42.441,24.5L1198.7,468.078l-57.827,8.849Zm72.8-42.905-28.9,4.421-28.858,4.416-42.441-24.5,15.307-33.345,57.828-8.847,42.388,24.472Zm-27.511-58.642-57.828,8.849-42.388-24.472,15.328-33.388,28.9-4.423,28.858-4.415,42.441,24.5Zm-27.416-58.53-28.9,4.421-28.858,4.415-42.492-24.533,15.307-33.343,57.828-8.849,42.438,24.5Zm-58.684,9.343-15.326,33.388-28.9,4.421L984.6,343.945l-42.494-24.533,15.307-33.343,57.831-8.849Zm-74.01,42.73-15.328,33.388-28.9,4.421-28.858,4.415L868.1,362.142,883.405,328.8l57.828-8.847Zm-74.01,42.73-15.328,33.388-28.9,4.421-28.858,4.415-42.494-24.533,15.307-33.342,57.831-8.852Zm-74.012,42.73L820.322,463.3l-28.9,4.421-28.855,4.415L720.076,447.6l15.307-33.345,57.828-8.847Zm-74.012,42.73L746.312,506.03l-28.9,4.421-28.858,4.415-42.494-24.533,15.307-33.342,57.83-8.85Zm-74.01,42.73L672.3,548.76l-28.9,4.421L614.549,557.6l-42.494-24.533,15.307-33.343,57.828-8.852ZM613.615,558.1,598.29,591.491l-28.9,4.421-28.858,4.415-42.494-24.533,15.307-33.345,57.83-8.847Zm-74.01,42.73-15.328,33.385-28.9,4.423-28.855,4.416-42.494-24.533,15.307-33.345,57.828-8.847Zm-72.8,42.905,28.9-4.421,28.858-4.415L567,659.406l-15.307,33.343L493.865,701.6l-42.388-24.469ZM568.326,659.65l57.83-8.849,42.386,24.472L653.214,708.66l-28.9,4.423L595.463,717.5,553.019,693Zm101.425,15.8,28.9-4.421,28.856-4.415,42.444,24.5L754.642,724.46l-57.83,8.849-42.385-24.472Zm58.684-9.343,15.328-33.388,28.9-4.421,28.858-4.415,42.441,24.5L828.651,681.73l-57.828,8.849Zm116.849-17.476,57.83-8.85L945.5,664.254l-15.328,33.388-28.9,4.421-28.855,4.418-42.444-24.506Zm101.425,15.8,28.9-4.421,28.858-4.415,42.441,24.5-15.3,33.342-57.831,8.849-42.386-24.472Zm101.521,15.911,57.83-8.849,42.385,24.472-15.325,33.387-28.9,4.421-28.858,4.415-42.444-24.5Zm58.706-9.388,15.307-33.342,57.828-8.85,42.388,24.472-15.328,33.388-28.9,4.421-28.856,4.415Zm116.732-17.542,28.9-4.423,28.858-4.413,42.587,24.586-7.648,16.659-7.661,16.683-57.828,8.849L1208.342,686.8Zm57.475-9.52-28.9,4.421-28.858,4.415-42.444-24.5,15.309-33.342,57.828-8.849,42.386,24.472Zm-27.511-58.642L1195.8,594.1l-42.388-24.472,15.328-33.388,28.9-4.421L1226.5,527.4l42.441,24.5Zm-27.416-58.531-28.9,4.421-28.858,4.418-42.441-24.5,15.307-33.345,57.828-8.849,42.388,24.472Zm-26.182-58.4,15.307-33.345,57.828-8.849,42.386,24.472-15.325,33.388-28.9,4.423-28.858,4.415Zm72.683-42.974L1214.89,434.2,1172.5,409.726l15.328-33.385,28.9-4.423,28.858-4.415,42.441,24.5ZM1245.3,366.82l-28.9,4.421-28.858,4.415-42.441-24.5,15.307-33.343,57.828-8.849,42.388,24.472Zm-27.509-58.642-57.83,8.849-42.386-24.472,15.325-33.388,28.9-4.423,28.858-4.415,42.444,24.5Zm-27.415-58.53-28.9,4.421-28.858,4.415-42.494-24.533,15.307-33.345,57.83-8.847,42.436,24.5Zm-101.521-15.911-57.83,8.849-42.438-24.5,15.328-33.388,28.9-4.423,28.858-4.415,42.494,24.533Zm-58.706,9.388-15.307,33.343-57.828,8.849-42.439-24.5L929.9,227.428l28.9-4.421,28.856-4.418Zm-74.01,42.73L940.835,319.2,883,328.047l-42.439-24.5,15.328-33.388,28.9-4.423,28.858-4.415ZM882.13,328.582l-15.307,33.345L809,370.777l-42.438-24.5,15.325-33.388,28.9-4.423,28.858-4.415Zm-74.01,42.733-15.307,33.343-57.83,8.849-42.439-24.5,15.328-33.388,28.9-4.423,28.858-4.415Zm-74.012,42.73L718.8,447.388l-57.828,8.85-42.439-24.5,15.328-33.388,28.9-4.423,28.858-4.416ZM660.1,456.773l-15.307,33.345-57.83,8.849-42.436-24.5,15.325-33.388,28.9-4.423L617.6,432.24Zm-74.012,42.733-15.307,33.343L512.951,541.7l-42.439-24.5,15.328-33.388,28.9-4.423,28.856-4.415Zm-74.01,42.73-15.307,33.343-57.83,8.849-42.436-24.5,15.326-33.388,28.9-4.423,28.858-4.415Zm-74.012,42.73L422.757,618.31l-57.828,8.849-42.439-24.5,15.328-33.388,28.9-4.423,28.856-4.416Zm-74.01,42.728L348.747,661.04l-57.83,8.849-42.439-24.5L263.806,612l28.9-4.421,28.858-4.416Zm1.273.215,57.83-8.847,42.439,24.5-15.328,33.385-28.9,4.423-28.858,4.415L350.02,661.255Zm27.469,58.56,28.9-4.421,28.856-4.415,42.444,24.5-15.307,33.345-57.83,8.849-42.386-24.472Zm101.521,15.911,57.828-8.849,42.388,24.475L579.2,751.391l-28.9,4.423-28.858,4.415-42.441-24.5Zm101.425,15.8,28.9-4.421,28.858-4.415,42.441,24.5-15.307,33.342L622.8,776.04l-42.388-24.472Zm101.521,15.911,57.83-8.849,42.386,24.472L782.15,783.1l-28.9,4.421L724.4,791.938l-42.444-24.5Zm58.705-9.385,15.307-33.345,57.828-8.849,42.385,24.472-15.325,33.388-28.9,4.421-28.858,4.418ZM872.7,707.162l28.9-4.421,28.856-4.415,42.444,24.5-15.307,33.343-57.83,8.849L857.371,740.55ZM974.22,723.073l57.83-8.849,42.385,24.472-15.328,33.388-28.9,4.421-28.856,4.415-42.444-24.5Zm101.425,15.8,28.9-4.421,28.858-4.418,42.587,24.589-7.651,16.659-7.656,16.683-57.83,8.849-42.529-24.554Zm58.684-9.343,15.328-33.388,28.9-4.421,28.858-4.418L1250,711.893l-7.648,16.659-7.659,16.683-57.828,8.849Zm291.22-44.5-15.328,33.388-28.9,4.421-28.858,4.418-42.587-24.589L1317.532,686l7.659-16.68,57.828-8.849Zm-27.532-58.6-7.648,16.659-7.659,16.683-57.828,8.849-42.531-24.554,15.328-33.388,28.9-4.421,28.858-4.418Zm-27.537-58.658-15.328,33.388-28.9,4.421L1297.4,610l-42.442-24.506,15.307-33.343,57.828-8.849Zm-42.836-25.254-57.83,8.849L1227.428,526.9l15.326-33.388,28.9-4.421,28.858-4.415,42.444,24.5Zm89.316-76.073-15.307,33.343-57.828,8.849-42.388-24.472,15.328-33.388,28.9-4.421,28.858-4.415Zm-27.394-58.576-15.328,33.388-28.9,4.423-28.858,4.415-42.441-24.5,15.307-33.345,57.828-8.849Zm-27.529-58.6-15.31,33.345L1288.9,391.47,1246.514,367l15.325-33.388,28.9-4.423,28.858-4.415Zm-42.722-25.185-28.9,4.421-28.858,4.415-42.441-24.5,15.307-33.343,57.828-8.849L1334.64,290.7ZM1308.5,232.214l57.671-8.826,42.529,24.554-15.336,33.409-28.935,4.429-28.858,4.416-42.441-24.5Zm-1.368-.154L1291.8,265.448l-57.827,8.849-42.388-24.472,15.328-33.388,28.895-4.421,28.933-4.429Zm-127.64-74.278,57.743-8.836,42.528,24.554-15.336,33.411-28.935,4.426-28.858,4.418-42.492-24.536Zm-1.3-.164-15.328,33.388-57.828,8.849-42.438-24.5,15.325-33.388,28.9-4.421,28.932-4.429ZM1050.381,83.33l57.865-8.855,42.531,24.557-15.339,33.409-28.932,4.426-28.858,4.415L1035.063,116.7Zm-74.012,42.73,57.791-8.841,42.558,24.57-15.325,33.388-28.9,4.421-28.855,4.415-42.587-24.586Zm-74.012,42.73,57.791-8.841,42.558,24.57-15.325,33.388-28.9,4.421-28.858,4.415-42.585-24.586Zm-74.01,42.73,57.791-8.844,42.558,24.573-15.328,33.388-28.9,4.421-28.855,4.415-42.587-24.586Zm-74.012,42.73,57.793-8.841,42.558,24.57-15.328,33.388-28.9,4.421L781.6,312.2l-42.585-24.586Zm-74.01,42.73,57.79-8.841,42.558,24.57L765.345,346.1l-28.893,4.421-28.858,4.415-42.587-24.586Zm-74.01,42.73,57.791-8.841,42.558,24.57-15.328,33.388-28.9,4.421-28.858,4.415L591,373.079ZM532.3,382.443l57.791-8.841,42.558,24.57-15.328,33.388-28.9,4.421L559.572,440.4l-42.587-24.586Zm-74.01,42.73,57.791-8.844L558.641,440.9l-15.328,33.388-28.9,4.421-28.858,4.415L442.975,458.54ZM384.28,467.9l57.791-8.844,42.558,24.573L469.3,517.02l-28.9,4.421-28.858,4.415L368.963,501.27Zm-74.01,42.73,57.791-8.842,42.558,24.57L395.291,559.75l-28.9,4.421-28.858,4.415L294.953,544Zm-74.012,42.73,57.79-8.844,42.558,24.573L321.281,602.48l-28.9,4.421-28.858,4.415L220.941,586.73ZM146.91,629.5l15.336-33.409,57.793-8.844L262.6,611.823l-15.328,33.388-28.9,4.421-28.932,4.426Zm127.783,74.362L216.95,712.7l-42.529-24.554,15.336-33.409,28.935-4.429,28.858-4.415,42.492,24.533Zm1.3.162,15.328-33.388,57.828-8.849,42.439,24.5-15.328,33.388-28.9,4.421-28.932,4.426ZM403.61,778.345l-57.671,8.826-42.531-24.554,15.339-33.409,28.932-4.429,28.858-4.415,42.441,24.5Zm1.368.154L420.3,745.111l57.83-8.849,42.386,24.472-15.328,33.388-28.9,4.423-28.932,4.426Zm127.568,74.288-57.671,8.826-42.531-24.554,15.339-33.409,28.932-4.429,28.858-4.415,42.441,24.5Zm74.073-42.866-57.83,8.85L506.4,794.3l15.328-33.388,28.9-4.421,28.858-4.416,42.441,24.5ZM708.14,825.833l-28.9,4.421-28.858,4.418-42.441-24.5,15.307-33.345,57.828-8.849,42.386,24.472Zm101.425,15.8-57.828,8.849L709.349,826.01l15.328-33.388,28.9-4.421,28.855-4.418,42.444,24.506Zm74.012-42.73-57.83,8.849L783.362,783.28l15.326-33.388,28.9-4.421,28.858-4.415,42.444,24.5ZM985.1,814.814l-28.9,4.421-28.858,4.415-42.441-24.5L900.211,765.8l57.828-8.849,42.386,24.472ZM1086.667,830.7l-57.828,8.85-42.532-24.554,15.328-33.388,28.9-4.423,28.856-4.413,42.587,24.586-7.648,16.659Zm101.521,15.912-28.9,4.421-28.855,4.415-42.587-24.586L1095.5,814.2l7.659-16.681,57.828-8.849,42.531,24.554Zm74.012-42.73-28.9,4.421-28.858,4.415-42.587-24.586,7.651-16.662,7.659-16.681L1235,745.936l42.529,24.554Zm101.558,15.9-57.791,8.844-42.558-24.57,15.328-33.388,28.9-4.423,28.858-4.413,42.584,24.586Z" transform="translate(-553.66 -69.076)" opacity="0.7" fill="url(#radial-gradient)" style="mix-blend-mode: color-dodge;isolation: isolate"/>
        <path id="Path_11095" data-name="Path 11095" d="M1469.548,783.3l-11.583,25.236-57.79,8.841-42.558-24.57,15.326-33.388,28.9-4.421,28.855-4.416,38.853,22.43v-1.042l-37.92-21.894,15.325-33.388,22.594-3.458V712.5l-22.873,3.5-42.587-24.589,7.648-16.659,7.659-16.683,50.153-7.675v-.745l-50.461,7.72-42.529-24.554,15.328-33.388,28.9-4.421,28.855-4.415,19.91,11.5v-1.045l-18.98-10.958L1465.9,556.7l3.651-.56v-.724l-3.933.6-42.441-24.5,15.307-33.345,31.067-4.752v-.851l-31.518,4.824-42.386-24.475,15.325-33.385,28.9-4.423,28.861-4.415.822.475V427.6l-1.1,2.408-28.9,4.421-28.858,4.415-42.442-24.5L1383.557,381l57.828-8.847,28.163,16.259v-1.042l-27.288-15.755,15.37-33.478,11.918-1.825v-.727l-12.432,1.9-42.386-24.469,15.516-33.8-43.523-25.127-58.541,8.958-42.388-24.472,15.516-33.8-43.523-25.13-58.544,8.958-42.436-24.5,15.517-33.8-43.523-25.13-59.22,9.062-15.506,33.777-58.5,8.953-15.509,33.78-58.5,8.95-15.506,33.777-58.5,8.953L832.04,276.205l-58.5,8.953L758.03,318.935l-58.5,8.953-15.508,33.777-58.5,8.953L610.008,404.4l-58.5,8.953L536,447.126l-58.507,8.953-15.506,33.777-58.5,8.953-15.506,33.778L329.47,541.54l-15.506,33.778-58.5,8.953-15.506,33.777L181.448,627l-15.694,34.191,43.025,24.84-15.516,33.8,43.523,25.13L295.329,736l42.439,24.5-15.516,33.8,43.523,25.13,58.541-8.961L466.7,834.945l-15.516,33.8L475.182,882.6h1.71l-24.355-14.06,15.339-33.409,28.932-4.429,28.858-4.416,42.441,24.5-14.6,31.81h1.437l14.49-31.566,57.83-8.85,42.386,24.472L662.331,882.6h1.292l7.24-15.766,28.9-4.421L728.615,858l42.441,24.5-.045.1h2.32l56.878-8.7,15.073,8.7h1.809l-16.007-9.242,15.307-33.343,57.83-8.85,42.386,24.472L934.232,882.6h1.292l12.3-26.784,28.9-4.421,28.858-4.418,42.585,24.589-5.065,11.034h1.254l4.993-10.873,57.828-8.849,34.159,19.722h1.809l-35.093-20.26,7.648-16.662,7.659-16.681,57.83-8.85L1223.71,844.7l-15.328,33.388-28.9,4.421-.581.09h4.742l25.016-3.827,6.63,3.827h1.806l-7.505-4.333,15.326-33.388,28.9-4.421,28.855-4.415,42.587,24.586L1315.172,882.6h1.257l10.014-21.809,58.5-8.953,15.506-33.777,58.506-8.953,10.589-23.072Zm-113.141,9.33-28.9,4.423-28.856,4.415-42.587-24.589,7.648-16.659,7.659-16.683,57.83-8.849,42.529,24.554ZM984.78,535.833l-15.325,33.388-28.9,4.421L911.7,578.057l-42.444-24.5,15.307-33.345,57.83-8.847Zm-41.51-25.01,15.307-33.343,57.828-8.849,42.388,24.472-15.328,33.388-28.9,4.421-28.858,4.415Zm-32.5,67.741-15.328,33.388-28.9,4.421-28.858,4.416-42.442-24.5,15.307-33.342,57.828-8.849Zm1.209.178,28.9-4.423,28.858-4.415,42.441,24.5-15.307,33.342L939.04,636.6l-42.388-24.472Zm58.684-9.343,15.328-33.388,28.9-4.423,28.855-4.415,42.444,24.5-15.307,33.345-57.83,8.847Zm74.012-42.733L1060,493.28l28.9-4.423,28.858-4.415,42.441,24.5-15.307,33.345-57.828,8.849Zm72.8-42.905-28.9,4.421-28.858,4.415-42.444-24.5,15.307-33.343,57.83-8.849,42.385,24.472Zm-27.511-58.642-57.83,8.849L989.75,409.5l15.328-33.388,28.9-4.421,28.855-4.418,42.444,24.506ZM1031.26,434.5l-15.307,33.345L958.125,476.7,915.74,452.226l15.325-33.388,28.9-4.421L988.819,410Zm-74.01,42.733-15.307,33.342-57.83,8.85-42.386-24.472,15.328-33.388,28.9-4.423,28.855-4.415Zm-74.012,42.728-15.307,33.345L810.1,562.159l-42.388-24.472L783.043,504.3l28.9-4.421L840.8,495.46Zm-74.01,42.73-15.307,33.345-57.828,8.849-42.388-24.472,15.328-33.388,28.9-4.421,28.858-4.418Zm-74.012,42.733L719.909,638.77l-57.828,8.849-42.388-24.472,15.328-33.388,28.9-4.423,28.858-4.415Zm-74.01,42.728L645.9,681.5l-57.828,8.849-42.388-24.472,15.328-33.387,28.9-4.423,28.858-4.416Zm1.326.244,57.828-8.847,42.388,24.472L747.42,697.412l-28.9,4.421-28.858,4.415-42.441-24.5Zm58.7-9.385,15.307-33.342,57.83-8.849,42.386,24.472-15.325,33.388-28.9,4.421-28.858,4.415ZM837.97,621.471l28.9-4.423,28.858-4.415,42.441,24.5-15.307,33.345-57.83,8.849-42.386-24.474ZM939.49,637.38l57.828-8.85,42.386,24.475-15.326,33.388-28.9,4.421-28.858,4.416-42.441-24.5Zm58.7-9.385L1013.5,594.65l57.83-8.849,42.386,24.472-15.328,33.387-28.9,4.423-28.856,4.415Zm116.732-17.545,28.9-4.421,28.856-4.415,42.444,24.5-15.307,33.345-57.83,8.847L1099.6,643.837Zm57.475-9.52-28.9,4.423-28.858,4.415-42.441-24.5,15.307-33.345,57.828-8.849,42.388,24.472Zm-26.185-58.4,15.307-33.345,57.83-8.849,42.385,24.474L1246.41,558.2l-28.9,4.423-28.858,4.415ZM1218.9,499.56l-57.83,8.85-42.385-24.472,15.328-33.388,28.9-4.423,28.855-4.415,42.444,24.5Zm-27.415-58.53-28.9,4.421-28.858,4.415-42.441-24.5,15.307-33.343,57.828-8.849,42.388,24.472Zm-27.511-58.642-57.828,8.85-42.385-24.472,15.325-33.388,28.9-4.421,28.858-4.415,42.441,24.5Zm-27.416-58.53-28.9,4.421-28.858,4.418-42.491-24.536,15.307-33.343,57.827-8.849,42.439,24.5Zm-58.682,9.343-15.328,33.388-28.9,4.421-28.858,4.415L962.3,350.891l15.309-33.342,57.828-8.849Zm-74.012,42.73L988.54,409.318l-28.9,4.421-28.858,4.415-42.494-24.533L903.6,360.279l57.828-8.849Zm-74.01,42.73-15.328,33.388-28.9,4.421-28.858,4.415L814.28,436.352l15.309-33.343,57.828-8.849Zm-74.012,42.73-15.326,33.387-28.9,4.421-28.855,4.418-42.494-24.536,15.307-33.342,57.828-8.85Zm-74.01,42.73-15.328,33.388-28.9,4.421-28.858,4.415-42.494-24.533,15.307-33.343,57.83-8.849Zm-74.012,42.73-15.328,33.388L663.6,584.66l-28.858,4.415-42.494-24.533L607.555,531.2l57.828-8.849Zm-74.01,42.73L618.484,622.97l-28.9,4.421-28.858,4.415-42.492-24.533,15.307-33.343,57.828-8.849ZM559.8,632.312,544.474,665.7l-28.9,4.421-28.858,4.415L444.226,650l15.307-33.342,57.83-8.849ZM487,675.22l28.9-4.424,28.858-4.415,42.441,24.506L571.887,724.23l-57.828,8.85-42.386-24.472ZM588.52,691.129l57.83-8.849,42.385,24.475L673.41,740.142l-28.9,4.421-28.858,4.415-42.444-24.5Zm101.428,15.8,28.9-4.423,28.858-4.415,42.441,24.5-15.307,33.342-57.831,8.85L674.62,740.32Zm58.682-9.343L763.957,664.2l28.9-4.423,28.858-4.415,42.441,24.5-15.307,33.345-57.828,8.847ZM865.478,680.11l57.83-8.849,42.386,24.472L950.366,729.12l-28.9,4.423-28.855,4.415-42.444-24.5Zm101.425,15.8,28.9-4.421,28.858-4.415,42.444,24.5-15.307,33.343-57.83,8.849L951.578,729.3Zm58.684-9.343,15.328-33.388,28.9-4.421,28.858-4.415,42.441,24.5L1125.8,702.19l-57.828,8.849Zm116.849-17.476,57.83-8.849,42.385,24.472L1227.324,718.1l-28.9,4.423-28.855,4.413-42.444-24.5Zm101.425,15.8,28.9-4.421,28.856-4.415,42.587,24.586-7.648,16.662-7.659,16.681-57.83,8.849-42.529-24.554Zm57.475-9.521-28.9,4.423-28.858,4.415-42.441-24.5,15.307-33.345,57.828-8.85,42.388,24.472Zm-27.511-58.639L1216,625.579l-42.386-24.472,15.325-33.387,28.9-4.421,28.858-4.415,42.441,24.5Zm-26.2-58.355,15.328-33.388,28.9-4.421,28.856-4.415,42.444,24.5L1347.838,574l-57.83,8.849Zm72.8-42.908-28.9,4.423-28.858,4.415-42.441-24.5,15.307-33.345,57.828-8.85,42.388,24.472Zm-27.511-58.639-57.828,8.847L1192.7,441.207l15.328-33.388,28.9-4.423,28.858-4.415,42.441,24.5ZM1265.5,398.3l-28.9,4.421-28.855,4.415-42.444-24.5,15.307-33.343,57.83-8.849,42.386,24.472Zm-26.185-58.4,15.307-33.343,57.828-8.849,42.388,24.472-15.328,33.388-28.9,4.421-28.858,4.415Zm-1.326-.244-57.83,8.849-42.385-24.472,15.328-33.388,28.9-4.421,28.858-4.418,42.441,24.5Zm-27.415-58.53-28.9,4.421-28.858,4.418-42.495-24.536,15.307-33.343,57.831-8.849,42.438,24.5Zm-101.521-15.912-57.83,8.849-42.438-24.5,15.328-33.388,28.9-4.421,28.858-4.415,42.494,24.533Zm-58.706,9.388-15.307,33.343L977.212,316.8l-42.439-24.5L950.1,258.907l28.9-4.421,28.858-4.415Zm-74.01,42.73-15.307,33.343-57.83,8.849-42.436-24.5,15.326-33.388,28.9-4.421,28.858-4.415Zm-74.012,42.73-15.307,33.343-57.828,8.849-42.439-24.5,15.328-33.388,28.9-4.421,28.858-4.418Zm-74.01,42.73-15.307,33.343-57.83,8.85-42.436-24.5L728.066,387.1l28.9-4.421,28.858-4.418ZM754.3,445.525l-15.307,33.343-57.828,8.849-42.439-24.5,15.328-33.388,28.9-4.421,28.858-4.418Zm-74.01,42.73L664.985,521.6l-57.828,8.849-42.439-24.5,15.325-33.388,28.9-4.423,28.858-4.413Zm-74.012,42.73-15.307,33.343-57.828,8.849-42.439-24.5,15.328-33.388,28.9-4.421,28.856-4.418Zm-74.01,42.73-15.307,33.343-57.828,8.849-42.439-24.5,15.325-33.388,28.9-4.421,28.858-4.418Zm-74.012,42.73-15.307,33.343-57.828,8.849-42.439-24.5,15.328-33.388,28.9-4.423,28.856-4.415Zm-74.01,42.73-15.307,33.343-57.83,8.85-42.436-24.5L284,643.479l28.9-4.424,28.858-4.415Zm1.276.212,57.828-8.847,42.439,24.5L470.462,708.43l-28.9,4.421-28.858,4.415-42.492-24.533Zm27.466,58.562,28.9-4.423,28.858-4.415,42.441,24.5-15.307,33.345-57.83,8.849-42.386-24.472ZM514.51,733.86l57.828-8.847,42.388,24.472L599.4,782.872l-28.9,4.421-28.858,4.415L499.2,767.2Zm101.425,15.8,28.9-4.421,28.858-4.415,42.441,24.5L700.823,798.67,643,807.519,600.61,783.05Zm101.523,15.911,57.828-8.849,42.385,24.472-15.328,33.388L773.449,819l-28.856,4.415-42.444-24.506Zm58.7-9.385,15.307-33.345,57.828-8.847,42.388,24.469-15.328,33.387-28.9,4.423L818.6,780.69Zm116.732-17.545,28.9-4.421,28.859-4.415,42.441,24.5-15.307,33.342-57.828,8.85-42.388-24.472Zm101.521,15.911,57.83-8.849,42.386,24.472L1079.3,803.562l-28.9,4.421-28.855,4.418-42.444-24.506Zm58.705-9.388,15.307-33.343,57.828-8.849,42.385,24.472-15.325,33.388-28.9,4.421-28.858,4.418Zm116.732-17.542,28.9-4.421,28.858-4.415,42.584,24.586-7.648,16.659-7.659,16.683-57.828,8.849-42.531-24.554Zm275.892-11.114L1430.416,749.9l-28.9,4.421-28.858,4.418-42.584-24.586,7.648-16.665,7.659-16.68,57.828-8.85Zm-27.532-58.6-7.648,16.662-7.659,16.681-57.828,8.849-42.531-24.554,15.328-33.388,28.9-4.421,28.858-4.415Zm-42.866-25.27-28.9,4.423-28.858,4.415-42.441-24.507,15.307-33.342,57.831-8.849,42.385,24.472Zm89.34-76.118-15.328,33.388-28.895,4.421-28.858,4.418-42.442-24.506,15.307-33.343,57.828-8.849Zm-27.532-58.6-15.307,33.345-57.828,8.847-42.388-24.472,15.328-33.385,28.9-4.423,28.858-4.416Zm-27.394-58.573-15.328,33.388-28.9,4.421-28.858,4.415-42.441-24.5,15.307-33.343,57.83-8.85ZM1366.924,414.1l-57.83,8.849-42.386-24.472,15.328-33.388,28.9-4.423,28.858-4.415,42.441,24.5Zm89.338-76.118-15.328,33.388-57.828,8.849-42.388-24.472,15.328-33.388,28.9-4.423,28.935-4.426Zm-127.568-74.288,57.671-8.826,42.529,24.557-15.336,33.409-28.932,4.426-28.861,4.415-42.441-24.5Zm-1.369-.154L1312,296.927l-57.828,8.849L1211.781,281.3l15.328-33.388L1256,243.5l28.935-4.429Zm-127.64-74.278,57.743-8.836,42.529,24.557-15.336,33.409-28.935,4.426-28.858,4.418L1184.337,222.7Zm-1.3-.164-15.328,33.388-57.828,8.849-42.438-24.5,15.328-33.388,28.9-4.421,28.932-4.429Zm-127.814-74.288,57.865-8.852,42.532,24.554-15.336,33.409-28.935,4.426-28.858,4.418-42.585-24.589Zm-74.012,42.733,57.79-8.844,42.558,24.57-15.325,33.388-28.9,4.421-28.858,4.418-42.587-24.589Zm-74.01,42.728,57.791-8.842L1022.9,216l-15.328,33.388-28.9,4.421-28.858,4.418-42.584-24.589ZM848.54,243l57.791-8.844,42.558,24.57-15.325,33.388-28.9,4.421-28.858,4.418-42.587-24.589Zm-74.01,42.73,57.791-8.844,42.558,24.57-15.328,33.388-28.9,4.421L801.8,343.686,759.213,319.1Zm-74.012,42.728,57.791-8.842,42.558,24.57-15.325,33.388L756.646,382l-28.858,4.418L685.2,361.827Zm-74.01,42.733L684.3,362.35l42.558,24.57-15.328,33.388-28.9,4.421-28.855,4.418-42.587-24.589ZM552.5,413.922l57.791-8.841,42.558,24.57-15.325,33.388-28.9,4.421-28.858,4.415-42.587-24.586Zm-74.01,42.73,57.791-8.842,42.558,24.57-15.328,33.388-28.9,4.421L505.756,514.6l-42.587-24.586Zm-74.012,42.733,57.791-8.844,42.558,24.57L489.5,548.5l-28.9,4.421-28.858,4.415-42.587-24.586Zm-74.01,42.728,57.791-8.841,42.558,24.57-15.328,33.388-28.9,4.421-28.855,4.415-42.587-24.586Zm-74.012,42.73L314.243,576l42.558,24.57-15.325,33.388-28.9,4.421L283.722,642.8l-42.585-24.586ZM167.1,660.982l15.339-33.409,57.791-8.842,42.558,24.57L267.463,676.69l-28.9,4.421-28.932,4.429Zm127.783,74.362-57.743,8.836-42.529-24.557,15.339-33.409,28.932-4.426,28.858-4.418,42.492,24.536Zm1.3.162,15.328-33.388,57.83-8.847,42.436,24.5-15.325,33.388-28.9,4.421-28.935,4.429ZM423.8,809.824l-57.671,8.826L323.6,794.1l15.339-33.409,28.932-4.429,28.858-4.415,42.441,24.5ZM525.388,825.6l-28.9,4.423-28.932,4.426-42.386-24.472L440.5,776.59l57.83-8.847,42.386,24.469Zm101.425,15.8-57.83,8.847L526.6,825.78l15.328-33.39,28.9-4.421,28.858-4.415,42.441,24.5Zm101.521,15.909-28.9,4.421-28.858,4.418-42.441-24.5L643.446,808.3l57.828-8.849,42.388,24.472Zm101.425,15.8-57.828,8.85-42.388-24.472L744.872,824.1l28.9-4.421,28.858-4.415,42.441,24.5Zm74.012-42.73-57.83,8.849-42.385-24.472,15.328-33.388,28.9-4.421,28.858-4.415,42.441,24.5Zm101.521,15.911-28.9,4.421-28.858,4.415-42.441-24.5L920.4,797.283l57.828-8.85,42.388,24.472Zm109.227-.8-7.659,16.683-57.828,8.85L1006.5,846.47l15.328-33.388,28.9-4.421,28.858-4.416,42.584,24.586Zm66.354-26.047-57.831,8.849-42.529-24.554,15.328-33.387,28.893-4.421,28.858-4.416L1196.18,786.1l-7.648,16.662Zm101.521,15.911-28.9,4.421-28.858,4.418-42.584-24.589,7.648-16.659,7.659-16.683,57.828-8.85,42.529,24.554Zm101.558,15.906-57.791,8.841-42.558-24.57,15.328-33.388,28.9-4.421,28.858-4.415,42.585,24.586Z" transform="translate(-585.667 -94.037)" fill="url(#radial-gradient-2)" style="mix-blend-mode: color-dodge;isolation: isolate"/>
        <path id="Path_11096" data-name="Path 11096" d="M1469.548,783.3l-11.583,25.236-57.79,8.841-42.558-24.57,15.326-33.388,28.9-4.421,28.855-4.416,38.853,22.43v-1.042l-37.92-21.894,15.325-33.388,22.594-3.458V712.5l-22.873,3.5-42.587-24.589,7.648-16.659,7.659-16.683,50.153-7.675v-.745l-50.461,7.72-42.529-24.554,15.328-33.388,28.9-4.421,28.855-4.415,19.91,11.5v-1.045l-18.98-10.958L1465.9,556.7l3.651-.56v-.724l-3.933.6-42.441-24.5,15.307-33.345,31.067-4.752v-.851l-31.518,4.824-42.386-24.475,15.325-33.385,28.9-4.423,28.861-4.415.822.475V427.6l-1.1,2.408-28.9,4.421-28.858,4.415-42.442-24.5L1383.557,381l57.828-8.847,28.163,16.259v-1.042l-27.288-15.755,15.37-33.478,11.918-1.825v-.727l-12.432,1.9-42.386-24.469,15.516-33.8-43.523-25.127-58.541,8.958-42.388-24.472,15.516-33.8-43.523-25.13-58.544,8.958-42.436-24.5,15.517-33.8-43.523-25.13-59.22,9.062-15.506,33.777-58.5,8.953-15.509,33.78-58.5,8.95-15.506,33.777-58.5,8.953L832.04,276.205l-58.5,8.953L758.03,318.935l-58.5,8.953-15.508,33.777-58.5,8.953L610.008,404.4l-58.5,8.953L536,447.126l-58.507,8.953-15.506,33.777-58.5,8.953-15.506,33.778L329.47,541.54l-15.506,33.778-58.5,8.953-15.506,33.777L181.448,627l-15.694,34.191,43.025,24.84-15.516,33.8,43.523,25.13L295.329,736l42.439,24.5-15.516,33.8,43.523,25.13,58.541-8.961L466.7,834.945l-15.516,33.8L475.182,882.6h1.71l-24.355-14.06,15.339-33.409,28.932-4.429,28.858-4.416,42.441,24.5-14.6,31.81h1.437l14.49-31.566,57.83-8.85,42.386,24.472L662.331,882.6h1.292l7.24-15.766,28.9-4.421L728.615,858l42.441,24.5-.045.1h2.32l56.878-8.7,15.073,8.7h1.809l-16.007-9.242,15.307-33.343,57.83-8.85,42.386,24.472L934.232,882.6h1.292l12.3-26.784,28.9-4.421,28.858-4.418,42.585,24.589-5.065,11.034h1.254l4.993-10.873,57.828-8.849,34.159,19.722h1.809l-35.093-20.26,7.648-16.662,7.659-16.681,57.83-8.85L1223.71,844.7l-15.328,33.388-28.9,4.421-.581.09h4.742l25.016-3.827,6.63,3.827h1.806l-7.505-4.333,15.326-33.388,28.9-4.421,28.855-4.415,42.587,24.586L1315.172,882.6h1.257l10.014-21.809,58.5-8.953,15.506-33.777,58.506-8.953,10.589-23.072Zm-113.141,9.33-28.9,4.423-28.856,4.415-42.587-24.589,7.648-16.659,7.659-16.683,57.83-8.849,42.529,24.554ZM984.78,535.833l-15.325,33.388-28.9,4.421L911.7,578.057l-42.444-24.5,15.307-33.345,57.83-8.847Zm-41.51-25.01,15.307-33.343,57.828-8.849,42.388,24.472-15.328,33.388-28.9,4.421-28.858,4.415Zm-32.5,67.741-15.328,33.388-28.9,4.421-28.858,4.416-42.442-24.5,15.307-33.342,57.828-8.849Zm1.209.178,28.9-4.423,28.858-4.415,42.441,24.5-15.307,33.342L939.04,636.6l-42.388-24.472Zm58.684-9.343,15.328-33.388,28.9-4.423,28.855-4.415,42.444,24.5-15.307,33.345-57.83,8.847Zm74.012-42.733L1060,493.28l28.9-4.423,28.858-4.415,42.441,24.5-15.307,33.345-57.828,8.849Zm72.8-42.905-28.9,4.421-28.858,4.415-42.444-24.5,15.307-33.343,57.83-8.849,42.385,24.472Zm-27.511-58.642-57.83,8.849L989.75,409.5l15.328-33.388,28.9-4.421,28.855-4.418,42.444,24.506ZM1031.26,434.5l-15.307,33.345L958.125,476.7,915.74,452.226l15.325-33.388,28.9-4.421L988.819,410Zm-74.01,42.733-15.307,33.342-57.83,8.85-42.386-24.472,15.328-33.388,28.9-4.423,28.855-4.415Zm-74.012,42.728-15.307,33.345L810.1,562.159l-42.388-24.472L783.043,504.3l28.9-4.421L840.8,495.46Zm-74.01,42.73-15.307,33.345-57.828,8.849-42.388-24.472,15.328-33.388,28.9-4.421,28.858-4.418Zm-74.012,42.733L719.909,638.77l-57.828,8.849-42.388-24.472,15.328-33.388,28.9-4.423,28.858-4.415Zm-74.01,42.728L645.9,681.5l-57.828,8.849-42.388-24.472,15.328-33.387,28.9-4.423,28.858-4.416Zm1.326.244,57.828-8.847,42.388,24.472L747.42,697.412l-28.9,4.421-28.858,4.415-42.441-24.5Zm58.7-9.385,15.307-33.342,57.83-8.849,42.386,24.472-15.325,33.388-28.9,4.421-28.858,4.415ZM837.97,621.471l28.9-4.423,28.858-4.415,42.441,24.5-15.307,33.345-57.83,8.849-42.386-24.474ZM939.49,637.38l57.828-8.85,42.386,24.475-15.326,33.388-28.9,4.421-28.858,4.416-42.441-24.5Zm58.7-9.385L1013.5,594.65l57.83-8.849,42.386,24.472-15.328,33.387-28.9,4.423-28.856,4.415Zm116.732-17.545,28.9-4.421,28.856-4.415,42.444,24.5-15.307,33.345-57.83,8.847L1099.6,643.837Zm57.475-9.52-28.9,4.423-28.858,4.415-42.441-24.5,15.307-33.345,57.828-8.849,42.388,24.472Zm-26.185-58.4,15.307-33.345,57.83-8.849,42.385,24.474L1246.41,558.2l-28.9,4.423-28.858,4.415ZM1218.9,499.56l-57.83,8.85-42.385-24.472,15.328-33.388,28.9-4.423,28.855-4.415,42.444,24.5Zm-27.415-58.53-28.9,4.421-28.858,4.415-42.441-24.5,15.307-33.343,57.828-8.849,42.388,24.472Zm-27.511-58.642-57.828,8.85-42.385-24.472,15.325-33.388,28.9-4.421,28.858-4.415,42.441,24.5Zm-27.416-58.53-28.9,4.421-28.858,4.418-42.491-24.536,15.307-33.343,57.827-8.849,42.439,24.5Zm-58.682,9.343-15.328,33.388-28.9,4.421-28.858,4.415L962.3,350.891l15.309-33.342,57.828-8.849Zm-74.012,42.73L988.54,409.318l-28.9,4.421-28.858,4.415-42.494-24.533L903.6,360.279l57.828-8.849Zm-74.01,42.73-15.328,33.388-28.9,4.421-28.858,4.415L814.28,436.352l15.309-33.343,57.828-8.849Zm-74.012,42.73-15.326,33.387-28.9,4.421-28.855,4.418-42.494-24.536,15.307-33.342,57.828-8.85Zm-74.01,42.73-15.328,33.388-28.9,4.421-28.858,4.415-42.494-24.533,15.307-33.343,57.83-8.849Zm-74.012,42.73-15.328,33.388L663.6,584.66l-28.858,4.415-42.494-24.533L607.555,531.2l57.828-8.849Zm-74.01,42.73L618.484,622.97l-28.9,4.421-28.858,4.415-42.492-24.533,15.307-33.343,57.828-8.849ZM559.8,632.312,544.474,665.7l-28.9,4.421-28.858,4.415L444.226,650l15.307-33.342,57.83-8.849ZM487,675.22l28.9-4.424,28.858-4.415,42.441,24.506L571.887,724.23l-57.828,8.85-42.386-24.472ZM588.52,691.129l57.83-8.849,42.385,24.475L673.41,740.142l-28.9,4.421-28.858,4.415-42.444-24.5Zm101.428,15.8,28.9-4.423,28.858-4.415,42.441,24.5-15.307,33.342-57.831,8.85L674.62,740.32Zm58.682-9.343L763.957,664.2l28.9-4.423,28.858-4.415,42.441,24.5-15.307,33.345-57.828,8.847ZM865.478,680.11l57.83-8.849,42.386,24.472L950.366,729.12l-28.9,4.423-28.855,4.415-42.444-24.5Zm101.425,15.8,28.9-4.421,28.858-4.415,42.444,24.5-15.307,33.343-57.83,8.849L951.578,729.3Zm58.684-9.343,15.328-33.388,28.9-4.421,28.858-4.415,42.441,24.5L1125.8,702.19l-57.828,8.849Zm116.849-17.476,57.83-8.849,42.385,24.472L1227.324,718.1l-28.9,4.423-28.855,4.413-42.444-24.5Zm101.425,15.8,28.9-4.421,28.856-4.415,42.587,24.586-7.648,16.662-7.659,16.681-57.83,8.849-42.529-24.554Zm57.475-9.521-28.9,4.423-28.858,4.415-42.441-24.5,15.307-33.345,57.828-8.85,42.388,24.472Zm-27.511-58.639L1216,625.579l-42.386-24.472,15.325-33.387,28.9-4.421,28.858-4.415,42.441,24.5Zm-26.2-58.355,15.328-33.388,28.9-4.421,28.856-4.415,42.444,24.5L1347.838,574l-57.83,8.849Zm72.8-42.908-28.9,4.423-28.858,4.415-42.441-24.5,15.307-33.345,57.828-8.85,42.388,24.472Zm-27.511-58.639-57.828,8.847L1192.7,441.207l15.328-33.388,28.9-4.423,28.858-4.415,42.441,24.5ZM1265.5,398.3l-28.9,4.421-28.855,4.415-42.444-24.5,15.307-33.343,57.83-8.849,42.386,24.472Zm-26.185-58.4,15.307-33.343,57.828-8.849,42.388,24.472-15.328,33.388-28.9,4.421-28.858,4.415Zm-1.326-.244-57.83,8.849-42.385-24.472,15.328-33.388,28.9-4.421,28.858-4.418,42.441,24.5Zm-27.415-58.53-28.9,4.421-28.858,4.418-42.495-24.536,15.307-33.343,57.831-8.849,42.438,24.5Zm-101.521-15.912-57.83,8.849-42.438-24.5,15.328-33.388,28.9-4.421,28.858-4.415,42.494,24.533Zm-58.706,9.388-15.307,33.343L977.212,316.8l-42.439-24.5L950.1,258.907l28.9-4.421,28.858-4.415Zm-74.01,42.73-15.307,33.343-57.83,8.849-42.436-24.5,15.326-33.388,28.9-4.421,28.858-4.415Zm-74.012,42.73-15.307,33.343-57.828,8.849-42.439-24.5,15.328-33.388,28.9-4.421,28.858-4.418Zm-74.01,42.73-15.307,33.343-57.83,8.85-42.436-24.5L728.066,387.1l28.9-4.421,28.858-4.418ZM754.3,445.525l-15.307,33.343-57.828,8.849-42.439-24.5,15.328-33.388,28.9-4.421,28.858-4.418Zm-74.01,42.73L664.985,521.6l-57.828,8.849-42.439-24.5,15.325-33.388,28.9-4.423,28.858-4.413Zm-74.012,42.73-15.307,33.343-57.828,8.849-42.439-24.5,15.328-33.388,28.9-4.421,28.856-4.418Zm-74.01,42.73-15.307,33.343-57.828,8.849-42.439-24.5,15.325-33.388,28.9-4.421,28.858-4.418Zm-74.012,42.73-15.307,33.343-57.828,8.849-42.439-24.5,15.328-33.388,28.9-4.423,28.856-4.415Zm-74.01,42.73-15.307,33.343-57.83,8.85-42.436-24.5L284,643.479l28.9-4.424,28.858-4.415Zm1.276.212,57.828-8.847,42.439,24.5L470.462,708.43l-28.9,4.421-28.858,4.415-42.492-24.533Zm27.466,58.562,28.9-4.423,28.858-4.415,42.441,24.5-15.307,33.345-57.83,8.849-42.386-24.472ZM514.51,733.86l57.828-8.847,42.388,24.472L599.4,782.872l-28.9,4.421-28.858,4.415L499.2,767.2Zm101.425,15.8,28.9-4.421,28.858-4.415,42.441,24.5L700.823,798.67,643,807.519,600.61,783.05Zm101.523,15.911,57.828-8.849,42.385,24.472-15.328,33.388L773.449,819l-28.856,4.415-42.444-24.506Zm58.7-9.385,15.307-33.345,57.828-8.847,42.388,24.469-15.328,33.387-28.9,4.423L818.6,780.69Zm116.732-17.545,28.9-4.421,28.859-4.415,42.441,24.5-15.307,33.342-57.828,8.85-42.388-24.472Zm101.521,15.911,57.83-8.849,42.386,24.472L1079.3,803.562l-28.9,4.421-28.855,4.418-42.444-24.506Zm58.705-9.388,15.307-33.343,57.828-8.849,42.385,24.472-15.325,33.388-28.9,4.421-28.858,4.418Zm116.732-17.542,28.9-4.421,28.858-4.415,42.584,24.586-7.648,16.659-7.659,16.683-57.828,8.849-42.531-24.554Zm275.892-11.114L1430.416,749.9l-28.9,4.421-28.858,4.418-42.584-24.586,7.648-16.665,7.659-16.68,57.828-8.85Zm-27.532-58.6-7.648,16.662-7.659,16.681-57.828,8.849-42.531-24.554,15.328-33.388,28.9-4.421,28.858-4.415Zm-42.866-25.27-28.9,4.423-28.858,4.415-42.441-24.507,15.307-33.342,57.831-8.849,42.385,24.472Zm89.34-76.118-15.328,33.388-28.895,4.421-28.858,4.418-42.442-24.506,15.307-33.343,57.828-8.849Zm-27.532-58.6-15.307,33.345-57.828,8.847-42.388-24.472,15.328-33.385,28.9-4.423,28.858-4.416Zm-27.394-58.573-15.328,33.388-28.9,4.421-28.858,4.415-42.441-24.5,15.307-33.343,57.83-8.85ZM1366.924,414.1l-57.83,8.849-42.386-24.472,15.328-33.388,28.9-4.423,28.858-4.415,42.441,24.5Zm89.338-76.118-15.328,33.388-57.828,8.849-42.388-24.472,15.328-33.388,28.9-4.423,28.935-4.426Zm-127.568-74.288,57.671-8.826,42.529,24.557-15.336,33.409-28.932,4.426-28.861,4.415-42.441-24.5Zm-1.369-.154L1312,296.927l-57.828,8.849L1211.781,281.3l15.328-33.388L1256,243.5l28.935-4.429Zm-127.64-74.278,57.743-8.836,42.529,24.557-15.336,33.409-28.935,4.426-28.858,4.418L1184.337,222.7Zm-1.3-.164-15.328,33.388-57.828,8.849-42.438-24.5,15.328-33.388,28.9-4.421,28.932-4.429Zm-127.814-74.288,57.865-8.852,42.532,24.554-15.336,33.409-28.935,4.426-28.858,4.418-42.585-24.589Zm-74.012,42.733,57.79-8.844,42.558,24.57-15.325,33.388-28.9,4.421-28.858,4.418-42.587-24.589Zm-74.01,42.728,57.791-8.842L1022.9,216l-15.328,33.388-28.9,4.421-28.858,4.418-42.584-24.589ZM848.54,243l57.791-8.844,42.558,24.57-15.325,33.388-28.9,4.421-28.858,4.418-42.587-24.589Zm-74.01,42.73,57.791-8.844,42.558,24.57-15.328,33.388-28.9,4.421L801.8,343.686,759.213,319.1Zm-74.012,42.728,57.791-8.842,42.558,24.57-15.325,33.388L756.646,382l-28.858,4.418L685.2,361.827Zm-74.01,42.733L684.3,362.35l42.558,24.57-15.328,33.388-28.9,4.421-28.855,4.418-42.587-24.589ZM552.5,413.922l57.791-8.841,42.558,24.57-15.325,33.388-28.9,4.421-28.858,4.415-42.587-24.586Zm-74.01,42.73,57.791-8.842,42.558,24.57-15.328,33.388-28.9,4.421L505.756,514.6l-42.587-24.586Zm-74.012,42.733,57.791-8.844,42.558,24.57L489.5,548.5l-28.9,4.421-28.858,4.415-42.587-24.586Zm-74.01,42.728,57.791-8.841,42.558,24.57-15.328,33.388-28.9,4.421-28.855,4.415-42.587-24.586Zm-74.012,42.73L314.243,576l42.558,24.57-15.325,33.388-28.9,4.421L283.722,642.8l-42.585-24.586ZM167.1,660.982l15.339-33.409,57.791-8.842,42.558,24.57L267.463,676.69l-28.9,4.421-28.932,4.429Zm127.783,74.362-57.743,8.836-42.529-24.557,15.339-33.409,28.932-4.426,28.858-4.418,42.492,24.536Zm1.3.162,15.328-33.388,57.83-8.847,42.436,24.5-15.325,33.388-28.9,4.421-28.935,4.429ZM423.8,809.824l-57.671,8.826L323.6,794.1l15.339-33.409,28.932-4.429,28.858-4.415,42.441,24.5ZM525.388,825.6l-28.9,4.423-28.932,4.426-42.386-24.472L440.5,776.59l57.83-8.847,42.386,24.469Zm101.425,15.8-57.83,8.847L526.6,825.78l15.328-33.39,28.9-4.421,28.858-4.415,42.441,24.5Zm101.521,15.909-28.9,4.421-28.858,4.418-42.441-24.5L643.446,808.3l57.828-8.849,42.388,24.472Zm101.425,15.8-57.828,8.85-42.388-24.472L744.872,824.1l28.9-4.421,28.858-4.415,42.441,24.5Zm74.012-42.73-57.83,8.849-42.385-24.472,15.328-33.388,28.9-4.421,28.858-4.415,42.441,24.5Zm101.521,15.911-28.9,4.421-28.858,4.415-42.441-24.5L920.4,797.283l57.828-8.85,42.388,24.472Zm109.227-.8-7.659,16.683-57.828,8.85L1006.5,846.47l15.328-33.388,28.9-4.421,28.858-4.416,42.584,24.586Zm66.354-26.047-57.831,8.849-42.529-24.554,15.328-33.387,28.893-4.421,28.858-4.416L1196.18,786.1l-7.648,16.662Zm101.521,15.911-28.9,4.421-28.858,4.418-42.584-24.589,7.648-16.659,7.659-16.683,57.828-8.85,42.529,24.554Zm101.558,15.906-57.791,8.841-42.558-24.57,15.328-33.388,28.9-4.421,28.858-4.415,42.585,24.586Z" transform="translate(-585.667 -94.037)" fill="url(#radial-gradient-3)" style="mix-blend-mode: color-dodge;isolation: isolate"/>
      </g>
    </g>
  </g>
</svg>
