<svg xmlns="http://www.w3.org/2000/svg" width="14.892" height="18" viewBox="0 0 14.892 18">
  <path id="Path_11099" data-name="Path 11099" d="M59.053,13.391a.7.7,0,0,0-1.382.259.7.7,0,0,1-.691.834H46.306a.7.7,0,0,1-.691-.834,7.256,7.256,0,0,1,.987-2.441,5.561,5.561,0,0,0,.956-2.983V7.172a4.094,4.094,0,0,1,4.018-4.078h.133a4.087,4.087,0,0,1,4,4.078V8.227a4.975,4.975,0,0,0,.707,2.514.7.7,0,1,0,1.237-.669,3.58,3.58,0,0,1-.537-1.845V7.172a5.492,5.492,0,0,0-4.781-5.441V.7a.7.7,0,0,0-1.406,0v1.03a5.51,5.51,0,0,0-4.781,5.439V8.227a4.239,4.239,0,0,1-.771,2.285,8.544,8.544,0,0,0-1.148,2.88,2.11,2.11,0,0,0,2.073,2.5H49.54a2.109,2.109,0,0,0,4.219,0h3.22a2.11,2.11,0,0,0,2.073-2.5Zm-7.4,3.2a.7.7,0,0,1-.7-.7h1.406A.7.7,0,0,1,51.65,16.594Z" transform="translate(-44.197)" fill="#091850"/>
</svg>
