<svg xmlns="http://www.w3.org/2000/svg" xmlns:xlink="http://www.w3.org/1999/xlink" width="665.365" height="49.52" viewBox="0 0 665.365 49.52">
  <defs>
    <filter id="bg" x="0" y="0" width="665.365" height="37.52" filterUnits="userSpaceOnUse">
      <feOffset dy="3" input="SourceAlpha"/>
      <feGaussianBlur stdDeviation="3" result="blur"/>
      <feFlood flood-opacity="0.161"/>
      <feComposite operator="in" in2="blur"/>
      <feComposite in="SourceGraphic"/>
    </filter>
  </defs>
  <g id="bottom-2" transform="translate(4761.768 -7481.342)">
    <path id="bg-2" data-name="bg" d="M0,0H583.365a0,0,0,0,1,0,0V31.52a12,12,0,0,1-12,12H12a12,12,0,0,1-12-12V0A0,0,0,0,1,0,0Z" transform="translate(-4720.768 7487.342)" fill="#fff" opacity="0.5"/>
    <path id="bg-3" data-name="bg" d="M0,0H613.365a0,0,0,0,1,0,0V20.52a12,12,0,0,1-12,12H12a12,12,0,0,1-12-12V0A0,0,0,0,1,0,0Z" transform="translate(-4735.768 7487.342)" fill="#fff" opacity="0.8"/>
    <g transform="matrix(1, 0, 0, 1, -4761.77, 7481.34)" filter="url(#bg)">
      <path id="bg-4" data-name="bg" d="M0,0H647.365a0,0,0,0,1,0,0V4.52a15,15,0,0,1-15,15H15a15,15,0,0,1-15-15V0A0,0,0,0,1,0,0Z" transform="translate(9 6)" fill="#fff"/>
    </g>
  </g>
</svg>
