<svg xmlns="http://www.w3.org/2000/svg" width="14" height="14" viewBox="0 0 14 14">
  <path id="call.svg" d="M146,1323.379a2.067,2.067,0,0,0-.635-1.423,5.089,5.089,0,0,0-2.013-1.338,2.251,2.251,0,0,0-2.314.656l0,0-.739.734a11.079,11.079,0,0,1-2.332-1.8l-.072-.071a11.124,11.124,0,0,1-1.8-2.331l.734-.74s0,0,0,0a2.253,2.253,0,0,0,.657-2.314,5.081,5.081,0,0,0-1.338-2.014,2.081,2.081,0,0,0-2.888-.1l-.015.014-.021.021a4.436,4.436,0,0,0-1.217,3.25,10.38,10.38,0,0,0,3.305,6.877,13.311,13.311,0,0,0,1.311,1.142.547.547,0,0,0,.665-.869,12.173,12.173,0,0,1-1.2-1.046,9.289,9.289,0,0,1-2.985-6.111,3.378,3.378,0,0,1,.886-2.461l0,0a.984.984,0,0,1,1.37.048c1.416,1.469,1.313,2.162.687,2.8l-1.014,1.022a.548.548,0,0,0-.112.608,11.064,11.064,0,0,0,2.2,2.984l.072.072a11.025,11.025,0,0,0,2.984,2.2.546.546,0,0,0,.608-.111l1.021-1.014c.642-.625,1.336-.727,2.8.688a.985.985,0,0,1,.05,1.371l0,0a3.369,3.369,0,0,1-2.436.888h-.026a7.1,7.1,0,0,1-2.7-.639.547.547,0,0,0-.434,1,8.057,8.057,0,0,0,3.126.729h.031a4.428,4.428,0,0,0,3.219-1.217l.021-.021.013-.015A2.072,2.072,0,0,0,146,1323.379Z" transform="translate(-131.997 -1312.099)" fill="#36f"/>
</svg>
