<svg xmlns="http://www.w3.org/2000/svg" width="20" height="20" viewBox="0 0 20 20" id="menu-icon">
  <path id="Dashboard" d="M3233.732,283.728l0,0-1.4-1.147v-3.244a.833.833,0,0,0-.832-.833h-.833a.833.833,0,0,0-.834.833v1.2l-5.268-4.31,0,0a.809.809,0,0,0-1.123,0l0,0-9.169,7.5,0,0a.829.829,0,0,0,.566,1.439h.834v9.166a1.665,1.665,0,0,0,1.666,1.667h13.333a1.665,1.665,0,0,0,1.665-1.667v-9.166h.834a.829.829,0,0,0,.566-1.439Zm-3.9,9.772H3226.5v-6.667h3.333Z" transform="translate(-3213.999 -276)" fill="#fff"/>
</svg>
