<svg xmlns="http://www.w3.org/2000/svg" width="19.397" height="22.45" viewBox="0 0 19.397 22.45">
  <path id="Doctors" d="M3085.023-5467.058a.179.179,0,0,1,0-.178,11.13,11.13,0,0,1,6.323-5,.176.176,0,0,1,.175.043,22.73,22.73,0,0,0,3.181,2.413,18.255,18.255,0,0,0,3.174-2.413.175.175,0,0,1,.175-.043,11.13,11.13,0,0,1,6.323,5,.179.179,0,0,1,0,.178,11.243,11.243,0,0,1-9.674,5.508A11.243,11.243,0,0,1,3085.023-5467.058Zm11.078.073v1.058a.174.174,0,0,0,.177.171h1.24a.169.169,0,0,1,.162.18v1.229a.182.182,0,0,0,.188.169h1.067a.15.15,0,0,0,.149-.169v-1.229a.2.2,0,0,1,.2-.18h1.188a.185.185,0,0,0,.19-.171v-1.054a.191.191,0,0,0-.19-.179h-1.2a.186.186,0,0,1-.19-.172v-1.235a.161.161,0,0,0-.161-.172h-1.055a.184.184,0,0,0-.187.172v1.23a.165.165,0,0,1-.162.176h-1.24A.178.178,0,0,0,3096.1-5466.985Zm-5.79-10.355v-2.272A4.392,4.392,0,0,1,3094.7-5484a4.392,4.392,0,0,1,4.386,4.388v2.272a4.392,4.392,0,0,1-4.386,4.388A4.392,4.392,0,0,1,3090.311-5477.34Z" transform="translate(-3085 5484)" fill="#fff"/>
</svg>
