<svg xmlns="http://www.w3.org/2000/svg" width="14" height="10.64" viewBox="0 0 14 10.64">
  <path id="email.svg" d="M149.45,1366.784a.546.546,0,0,0,.548-.544v-3.565a2.185,2.185,0,0,0-2.188-2.177h-9.625a2.185,2.185,0,0,0-2.188,2.177v6.286a2.186,2.186,0,0,0,2.188,2.177h9.625A2.186,2.186,0,0,0,150,1368.96a.547.547,0,0,0-1.094,0,1.093,1.093,0,0,1-1.094,1.089h-9.625a1.093,1.093,0,0,1-1.093-1.089v-6.17l4.75,2.939a2.181,2.181,0,0,0,2.311,0l4.751-2.939v3.449A.546.546,0,0,0,149.45,1366.784Zm-5.875-1.978a1.09,1.09,0,0,1-1.155,0l-4.872-3.014a1.089,1.089,0,0,1,.637-.205h9.625a1.089,1.089,0,0,1,.637.205Z" transform="translate(-135.997 -1360.498)" fill="#36f"/>
</svg>
