<svg xmlns="http://www.w3.org/2000/svg" width="12.5" height="16.25" viewBox="0 0 12.5 16.25">
  <path id="export_pdf" data-name="export pdf" d="M2.5-12.5H15V3.75H2.5V-12.5Zm1.25,1.25V2.5h10V-11.25ZM8.359-7.891H8.4a.989.989,0,0,1,.586.2,1.4,1.4,0,0,1,.313.508,3.058,3.058,0,0,1,.117,1.172,2.788,2.788,0,0,1-.137.7,3.639,3.639,0,0,0-.137.547q.039.117.117.371a2.745,2.745,0,0,0,.156.41,12.87,12.87,0,0,0,.82,1.094q.078,0,.449-.039t.527-.039a1.752,1.752,0,0,1,.938.391.844.844,0,0,1,.234.547,1.094,1.094,0,0,1-.156.547v.039h-.039a1,1,0,0,1-.977.586A1.963,1.963,0,0,1,10.2-1.328a1.891,1.891,0,0,1-.215-.293.76.76,0,0,0-.215-.254H9.375a1.387,1.387,0,0,0-.508.078,2.911,2.911,0,0,0-.488.156q-.293.117-.41.156a4.646,4.646,0,0,1-.234.547q-.234.508-.352.7a1.684,1.684,0,0,1-.9.7.761.761,0,0,1-.586,0A1.115,1.115,0,0,1,5.43.078a.945.945,0,0,1-.078-1.094,1.84,1.84,0,0,1,.82-.781A2.486,2.486,0,0,1,6.8-2.07a3.265,3.265,0,0,1,.547-.156,3.79,3.79,0,0,1,.215-.449,3.191,3.191,0,0,0,.254-.605,3.989,3.989,0,0,0,.215-.781,5.931,5.931,0,0,0,.1-.586,13.5,13.5,0,0,1-.547-1.523,2.258,2.258,0,0,1-.039-1.094,1.065,1.065,0,0,1,.273-.469A.686.686,0,0,1,8.359-7.891Zm.43,4.609a1.2,1.2,0,0,1-.02.156.3.3,0,0,1-.059.156.26.26,0,0,1-.059.156.237.237,0,0,0-.059.117l.039-.039h.039a.544.544,0,0,1,.234-.039h.234a1.766,1.766,0,0,0-.156-.234Q8.867-3.164,8.789-3.281Zm2.3,1.25a.321.321,0,0,0-.1.02l-.059.02a.749.749,0,0,0,.313.2q.078,0,.156-.117v-.039A2.7,2.7,0,0,0,11.094-2.031ZM6.719-1.016H6.641a1.539,1.539,0,0,0-.469.43q-.039.078,0,.117h.039V-.43a1.716,1.716,0,0,0,.43-.391A.3.3,0,0,1,6.68-.937Z" transform="translate(-2.5 12.5)" fill="#04ac22"/>
</svg>
