<svg xmlns="http://www.w3.org/2000/svg" width="20" height="18.517" viewBox="0 0 20 18.517">
  <path id="first-aid-kit" d="M9.258,13.556V11.6H7.3a.781.781,0,1,1,0-1.562H9.258V8.087a.781.781,0,1,1,1.563,0v1.953h1.953a.781.781,0,1,1,0,1.563H10.82v1.953a.781.781,0,1,1-1.562,0Zm9.18-3.516V6.291a1.564,1.564,0,0,0-1.562-1.562H3.125A1.564,1.564,0,0,0,1.563,6.291v3.75H4.18a.781.781,0,0,1,0,1.563H1.563v3.789a1.564,1.564,0,0,0,1.563,1.563h13.75a1.564,1.564,0,0,0,1.562-1.563v-.664a.781.781,0,1,1,1.563,0v.664a3.129,3.129,0,0,1-3.125,3.125H3.125A3.129,3.129,0,0,1,0,15.392v-9.1A3.128,3.128,0,0,1,3.125,3.166H6.487V2.147A2.149,2.149,0,0,1,8.634,0h2.732a2.149,2.149,0,0,1,2.147,2.147V3.165h3.362A3.129,3.129,0,0,1,20,6.29v4.531a.782.782,0,0,1-.938.766.786.786,0,0,1-.156.016H15.9a.781.781,0,0,1,0-1.562h2.539ZM8.05,3.166h3.9V2.147a.585.585,0,0,0-.584-.585H8.634a.585.585,0,0,0-.584.585Zm0,0" fill="#36f"/>
</svg>
