<svg xmlns="http://www.w3.org/2000/svg" xmlns:xlink="http://www.w3.org/1999/xlink" width="60" height="60" viewBox="0 0 60 60">
  <defs>
    <linearGradient id="linear-gradient" x1="0.5" y1="1" x2="0.5" gradientUnits="objectBoundingBox">
      <stop offset="0" stop-color="#091850"/>
      <stop offset="1" stop-color="#113cb4"/>
    </linearGradient>
  </defs>
  <g id="global" transform="translate(0 0)">
    <path id="Path_11557" data-name="Path 11557" d="M60,30A30,30,0,1,0,30,60,30,30,0,0,0,60,30Zm0,0" transform="translate(0 0)" fill="url(#linear-gradient)"/>
    <g id="Group_9054" data-name="Group 9054" transform="translate(2.326 7.621)">
      <path id="Path_11558" data-name="Path 11558" d="M373.027,331.94a1.346,1.346,0,0,0,1.347,1.347h.645a3.641,3.641,0,0,1,3.64,3.642v.644a1.341,1.341,0,0,0,.395.953,1.328,1.328,0,0,0,.648.359q.858-.794,1.652-1.654v-.3a3.641,3.641,0,0,1,3.048-3.593,29.878,29.878,0,0,0,1.577-2.7,1.29,1.29,0,0,0-.339-.044h-.645a3.64,3.64,0,0,1-3.641-3.641v-.645a1.347,1.347,0,1,0-2.694,0v.645a3.64,3.64,0,0,1-3.64,3.641h-.645a1.346,1.346,0,0,0-1.347,1.347Zm0,0" transform="translate(-331.639 -294.501)" fill="#3d4159"/>
      <path id="Path_11559" data-name="Path 11559" d="M21.2,230.289h.645a3.641,3.641,0,0,0,3.641-3.641V226a1.347,1.347,0,1,1,2.694,0v.645a3.641,3.641,0,0,0,3.641,3.641h.645a1.347,1.347,0,1,1,0,2.694h-.645a3.641,3.641,0,0,0-3.641,3.641v.645a1.347,1.347,0,1,1-2.694,0v-.645a3.641,3.641,0,0,0-3.641-3.641H21.2a1.347,1.347,0,0,1,0-2.694Zm0,0" transform="translate(-19.852 -205.951)" fill="#3d4159"/>
      <path id="Path_11560" data-name="Path 11560" d="M385.563,67.7h0a1.348,1.348,0,0,0,1.347,1.347h.646a3.64,3.64,0,0,1,3.64,3.641v.645a1.347,1.347,0,0,0,2.694,0v-.645a3.62,3.62,0,0,1,1.03-2.535,30.074,30.074,0,0,0-4.562-5.118,3.627,3.627,0,0,1-2.8,1.318h-.646A1.347,1.347,0,0,0,385.563,67.7Zm0,0" transform="translate(-342.706 -65.035)" fill="#3d4159"/>
    </g>
    <path id="Path_11561" data-name="Path 11561" d="M128.668,109.174a19.479,19.479,0,0,1-9.89,16.964h0a19.528,19.528,0,0,1-16.806,1.149h0a19.5,19.5,0,1,1,26.7-18.114Zm0,0" transform="translate(-79.177 -79.174)" fill="#66baed"/>
    <path id="Path_11562" data-name="Path 11562" d="M113.291,128.228a19.571,19.571,0,0,1-11.319-.94h0a19.5,19.5,0,0,1,11.32-37.168,19.5,19.5,0,0,0-3.093,37.168h0A19.157,19.157,0,0,0,113.291,128.228Zm0,0" transform="translate(-79.177 -79.174)" fill="#2ba1cf"/>
    <path id="Path_11563" data-name="Path 11563" d="M255.359,117.16a19.479,19.479,0,0,1-9.89,16.964c-3.4-6.918-11.3-.795-12.215-9.426s9.459-5.6,12.49-8.633,0-7.714-2.572-5.143-6.428,1.837-5.51-.735,5.327-3.674,2.155-4.776,0-4.273,2.407-6.681h0a19.548,19.548,0,0,1,11.39,10.367c-2.363,0-4.567,4.03-2.363,6.234a6.13,6.13,0,0,0,4.1,1.63C255.359,117.027,255.359,117.094,255.359,117.16Zm0,0" transform="translate(-205.868 -87.16)" fill="#3fb777"/>
    <path id="Path_11564" data-name="Path 11564" d="M101.972,169.111h0a19.495,19.495,0,0,1-6.414-32.052c5.314,1.273,6.233,4.946,2.743,6.232-3.44,1.267-3.667,3.6-.158,4.726l.158.049c2.482.744,1.526,3.083-.32,4.522a5.106,5.106,0,0,1-2.986,1.172c-3.122,0-.551,6.337,3.214,6.337S101.972,169.111,101.972,169.111Zm0,0" transform="translate(-79.177 -120.997)" fill="#3fb777"/>
    <path id="Path_11565" data-name="Path 11565" d="M101.972,169.111h0a19.495,19.495,0,0,1-6.414-32.052c5.314,1.273,6.233,4.946,2.743,6.232-3.44,1.267-3.667,3.6-.158,4.726a19.626,19.626,0,0,0-.227,2.98q0,.8.065,1.59a5.106,5.106,0,0,1-2.986,1.172c-3.122,0-.551,6.337,3.214,6.337S101.972,169.111,101.972,169.111Zm0,0" transform="translate(-79.177 -120.997)" fill="#2da365"/>
    <path id="Path_11566" data-name="Path 11566" d="M40.867,24.513V12.251a10.93,10.93,0,1,1,21.861,0V24.513" transform="translate(-36.078 -1.166)" fill="#f74f4f"/>
    <path id="Path_11567" data-name="Path 11567" d="M45.36,12.737c0,4.338,2.54,9.356,3.934,11.784H40.863V12.258a10.924,10.924,0,0,1,10.85-10.93C48.353,1.412,45.36,6.8,45.36,12.737Zm0,0" transform="translate(-36.075 -1.172)" fill="#dd3033"/>
    <path id="Path_11568" data-name="Path 11568" d="M25.587,119.123a2.7,2.7,0,1,1-2.7-2.7,2.738,2.738,0,0,1,.432.034A2.7,2.7,0,0,1,25.587,119.123Zm0,0" transform="translate(-17.825 -102.782)" fill="#f6caae"/>
    <path id="Path_11569" data-name="Path 11569" d="M46.467,119.382a2.7,2.7,0,0,1-2.265,2.663,10.086,10.086,0,0,1,0-5.327A2.7,2.7,0,0,1,46.467,119.382Zm0,0" transform="translate(-38.706 -103.041)" fill="#eab599"/>
    <path id="Path_11570" data-name="Path 11570" d="M36.912,132.183a.964.964,0,1,1-.964-.964A.964.964,0,0,1,36.912,132.183Zm0,0" transform="translate(-30.885 -115.842)" fill="#eab599"/>
    <path id="Path_11571" data-name="Path 11571" d="M65.453,63.92v9.273a10,10,0,0,1-5.316,2.645l-.049.008a9.857,9.857,0,0,1-1.562.122A10.037,10.037,0,0,1,48.488,65.932V62.109a10.115,10.115,0,0,1,.1-1.441,6.36,6.36,0,0,0,7.993-.515A5.676,5.676,0,0,0,58.093,57.8a6.628,6.628,0,0,0,2.072,4.135A7.41,7.41,0,0,0,65.453,63.92Zm0,0" transform="translate(-42.806 -51.024)" fill="#eab599"/>
    <path id="Path_11572" data-name="Path 11572" d="M89,63.92v9.273a10,10,0,0,1-5.316,2.645l-.049.008a10.038,10.038,0,0,1-8.473-9.915V62.109c0-.1,0-.2.005-.3a6.287,6.287,0,0,0,4.965-1.652A5.678,5.678,0,0,0,81.639,57.8a6.626,6.626,0,0,0,2.072,4.135A7.408,7.408,0,0,0,89,63.92Zm0,0" transform="translate(-66.352 -51.024)" fill="#f6caae"/>
    <path id="Path_11573" data-name="Path 11573" d="M155.021,107.421a1.667,1.667,0,1,0-3.334,0" transform="translate(-133.912 -93.361)" fill="#eab599"/>
    <path id="Path_11574" data-name="Path 11574" d="M91.482,107.421a1.667,1.667,0,1,0-3.334,0" transform="translate(-77.819 -93.361)" fill="#eab599"/>
    <path id="Path_11575" data-name="Path 11575" d="M94.934,117.459A1.139,1.139,0,1,1,93.8,116.32,1.139,1.139,0,0,1,94.934,117.459Zm0,0" transform="translate(-81.798 -102.689)" fill="#3d4159"/>
    <path id="Path_11576" data-name="Path 11576" d="M158.473,117.459a1.139,1.139,0,1,1-1.139-1.138A1.139,1.139,0,0,1,158.473,117.459Zm0,0" transform="translate(-137.891 -102.689)" fill="#3d4159"/>
    <path id="Path_11577" data-name="Path 11577" d="M123,143.1h-2.277a.491.491,0,1,1,0-.982H123a.491.491,0,0,1,0,.982Zm0,0" transform="translate(-106.144 -125.463)" fill="#eab599"/>
    <path id="Path_11578" data-name="Path 11578" d="M113.964,165.945a5.073,5.073,0,0,1-2.447-.632.446.446,0,0,1,.43-.782,4.168,4.168,0,0,0,4.034,0,.446.446,0,1,1,.43.782A5.071,5.071,0,0,1,113.964,165.945Zm0,0" transform="translate(-98.244 -145.201)" fill="#eab599"/>
    <path id="Path_11579" data-name="Path 11579" d="M102.757,120.644a.488.488,0,1,1-.488-.488A.488.488,0,0,1,102.757,120.644Zm0,0" transform="translate(-89.854 -106.075)" fill="#fff"/>
    <path id="Path_11580" data-name="Path 11580" d="M166.773,120.644a.488.488,0,1,1-.488-.488A.488.488,0,0,1,166.773,120.644Zm0,0" transform="translate(-146.368 -106.075)" fill="#fff"/>
    <path id="Path_11581" data-name="Path 11581" d="M173.6,140.282a1.25,1.25,0,1,1-1.25-1.251A1.25,1.25,0,0,1,173.6,140.282Zm0,0" transform="translate(-151.047 -122.739)" fill="#eab599"/>
    <path id="Path_11582" data-name="Path 11582" d="M78.341,140.282a1.25,1.25,0,1,1-1.25-1.251A1.25,1.25,0,0,1,78.341,140.282Zm0,0" transform="translate(-66.952 -122.739)" fill="#eab599"/>
    <path id="Path_11583" data-name="Path 11583" d="M279.208,225.159a2.821,2.821,0,1,1-2.37-2.786A2.822,2.822,0,0,1,279.208,225.159Zm0,0" transform="translate(-241.504 -196.281)" fill="#f6caae"/>
    <path id="Path_11584" data-name="Path 11584" d="M301.057,225.431a2.822,2.822,0,0,1-2.37,2.786,10.555,10.555,0,0,1,0-5.573A2.823,2.823,0,0,1,301.057,225.431Zm0,0" transform="translate(-263.354 -196.553)" fill="#eab599"/>
    <path id="Path_11585" data-name="Path 11585" d="M291.06,238.825a1.009,1.009,0,1,1-1.009-1.008A1.009,1.009,0,0,1,291.06,238.825Zm0,0" transform="translate(-255.171 -209.947)" fill="#eab599"/>
    <path id="Path_11586" data-name="Path 11586" d="M463.828,225.159a2.821,2.821,0,1,0,2.37-2.786A2.822,2.822,0,0,0,463.828,225.159Zm0,0" transform="translate(-409.473 -196.281)" fill="#f6caae"/>
    <path id="Path_11587" data-name="Path 11587" d="M463.828,225.431a2.822,2.822,0,0,0,2.37,2.786,10.555,10.555,0,0,0,0-5.573A2.823,2.823,0,0,0,463.828,225.431Zm0,0" transform="translate(-409.473 -196.553)" fill="#eab599"/>
    <path id="Path_11588" data-name="Path 11588" d="M481.323,238.825a1.009,1.009,0,1,1-1.009-1.008A1.009,1.009,0,0,1,481.323,238.825Zm0,0" transform="translate(-423.136 -209.947)" fill="#eab599"/>
    <path id="Path_11589" data-name="Path 11589" d="M324.172,154.377a10.5,10.5,0,0,1-8.817,10.366,10.374,10.374,0,0,1-1.685.135,10.5,10.5,0,0,1-10.5-10.5c0-2.744.953-6.864,2.677-8.735,1.919-2.083,4.769-1.767,7.825-1.767a10.376,10.376,0,0,1,1.685.136A10.5,10.5,0,0,1,324.172,154.377Zm0,0" transform="translate(-267.641 -126.999)" fill="#eab599"/>
    <path id="Path_11590" data-name="Path 11590" d="M349.566,155.527a10.495,10.495,0,1,1-.052-1.047C349.549,154.824,349.566,155.174,349.566,155.527Zm0,0" transform="translate(-293.035 -128.149)" fill="#f6caae"/>
    <path id="Path_11591" data-name="Path 11591" d="M371.671,266.174a5.3,5.3,0,0,1-2.56-.661.467.467,0,0,1,.45-.819,4.359,4.359,0,0,0,4.221,0,.467.467,0,0,1,.45.819A5.307,5.307,0,0,1,371.671,266.174Zm0,0" transform="translate(-325.641 -233.624)" fill="#eab599"/>
    <path id="Path_11592" data-name="Path 11592" d="M355.75,219.429a1.191,1.191,0,1,1-1.192-1.191A1.191,1.191,0,0,1,355.75,219.429Zm0,0" transform="translate(-311.957 -192.663)" fill="#3d4159"/>
    <path id="Path_11593" data-name="Path 11593" d="M414.25,219.429a1.191,1.191,0,1,1-1.191-1.191A1.191,1.191,0,0,1,414.25,219.429Zm0,0" transform="translate(-363.601 -192.663)" fill="#3d4159"/>
    <path id="Path_11594" data-name="Path 11594" d="M363.935,222.764a.51.51,0,1,1-.51-.51A.51.51,0,0,1,363.935,222.764Zm0,0" transform="translate(-320.385 -196.209)" fill="#fff"/>
    <path id="Path_11595" data-name="Path 11595" d="M422.935,222.764a.51.51,0,1,1-.51-.51A.51.51,0,0,1,422.935,222.764Zm0,0" transform="translate(-372.471 -196.209)" fill="#fff"/>
    <path id="Path_11596" data-name="Path 11596" d="M381.127,246.258h-2.383a.514.514,0,1,1,0-1.028h2.383a.514.514,0,1,1,0,1.028Zm0,0" transform="translate(-333.907 -216.493)" fill="#eab599"/>
    <path id="Path_11597" data-name="Path 11597" d="M387.539,118.278a6.365,6.365,0,0,1,5.9,6.032l.03.607h1.83l.986,6.554,2.387-.739-.32-6.423a6.366,6.366,0,0,0-6.381-6.049Zm0,0" transform="translate(-342.124 -104.403)" fill="#ffe152"/>
    <path id="Path_11598" data-name="Path 11598" d="M408.947,96.773a6.487,6.487,0,0,1-9.174,9.174Zm0,0" transform="translate(-352.925 -85.433)" fill="#ffe152"/>
    <path id="Path_11599" data-name="Path 11599" d="M314.385,124.917h-7.961l-.986,6.555-2.387-.739.32-6.423a6.366,6.366,0,0,1,6.382-6.049l11.5.043,1.52,2.736" transform="translate(-267.537 -104.403)" fill="#ffe152"/>
    <path id="Path_11600" data-name="Path 11600" d="M314.177,118.278a6.366,6.366,0,0,0-5.9,6.032l-.03.607h-1.83l-.986,6.554-2.387-.739.32-6.423a6.366,6.366,0,0,1,6.381-6.049Zm0,0" transform="translate(-267.534 -104.403)" fill="#e8c934"/>
    <path id="Path_11601" data-name="Path 11601" d="M71.205,391.175a2.628,2.628,0,1,1-2.211-2.6A2.633,2.633,0,0,1,71.205,391.175Zm0,0" transform="translate(-58.214 -343.011)" fill="#d3a489"/>
    <path id="Path_11602" data-name="Path 11602" d="M91.579,391.426a2.633,2.633,0,0,1-2.211,2.6,9.851,9.851,0,0,1,0-5.2A2.632,2.632,0,0,1,91.579,391.426Zm0,0" transform="translate(-78.588 -343.262)" fill="#bf8e75"/>
    <path id="Path_11603" data-name="Path 11603" d="M82.256,403.913a.94.94,0,1,1-.94-.941A.941.941,0,0,1,82.256,403.913Zm0,0" transform="translate(-70.956 -355.749)" fill="#bf8e75"/>
    <path id="Path_11604" data-name="Path 11604" d="M243.359,391.175a2.632,2.632,0,0,0,2.21,2.6,2.661,2.661,0,0,0,.422.034,2.632,2.632,0,1,0,0-5.264,2.661,2.661,0,0,0-.422.033A2.632,2.632,0,0,0,243.359,391.175Zm0,0" transform="translate(-214.841 -343.011)" fill="#d3a489"/>
    <path id="Path_11605" data-name="Path 11605" d="M243.359,391.426a2.632,2.632,0,0,0,2.21,2.6,9.838,9.838,0,0,0,0-5.2A2.632,2.632,0,0,0,243.359,391.426Zm0,0" transform="translate(-214.841 -343.262)" fill="#bf8e75"/>
    <path id="Path_11606" data-name="Path 11606" d="M113.132,293.469V297.2a9.793,9.793,0,0,1-8.221,9.666l-.048.008a9.66,9.66,0,0,1-1.524.119,9.793,9.793,0,0,1-9.792-9.793v-3.729a9.786,9.786,0,0,1,9.792-9.793h0a9.785,9.785,0,0,1,9.792,9.793Zm0,0" transform="translate(-82.584 -250.432)" fill="#bf8e75"/>
    <path id="Path_11607" data-name="Path 11607" d="M259.67,403.913a.941.941,0,1,1-.941-.941A.941.941,0,0,1,259.67,403.913Zm0,0" transform="translate(-227.579 -355.749)" fill="#bf8e75"/>
    <path id="Path_11608" data-name="Path 11608" d="M136.106,294.362v3.729a9.793,9.793,0,0,1-8.221,9.666l-.048.008a9.794,9.794,0,0,1-8.266-9.674v-3.729a9.794,9.794,0,0,1,8.268-9.674A9.794,9.794,0,0,1,136.106,294.362Zm0,0" transform="translate(-105.558 -251.326)" fill="#d3a489"/>
    <path id="Path_11609" data-name="Path 11609" d="M142.577,385.83a1.111,1.111,0,1,1-1.111-1.111A1.111,1.111,0,0,1,142.577,385.83Zm0,0" transform="translate(-123.908 -339.635)" fill="#3d4159"/>
    <path id="Path_11610" data-name="Path 11610" d="M197.128,385.83a1.111,1.111,0,1,1-1.111-1.111A1.111,1.111,0,0,1,197.128,385.83Zm0,0" transform="translate(-172.066 -339.635)" fill="#3d4159"/>
    <path id="Path_11611" data-name="Path 11611" d="M150.21,388.94a.476.476,0,1,1-.476-.476A.476.476,0,0,1,150.21,388.94Zm0,0" transform="translate(-131.767 -342.942)" fill="#fff"/>
    <path id="Path_11612" data-name="Path 11612" d="M205.226,388.94a.476.476,0,1,1-.476-.476A.476.476,0,0,1,205.226,388.94Zm0,0" transform="translate(-180.335 -342.942)" fill="#fff"/>
    <path id="Path_11613" data-name="Path 11613" d="M166.244,407.13h-2.222a.479.479,0,1,1,0-.958h2.222a.479.479,0,1,1,0,.958Zm0,0" transform="translate(-144.378 -358.574)" fill="#bf8e75"/>
    <path id="Path_11614" data-name="Path 11614" d="M157.423,429.417a4.947,4.947,0,0,1-2.387-.617.435.435,0,1,1,.419-.763,4.067,4.067,0,0,0,3.935,0,.435.435,0,1,1,.42.763A4.946,4.946,0,0,1,157.423,429.417Zm0,0" transform="translate(-136.668 -377.829)" fill="#bf8e75"/>
    <path id="Path_11615" data-name="Path 11615" d="M113.132,278.973v3.82h-1.822V279.8l-13.156-2.445-2.784-.517v5.953H93.547v-3.82a7.883,7.883,0,0,1,7.883-7.884h3.819c.1,0,.207,0,.311.007A7.881,7.881,0,0,1,113.132,278.973Zm0,0" transform="translate(-82.584 -239.322)" fill="#a35418"/>
    <path id="Path_11616" data-name="Path 11616" d="M147.834,279.025v3.82h-1.822v-2.991l-13.156-2.445a7.548,7.548,0,0,1,14.978,1.616Zm0,0" transform="translate(-117.286 -239.373)" fill="#cc7a3b"/>
  </g>
</svg>
