<svg xmlns="http://www.w3.org/2000/svg" width="13.146" height="19.213" viewBox="0 0 13.146 19.213">
  <path id="help" d="M3217.976,900.068l10.618-4.045v1.643l-8.848,3.414,1.643,1.137,9.733-3.793v12.513l-9.733,4.3-3.413-2.528Zm8.541,9.624a1.483,1.483,0,0,0-.907,1.262c0,.5.406.749.907.554a1.485,1.485,0,0,0,.909-1.263C3227.425,909.743,3227.019,909.495,3226.516,909.691Zm.182-7.336a4.63,4.63,0,0,0-2.906,3.859v.363l1.816-.709v-.544a1.783,1.783,0,0,1,1.089-1.515c.6-.234,1.091.063,1.091.664,0,.263,0,.363-.727,1.373-.364.5-1.453,1.692-1.453,2.928v.545l1.816-.708v-.726a2.663,2.663,0,0,1,1.09-1.878,3.466,3.466,0,0,0,1.089-2.241C3229.6,902.259,3228.3,901.729,3226.7,902.355Z" transform="translate(-3217.976 -896.023)" fill="#fff"/>
</svg>
