<svg xmlns="http://www.w3.org/2000/svg" width="18" height="18" viewBox="0 0 18 18">
  <path id="ic" d="M18,11.073v2a.7.7,0,0,1-.7.7H15.328a.7.7,0,0,1,0-1.406h1.266v-1.3a.7.7,0,1,1,1.406,0ZM8.3,7.628a.7.7,0,0,0,.7-.7V5.343h.7a.7.7,0,0,0,.7-.7V.7A.7.7,0,0,0,9.677,0,.714.714,0,0,0,9,.719v.546H8.3a.7.7,0,0,0,0,1.406H9V3.936H8.3a.7.7,0,0,0-.7.7V6.925A.7.7,0,0,0,8.3,7.628ZM.7,10.37a.7.7,0,0,0,.7-.7v-.7h.738a.7.7,0,1,0,0-1.406H.7a.7.7,0,0,0-.7.7V9.667A.7.7,0,0,0,.7,10.37ZM11.109,8.964h1.9v2.092a.714.714,0,0,0,.677.72.7.7,0,0,0,.729-.7v-.7h.738a.7.7,0,0,0,0-1.406h-.738v-.7a.7.7,0,0,0-.7-.7h-2.6a.7.7,0,1,0,0,1.406ZM17.3,7.557a.7.7,0,1,0,.7.7A.7.7,0,0,0,17.3,7.557ZM11.109,10.37a.7.7,0,0,0-.7.7v1.3h-.352a.7.7,0,1,0,0,1.406h1.055a.7.7,0,0,0,.7-.7v-2A.7.7,0,0,0,11.109,10.37Zm0,6.223h-.7v-.7a.7.7,0,0,0-.7-.7H9v-.7a.7.7,0,0,0-1.406,0v1.406a.7.7,0,0,0,.7.7H9v.7a.7.7,0,0,0,.7.7h1.406a.7.7,0,0,0,0-1.406Zm2.812-1.406a.7.7,0,0,0-.7-.7h-.352a.7.7,0,0,0,0,1.406h.352A.7.7,0,0,0,13.922,15.186ZM17.3,16.593h-.562v-.7a.7.7,0,0,0-1.406,0v.7H13.922a.7.7,0,0,0,0,1.406H17.3a.7.7,0,0,0,0-1.406Zm-9-4.922a.7.7,0,0,0,.7-.7v-1.3a.7.7,0,0,0-.7-.7H5.766V8.277a.714.714,0,0,0-.677-.72.7.7,0,0,0-.729.7v.7H4.008a.7.7,0,1,0,0,1.406H7.594v.6A.7.7,0,0,0,8.3,11.671ZM0,4.218V2.108A2.112,2.112,0,0,1,2.109,0H4.219A2.112,2.112,0,0,1,6.328,2.108V4.218A2.112,2.112,0,0,1,4.219,6.327H2.109A2.112,2.112,0,0,1,0,4.218Zm1.406,0a.7.7,0,0,0,.7.7H4.219a.7.7,0,0,0,.7-.7V2.108a.7.7,0,0,0-.7-.7H2.109a.7.7,0,0,0-.7.7Zm1.758-.352a.7.7,0,1,0-.7-.7A.7.7,0,0,0,3.164,3.866ZM18,2.108V4.218a2.112,2.112,0,0,1-2.109,2.109H13.781a2.112,2.112,0,0,1-2.109-2.109V2.108A2.112,2.112,0,0,1,13.781,0h2.109A2.112,2.112,0,0,1,18,2.108Zm-1.406,0a.7.7,0,0,0-.7-.7H13.781a.7.7,0,0,0-.7.7V4.218a.7.7,0,0,0,.7.7h2.109a.7.7,0,0,0,.7-.7Zm-1.758.352a.7.7,0,1,0,.7.7A.7.7,0,0,0,14.836,2.46ZM6.328,13.78v2.109A2.112,2.112,0,0,1,4.219,18H2.109A2.112,2.112,0,0,1,0,15.889V13.78a2.112,2.112,0,0,1,2.109-2.109H4.219A2.112,2.112,0,0,1,6.328,13.78Zm-1.406,0a.7.7,0,0,0-.7-.7H2.109a.7.7,0,0,0-.7.7v2.109a.7.7,0,0,0,.7.7H4.219a.7.7,0,0,0,.7-.7Zm-1.758.352a.7.7,0,1,0,.7.7A.7.7,0,0,0,3.164,14.132Zm0,0" transform="translate(0 0.001)" fill="#36f"/>
</svg>
