<svg xmlns="http://www.w3.org/2000/svg" width="17.555" height="20" viewBox="0 0 17.555 20">
  <g id="ic_delete" transform="translate(-13.77 -8.75)">
    <path id="Path_4434" data-name="Path 4434" d="M38.772,41.666a.742.742,0,0,0,.742-.742V32.9a.742.742,0,0,0-1.484,0v8.032A.742.742,0,0,0,38.772,41.666Z" transform="translate(-18.304 -16.895)" fill="#ff4d4d"/>
    <path id="Path_4435" data-name="Path 4435" d="M55.712,41.666a.742.742,0,0,0,.742-.742V32.9a.742.742,0,0,0-1.484,0v8.032A.742.742,0,0,0,55.712,41.666Z" transform="translate(-31.085 -16.895)" fill="#ff4d4d"/>
    <path id="Path_4436" data-name="Path 4436" d="M14.618,12.639H15.3V24.51a4.245,4.245,0,0,0,4.24,4.24h6.018a4.245,4.245,0,0,0,4.24-4.24V12.639h.681a.848.848,0,0,0,0-1.7H26.213v-.376A1.819,1.819,0,0,0,24.4,8.75H20.7a1.82,1.82,0,0,0-1.817,1.817v.376H14.618a.848.848,0,1,0,0,1.7Zm5.96-2.071a.121.121,0,0,1,.121-.121h3.7a.121.121,0,0,1,.121.121v.376H20.578Zm-3.583,2.071H28.1V24.51a2.546,2.546,0,0,1-2.544,2.544H19.539a2.546,2.546,0,0,1-2.544-2.544Z" transform="translate(0 0)" fill="#ff4d4d"/>
  </g>
</svg>
