<svg xmlns="http://www.w3.org/2000/svg" width="16" height="15.999" viewBox="0 0 16 15.999">
  <g id="ic_search_normal" transform="translate(-2 -2)">
    <path id="Fill" d="M15.159,16a.833.833,0,0,1-.6-.244l-2.443-2.433a7.525,7.525,0,1,1,1.2-1.187l2.435,2.425a.852.852,0,0,1,.009,1.2A.874.874,0,0,1,15.159,16ZM7.49,1.684a5.777,5.777,0,1,0,5.8,5.777A5.795,5.795,0,0,0,7.49,1.684Zm3.6,5.833a.8.8,0,0,1-.775-.6A2.81,2.81,0,0,0,8.149,4.853a.8.8,0,1,1,.312-1.569,4.417,4.417,0,0,1,3.4,3.237.8.8,0,0,1-.58.971A.8.8,0,0,1,11.09,7.517Z" transform="translate(2 2)" fill="#fff"/>
  </g>
</svg>
