<svg xmlns="http://www.w3.org/2000/svg" xmlns:xlink="http://www.w3.org/1999/xlink" width="54.491" height="54.68" viewBox="0 0 54.491 54.68">
  <defs>
    <linearGradient id="linear-gradient" x1="0.5" y1="1" x2="0.5" gradientUnits="objectBoundingBox">
      <stop offset="0" stop-color="#037317"/>
      <stop offset="0.736" stop-color="#239d05"/>
      <stop offset="1" stop-color="#2daa00"/>
    </linearGradient>
  </defs>
  <g id="icon" transform="translate(0.491 0.286)">
    <ellipse id="Ellipse_728" data-name="Ellipse 728" cx="23.121" cy="23.184" rx="23.121" ry="23.184" transform="translate(7.395 7.977)" fill="url(#linear-gradient)"/>
    <path id="Path_11553" data-name="Path 11553" d="M125.116,6.641l.335-1.5a2.466,2.466,0,0,0-2.211-3L95.641,0,91.479,41.168Z" transform="translate(-76.078 7.269)" fill="#36f"/>
    <path id="Path_11554" data-name="Path 11554" d="M85.86,9.119,85.44,11,78.17,43.447a23.463,23.463,0,0,1-31.857-6.365l7.616-34L54.621,0l4.272.963L81.215,5.992l2.88.648.233.053A2.03,2.03,0,0,1,85.86,9.119Z" transform="translate(-35.057 7.27)" fill="#091850"/>
    <path id="Path_11555" data-name="Path 11555" d="M158.427,167.72a10.791,10.791,0,0,0-1.556-1.934A10.721,10.721,0,0,0,140.336,179.2a10.784,10.784,0,0,0,1.568,1.945,10.614,10.614,0,0,0,5.131,2.787,10.732,10.732,0,0,0,2.368.265,10.742,10.742,0,0,0,9.024-16.482Zm-2.36-1.109a9.559,9.559,0,0,1,.97,1.117,9.551,9.551,0,0,1-1.968.784q-.088-.34-.2-.674a11.691,11.691,0,0,0-1.511-3.088A9.437,9.437,0,0,1,156.067,166.611Zm-1.886,3.266a12.252,12.252,0,0,1-.039,4.066l-4.072-.917.075-.336.637-2.842a10.705,10.705,0,0,0,1.8.153l.186,0A10.506,10.506,0,0,0,154.181,169.877Zm-9.6,7.17a12.244,12.244,0,0,1,.039-4.065l4.073.917-.082.364-.631,2.815a10.649,10.649,0,0,0-1.964-.151A10.525,10.525,0,0,0,144.582,177.047Zm.293-5.191a12.23,12.23,0,0,1,1.7-3.691,10.678,10.678,0,0,0,3.086,1.431l-.712,3.178Zm4.943,2.3,4.072.917a12.21,12.21,0,0,1-1.7,3.691,10.654,10.654,0,0,0-3.086-1.43Zm2.106-9.4a10.508,10.508,0,0,1,2.019,4,9.514,9.514,0,0,1-2.908-.027Zm-2.012,3.714a9.485,9.485,0,0,1-2.639-1.223A10.48,10.48,0,0,1,150.8,164.5Zm-.549-4.587.138,0a11.793,11.793,0,0,0-3.148,2.668,9.521,9.521,0,0,1-1.442-1.553A9.446,9.446,0,0,1,149.363,163.878Zm-5.44,1.72a10.684,10.684,0,0,0,1.731,1.87,13.382,13.382,0,0,0-1.9,4.134l-3.548-.8A9.5,9.5,0,0,1,143.923,165.6Zm-3.973,6.331,3.548.8a13.386,13.386,0,0,0-.043,4.554,10.633,10.633,0,0,0-2.362.946A9.52,9.52,0,0,1,139.95,171.929Zm2.757,8.395a9.679,9.679,0,0,1-.981-1.127,9.52,9.52,0,0,1,1.968-.784q.091.349.2.691a11.731,11.731,0,0,0,1.5,3.071A9.463,9.463,0,0,1,142.708,180.324Zm4.133,1.849a10.5,10.5,0,0,1-2.02-4,9.493,9.493,0,0,1,2.909.028Zm2.011-3.714a9.5,9.5,0,0,1,2.64,1.223,10.465,10.465,0,0,1-3.529,2.744Zm.412,4.586a11.824,11.824,0,0,0,3.146-2.669,9.53,9.53,0,0,1,1.444,1.553A9.458,9.458,0,0,1,149.264,183.046Zm5.577-1.72a10.681,10.681,0,0,0-1.732-1.869,13.371,13.371,0,0,0,1.9-4.134l3.548.8A9.5,9.5,0,0,1,154.841,181.325Zm3.973-6.33-3.548-.8a13.393,13.393,0,0,0,.042-4.555,10.731,10.731,0,0,0,2.362-.946A9.529,9.529,0,0,1,158.814,175Z" transform="translate(-118.939 -140.476)" fill="#fff" stroke="#fff" stroke-width="0.5"/>
    <path id="Path_11556" data-name="Path 11556" d="M365.085,323.929a7.3,7.3,0,0,0-14.006,0,10.128,10.128,0,0,0-.4,2.83c0,4.652,7.4,9.741,7.4,9.741s7.4-5.09,7.4-9.741A10.128,10.128,0,0,0,365.085,323.929Z" transform="translate(-311.486 -282.173)" fill="#36f"/>
    <ellipse id="Ellipse_729" data-name="Ellipse 729" cx="3.729" cy="3.693" rx="3.729" ry="3.693" transform="translate(42.868 40.066)" fill="#fff"/>
    <path id="Path_11557" data-name="Path 11557" d="M751.753,250.495a1.649,1.649,0,0,1-2.261-.608,1.671,1.671,0,0,1-.155-.365,31.053,31.053,0,0,1,14.074-35.87h0a30.34,30.34,0,0,1,23.676-3,1.669,1.669,0,0,1-.883,3.219,27.452,27.452,0,0,0-33.867,19.191,27.867,27.867,0,0,0,.169,15.5A1.672,1.672,0,0,1,751.753,250.495Z" transform="translate(-748.486 -209.775)" fill="#fff"/>
  </g>
</svg>
