<svg id="icon-email" xmlns="http://www.w3.org/2000/svg" width="18" height="13.5" viewBox="0 0 18 13.5">
  <g id="Symbols">
    <g id="icons_icon-email" data-name="icons/icon-email">
      <path id="Shape" d="M8.357,0C6.432,0,4.979,0,3.843.1a5.958,5.958,0,0,0-2.151.5.663.663,0,0,0-.2.113,2.585,2.585,0,0,0-.29.2A3.24,3.24,0,0,0,.128,3.129,28.321,28.321,0,0,0,0,6.751a28.321,28.321,0,0,0,.128,3.622A3.236,3.236,0,0,0,1.2,12.584a4.8,4.8,0,0,0,2.643.816c1.136.1,2.589.1,4.513.1H9.642c1.926,0,3.377,0,4.514-.1a4.8,4.8,0,0,0,2.643-.816,3.24,3.24,0,0,0,1.072-2.211A28.321,28.321,0,0,0,18,6.751a28.321,28.321,0,0,0-.128-3.622A3.24,3.24,0,0,0,16.8.917a2.647,2.647,0,0,0-.262-.183.645.645,0,0,0-.256-.143A6.038,6.038,0,0,0,14.157.1C13.019,0,11.568,0,9.642,0Zm0,1.227H9.642c1.925,0,3.362,0,4.393.1.282.026.523.059.743.1L10.225,4.994a1.992,1.992,0,0,1-2.45,0L3.222,1.42c.218-.038.461-.071.742-.1,1.032-.093,2.469-.1,4.393-.1Zm-6.449.751L6.959,5.943a3.34,3.34,0,0,0,4.082,0l5.051-3.965A2.23,2.23,0,0,1,16.6,3.292a28.706,28.706,0,0,1,.117,3.458,28.457,28.457,0,0,1-.117,3.458,2.012,2.012,0,0,1-.622,1.433,3.747,3.747,0,0,1-1.939.536c-1.032.093-2.47.1-4.394.1H8.357c-1.925,0-3.361,0-4.393-.1a3.747,3.747,0,0,1-1.939-.536A2.012,2.012,0,0,1,1.4,10.209a28.457,28.457,0,0,1-.117-3.458A28.467,28.467,0,0,1,1.4,3.292a2.222,2.222,0,0,1,.505-1.315Z" transform="translate(0 0)" fill="#36f"/>
    </g>
  </g>
</svg>
