<svg id="icon-lock" xmlns="http://www.w3.org/2000/svg" width="13.844" height="18" viewBox="0 0 13.844 18">
  <g id="Symbols">
    <g id="icons_icon-lock" data-name="icons/icon-lock">
      <g id="Group">
        <path id="Shape" d="M7.672.873A4.162,4.162,0,0,0,3.523,4.957a.492.492,0,0,0,0,.07V5.77c-.126.008-.275.008-.391.021a2.63,2.63,0,0,0-1.645.655A2.633,2.633,0,0,0,.826,8.091a24.043,24.043,0,0,0-.07,2.475v3.358a.8.8,0,0,0-.007.1A23.637,23.637,0,0,0,.822,16.5a2.623,2.623,0,0,0,.656,1.645,2.624,2.624,0,0,0,1.645.655,23.96,23.96,0,0,0,2.473.071H9.79a23.549,23.549,0,0,0,2.432-.071,2.627,2.627,0,0,0,1.645-.655,2.623,2.623,0,0,0,.656-1.645,23.876,23.876,0,0,0,.072-2.471V10.57h0v0a23.637,23.637,0,0,0-.072-2.475,2.626,2.626,0,0,0-.656-1.646,2.633,2.633,0,0,0-1.645-.655c-.119-.013-.269-.014-.4-.023V5.026a.607.607,0,0,0,0-.078A4.163,4.163,0,0,0,7.672.873Zm0,1.384a2.761,2.761,0,0,1,2.769,2.769v.7c-.214,0-.4,0-.643,0l-.049,0H5.6l-.041,0c-.245,0-.44,0-.658,0v-.7A2.761,2.761,0,0,1,7.672,2.257ZM5.637,7.1H9.7l.049,0c1.034,0,1.8,0,2.318.062a1.382,1.382,0,0,1,.823.257,1.387,1.387,0,0,1,.258.822c.058.516.062,1.284.062,2.32h0v3.463c0,1.033,0,1.8-.062,2.315a1.387,1.387,0,0,1-.258.822,1.385,1.385,0,0,1-.823.259c-.516.058-1.284.06-2.318.06l-.035,0H5.6c-1.036,0-1.8,0-2.319-.062a1.393,1.393,0,0,1-.822-.257,1.392,1.392,0,0,1-.258-.823c-.056-.5-.061-1.242-.061-2.222a.729.729,0,0,0,.006-.1V10.566c0-1.037,0-1.8.062-2.32a1.387,1.387,0,0,1,.258-.822,1.385,1.385,0,0,1,.822-.257C3.8,7.11,4.567,7.105,5.6,7.105h.034Z" transform="translate(-0.75 -0.873)" fill="#36f"/>
        <path id="Path" d="M7,9a1.252,1.252,0,0,0-1.084,1.878,1.268,1.268,0,0,0,.459.458V12.75a.624.624,0,0,0,1.07.448.625.625,0,0,0,.18-.448V11.333A1.251,1.251,0,0,0,7,9Z" transform="translate(-0.077 0.324)" fill="#36f" fill-rule="evenodd"/>
      </g>
    </g>
  </g>
</svg>
