<svg id="lab-report" xmlns="http://www.w3.org/2000/svg" xmlns:xlink="http://www.w3.org/1999/xlink" width="30" height="30" viewBox="0 0 30 30">
  <defs>
    <linearGradient id="linear-gradient" x1="0.016" y1="0.016" x2="1" y2="1" gradientUnits="objectBoundingBox">
      <stop offset="0" stop-color="#ffcf1b"/>
      <stop offset="1" stop-color="#ff881b"/>
    </linearGradient>
  </defs>
  <path id="bg" d="M15,0A15,15,0,1,1,0,15,15,15,0,0,1,15,0Z" transform="translate(0 0)" fill="url(#linear-gradient)"/>
  <path id="_021-cardiogram" data-name="021-cardiogram" d="M11.305,10.342a.586.586,0,0,0,.586-.586V3.809A2.346,2.346,0,0,0,9.548,1.465H7.7V.586A.586.586,0,0,0,7.116,0H4.772a.586.586,0,0,0-.586.586v.879H2.344A2.346,2.346,0,0,0,0,3.809v8.848A2.346,2.346,0,0,0,2.344,15h7.2a2.346,2.346,0,0,0,2.344-2.344.586.586,0,1,0-1.172,0,1.173,1.173,0,0,1-1.172,1.172h-7.2a1.173,1.173,0,0,1-1.172-1.172v-2.7H2.643a.586.586,0,0,0,.526-.328l.582-1.189L4.94,11.108a.586.586,0,0,0,.521.347h.014A.586.586,0,0,0,6,11.133L6.8,9.54l.057.108a.586.586,0,0,0,.519.313H9.05a.586.586,0,0,0,0-1.172H7.733l-.421-.8a.586.586,0,0,0-.518-.313h0A.586.586,0,0,0,6.271,8L5.508,9.505l-1.2-2.683a.586.586,0,0,0-.525-.347H3.776A.586.586,0,0,0,3.25,6.8L2.278,8.789H1.172V3.809A1.173,1.173,0,0,1,2.344,2.637H4.186V2.93a1.758,1.758,0,1,0,3.516,0V2.637H9.548a1.173,1.173,0,0,1,1.172,1.172V9.756A.586.586,0,0,0,11.305,10.342ZM6.53,2.93a.586.586,0,1,1-1.172,0V1.172H6.53Zm0,0" transform="translate(9 7.5)" fill="#fff"/>
</svg>
