<svg id="LOGO-v" xmlns="http://www.w3.org/2000/svg" xmlns:xlink="http://www.w3.org/1999/xlink" width="376" height="63.207" viewBox="0 0 376 63.207">
  <defs>
    <linearGradient id="linear-gradient" x1="0.5" y1="1" x2="0.5" gradientUnits="objectBoundingBox">
      <stop offset="0" stop-color="#037317"/>
      <stop offset="0.736" stop-color="#239d05"/>
      <stop offset="1" stop-color="#2daa00"/>
    </linearGradient>
  </defs>
  <g id="Group_9" data-name="Group 9" transform="translate(78.558 12.213)">
    <path id="Path_29" data-name="Path 29" d="M542.335,1217.388h-8.454v28.218h-8.464v-28.218h-8.4v-7.064h25.31Z" transform="translate(-517.016 -1210.274)" fill="#fff"/>
    <path id="Path_30" data-name="Path 30" d="M547.717,1240.221a5.41,5.41,0,0,0-1.214-3.84,5.746,5.746,0,0,0-4.3-1.3h-4.354v10.522h-8.454v-35.28H543.01a27.668,27.668,0,0,1,5.923.531,7.85,7.85,0,0,1,3.771,1.855,7.279,7.279,0,0,1,1.974,3.561,22.537,22.537,0,0,1,.583,5.591,19.834,19.834,0,0,1-.331,4.042,7.031,7.031,0,0,1-.986,2.518,4.393,4.393,0,0,1-1.571,1.447,12.379,12.379,0,0,1-2.024.84,15.652,15.652,0,0,1,2.128.791,6.428,6.428,0,0,1,1.869,1.265,5.837,5.837,0,0,1,1.317,2.014,7.584,7.584,0,0,1,.507,2.946v7.892h-8.454Zm-4.1-13.528a6.709,6.709,0,0,0,1.721-.177,2.14,2.14,0,0,0,1.062-.634,2.571,2.571,0,0,0,.557-1.222,10.12,10.12,0,0,0,.15-1.932,4.953,4.953,0,0,0-.733-3.2,3.646,3.646,0,0,0-2.757-.811h-5.771v7.98Z" transform="translate(-499.925 -1210.277)" fill="#fff"/>
    <path id="Path_31" data-name="Path 31" d="M543.213,1210.324h8.454v35.283h-8.454Z" transform="translate(-480.844 -1210.274)" fill="#fff"/>
    <path id="Path_32" data-name="Path 32" d="M568.107,1210.907a8.282,8.282,0,0,1,6.173,5.77,18.871,18.871,0,0,1,.783,5.9,20.637,20.637,0,0,1-.783,6.218,8.918,8.918,0,0,1-2.3,3.841,8.181,8.181,0,0,1-3.824,1.956,23.7,23.7,0,0,1-5.34.536h-5.011V1245.6h-8.4v-35.275h13.311A22,22,0,0,1,568.107,1210.907Zm-1.824,8.8a4.475,4.475,0,0,0-3.366-.942h-4.654v7.93h4.857a8.251,8.251,0,0,0,2-.2,2.5,2.5,0,0,0,1.214-.662,2.614,2.614,0,0,0,.607-1.22,8.474,8.474,0,0,0,.176-1.882,4.491,4.491,0,0,0-.833-3.018Z" transform="translate(-472.3 -1210.276)" fill="#fff"/>
    <path id="Path_33" data-name="Path 33" d="M564.622,1212.462a13.789,13.789,0,0,1,8.423-2.109h8.609a13.306,13.306,0,0,1,8.333,2.059,7.7,7.7,0,0,1,2.557,6.378v1.523h-9.011a3.154,3.154,0,0,0-.683-2.186,3.681,3.681,0,0,0-2.757-.76h-6.123a4.313,4.313,0,0,0-2.619.634,3.269,3.269,0,0,0-.833,2.671,6.062,6.062,0,0,0,.174,1.629,1.626,1.626,0,0,0,.609.913,2.615,2.615,0,0,0,1.083.409c.443.064.952.115,1.574.151l7.54.4a37.324,37.324,0,0,1,4.835.56,8.668,8.668,0,0,1,3.493,1.435,6.347,6.347,0,0,1,2.123,2.87,13.114,13.114,0,0,1,.733,4.8v1.832a20.656,20.656,0,0,1-.452,4.7,6.185,6.185,0,0,1-1.666,3.078,7.111,7.111,0,0,1-3.333,1.674,24.545,24.545,0,0,1-5.516.509h-8.861a25.3,25.3,0,0,1-4.881-.409,7.938,7.938,0,0,1-3.4-1.449,6.176,6.176,0,0,1-2-2.869,14.275,14.275,0,0,1-.66-4.728V1234.7h8.611a7.749,7.749,0,0,0,.2,1.959,2.387,2.387,0,0,0,.683,1.169,2.624,2.624,0,0,0,1.267.586,10.661,10.661,0,0,0,1.947.151h5.516a4.6,4.6,0,0,0,2.783-.686,3.626,3.626,0,0,0,.914-2.973,5.628,5.628,0,0,0-.257-1.856,2.429,2.429,0,0,0-.76-1.146,3.109,3.109,0,0,0-1.24-.586,9.563,9.563,0,0,0-1.693-.239l-6.68-.307a41.53,41.53,0,0,1-5.419-.555,8.338,8.338,0,0,1-3.493-1.4,5.38,5.38,0,0,1-1.874-2.846,17.645,17.645,0,0,1-.557-4.9v-1.478A8.434,8.434,0,0,1,564.622,1212.462Z" transform="translate(-455.147 -1210.303)" fill="#fff"/>
    <path id="Path_34" data-name="Path 34" d="M599.947,1210.324l10.533,35.283h-8.809l-2.433-8.492H587.194l-2.581,8.492H575.8l10.528-35.283Zm-11.135,20.944h8.709l-4.354-14.289Z" transform="translate(-435.844 -1210.274)" fill="#fff"/>
    <path id="Path_35" data-name="Path 35" d="M615.928,1210.324v7.014H600.136v6.507h14.625v7.069H600.136v14.693h-8.4v-35.283Z" transform="translate(-413.852 -1210.274)" fill="#fff"/>
    <path id="Path_36" data-name="Path 36" d="M628.244,1210.324v7.014h-15.8v6.507h14.682v7.069H612.443v7.624h15.792v7.069H604v-35.283Z" transform="translate(-396.915 -1210.274)" fill="#fff"/>
    <path id="Path_37" data-name="Path 37" d="M626.629,1221.527v8.492h-9.875v-8.492Z" transform="translate(-379.302 -1194.687)" fill="#fff"/>
    <path id="Path_38" data-name="Path 38" d="M627.644,1238.534a5.5,5.5,0,0,1-2.816-1.478,6.149,6.149,0,0,1-1.5-3.047,24.5,24.5,0,0,1-.438-5.122v-3.994a22.542,22.542,0,0,1,.424-4.783,6.572,6.572,0,0,1,1.4-3,5.17,5.17,0,0,1,2.619-1.543,15.985,15.985,0,0,1,4.069-.44h3.773a21.9,21.9,0,0,1,4.54.387,5.585,5.585,0,0,1,2.747,1.339,5.044,5.044,0,0,1,1.352,2.542,17.871,17.871,0,0,1,.371,3.965h-5.838a5.373,5.373,0,0,0-.136-1.251,2.056,2.056,0,0,0-.557-1,2.8,2.8,0,0,0-1.217-.66,7.543,7.543,0,0,0-2.143-.239H632.67a7.527,7.527,0,0,0-1.974.215,2.442,2.442,0,0,0-1.266.8,3.573,3.573,0,0,0-.671,1.593,13.884,13.884,0,0,0-.2,2.609v2.846a15.625,15.625,0,0,0,.186,2.645,3.987,3.987,0,0,0,.659,1.7,2.541,2.541,0,0,0,1.26.918,6.361,6.361,0,0,0,2.009.273h1.624a11.591,11.591,0,0,0,2.19-.172,2.562,2.562,0,0,0,1.236-.559,1.7,1.7,0,0,0,.521-.957,8.54,8.54,0,0,0,.1-1.394h5.838a19.609,19.609,0,0,1-.338,4.017,4.568,4.568,0,0,1-1.35,2.507,5.848,5.848,0,0,1-2.9,1.308,26.915,26.915,0,0,1-4.957.373h-2.552A21.07,21.07,0,0,1,627.644,1238.534Z" transform="translate(-370.839 -1203.591)" fill="#fff"/>
    <path id="Path_39" data-name="Path 39" d="M637.6,1238.535a5.431,5.431,0,0,1-2.819-1.478,6.12,6.12,0,0,1-1.467-3.047,25.313,25.313,0,0,1-.421-5.122v-3.994a21.915,21.915,0,0,1,.438-4.814,6.319,6.319,0,0,1,1.486-3,5.58,5.58,0,0,1,2.8-1.523,19.065,19.065,0,0,1,4.39-.423h2.9a21.084,21.084,0,0,1,4.621.423,5.841,5.841,0,0,1,2.933,1.509,6.094,6.094,0,0,1,1.538,2.982,21.267,21.267,0,0,1,.457,4.85v3.994a28.246,28.246,0,0,1-.374,5.087,6.068,6.068,0,0,1-1.381,3.068,5.213,5.213,0,0,1-2.8,1.492,22.692,22.692,0,0,1-4.621.39h-3.214A21.524,21.524,0,0,1,637.6,1238.535Zm3.14-18.1a2.618,2.618,0,0,0-1.266.749,3.2,3.2,0,0,0-.693,1.435,10.41,10.41,0,0,0-.217,2.336v3.728a12.36,12.36,0,0,0,.2,2.406,3.674,3.674,0,0,0,.674,1.576,2.7,2.7,0,0,0,1.267.868,6.137,6.137,0,0,0,1.974.273H644.6a6.292,6.292,0,0,0,2.009-.273,2.731,2.731,0,0,0,1.281-.885,3.675,3.675,0,0,0,.693-1.593,12.122,12.122,0,0,0,.2-2.437v-3.587a10.559,10.559,0,0,0-.217-2.355,3.329,3.329,0,0,0-.714-1.478,2.645,2.645,0,0,0-1.281-.763,7.535,7.535,0,0,0-1.974-.215H642.68a7.348,7.348,0,0,0-1.938.222Z" transform="translate(-357.022 -1203.592)" fill="#fff"/>
  </g>
  <g id="Group_11" data-name="Group 11">
    <path id="Path_40" data-name="Path 40" d="M534.991,1232.5a24.11,24.11,0,1,1-24.112-24.215h0A24.163,24.163,0,0,1,534.991,1232.5Z" transform="translate(-480.219 -1200.897)" fill="url(#linear-gradient)"/>
    <g id="Path_41" data-name="Path 41">
      <path id="Path_9262" data-name="Path 9262" d="M514.681,1268.4a31.25,31.25,0,0,1-16.734-4.838,1.7,1.7,0,0,1-.528-2.336,1.676,1.676,0,0,1,2.326-.531,27.9,27.9,0,0,0,14.937,4.316,28.183,28.183,0,0,0,28.09-28.214,1.687,1.687,0,1,1,3.374,0A31.568,31.568,0,0,1,514.681,1268.4Zm-28.974-36.827a1.689,1.689,0,0,1-1.643-2.085,31.365,31.365,0,0,1,30.614-24.294h0a31.164,31.164,0,0,1,22.441,9.453,1.691,1.691,0,0,1-2.407,2.375,28.044,28.044,0,0,0-47.367,13.248A1.688,1.688,0,0,1,485.707,1231.575Z" transform="translate(-484.019 -1205.196)" fill="#fff"/>
    </g>
    <g id="Group_10" data-name="Group 10" transform="translate(11.792 12.684)">
      <path id="Path_42" data-name="Path 42" d="M501.764,1210.5h12.261v12.849h12.7v12.234h-12.7v12.76H501.764v-12.76H488.972v-12.234h12.792Z" transform="translate(-488.972 -1210.5)" fill="#fff"/>
    </g>
  </g>
</svg>
