<svg id="LOGO-v2" xmlns="http://www.w3.org/2000/svg" xmlns:xlink="http://www.w3.org/1999/xlink" width="264.582" height="44.336" viewBox="0 0 264.582 44.336">
  <defs>
    <linearGradient id="linear-gradient" x1="0.5" y1="1" x2="0.5" gradientUnits="objectBoundingBox">
      <stop offset="0" stop-color="#037317"/>
      <stop offset="0.736" stop-color="#239d05"/>
      <stop offset="1" stop-color="#2daa00"/>
    </linearGradient>
  </defs>
  <g id="typo" transform="translate(56.156 9.224)">
    <path id="Path_29" data-name="Path 29" d="M534.758,1215.192h-5.924v19.446H522.9v-19.446h-5.887v-4.868h17.735Z" transform="translate(-517.016 -1210.29)" fill="#091850"/>
    <path id="Path_30" data-name="Path 30" d="M542.233,1230.927a3.687,3.687,0,0,0-.851-2.646,4.073,4.073,0,0,0-3.013-.893h-3.051v7.251h-5.924v-24.313h9.541a19.711,19.711,0,0,1,4.151.366,5.538,5.538,0,0,1,2.642,1.279,4.993,4.993,0,0,1,1.383,2.454,15.286,15.286,0,0,1,.409,3.853,13.442,13.442,0,0,1-.232,2.785,4.8,4.8,0,0,1-.691,1.735,3.061,3.061,0,0,1-1.1,1,8.741,8.741,0,0,1-1.418.579,11.125,11.125,0,0,1,1.491.545,4.512,4.512,0,0,1,1.31.872,4.016,4.016,0,0,1,.923,1.388,5.148,5.148,0,0,1,.355,2.03v5.438h-5.924Zm-2.871-9.323a4.773,4.773,0,0,0,1.206-.122,1.5,1.5,0,0,0,.744-.437,1.758,1.758,0,0,0,.39-.842,6.856,6.856,0,0,0,.105-1.331,3.369,3.369,0,0,0-.514-2.208,2.584,2.584,0,0,0-1.932-.559h-4.044v5.5Z" transform="translate(-508.744 -1210.291)" fill="#091850"/>
    <path id="Path_31" data-name="Path 31" d="M543.213,1210.324h5.924v24.314h-5.924Z" transform="translate(-499.51 -1210.29)" fill="#091850"/>
    <path id="Path_32" data-name="Path 32" d="M562.509,1210.725a5.765,5.765,0,0,1,4.326,3.976,12.8,12.8,0,0,1,.549,4.066,14,14,0,0,1-.549,4.285,6.125,6.125,0,0,1-1.612,2.647,5.769,5.769,0,0,1-2.679,1.348,16.882,16.882,0,0,1-3.742.369H555.29v7.218H549.4v-24.309h9.327A15.653,15.653,0,0,1,562.509,1210.725Zm-1.278,6.063a3.173,3.173,0,0,0-2.359-.649H555.61v5.465h3.4a5.879,5.879,0,0,0,1.4-.138,1.763,1.763,0,0,0,.851-.456,1.792,1.792,0,0,0,.425-.841,5.748,5.748,0,0,0,.123-1.3,3.058,3.058,0,0,0-.584-2.08Z" transform="translate(-495.375 -1210.29)" fill="#091850"/>
    <path id="Path_33" data-name="Path 33" d="M563.784,1211.791a9.79,9.79,0,0,1,5.9-1.454h6.032a9.447,9.447,0,0,1,5.839,1.419,5.26,5.26,0,0,1,1.792,4.4v1.05h-6.314a2.15,2.15,0,0,0-.479-1.506,2.611,2.611,0,0,0-1.932-.524h-4.291a3.062,3.062,0,0,0-1.835.437,2.228,2.228,0,0,0-.584,1.841,4.108,4.108,0,0,0,.122,1.122,1.12,1.12,0,0,0,.427.63,1.852,1.852,0,0,0,.759.282c.31.044.667.079,1.1.1l5.283.278a26.568,26.568,0,0,1,3.388.386,6.131,6.131,0,0,1,2.447.989,4.381,4.381,0,0,1,1.488,1.978,8.9,8.9,0,0,1,.514,3.309v1.263a14.009,14.009,0,0,1-.317,3.24,4.241,4.241,0,0,1-1.168,2.121,5.015,5.015,0,0,1-2.336,1.154,17.477,17.477,0,0,1-3.865.351h-6.209a18.012,18.012,0,0,1-3.42-.282,5.614,5.614,0,0,1-2.381-1,4.256,4.256,0,0,1-1.4-1.978,9.685,9.685,0,0,1-.462-3.258v-1.018h6.034a5.254,5.254,0,0,0,.14,1.35,1.639,1.639,0,0,0,.479.806,1.854,1.854,0,0,0,.888.4,7.612,7.612,0,0,0,1.365.1h3.865a3.265,3.265,0,0,0,1.95-.473,2.472,2.472,0,0,0,.641-2.049,3.818,3.818,0,0,0-.18-1.279,1.672,1.672,0,0,0-.532-.789,2.2,2.2,0,0,0-.869-.4,6.8,6.8,0,0,0-1.186-.165l-4.681-.211a29.552,29.552,0,0,1-3.8-.382,5.9,5.9,0,0,1-2.447-.967,3.7,3.7,0,0,1-1.313-1.961,11.97,11.97,0,0,1-.39-3.38V1216.7A5.761,5.761,0,0,1,563.784,1211.791Z" transform="translate(-487.073 -1210.303)" fill="#091850"/>
    <path id="Path_34" data-name="Path 34" d="M592.722,1210.324l7.38,24.314H593.93l-1.705-5.852h-8.44l-1.808,5.852H575.8l7.377-24.314Zm-7.8,14.433h6.1l-3.051-9.847Z" transform="translate(-477.731 -1210.29)" fill="#091850"/>
    <path id="Path_35" data-name="Path 35" d="M608.687,1210.324v4.834H597.621v4.484h10.248v4.871H597.621v10.125h-5.889v-24.314Z" transform="translate(-467.087 -1210.29)" fill="#091850"/>
    <path id="Path_36" data-name="Path 36" d="M620.988,1210.324v4.834H609.915v4.484H620.2v4.871H609.915v5.254h11.065v4.871H604v-24.314Z" transform="translate(-458.89 -1210.29)" fill="#091850"/>
    <path id="Path_37" data-name="Path 37" d="M623.674,1221.527v5.852h-6.92v-5.852Z" transform="translate(-450.365 -1203.031)" fill="#091850"/>
    <path id="Path_38" data-name="Path 38" d="M626.219,1231.257a3.874,3.874,0,0,1-1.973-1.018,4.211,4.211,0,0,1-1.053-2.1,16.618,16.618,0,0,1-.307-3.53v-2.752a15.288,15.288,0,0,1,.3-3.3,4.5,4.5,0,0,1,.981-2.065,3.637,3.637,0,0,1,1.835-1.063,11.384,11.384,0,0,1,2.851-.3h2.644a15.6,15.6,0,0,1,3.181.267,3.941,3.941,0,0,1,1.925.923,3.458,3.458,0,0,1,.948,1.752,12.118,12.118,0,0,1,.26,2.733h-4.091a3.643,3.643,0,0,0-.1-.862,1.411,1.411,0,0,0-.39-.689,1.969,1.969,0,0,0-.853-.455,5.367,5.367,0,0,0-1.5-.165h-1.138a5.36,5.36,0,0,0-1.383.148,1.715,1.715,0,0,0-.887.551,2.441,2.441,0,0,0-.471,1.1,9.411,9.411,0,0,0-.142,1.8v1.961a10.6,10.6,0,0,0,.13,1.823,2.722,2.722,0,0,0,.462,1.168,1.779,1.779,0,0,0,.883.633,4.526,4.526,0,0,0,1.408.188h1.138a8.241,8.241,0,0,0,1.535-.119,1.81,1.81,0,0,0,.866-.385,1.167,1.167,0,0,0,.365-.659,5.792,5.792,0,0,0,.07-.961h4.091a13.3,13.3,0,0,1-.237,2.768,3.133,3.133,0,0,1-.946,1.727,4.131,4.131,0,0,1-2.035.9,19.192,19.192,0,0,1-3.473.257h-1.788A15.013,15.013,0,0,1,626.219,1231.257Z" transform="translate(-446.269 -1207.177)" fill="#091850"/>
    <path id="Path_39" data-name="Path 39" d="M636.192,1231.258a3.827,3.827,0,0,1-1.975-1.019,4.19,4.19,0,0,1-1.028-2.1,17.163,17.163,0,0,1-.3-3.53v-2.752a14.86,14.86,0,0,1,.307-3.317,4.328,4.328,0,0,1,1.041-2.07,3.93,3.93,0,0,1,1.96-1.05,13.566,13.566,0,0,1,3.076-.292h2.035a15,15,0,0,1,3.238.292,4.116,4.116,0,0,1,2.055,1.04,4.176,4.176,0,0,1,1.078,2.055,14.421,14.421,0,0,1,.32,3.342v2.752a19.151,19.151,0,0,1-.262,3.505,4.15,4.15,0,0,1-.968,2.114,3.673,3.673,0,0,1-1.964,1.028,16.163,16.163,0,0,1-3.238.268h-2.252A15.336,15.336,0,0,1,636.192,1231.258Zm2.2-12.475a1.842,1.842,0,0,0-.888.516,2.193,2.193,0,0,0-.485.989,7.061,7.061,0,0,0-.152,1.61v2.569a8.378,8.378,0,0,0,.14,1.658,2.511,2.511,0,0,0,.472,1.086,1.893,1.893,0,0,0,.888.6,4.367,4.367,0,0,0,1.383.188H641.1a4.476,4.476,0,0,0,1.408-.188,1.916,1.916,0,0,0,.9-.61,2.512,2.512,0,0,0,.485-1.1,8.222,8.222,0,0,0,.142-1.679v-2.472a7.161,7.161,0,0,0-.152-1.623,2.28,2.28,0,0,0-.5-1.019,1.859,1.859,0,0,0-.9-.526,5.358,5.358,0,0,0-1.383-.148H639.75a5.231,5.231,0,0,0-1.358.153Z" transform="translate(-439.582 -1207.178)" fill="#091850"/>
  </g>
  <g id="icon">
    <ellipse id="Ellipse_728" data-name="Ellipse 728" cx="19.202" cy="18.799" rx="19.202" ry="18.799" transform="translate(6.549 6.7)" fill="url(#linear-gradient)"/>
    <path id="Path_11553" data-name="Path 11553" d="M119.414,5.385l.278-1.213a2.008,2.008,0,0,0-1.836-2.433L94.935,0,91.479,33.38Z" transform="translate(-78.281 6.125)" fill="#36f"/>
    <path id="Path_11554" data-name="Path 11554" d="M79.157,7.394l-.349,1.521L72.77,35.228a19.8,19.8,0,0,1-26.457-5.161L52.638,2.5,53.213,0,56.76.781,75.3,4.858l2.392.526.194.043A1.646,1.646,0,0,1,79.157,7.394Z" transform="translate(-36.558 6.126)" fill="#091850"/>
    <path id="Path_11555" data-name="Path 11555" d="M155.078,166.775a8.813,8.813,0,0,0-5.563-3.837,8.99,8.99,0,0,0-6.705,1.138,8.655,8.655,0,0,0-3.92,5.447,8.5,8.5,0,0,0,1.163,6.564,8.788,8.788,0,0,0,1.3,1.577,8.88,8.88,0,0,0,4.261,2.26,9.121,9.121,0,0,0,1.967.215,8.974,8.974,0,0,0,4.738-1.354,8.652,8.652,0,0,0,3.919-5.446A8.494,8.494,0,0,0,155.078,166.775Zm-1.96-.9a7.809,7.809,0,0,1,.805.905,8.045,8.045,0,0,1-1.634.636q-.073-.276-.163-.547a9.387,9.387,0,0,0-1.255-2.5A7.846,7.846,0,0,1,153.118,165.876Zm-1.566,2.648a9.7,9.7,0,0,1-.033,3.3l-3.382-.744.062-.272.529-2.3a9.1,9.1,0,0,0,1.493.124l.155,0A8.93,8.93,0,0,0,151.552,168.524Zm-7.972,5.813a9.7,9.7,0,0,1,.033-3.3l3.383.744-.068.295-.524,2.282a9.054,9.054,0,0,0-1.631-.122A8.949,8.949,0,0,0,143.58,174.337Zm.243-4.209a9.809,9.809,0,0,1,1.41-2.993,8.969,8.969,0,0,0,2.563,1.16l-.591,2.576Zm4.105,1.862,3.382.744a9.793,9.793,0,0,1-1.411,2.993,8.948,8.948,0,0,0-2.563-1.16Zm1.749-7.622a8.447,8.447,0,0,1,1.677,3.24,8.09,8.09,0,0,1-2.415-.022Zm-1.671,3.012a7.967,7.967,0,0,1-2.192-.992,8.679,8.679,0,0,1,2.93-2.225Zm-.456-3.72.115,0a9.738,9.738,0,0,0-2.614,2.163,7.8,7.8,0,0,1-1.2-1.259A8,8,0,0,1,147.551,163.659Zm-4.518,1.4a8.749,8.749,0,0,0,1.438,1.516,10.733,10.733,0,0,0-1.581,3.352l-2.946-.648A7.715,7.715,0,0,1,143.033,165.054Zm-3.3,5.133,2.946.648a10.6,10.6,0,0,0-.036,3.692,8.955,8.955,0,0,0-1.962.767A7.564,7.564,0,0,1,139.733,170.188Zm2.29,6.807a7.905,7.905,0,0,1-.815-.914,8.018,8.018,0,0,1,1.634-.636q.075.283.167.561a9.421,9.421,0,0,0,1.25,2.49A7.868,7.868,0,0,1,142.024,176.995Zm3.432,1.5a8.444,8.444,0,0,1-1.678-3.24,8.074,8.074,0,0,1,2.416.023Zm1.67-3.012a7.982,7.982,0,0,1,2.193.992,8.667,8.667,0,0,1-2.93,2.225Zm.342,3.719a9.763,9.763,0,0,0,2.613-2.164,7.8,7.8,0,0,1,1.2,1.259A8.009,8.009,0,0,1,147.469,179.2Zm4.632-1.4a8.745,8.745,0,0,0-1.439-1.515,10.725,10.725,0,0,0,1.582-3.352l2.946.648A7.711,7.711,0,0,1,152.1,177.806Zm3.3-5.133-2.946-.648a10.607,10.607,0,0,0,.035-3.693,9.039,9.039,0,0,0,1.962-.767A7.571,7.571,0,0,1,155.4,172.674Z" transform="translate(-121.876 -144.453)" fill="#fff" stroke="#fff" stroke-width="0.5"/>
    <path id="Path_11556" data-name="Path 11556" d="M362.643,322.937c-1.688-5.673-9.944-5.673-11.632,0a8.031,8.031,0,0,0-.333,2.294c0,3.772,6.149,7.9,6.149,7.9s6.149-4.127,6.149-7.9A8.029,8.029,0,0,0,362.643,322.937Z" transform="translate(-317.722 -288.847)" fill="#36f"/>
    <ellipse id="Ellipse_729" data-name="Ellipse 729" cx="3.097" cy="2.994" rx="3.097" ry="2.994" transform="translate(36.009 32.719)" fill="#fff"/>
    <path id="Path_11557" data-name="Path 11557" d="M751.116,242.738a1.388,1.388,0,0,1-1.878-.493,1.341,1.341,0,0,1-.129-.3A24.919,24.919,0,0,1,760.8,212.865h0a25.732,25.732,0,0,1,19.662-2.429,1.352,1.352,0,0,1,.961,1.666,1.379,1.379,0,0,1-1.694.944A22.87,22.87,0,0,0,751.6,228.606a22.081,22.081,0,0,0,.14,12.572A1.342,1.342,0,0,1,751.116,242.738Z" transform="translate(-747.995 -209.489)" fill="#091850"/>
  </g>
</svg>
