<svg xmlns="http://www.w3.org/2000/svg" width="18" height="21.383" viewBox="0 0 18 21.383">
  <path id="passport_ids" data-name="passport &amp; ids" d="M2.506,21.383A2.509,2.509,0,0,1,0,18.877V2.506A2.509,2.509,0,0,1,2.506,0H17.164A.835.835,0,0,1,18,.836v13.03a.835.835,0,0,1-1.67,0V1.67H2.506a.837.837,0,0,0-.836.836V18.877a.836.836,0,0,0,.836.835H16.33v-1.67a.835.835,0,1,1,1.67,0v2.506a.836.836,0,0,1-.836.836Zm3.3-4.093a.835.835,0,1,1,0-1.67h6.431a.835.835,0,1,1,0,1.67ZM4.051,9.1a5.012,5.012,0,1,1,5.012,5.012A5.018,5.018,0,0,1,4.051,9.1Zm5.012,3.254A5.33,5.33,0,0,0,9.71,9.94H8.416A5.333,5.333,0,0,0,9.063,12.358Zm2.039-.609A3.35,3.35,0,0,0,12.3,9.94h-.914A9.932,9.932,0,0,1,11.1,11.749Zm-4.077,0A9.93,9.93,0,0,1,6.741,9.94H5.827A3.347,3.347,0,0,0,7.024,11.749Zm4.36-3.48H12.3a3.351,3.351,0,0,0-1.2-1.808A9.922,9.922,0,0,1,11.384,8.269Zm-2.968,0H9.71a5.322,5.322,0,0,0-.647-2.418A5.325,5.325,0,0,0,8.416,8.269Zm-2.589,0h.914a9.92,9.92,0,0,1,.283-1.808A3.348,3.348,0,0,0,5.827,8.269Z" fill="#36f"/>
</svg>
