<svg xmlns="http://www.w3.org/2000/svg" xmlns:xlink="http://www.w3.org/1999/xlink" width="60" height="60" viewBox="0 0 60 60">
  <defs>
    <linearGradient id="linear-gradient" x1="0.5" y1="1" x2="0.5" gradientUnits="objectBoundingBox">
      <stop offset="0" stop-color="#091850"/>
      <stop offset="1" stop-color="#113cb4"/>
    </linearGradient>
  </defs>
  <g id="place_1_" data-name="place (1)" transform="translate(0 0)">
    <path id="Path_11617" data-name="Path 11617" d="M60,30A30,30,0,1,0,30,60,29.918,29.918,0,0,0,60,30Zm0,0" fill="url(#linear-gradient)"/>
    <path id="Path_11618" data-name="Path 11618" d="M125.573,383.8a30,30,0,0,1-39.925,0,5.507,5.507,0,0,1,.851-1.872c2.324-3.377,8.593-5.922,16.256-6.435q1.4-.093,2.856-.094C115.958,375.4,124.478,379.079,125.573,383.8Zm0,0" transform="translate(-75.612 -331.41)" fill="#854f89"/>
    <path id="Path_11619" data-name="Path 11619" d="M112.026,385.544s-12.572.468-19.112-2.906c2.324-3.377,8.593-5.922,16.256-6.435Zm0,0" transform="translate(-82.026 -332.117)" fill="#713775"/>
    <path id="Path_11620" data-name="Path 11620" d="M129.324,25.3C128.788.212,91.1.212,90.567,25.3q-.009.411-.009.824a37.8,37.8,0,0,0,19.387,33.025,37.8,37.8,0,0,0,19.387-33.025Q129.333,25.713,129.324,25.3Zm0,0" transform="translate(-79.946 -5.724)" fill="#f74f4f"/>
    <path id="Path_11621" data-name="Path 11621" d="M109.946,59.155A37.8,37.8,0,0,1,90.559,26.129q0-.413.009-.823c.268-12.546,9.823-18.818,19.379-18.818-7.725,0-15.45,6.272-15.667,18.818q-.008.409-.007.823C94.271,40.322,100.595,52.687,109.946,59.155Zm0,0" transform="translate(-79.946 -5.728)" fill="#dd3033"/>
    <path id="Path_11622" data-name="Path 11622" d="M164.729,63.353a13.97,13.97,0,1,1-13.97-13.97A13.94,13.94,0,0,1,164.729,63.353Zm0,0" transform="translate(-120.759 -43.596)" fill="#dde8ed"/>
    <path id="Path_11623" data-name="Path 11623" d="M150.092,181.12a2.632,2.632,0,0,1-2.21,2.6,2.664,2.664,0,0,1-.422.033,2.632,2.632,0,1,1,0-5.264,2.664,2.664,0,0,1,.422.034A2.631,2.631,0,0,1,150.092,181.12Zm0,0" transform="translate(-127.856 -157.572)" fill="#f6caae"/>
    <path id="Path_11624" data-name="Path 11624" d="M170.466,181.376a2.632,2.632,0,0,1-2.21,2.6,9.839,9.839,0,0,1,0-5.2A2.631,2.631,0,0,1,170.466,181.376Zm0,0" transform="translate(-148.23 -157.827)" fill="#eab599"/>
    <path id="Path_11625" data-name="Path 11625" d="M161.143,193.863a.941.941,0,1,1-.941-.941A.941.941,0,0,1,161.143,193.863Zm0,0" transform="translate(-140.598 -170.314)" fill="#eab599"/>
    <path id="Path_11626" data-name="Path 11626" d="M322.246,181.12a2.633,2.633,0,0,0,2.21,2.6,2.665,2.665,0,0,0,.422.033,2.632,2.632,0,1,0,0-5.264,2.665,2.665,0,0,0-.422.034A2.632,2.632,0,0,0,322.246,181.12Zm0,0" transform="translate(-284.483 -157.572)" fill="#f6caae"/>
    <g id="Group_9055" data-name="Group 9055" transform="translate(20.207 8.628)">
      <path id="Path_11627" data-name="Path 11627" d="M322.246,181.376a2.633,2.633,0,0,0,2.21,2.6,9.837,9.837,0,0,0,0-5.2A2.632,2.632,0,0,0,322.246,181.376Zm0,0" transform="translate(-304.69 -166.455)" fill="#eab599"/>
      <path id="Path_11628" data-name="Path 11628" d="M192.019,83.418v3.729a9.792,9.792,0,0,1-8.221,9.666l-.048.008a9.653,9.653,0,0,1-1.524.118,9.792,9.792,0,0,1-9.792-9.792V83.418a9.788,9.788,0,0,1,9.792-9.793h0a9.786,9.786,0,0,1,9.792,9.793Zm0,0" transform="translate(-172.434 -73.625)" fill="#eab599"/>
      <path id="Path_11629" data-name="Path 11629" d="M338.561,193.863a.941.941,0,1,1-.941-.941A.941.941,0,0,1,338.561,193.863Zm0,0" transform="translate(-317.432 -178.942)" fill="#eab599"/>
    </g>
    <path id="Path_11630" data-name="Path 11630" d="M214.992,84.311V88.04a9.792,9.792,0,0,1-8.221,9.666l-.048.008a9.794,9.794,0,0,1-8.266-9.674V84.311a9.794,9.794,0,0,1,8.268-9.674A9.794,9.794,0,0,1,214.992,84.311Zm0,0" transform="translate(-175.2 -65.89)" fill="#f6caae"/>
    <path id="Path_11631" data-name="Path 11631" d="M221.464,175.779a1.111,1.111,0,1,1-1.111-1.111A1.111,1.111,0,0,1,221.464,175.779Zm0,0" transform="translate(-193.55 -154.199)" fill="#3d4159"/>
    <path id="Path_11632" data-name="Path 11632" d="M276.015,175.779a1.111,1.111,0,1,1-1.111-1.111A1.111,1.111,0,0,1,276.015,175.779Zm0,0" transform="translate(-241.708 -154.199)" fill="#3d4159"/>
    <path id="Path_11633" data-name="Path 11633" d="M229.1,178.89a.476.476,0,1,1-.476-.476A.476.476,0,0,1,229.1,178.89Zm0,0" transform="translate(-201.409 -157.506)" fill="#fff"/>
    <path id="Path_11634" data-name="Path 11634" d="M284.116,178.89a.476.476,0,1,1-.476-.476A.476.476,0,0,1,284.116,178.89Zm0,0" transform="translate(-249.981 -157.506)" fill="#fff"/>
    <path id="Path_11635" data-name="Path 11635" d="M245.13,197.076h-2.222a.479.479,0,1,1,0-.959h2.222a.479.479,0,1,1,0,.959Zm0,0" transform="translate(-214.02 -173.135)" fill="#eab599"/>
    <path id="Path_11636" data-name="Path 11636" d="M236.313,219.365a4.948,4.948,0,0,1-2.387-.617.436.436,0,0,1,.42-.764,4.064,4.064,0,0,0,3.935,0,.436.436,0,0,1,.42.764A4.948,4.948,0,0,1,236.313,219.365Zm0,0" transform="translate(-206.313 -192.392)" fill="#eab599"/>
    <path id="Path_11637" data-name="Path 11637" d="M192.019,68.919v3.82H190.2V69.748L177.04,67.3l-2.784-.518v5.954h-1.823v-3.82a7.884,7.884,0,0,1,7.883-7.884h3.819c.1,0,.208,0,.311.007A7.881,7.881,0,0,1,192.019,68.919Zm0,0" transform="translate(-152.227 -53.883)" fill="#2a2f4f"/>
    <path id="Path_11638" data-name="Path 11638" d="M226.721,68.974v3.82H224.9V69.8l-13.156-2.444a7.548,7.548,0,0,1,14.978,1.616Zm0,0" transform="translate(-186.929 -53.938)" fill="#3d4159"/>
  </g>
</svg>
