<svg xmlns="http://www.w3.org/2000/svg" xmlns:xlink="http://www.w3.org/1999/xlink" width="60" height="60" viewBox="0 0 60 60">
  <defs>
    <linearGradient id="linear-gradient" x1="0.5" y1="1" x2="0.5" gradientUnits="objectBoundingBox">
      <stop offset="0" stop-color="#091850"/>
      <stop offset="1" stop-color="#113cb4"/>
    </linearGradient>
  </defs>
  <g id="place" transform="translate(0 0)">
    <path id="Path_11639" data-name="Path 11639" d="M60,30A30,30,0,0,0,33.425.194,30.332,30.332,0,0,0,30,0,30,30,0,1,0,60,30Zm0,0" fill="url(#linear-gradient)"/>
    <path id="Path_11640" data-name="Path 11640" d="M131.135,462.1c0,.046,0,.094,0,.141a30.353,30.353,0,0,1-3.425.194,29.854,29.854,0,0,1-17.03-5.3,22.369,22.369,0,0,1,7.724-1.279C125.433,455.859,131.135,458.654,131.135,462.1Zm0,0" transform="translate(-97.706 -402.438)" fill="#2ba1cf"/>
    <path id="Path_11641" data-name="Path 11641" d="M330.141,262.446c0-2.518-4.162-4.559-9.3-4.559s-9.3,2.041-9.3,4.559,4.163,4.559,9.3,4.559S330.141,264.964,330.141,262.446Zm0,0" transform="translate(-275.037 -227.666)" fill="#2ba1cf"/>
    <path id="Path_11642" data-name="Path 11642" d="M307.229,12.428c-.354-16.57-25.24-16.57-25.594,0q-.006.271-.006.543a24.963,24.963,0,0,0,12.8,21.809,24.962,24.962,0,0,0,12.8-21.809Q307.234,12.7,307.229,12.428Zm0,0" transform="translate(-248.625 -0.001)" fill="#ffe152"/>
    <path id="Path_11643" data-name="Path 11643" d="M330.607,37.554a9.226,9.226,0,1,1-9.225-9.226A9.206,9.206,0,0,1,330.607,37.554Zm0,0" transform="translate(-275.575 -25.008)" fill="#dde8ed"/>
    <path id="Path_11644" data-name="Path 11644" d="M332.742,48.784v-7.5a6.681,6.681,0,0,1,6.684-6.684,6.684,6.684,0,0,1,6.684,6.684v7.5" transform="translate(-293.749 -30.547)" fill="#3d4159"/>
    <path id="Path_11645" data-name="Path 11645" d="M335.492,41.582c0,2.652,1.553,5.721,2.406,7.206h-5.156v-7.5a6.681,6.681,0,0,1,6.635-6.684C337.323,34.657,335.492,37.954,335.492,41.582Zm0,0" transform="translate(-293.749 -30.55)" fill="#2a2f4f"/>
    <path id="Path_11646" data-name="Path 11646" d="M323.4,106.638a1.65,1.65,0,0,1-1.386,1.629,1.676,1.676,0,0,1-.264.021,1.65,1.65,0,1,1,0-3.3,1.622,1.622,0,0,1,.264.022A1.65,1.65,0,0,1,323.4,106.638Zm0,0" transform="translate(-282.59 -92.685)" fill="#f6caae"/>
    <g id="Group_9056" data-name="Group 9056" transform="translate(38.572 8.102)">
      <path id="Path_11647" data-name="Path 11647" d="M336.171,106.8a1.65,1.65,0,0,1-1.386,1.629,6.171,6.171,0,0,1,0-3.257A1.65,1.65,0,0,1,336.171,106.8Zm0,0" transform="translate(-333.932 -100.949)" fill="#eab599"/>
      <path id="Path_11648" data-name="Path 11648" d="M330.328,114.625a.59.59,0,1,1-.59-.59A.59.59,0,0,1,330.328,114.625Zm0,0" transform="translate(-329.148 -108.774)" fill="#eab599"/>
      <path id="Path_11649" data-name="Path 11649" d="M347.777,72.881v5.671a6.117,6.117,0,0,1-3.251,1.617l-.03.005a6.015,6.015,0,0,1-.955.074,6.138,6.138,0,0,1-6.138-6.138V71.774a6.148,6.148,0,0,1,.063-.881,3.889,3.889,0,0,0,4.888-.315,3.474,3.474,0,0,0,.922-1.441,4.052,4.052,0,0,0,1.267,2.529A4.53,4.53,0,0,0,347.777,72.881Zm0,0" transform="translate(-336.435 -69.137)" fill="#eab599"/>
    </g>
    <path id="Path_11650" data-name="Path 11650" d="M362.178,72.881v5.671a6.116,6.116,0,0,1-3.251,1.617l-.03.005a6.139,6.139,0,0,1-5.181-6.064V71.774c0-.062,0-.124,0-.186a3.843,3.843,0,0,0,3.036-1.01,3.474,3.474,0,0,0,.923-1.441,4.052,4.052,0,0,0,1.267,2.529A4.53,4.53,0,0,0,362.178,72.881Zm0,0" transform="translate(-312.264 -61.035)" fill="#f6caae"/>
    <path id="Path_11651" data-name="Path 11651" d="M402.551,99.484a1.019,1.019,0,1,0-2.039,0" transform="translate(-353.577 -86.926)" fill="#eab599"/>
    <path id="Path_11652" data-name="Path 11652" d="M363.7,99.484a1.019,1.019,0,1,0-2.038,0" transform="translate(-319.278 -86.926)" fill="#eab599"/>
    <path id="Path_11653" data-name="Path 11653" d="M365.811,105.622a.7.7,0,1,1-.7-.7A.7.7,0,0,1,365.811,105.622Zm0,0" transform="translate(-321.713 -92.63)" fill="#3d4159"/>
    <path id="Path_11654" data-name="Path 11654" d="M404.662,105.622a.7.7,0,1,1-.7-.7A.7.7,0,0,1,404.662,105.622Zm0,0" transform="translate(-356.011 -92.63)" fill="#3d4159"/>
    <path id="Path_11655" data-name="Path 11655" d="M382.974,121.3h-1.393a.3.3,0,0,1,0-.6h1.393a.3.3,0,0,1,0,.6Zm0,0" transform="translate(-336.6 -106.555)" fill="#eab599"/>
    <path id="Path_11656" data-name="Path 11656" d="M377.445,135.273a3.1,3.1,0,0,1-1.5-.386.273.273,0,1,1,.263-.478,2.549,2.549,0,0,0,2.467,0,.273.273,0,1,1,.263.478A3.1,3.1,0,0,1,377.445,135.273Zm0,0" transform="translate(-331.767 -118.627)" fill="#eab599"/>
    <path id="Path_11657" data-name="Path 11657" d="M370.593,107.568a.3.3,0,1,1-.3-.3A.3.3,0,0,1,370.593,107.568Zm0,0" transform="translate(-326.637 -94.699)" fill="#fff"/>
    <path id="Path_11658" data-name="Path 11658" d="M409.738,107.568a.3.3,0,1,1-.3-.3A.3.3,0,0,1,409.738,107.568Zm0,0" transform="translate(-361.194 -94.699)" fill="#fff"/>
    <path id="Path_11659" data-name="Path 11659" d="M413.912,119.577a.765.765,0,1,1-.764-.765A.765.765,0,0,1,413.912,119.577Zm0,0" transform="translate(-364.057 -104.889)" fill="#eab599"/>
    <path id="Path_11660" data-name="Path 11660" d="M355.662,119.577a.764.764,0,1,1-.764-.765A.765.765,0,0,1,355.662,119.577Zm0,0" transform="translate(-312.633 -104.889)" fill="#eab599"/>
    <path id="Path_11661" data-name="Path 11661" d="M67.632,112.018c-.485-22.7-34.573-22.7-35.058,0q-.008.371-.008.745A34.193,34.193,0,0,0,50.1,142.636,34.193,34.193,0,0,0,67.64,112.763Q67.64,112.389,67.632,112.018Zm0,0" transform="translate(-28.75 -83.864)" fill="#f74f4f"/>
    <path id="Path_11662" data-name="Path 11662" d="M99.656,146.437A12.637,12.637,0,1,1,87.019,133.8,12.609,12.609,0,0,1,99.656,146.437Zm0,0" transform="translate(-65.666 -118.121)" fill="#dde8ed"/>
    <path id="Path_11663" data-name="Path 11663" d="M86.418,252.963a2.381,2.381,0,1,1-2.381-2.381,2.427,2.427,0,0,1,.381.03A2.382,2.382,0,0,1,86.418,252.963Zm0,0" transform="translate(-72.087 -221.217)" fill="#f6caae"/>
    <path id="Path_11664" data-name="Path 11664" d="M104.847,253.194a2.381,2.381,0,0,1-2,2.35,8.9,8.9,0,0,1,0-4.7A2.381,2.381,0,0,1,104.847,253.194Zm0,0" transform="translate(-90.516 -221.448)" fill="#eab599"/>
    <path id="Path_11665" data-name="Path 11665" d="M96.413,264.488a.851.851,0,1,1-.851-.851A.851.851,0,0,1,96.413,264.488Zm0,0" transform="translate(-83.612 -232.742)" fill="#eab599"/>
    <path id="Path_11666" data-name="Path 11666" d="M242.137,252.963a2.381,2.381,0,1,0,2.381-2.381,2.427,2.427,0,0,0-.381.03A2.382,2.382,0,0,0,242.137,252.963Zm0,0" transform="translate(-213.761 -221.217)" fill="#f6caae"/>
    <path id="Path_11667" data-name="Path 11667" d="M242.137,253.194a2.381,2.381,0,0,0,2,2.35,8.9,8.9,0,0,0,0-4.7A2.381,2.381,0,0,0,242.137,253.194Zm0,0" transform="translate(-213.761 -221.448)" fill="#eab599"/>
    <path id="Path_11668" data-name="Path 11668" d="M124.341,164.589v3.373A8.858,8.858,0,0,1,116.9,176.7l-.043.007a8.761,8.761,0,0,1-1.378.107,8.858,8.858,0,0,1-8.858-8.858v-3.373a8.854,8.854,0,0,1,8.858-8.858h0a8.851,8.851,0,0,1,8.858,8.858Zm0,0" transform="translate(-94.13 -137.481)" fill="#eab599"/>
    <path id="Path_11669" data-name="Path 11669" d="M256.893,264.488a.851.851,0,1,1-.851-.851A.851.851,0,0,1,256.893,264.488Zm0,0" transform="translate(-225.286 -232.742)" fill="#eab599"/>
    <path id="Path_11670" data-name="Path 11670" d="M145.121,165.4v3.373a8.858,8.858,0,0,1-7.436,8.743l-.043.007a8.859,8.859,0,0,1-7.478-8.751V165.4a8.859,8.859,0,0,1,7.479-8.751A8.859,8.859,0,0,1,145.121,165.4Zm0,0" transform="translate(-114.91 -138.288)" fill="#f6caae"/>
    <path id="Path_11671" data-name="Path 11671" d="M150.978,248.13a1,1,0,1,1-1-1A1.005,1.005,0,0,1,150.978,248.13Zm0,0" transform="translate(-131.511 -218.165)" fill="#3d4159"/>
    <path id="Path_11672" data-name="Path 11672" d="M200.322,248.13a1,1,0,1,1-1-1A1.005,1.005,0,0,1,200.322,248.13Zm0,0" transform="translate(-175.073 -218.165)" fill="#3d4159"/>
    <path id="Path_11673" data-name="Path 11673" d="M157.881,250.942a.431.431,0,1,1-.43-.431A.43.43,0,0,1,157.881,250.942Zm0,0" transform="translate(-138.619 -221.155)" fill="#fff"/>
    <path id="Path_11674" data-name="Path 11674" d="M207.646,250.942a.431.431,0,1,1-.43-.431A.43.43,0,0,1,207.646,250.942Zm0,0" transform="translate(-182.553 -221.155)" fill="#fff"/>
    <path id="Path_11675" data-name="Path 11675" d="M172.384,267.4h-2.01a.433.433,0,1,1,0-.867h2.01a.433.433,0,1,1,0,.867Zm0,0" transform="translate(-150.026 -235.297)" fill="#eab599"/>
    <path id="Path_11676" data-name="Path 11676" d="M164.408,287.56a4.478,4.478,0,0,1-2.16-.558.394.394,0,0,1,.38-.69,3.678,3.678,0,0,0,3.56,0,.394.394,0,1,1,.38.69A4.476,4.476,0,0,1,164.408,287.56Zm0,0" transform="translate(-143.055 -252.717)" fill="#eab599"/>
    <path id="Path_11677" data-name="Path 11677" d="M124.344,151.475v3.456H122.7v-2.706l-11.9-2.211-2.518-.468v5.386h-1.648v-3.456a7.131,7.131,0,0,1,7.131-7.131h3.454c.094,0,.188,0,.282.006A7.129,7.129,0,0,1,124.344,151.475Zm0,0" transform="translate(-94.133 -127.428)" fill="#2a2f4f"/>
    <path id="Path_11678" data-name="Path 11678" d="M155.732,151.52v3.456h-1.649v-2.706l-11.9-2.211a6.828,6.828,0,0,1,13.549,1.462Zm0,0" transform="translate(-125.521 -127.473)" fill="#3d4159"/>
  </g>
</svg>
