<svg xmlns="http://www.w3.org/2000/svg" width="13.906" height="15" viewBox="0 0 13.906 15">
  <path id="refresh" d="M18,4a7.114,7.114,0,0,1,5.625,2.578V4.625h1.25V9H20.5V7.75h2.461A5.9,5.9,0,0,0,18,5.25a6.048,6.048,0,0,0-3.555,1.094,5.977,5.977,0,0,0-2.227,2.891l-1.172-.469a7.394,7.394,0,0,1,2.715-3.437A7.212,7.212,0,0,1,18,4Zm5.781,9.766,1.172.469a7.394,7.394,0,0,1-2.715,3.438,7.426,7.426,0,0,1-9.863-1.25v1.953h-1.25V14H15.5v1.25H13a6.8,6.8,0,0,0,2.207,1.816A5.946,5.946,0,0,0,18,17.75a6.048,6.048,0,0,0,3.555-1.094A5.978,5.978,0,0,0,23.781,13.766Z" transform="translate(-11.047 -4)" fill="#04ac22"/>
</svg>
