<svg xmlns="http://www.w3.org/2000/svg" width="19.057" height="19.057" viewBox="0 0 19.057 19.057">
  <path id="settings" d="M18.608,7.359,17.144,7.04A7.972,7.972,0,0,0,16.672,5.9l.811-1.261a.57.57,0,0,0-.076-.711L15.125,1.65a.57.57,0,0,0-.711-.076l-1.261.811a7.971,7.971,0,0,0-1.137-.471L11.7.448A.569.569,0,0,0,11.142,0H7.915a.569.569,0,0,0-.556.448L7.04,1.913A7.971,7.971,0,0,0,5.9,2.384L4.642,1.574a.57.57,0,0,0-.711.076L1.65,3.932a.57.57,0,0,0-.076.711L2.384,5.9A7.971,7.971,0,0,0,1.913,7.04L.448,7.359A.57.57,0,0,0,0,7.915v3.227a.57.57,0,0,0,.448.556l1.465.318a7.971,7.971,0,0,0,.471,1.137l-.811,1.261a.57.57,0,0,0,.076.711l2.282,2.282a.57.57,0,0,0,.711.076L5.9,16.672a7.972,7.972,0,0,0,1.137.471l.318,1.465a.569.569,0,0,0,.556.448h3.227a.569.569,0,0,0,.556-.448l.318-1.465a7.972,7.972,0,0,0,1.137-.471l1.261.811a.569.569,0,0,0,.711-.076l2.282-2.282a.57.57,0,0,0,.076-.711l-.811-1.261a7.972,7.972,0,0,0,.471-1.137l1.465-.318a.57.57,0,0,0,.448-.556V7.915A.57.57,0,0,0,18.608,7.359Zm-5.663,2.17A3.417,3.417,0,1,1,9.528,6.112,3.42,3.42,0,0,1,12.945,9.528Zm0,0" fill="#fff"/>
</svg>
