<svg xmlns="http://www.w3.org/2000/svg" width="18.723" height="16.52" viewBox="0 0 18.723 16.52">
  <path id="Suppliers" d="M3100.419-5467.48V-5480.7h1.156a2.151,2.151,0,0,1,2.148,2.148v8.92a2.151,2.151,0,0,1-2.148,2.147Zm-11.013,0V-5480.7h2.128l.516-2.323a1.245,1.245,0,0,1,1.224-.981h2.177a1.244,1.244,0,0,1,1.222.981l.516,2.323h2.129v13.215Zm1.1-4.038a1.838,1.838,0,0,0,1.836,1.836,1.838,1.838,0,0,0,1.834-1.836,1.838,1.838,0,0,0-1.834-1.836A1.839,1.839,0,0,0,3090.507-5471.519Zm2.554-5.831.826,3.2,4.265-1.1-.826-3.2Zm.063-5.431-.462,2.085h3.4l-.464-2.083a.15.15,0,0,0-.147-.12h-2.177A.152.152,0,0,0,3093.125-5482.781Zm-5.976,15.3a2.15,2.15,0,0,1-2.148-2.147v-8.92a2.15,2.15,0,0,1,2.148-2.148h1.156v13.215Zm4.67-4.056a.5.5,0,0,1,.5-.5.5.5,0,0,1,.5.5.5.5,0,0,1-.5.5A.5.5,0,0,1,3091.818-5471.536Zm2.581-5.024,2.133-.55.274,1.066-2.132.551Zm3.816-5.237v-1.1h3.3v1.1Zm-11.013,0v-1.1h3.3v1.1Z" transform="translate(-3085 5484)" fill="#fff"/>
</svg>
