<svg xmlns="http://www.w3.org/2000/svg" width="15.5" height="4.5" viewBox="0 0 15.5 4.5">
  <path id="thre-dot-icon" d="M10.25-6a2.17,2.17,0,0,0-.656-1.594A2.17,2.17,0,0,0,8-8.25a2.17,2.17,0,0,0-1.594.656A2.17,2.17,0,0,0,5.75-6a2.17,2.17,0,0,0,.656,1.594A2.17,2.17,0,0,0,8-3.75a2.17,2.17,0,0,0,1.594-.656A2.17,2.17,0,0,0,10.25-6ZM13.5-8.25a2.17,2.17,0,0,0-1.594.656A2.17,2.17,0,0,0,11.25-6a2.17,2.17,0,0,0,.656,1.594A2.17,2.17,0,0,0,13.5-3.75a2.17,2.17,0,0,0,1.594-.656A2.17,2.17,0,0,0,15.75-6a2.17,2.17,0,0,0-.656-1.594A2.17,2.17,0,0,0,13.5-8.25Zm-11,0a2.17,2.17,0,0,0-1.594.656A2.17,2.17,0,0,0,.25-6,2.17,2.17,0,0,0,.906-4.406,2.17,2.17,0,0,0,2.5-3.75a2.17,2.17,0,0,0,1.594-.656A2.17,2.17,0,0,0,4.75-6a2.17,2.17,0,0,0-.656-1.594A2.17,2.17,0,0,0,2.5-8.25Z" transform="translate(-0.25 8.25)" fill="#a0aabe"/>
</svg>
