<svg xmlns="http://www.w3.org/2000/svg" width="15" height="15" viewBox="0 0 15 15">
  <path id="time-update" d="M12.688,6.227A7.252,7.252,0,0,1,18,4a7.219,7.219,0,0,1,5.293,2.207A7.219,7.219,0,0,1,25.5,11.5a7.219,7.219,0,0,1-2.207,5.293A7.219,7.219,0,0,1,18,19a7.219,7.219,0,0,1-5.293-2.207A7.219,7.219,0,0,1,10.5,11.5,7.187,7.187,0,0,1,12.688,6.227Zm9.727.859a6.224,6.224,0,0,0-8.828,0A6.018,6.018,0,0,0,11.75,11.5a6.018,6.018,0,0,0,1.836,4.414,6.224,6.224,0,0,0,8.828,0A6.018,6.018,0,0,0,24.25,11.5,6.018,6.018,0,0,0,22.414,7.086ZM17.375,6.5h1.25v4.375H21.75v1.25H17.375V6.5Z" transform="translate(-10.5 -4)" fill="#b8c5d3"/>
</svg>
