<svg xmlns="http://www.w3.org/2000/svg" width="20" height="15.999" viewBox="0 0 20 15.999">
  <path id="Travellers" d="M3230,377.67v.859c.667,1.8,4,1.138,4,4.471h-10.666c0-3.333,3.333-2.667,4-4.471v-.85c-2.415,0-3.084-.994-3.084-.994,1.261-1.05-1.123-8.351,3.171-8.351a2.025,2.025,0,0,1,1.33-.667c5.25,0,2.881,7.928,4.24,9.044C3232.989,376.71,3232.427,377.67,3230,377.67Zm-6.753-3.3a3.482,3.482,0,0,1-1.247,1.968v1.334c.317.954,1.394,1,2.432,1.362A4.138,4.138,0,0,0,3222,383h-8c0-5.332,4-3.333,4.667-5.332v-1.334a3.479,3.479,0,0,1-1.248-1.968c-.237-.018-.607-.235-.717-1.09a.781.781,0,0,1,.317-.8c-.729-2.894-.358-5.413,3.276-5.476a2.15,2.15,0,0,1,1.881.68,1.924,1.924,0,0,1,1.676,1.769,11.41,11.41,0,0,0-.509,3.9A6.882,6.882,0,0,1,3223.247,374.365Z" transform="translate(-3213.999 -367)" fill="#fff"/>
</svg>
