<svg xmlns="http://www.w3.org/2000/svg" width="24" height="18.891" viewBox="0 0 24 18.891">
  <path id="uc" d="M19.359,60.125H16.125a.938.938,0,0,1,0-1.875h3.234a.938.938,0,0,1,0,1.875Zm.938,2.859a.937.937,0,0,0-.937-.937H16.125a.938.938,0,0,0,0,1.875h3.234A.937.937,0,0,0,20.3,62.984ZM18.422,68.7a.938.938,0,1,0,.938-.937A.937.937,0,0,0,18.422,68.7Zm-1.875,0a.937.937,0,0,0-.937-.937H12.844a.938.938,0,0,0,0,1.875h2.766A.937.937,0,0,0,16.547,68.7Zm-6.516,0a.937.937,0,0,0-.937-.937H4.688a.938.938,0,0,0,0,1.875H9.094A.937.937,0,0,0,10.031,68.7Zm0-3.75V59.188a.937.937,0,0,0-.937-.937H4.688a.937.937,0,0,0-.937.938v5.766a.937.937,0,0,0,.938.938H9.094A.937.937,0,0,0,10.031,64.953ZM5.625,60.125H8.156v3.891H5.625Zm6.281-.937a.938.938,0,1,0,.938-.937A.937.937,0,0,0,11.906,59.188Zm.047,3.8a.938.938,0,1,0,.938-.937A.937.937,0,0,0,11.953,62.984ZM24,69.641a.938.938,0,0,0-1.875,0,1.877,1.877,0,0,1-1.875,1.875H3.75a1.877,1.877,0,0,1-1.875-1.875V58.25A1.877,1.877,0,0,1,3.75,56.375h16.5a1.877,1.877,0,0,1,1.875,1.875v6.7a.938.938,0,0,0,1.875,0v-6.7a3.754,3.754,0,0,0-3.75-3.75H3.75A3.754,3.754,0,0,0,0,58.25V69.641a3.754,3.754,0,0,0,3.75,3.75h16.5A3.754,3.754,0,0,0,24,69.641Z" transform="translate(0 -54.5)" fill="#36f"/>
</svg>
