<svg id="uploadfromdevice" xmlns="http://www.w3.org/2000/svg" width="23.783" height="30" viewBox="0 0 23.783 30">
  <path id="upload" d="M10.775,22.5V19.57H7.845a1.172,1.172,0,1,1,0-2.344h2.93V14.3a1.172,1.172,0,0,1,2.344,0v2.93h2.93a1.172,1.172,0,1,1,0,2.344h-2.93V22.5a1.172,1.172,0,0,1-2.344,0Zm10.664-2.988V7.617a2.346,2.346,0,0,0-2.344-2.344H15.4v.586a3.516,3.516,0,0,1-7.031,0V5.273H4.688A2.346,2.346,0,0,0,2.344,7.617v17.7a2.346,2.346,0,0,0,2.344,2.344H19.095a2.346,2.346,0,0,0,2.344-2.344,1.172,1.172,0,0,1,2.344,0A4.693,4.693,0,0,1,19.095,30H4.688A4.693,4.693,0,0,1,0,25.313V7.617A4.693,4.693,0,0,1,4.688,2.93H8.372V1.172A1.172,1.172,0,0,1,9.544,0h4.688A1.172,1.172,0,0,1,15.4,1.172V2.93H19.1a4.693,4.693,0,0,1,4.688,4.688V19.512a1.172,1.172,0,0,1-2.344,0ZM13.06,2.344H10.716V5.859a1.172,1.172,0,1,0,2.344,0Zm0,0" fill="#8f9bb3"/>
</svg>
