<svg id="us" xmlns="http://www.w3.org/2000/svg" width="24.598" height="16.116" viewBox="0 0 24.598 16.116">
  <path id="Path_11048" data-name="Path 11048" d="M263.674,261.306h-23.75a.424.424,0,0,1-.424-.424V245.614a.424.424,0,0,1,.424-.424h23.75a.424.424,0,0,1,.424.424v15.268A.424.424,0,0,1,263.674,261.306Z" transform="translate(-239.5 -245.19)" fill="#f5f5f5"/>
  <g id="Group_3175" data-name="Group 3175" transform="translate(0)">
    <path id="Path_11049" data-name="Path 11049" d="M264.1,246.43H239.5v-.815a.424.424,0,0,1,.424-.424h23.75a.424.424,0,0,1,.424.424v.815Z" transform="translate(-239.5 -245.19)" fill="#ff4b55"/>
    <rect id="Rectangle_2048" data-name="Rectangle 2048" width="24.598" height="1.24" transform="translate(0 4.959)" fill="#ff4b55"/>
    <rect id="Rectangle_2049" data-name="Rectangle 2049" width="24.598" height="1.24" transform="translate(0 2.479)" fill="#ff4b55"/>
    <path id="Path_11050" data-name="Path 11050" d="M264.1,256.409H239.924a.424.424,0,0,1-.424-.424v-.815h24.6Z" transform="translate(-239.5 -247.731)" fill="#ff4b55"/>
    <rect id="Rectangle_2050" data-name="Rectangle 2050" width="24.598" height="1.24" transform="translate(0 12.397)" fill="#ff4b55"/>
    <path id="Path_11051" data-name="Path 11051" d="M263.674,266.388h-23.75a.424.424,0,0,1-.424-.424v-.815h24.6v.815A.424.424,0,0,1,263.674,266.388Z" transform="translate(-239.5 -250.271)" fill="#ff4b55"/>
    <rect id="Rectangle_2051" data-name="Rectangle 2051" width="24.598" height="1.24" transform="translate(0 9.918)" fill="#ff4b55"/>
  </g>
  <path id="Path_11052" data-name="Path 11052" d="M250.527,245.19h-10.6a.424.424,0,0,0-.424.424v7.83a.424.424,0,0,0,.424.424h10.6a.424.424,0,0,0,.424-.424v-7.83A.424.424,0,0,0,250.527,245.19Z" transform="translate(-239.5 -245.19)" fill="#41479b"/>
  <g id="Group_3176" data-name="Group 3176" transform="translate(0.685 0.946)">
    <path id="Path_11053" data-name="Path 11053" d="M240.925,246.487l.094.282.3,0a.04.04,0,0,1,.024.072l-.239.176.09.283a.04.04,0,0,1-.062.045l-.242-.173-.242.173a.04.04,0,0,1-.061-.045l.089-.283-.239-.176a.04.04,0,0,1,.023-.072l.3,0,.094-.282A.04.04,0,0,1,240.925,246.487Z" transform="translate(-240.419 -246.459)" fill="#f5f5f5"/>
    <path id="Path_11054" data-name="Path 11054" d="M240.925,248.463l.094.282.3,0a.04.04,0,0,1,.024.072l-.239.177.09.283a.04.04,0,0,1-.062.045l-.242-.172-.242.172a.04.04,0,0,1-.061-.044l.089-.283-.239-.177a.04.04,0,0,1,.023-.072l.3,0,.094-.282A.04.04,0,0,1,240.925,248.463Z" transform="translate(-240.419 -246.962)" fill="#f5f5f5"/>
    <path id="Path_11055" data-name="Path 11055" d="M240.925,250.439l.094.281.3,0a.04.04,0,0,1,.024.072l-.239.177.09.283a.04.04,0,0,1-.062.045l-.242-.172-.242.172a.04.04,0,0,1-.061-.045l.089-.283-.239-.177a.04.04,0,0,1,.023-.072l.3,0,.094-.281A.04.04,0,0,1,240.925,250.439Z" transform="translate(-240.419 -247.465)" fill="#f5f5f5"/>
    <path id="Path_11056" data-name="Path 11056" d="M240.925,252.414l.094.282.3,0a.04.04,0,0,1,.024.072l-.239.176.09.283a.04.04,0,0,1-.062.045l-.242-.173-.242.173a.04.04,0,0,1-.061-.045l.089-.283-.239-.177a.04.04,0,0,1,.023-.072l.3,0,.094-.282A.04.04,0,0,1,240.925,252.414Z" transform="translate(-240.419 -247.968)" fill="#f5f5f5"/>
    <path id="Path_11057" data-name="Path 11057" d="M240.925,254.39l.094.282.3,0a.04.04,0,0,1,.024.072l-.239.176.09.283a.04.04,0,0,1-.062.045l-.242-.173-.242.173a.04.04,0,0,1-.061-.045l.089-.283-.239-.176a.04.04,0,0,1,.023-.072l.3,0,.094-.282A.04.04,0,0,1,240.925,254.39Z" transform="translate(-240.419 -248.471)" fill="#f5f5f5"/>
    <path id="Path_11058" data-name="Path 11058" d="M242.459,247.456l.094.281.3,0a.04.04,0,0,1,.023.072l-.239.177.089.283a.04.04,0,0,1-.061.045l-.242-.172-.242.172a.04.04,0,0,1-.061-.045l.089-.283-.239-.177a.04.04,0,0,1,.023-.072l.3,0,.094-.281A.04.04,0,0,1,242.459,247.456Z" transform="translate(-240.81 -246.706)" fill="#f5f5f5"/>
    <path id="Path_11059" data-name="Path 11059" d="M242.459,249.432l.094.281.3,0a.04.04,0,0,1,.023.072l-.239.177.089.283a.04.04,0,0,1-.061.045l-.242-.172-.242.172a.04.04,0,0,1-.061-.045l.089-.283-.239-.177a.04.04,0,0,1,.023-.072l.3,0,.094-.281A.04.04,0,0,1,242.459,249.432Z" transform="translate(-240.81 -247.209)" fill="#f5f5f5"/>
    <path id="Path_11060" data-name="Path 11060" d="M242.459,251.407l.094.282.3,0a.04.04,0,0,1,.023.072l-.239.176.089.283a.04.04,0,0,1-.061.045l-.242-.173-.242.173a.04.04,0,0,1-.061-.045l.089-.283-.239-.176a.04.04,0,0,1,.023-.072l.3,0,.094-.282A.04.04,0,0,1,242.459,251.407Z" transform="translate(-240.81 -247.712)" fill="#f5f5f5"/>
    <path id="Path_11061" data-name="Path 11061" d="M242.459,253.383l.094.282.3,0a.04.04,0,0,1,.023.072l-.239.176.089.283a.04.04,0,0,1-.061.045l-.242-.173-.242.173a.04.04,0,0,1-.061-.045l.089-.283-.239-.176a.04.04,0,0,1,.023-.072l.3,0,.094-.282A.04.04,0,0,1,242.459,253.383Z" transform="translate(-240.81 -248.215)" fill="#f5f5f5"/>
    <path id="Path_11062" data-name="Path 11062" d="M243.992,246.487l.094.282.3,0a.04.04,0,0,1,.024.072l-.239.176.089.283a.04.04,0,0,1-.062.045l-.242-.173-.241.173a.04.04,0,0,1-.062-.045l.089-.283-.239-.176a.04.04,0,0,1,.023-.072l.3,0,.094-.282A.04.04,0,0,1,243.992,246.487Z" transform="translate(-241.2 -246.459)" fill="#f5f5f5"/>
    <path id="Path_11063" data-name="Path 11063" d="M243.992,248.463l.094.282.3,0a.04.04,0,0,1,.024.072l-.239.177.089.283a.04.04,0,0,1-.062.045l-.242-.172-.241.172a.04.04,0,0,1-.062-.045l.089-.283-.239-.177a.04.04,0,0,1,.023-.072l.3,0,.094-.282A.04.04,0,0,1,243.992,248.463Z" transform="translate(-241.2 -246.962)" fill="#f5f5f5"/>
    <path id="Path_11064" data-name="Path 11064" d="M243.992,250.439l.094.281.3,0a.04.04,0,0,1,.024.072l-.239.177.089.283a.04.04,0,0,1-.062.045l-.242-.172-.241.172a.04.04,0,0,1-.062-.045l.089-.283-.239-.177a.04.04,0,0,1,.023-.072l.3,0,.094-.281A.04.04,0,0,1,243.992,250.439Z" transform="translate(-241.2 -247.465)" fill="#f5f5f5"/>
    <path id="Path_11065" data-name="Path 11065" d="M243.992,252.414l.094.282.3,0a.04.04,0,0,1,.024.072l-.239.176.089.283a.04.04,0,0,1-.062.045l-.242-.173-.241.173a.04.04,0,0,1-.062-.045l.089-.283-.239-.176a.04.04,0,0,1,.023-.072l.3,0,.094-.282A.04.04,0,0,1,243.992,252.414Z" transform="translate(-241.2 -247.968)" fill="#f5f5f5"/>
    <path id="Path_11066" data-name="Path 11066" d="M243.992,254.39l.094.282.3,0a.04.04,0,0,1,.024.072l-.239.176.089.283a.04.04,0,0,1-.062.045l-.242-.173-.241.173a.04.04,0,0,1-.062-.045l.089-.283-.239-.176a.04.04,0,0,1,.023-.072l.3,0,.094-.282A.04.04,0,0,1,243.992,254.39Z" transform="translate(-241.2 -248.471)" fill="#f5f5f5"/>
    <path id="Path_11067" data-name="Path 11067" d="M245.526,247.456l.094.281.3,0a.04.04,0,0,1,.023.072l-.239.177.089.283a.04.04,0,0,1-.061.045l-.242-.172-.242.172a.04.04,0,0,1-.061-.045l.089-.283-.239-.177a.04.04,0,0,1,.023-.072l.3,0,.094-.281A.04.04,0,0,1,245.526,247.456Z" transform="translate(-241.591 -246.706)" fill="#f5f5f5"/>
    <path id="Path_11068" data-name="Path 11068" d="M245.526,249.432l.094.281.3,0a.04.04,0,0,1,.023.072l-.239.177.089.283a.04.04,0,0,1-.061.045l-.242-.172-.242.172a.04.04,0,0,1-.061-.045l.089-.283-.239-.177a.04.04,0,0,1,.023-.072l.3,0,.094-.281A.04.04,0,0,1,245.526,249.432Z" transform="translate(-241.591 -247.209)" fill="#f5f5f5"/>
    <path id="Path_11069" data-name="Path 11069" d="M245.526,251.407l.094.282.3,0a.04.04,0,0,1,.023.072l-.239.176.089.283a.04.04,0,0,1-.061.045l-.242-.173-.242.173a.04.04,0,0,1-.061-.045l.089-.283-.239-.176a.04.04,0,0,1,.023-.072l.3,0,.094-.282A.04.04,0,0,1,245.526,251.407Z" transform="translate(-241.591 -247.712)" fill="#f5f5f5"/>
    <path id="Path_11070" data-name="Path 11070" d="M245.526,253.383l.094.282.3,0a.04.04,0,0,1,.023.072l-.239.176.089.283a.04.04,0,0,1-.061.045l-.242-.173-.242.173a.04.04,0,0,1-.061-.045l.089-.283-.239-.176a.04.04,0,0,1,.023-.072l.3,0,.094-.282A.04.04,0,0,1,245.526,253.383Z" transform="translate(-241.591 -248.215)" fill="#f5f5f5"/>
    <path id="Path_11071" data-name="Path 11071" d="M247.059,246.487l.094.282.3,0a.04.04,0,0,1,.024.072l-.239.176.089.283a.04.04,0,0,1-.062.045l-.242-.173-.241.173a.04.04,0,0,1-.062-.045l.089-.283-.239-.176a.04.04,0,0,1,.024-.072l.3,0,.094-.282A.04.04,0,0,1,247.059,246.487Z" transform="translate(-241.981 -246.459)" fill="#f5f5f5"/>
    <path id="Path_11072" data-name="Path 11072" d="M247.059,248.463l.094.282.3,0a.04.04,0,0,1,.024.072l-.239.177.089.283a.04.04,0,0,1-.062.045l-.242-.172-.241.172a.04.04,0,0,1-.062-.045l.089-.283-.239-.177a.04.04,0,0,1,.024-.072l.3,0,.094-.282A.04.04,0,0,1,247.059,248.463Z" transform="translate(-241.981 -246.962)" fill="#f5f5f5"/>
    <path id="Path_11073" data-name="Path 11073" d="M247.059,250.439l.094.281.3,0a.04.04,0,0,1,.024.072l-.239.177.089.283a.04.04,0,0,1-.062.045l-.242-.172-.241.172a.04.04,0,0,1-.062-.045l.089-.283-.239-.177a.04.04,0,0,1,.024-.072l.3,0,.094-.281A.04.04,0,0,1,247.059,250.439Z" transform="translate(-241.981 -247.465)" fill="#f5f5f5"/>
    <path id="Path_11074" data-name="Path 11074" d="M247.059,252.414l.094.282.3,0a.04.04,0,0,1,.024.072l-.239.176.089.283a.04.04,0,0,1-.062.045l-.242-.173-.241.173a.04.04,0,0,1-.062-.045l.089-.283-.239-.176a.04.04,0,0,1,.024-.072l.3,0,.094-.282A.04.04,0,0,1,247.059,252.414Z" transform="translate(-241.981 -247.968)" fill="#f5f5f5"/>
    <path id="Path_11075" data-name="Path 11075" d="M247.059,254.39l.094.282.3,0a.04.04,0,0,1,.024.072l-.239.176.089.283a.04.04,0,0,1-.062.045l-.242-.173-.241.173a.04.04,0,0,1-.062-.045l.089-.283-.239-.176a.04.04,0,0,1,.024-.072l.3,0,.094-.282A.04.04,0,0,1,247.059,254.39Z" transform="translate(-241.981 -248.471)" fill="#f5f5f5"/>
    <path id="Path_11076" data-name="Path 11076" d="M248.593,247.456l.094.281.3,0a.04.04,0,0,1,.023.072l-.239.177.089.283a.04.04,0,0,1-.061.045l-.242-.172-.241.172a.04.04,0,0,1-.061-.045l.089-.283-.239-.177a.04.04,0,0,1,.023-.072l.3,0,.094-.281A.04.04,0,0,1,248.593,247.456Z" transform="translate(-242.372 -246.706)" fill="#f5f5f5"/>
    <path id="Path_11077" data-name="Path 11077" d="M248.593,249.432l.094.281.3,0a.04.04,0,0,1,.023.072l-.239.177.089.283a.04.04,0,0,1-.061.045l-.242-.172-.241.172a.04.04,0,0,1-.061-.045l.089-.283-.239-.177a.04.04,0,0,1,.023-.072l.3,0,.094-.281A.04.04,0,0,1,248.593,249.432Z" transform="translate(-242.372 -247.209)" fill="#f5f5f5"/>
    <path id="Path_11078" data-name="Path 11078" d="M248.593,251.407l.094.282.3,0a.04.04,0,0,1,.023.072l-.239.176.089.283a.04.04,0,0,1-.061.045l-.242-.173-.241.173a.04.04,0,0,1-.061-.045l.089-.283-.239-.176a.04.04,0,0,1,.023-.072l.3,0,.094-.282A.04.04,0,0,1,248.593,251.407Z" transform="translate(-242.372 -247.712)" fill="#f5f5f5"/>
    <path id="Path_11079" data-name="Path 11079" d="M248.593,253.383l.094.282.3,0a.04.04,0,0,1,.023.072l-.239.176.089.283a.04.04,0,0,1-.061.045l-.242-.173-.241.173a.04.04,0,0,1-.061-.045l.089-.283-.239-.176a.04.04,0,0,1,.023-.072l.3,0,.094-.282A.04.04,0,0,1,248.593,253.383Z" transform="translate(-242.372 -248.215)" fill="#f5f5f5"/>
    <path id="Path_11080" data-name="Path 11080" d="M250.127,246.487l.093.282.3,0a.04.04,0,0,1,.023.072l-.239.176.089.283a.04.04,0,0,1-.061.045l-.242-.173-.241.173a.04.04,0,0,1-.062-.045l.09-.283-.239-.176a.04.04,0,0,1,.024-.072l.3,0,.094-.282A.04.04,0,0,1,250.127,246.487Z" transform="translate(-242.762 -246.459)" fill="#f5f5f5"/>
    <path id="Path_11081" data-name="Path 11081" d="M250.127,248.463l.093.282.3,0a.04.04,0,0,1,.023.072l-.239.177.089.283a.04.04,0,0,1-.061.045l-.242-.172-.241.172a.04.04,0,0,1-.062-.045l.09-.283-.239-.177a.04.04,0,0,1,.024-.072l.3,0,.094-.282A.04.04,0,0,1,250.127,248.463Z" transform="translate(-242.762 -246.962)" fill="#f5f5f5"/>
    <path id="Path_11082" data-name="Path 11082" d="M250.127,250.439l.093.281.3,0a.04.04,0,0,1,.023.072l-.239.177.089.283a.04.04,0,0,1-.061.045l-.242-.172-.241.172a.04.04,0,0,1-.062-.045l.09-.283-.239-.177a.04.04,0,0,1,.024-.072l.3,0,.094-.281A.04.04,0,0,1,250.127,250.439Z" transform="translate(-242.762 -247.465)" fill="#f5f5f5"/>
    <path id="Path_11083" data-name="Path 11083" d="M250.127,252.414l.093.282.3,0a.04.04,0,0,1,.023.072l-.239.176.089.283a.04.04,0,0,1-.061.045l-.242-.173-.241.173a.04.04,0,0,1-.062-.045l.09-.283-.239-.176a.04.04,0,0,1,.024-.072l.3,0,.094-.282A.04.04,0,0,1,250.127,252.414Z" transform="translate(-242.762 -247.968)" fill="#f5f5f5"/>
    <path id="Path_11084" data-name="Path 11084" d="M250.127,254.39l.093.282.3,0a.04.04,0,0,1,.023.072l-.239.176.089.283a.04.04,0,0,1-.061.045l-.242-.173-.241.173a.04.04,0,0,1-.062-.045l.09-.283-.239-.176a.04.04,0,0,1,.024-.072l.3,0,.094-.282A.04.04,0,0,1,250.127,254.39Z" transform="translate(-242.762 -248.471)" fill="#f5f5f5"/>
    <path id="Path_11085" data-name="Path 11085" d="M251.66,247.456l.094.281.3,0a.04.04,0,0,1,.024.072l-.239.177.089.283a.04.04,0,0,1-.061.045l-.242-.172-.242.172a.04.04,0,0,1-.061-.045l.089-.283-.239-.177a.04.04,0,0,1,.023-.072l.3,0,.094-.281A.04.04,0,0,1,251.66,247.456Z" transform="translate(-243.152 -246.706)" fill="#f5f5f5"/>
    <path id="Path_11086" data-name="Path 11086" d="M251.66,249.432l.094.281.3,0a.04.04,0,0,1,.024.072l-.239.177.089.283a.04.04,0,0,1-.061.045l-.242-.172-.242.172a.04.04,0,0,1-.061-.045l.089-.283-.239-.177a.04.04,0,0,1,.023-.072l.3,0,.094-.281A.04.04,0,0,1,251.66,249.432Z" transform="translate(-243.152 -247.209)" fill="#f5f5f5"/>
    <path id="Path_11087" data-name="Path 11087" d="M251.66,251.407l.094.282.3,0a.04.04,0,0,1,.024.072l-.239.176.089.283a.04.04,0,0,1-.061.045l-.242-.173-.242.173a.04.04,0,0,1-.061-.045l.089-.283-.239-.176a.04.04,0,0,1,.023-.072l.3,0,.094-.282A.04.04,0,0,1,251.66,251.407Z" transform="translate(-243.152 -247.712)" fill="#f5f5f5"/>
    <path id="Path_11088" data-name="Path 11088" d="M251.66,253.383l.094.282.3,0a.04.04,0,0,1,.024.072l-.239.176.089.283a.04.04,0,0,1-.061.045l-.242-.173-.242.173a.04.04,0,0,1-.061-.045l.089-.283-.239-.176a.04.04,0,0,1,.023-.072l.3,0,.094-.282A.04.04,0,0,1,251.66,253.383Z" transform="translate(-243.152 -248.215)" fill="#f5f5f5"/>
    <path id="Path_11089" data-name="Path 11089" d="M253.194,246.487l.094.282.3,0a.04.04,0,0,1,.023.072l-.239.176.089.283a.04.04,0,0,1-.061.045l-.242-.173-.241.173a.04.04,0,0,1-.061-.045l.089-.283-.239-.176a.04.04,0,0,1,.024-.072l.3,0,.094-.282A.04.04,0,0,1,253.194,246.487Z" transform="translate(-243.543 -246.459)" fill="#f5f5f5"/>
    <path id="Path_11090" data-name="Path 11090" d="M253.194,248.463l.094.282.3,0a.04.04,0,0,1,.023.072l-.239.177.089.283a.04.04,0,0,1-.061.045l-.242-.172-.241.172a.04.04,0,0,1-.061-.045l.089-.283-.239-.177a.04.04,0,0,1,.024-.072l.3,0,.094-.282A.04.04,0,0,1,253.194,248.463Z" transform="translate(-243.543 -246.962)" fill="#f5f5f5"/>
    <path id="Path_11091" data-name="Path 11091" d="M253.194,250.439l.094.281.3,0a.04.04,0,0,1,.023.072l-.239.177.089.283a.04.04,0,0,1-.061.045l-.242-.172-.241.172a.04.04,0,0,1-.061-.045l.089-.283-.239-.177a.04.04,0,0,1,.024-.072l.3,0,.094-.281A.04.04,0,0,1,253.194,250.439Z" transform="translate(-243.543 -247.465)" fill="#f5f5f5"/>
    <path id="Path_11092" data-name="Path 11092" d="M253.194,252.414l.094.282.3,0a.04.04,0,0,1,.023.072l-.239.176.089.283a.04.04,0,0,1-.061.045l-.242-.173-.241.173a.04.04,0,0,1-.061-.045l.089-.283-.239-.176a.04.04,0,0,1,.024-.072l.3,0,.094-.282A.04.04,0,0,1,253.194,252.414Z" transform="translate(-243.543 -247.968)" fill="#f5f5f5"/>
    <path id="Path_11093" data-name="Path 11093" d="M253.194,254.39l.094.282.3,0a.04.04,0,0,1,.023.072l-.239.176.089.283a.04.04,0,0,1-.061.045l-.242-.173-.241.173a.04.04,0,0,1-.061-.045l.089-.283-.239-.176a.04.04,0,0,1,.024-.072l.3,0,.094-.282A.04.04,0,0,1,253.194,254.39Z" transform="translate(-243.543 -248.471)" fill="#f5f5f5"/>
  </g>
</svg>
