<svg xmlns="http://www.w3.org/2000/svg" xmlns:xlink="http://www.w3.org/1999/xlink" width="327.996" height="103.01" viewBox="0 0 327.996 103.01">
  <defs>
    <filter id="Union_2" x="0" y="0" width="160.224" height="103.01" filterUnits="userSpaceOnUse">
      <feOffset dy="3" input="SourceAlpha"/>
      <feGaussianBlur stdDeviation="3" result="blur"/>
      <feFlood flood-opacity="0.161"/>
      <feComposite operator="in" in2="blur"/>
      <feComposite in="SourceGraphic"/>
    </filter>
    <filter id="Union_2-2" x="0" y="0" width="160.224" height="103.01" filterUnits="userSpaceOnUse">
      <feOffset dy="3" input="SourceAlpha"/>
      <feGaussianBlur stdDeviation="3" result="blur-2"/>
      <feFlood flood-opacity="0.161" result="color"/>
      <feComposite operator="out" in="SourceGraphic" in2="blur-2"/>
      <feComposite operator="in" in="color"/>
      <feComposite operator="in" in2="SourceGraphic"/>
    </filter>
    <filter id="Path_11572" x="153.884" y="13.214" width="129.802" height="62.771" filterUnits="userSpaceOnUse">
      <feOffset dy="3" input="SourceAlpha"/>
      <feGaussianBlur stdDeviation="3" result="blur-3"/>
      <feFlood flood-opacity="0.161"/>
      <feComposite operator="in" in2="blur-3"/>
      <feComposite in="SourceGraphic"/>
    </filter>
    <filter id="Path_11572-2" x="153.884" y="13.214" width="129.802" height="62.771" filterUnits="userSpaceOnUse">
      <feOffset dy="3" input="SourceAlpha"/>
      <feGaussianBlur stdDeviation="3" result="blur-4"/>
      <feFlood flood-opacity="0.161" result="color-2"/>
      <feComposite operator="out" in="SourceGraphic" in2="blur-4"/>
      <feComposite operator="in" in="color-2"/>
      <feComposite operator="in" in2="SourceGraphic"/>
    </filter>
  </defs>
  <g id="_1" data-name="1" transform="translate(-2814.744 -4235)">
    <g data-type="innerShadowGroup">
      <g transform="matrix(1, 0, 0, 1, 2814.74, 4235)" filter="url(#Union_2)">
        <path id="Union_2-3" data-name="Union 2" d="M74.372,77.757a63.046,63.046,0,0,1-29.3,7.253C19.034,85.01,0,67.378,0,42.505S19.034,0,45.541,0c13.424,0,24.6,4.046,32.581,11.588C83.767,4.6,94.081,0,109.177,0c10.626,0,21.6,2.453,29.66,7.124l-7.124,17.165c-7.824-4.2-15.53-6.305-22.654-6.305-9.692,0-13.195,3.27-13.195,7.357,0,12.495,46.359,3.153,46.359,33.28,0,14.246-11.911,26.391-36.2,26.391C94.1,85.01,82.27,82.157,74.372,77.757Zm31.769-10.73c9.575,0,13.312-2.686,13.312-6.656,0-10.5-30.47-6.292-42.068-20.428L66.475,28.187l.011-.01C60.9,22.044,54.5,19.151,46.709,19.151c-14.013,0-23.355,9.225-23.355,23.354,0,13.779,9.342,23.355,23.121,23.355A29.373,29.373,0,0,0,58.97,63.174V47.668H79.405V59.126A51.608,51.608,0,0,0,106.142,67.028Z" transform="translate(9 6)" fill="#fff"/>
      </g>
      <g transform="matrix(1, 0, 0, 1, 2814.74, 4235)" filter="url(#Union_2-2)">
        <path id="Union_2-4" data-name="Union 2" d="M74.372,77.757a63.046,63.046,0,0,1-29.3,7.253C19.034,85.01,0,67.378,0,42.505S19.034,0,45.541,0c13.424,0,24.6,4.046,32.581,11.588C83.767,4.6,94.081,0,109.177,0c10.626,0,21.6,2.453,29.66,7.124l-7.124,17.165c-7.824-4.2-15.53-6.305-22.654-6.305-9.692,0-13.195,3.27-13.195,7.357,0,12.495,46.359,3.153,46.359,33.28,0,14.246-11.911,26.391-36.2,26.391C94.1,85.01,82.27,82.157,74.372,77.757Zm31.769-10.73c9.575,0,13.312-2.686,13.312-6.656,0-10.5-30.47-6.292-42.068-20.428L66.475,28.187l.011-.01C60.9,22.044,54.5,19.151,46.709,19.151c-14.013,0-23.355,9.225-23.355,23.354,0,13.779,9.342,23.355,23.121,23.355A29.373,29.373,0,0,0,58.97,63.174V47.668H79.405V59.126A51.608,51.608,0,0,0,106.142,67.028Z" transform="translate(9 6)" fill="#fff"/>
      </g>
    </g>
    <g data-type="innerShadowGroup">
      <g transform="matrix(1, 0, 0, 1, 2814.74, 4235)" filter="url(#Path_11572)">
        <path id="Path_11572-3" data-name="Path 11572" d="M29.014-46.929c12.98,0,20.63-7.336,20.63-20.442V-91.7H37.416v23.953c0,7.525-3.135,10.534-8.277,10.534-5.2,0-8.34-3.01-8.34-10.534V-91.7H8.384v24.329C8.384-54.265,16.034-46.929,29.014-46.929Zm70.543,0c12.98,0,20.63-7.336,20.63-20.442V-91.7H107.959v23.953c0,7.525-3.135,10.534-8.277,10.534-5.2,0-8.34-3.01-8.34-10.534V-91.7H78.927v24.329C78.927-54.265,86.577-46.929,99.556-46.929Z" transform="translate(154.5 110.91)" fill="#fff"/>
      </g>
      <g transform="matrix(1, 0, 0, 1, 2814.74, 4235)" filter="url(#Path_11572-2)">
        <path id="Path_11572-4" data-name="Path 11572" d="M29.014-46.929c12.98,0,20.63-7.336,20.63-20.442V-91.7H37.416v23.953c0,7.525-3.135,10.534-8.277,10.534-5.2,0-8.34-3.01-8.34-10.534V-91.7H8.384v24.329C8.384-54.265,16.034-46.929,29.014-46.929Zm70.543,0c12.98,0,20.63-7.336,20.63-20.442V-91.7H107.959v23.953c0,7.525-3.135,10.534-8.277,10.534-5.2,0-8.34-3.01-8.34-10.534V-91.7H78.927v24.329C78.927-54.265,86.577-46.929,99.556-46.929Z" transform="translate(154.5 110.91)" fill="#fff"/>
      </g>
    </g>
    <text id="DESIGNER" transform="translate(2977.774 4326.045)" fill="#0aadcf" font-size="14" font-family="Montserrat-Bold, Montserrat" font-weight="700" letter-spacing="0.89em"><tspan x="0" y="0">DESIGNER</tspan></text>
    <g id="pencils-tools-and-utensils-svgrepo-com" transform="translate(3095.029 4254.214)">
      <g id="Group_9013" data-name="Group 9013" transform="translate(0.093 0.092)">
        <path id="Path_11573" data-name="Path 11573" d="M23.44,31.141,9.421,17.123a1.252,1.252,0,0,0-1.771,0L1.363,23.41a1.256,1.256,0,0,0,0,1.771L15.381,39.2Z" transform="translate(-0.997 -16.756)" fill="#ededed"/>
        <path id="Path_11574" data-name="Path 11574" d="M286.326,294.265a1.859,1.859,0,0,0-.418-.64l-7.512-7.512-8.058,8.058,7.512,7.512a1.907,1.907,0,0,0,.665.4l8.8,3.419a1.886,1.886,0,0,0,2.44-2.44Z" transform="translate(-245.239 -261.013)" fill="#ededed"/>
      </g>
      <path id="Path_11575" data-name="Path 11575" d="M344.626,352.343l-8.058,8.059,1.34,1.34a1.878,1.878,0,0,0,.65.424l9.25,3.579a.092.092,0,0,0,.035.006,1.941,1.941,0,0,0,1.956-2.606l-3.409-8.811a1.88,1.88,0,0,0-.424-.65Z" transform="translate(-305.205 -320.979)" fill="#ffc393"/>
      <path id="Path_11576" data-name="Path 11576" d="M6.9,16.078l-6.6,6.6a1.032,1.032,0,0,0,0,1.459l6.975,6.975,8.058-8.058L8.361,16.078A1.032,1.032,0,0,0,6.9,16.078Z" transform="translate(-0.001 -15.775)" fill="#31c5f0"/>
      <g id="Group_9014" data-name="Group 9014" transform="translate(3.599 0.092)">
        <path id="Path_11577" data-name="Path 11577" d="M57.562,31.141,43.543,17.123a1.252,1.252,0,0,0-1.771,0l-3.146,3.146,14.9,14.9Z" transform="translate(-38.626 -16.756)" fill="#d9d9d9"/>
        <path id="Path_11578" data-name="Path 11578" d="M325.512,294.265a1.862,1.862,0,0,0-.418-.64l-7.512-7.512-4.032,4.032,14.95,14.95.017-.016a1.883,1.883,0,0,0,.424-2.013Z" transform="translate(-287.931 -261.013)" fill="#d9d9d9"/>
      </g>
      <path id="Path_11579" data-name="Path 11579" d="M379.781,356.376l8.778,8.779a1.878,1.878,0,0,0,.426-2.008l-3.409-8.811a1.876,1.876,0,0,0-.424-.65l-1.34-1.34Z" transform="translate(-344.391 -320.98)" fill="#ff7f18"/>
      <path id="Path_11580" data-name="Path 11580" d="M41.928,16.078l-3.3,3.3,7.7,7.7,4.032-4.032-6.975-6.975A1.032,1.032,0,0,0,41.928,16.078Z" transform="translate(-35.027 -15.775)" fill="#0aadcf"/>
      <path id="Path_11581" data-name="Path 11581" d="M76.445,23.425l-6.287-6.287a1.256,1.256,0,0,0-1.771,0L53.026,32.5,36.142,49.383a1.907,1.907,0,0,0-.4.665l-3.419,8.8a1.886,1.886,0,0,0,2.44,2.44l8.8-3.43a1.862,1.862,0,0,0,.64-.418l8.869-8.869L76.445,25.2A1.252,1.252,0,0,0,76.445,23.425Z" transform="translate(-29.193 -16.679)" fill="#ededed"/>
      <path id="Path_11582" data-name="Path 11582" d="M44.956,360.4,36.9,352.343l-1.34,1.34a1.878,1.878,0,0,0-.424.65l-3.579,9.25a.092.092,0,0,0-.006.035,1.941,1.941,0,0,0,2.606,1.956l8.811-3.409a1.878,1.878,0,0,0,.65-.424Z" transform="translate(-28.608 -320.979)" fill="#ffc393"/>
      <path id="Path_11583" data-name="Path 11583" d="M362.465,22.676l-6.6-6.6a1.032,1.032,0,0,0-1.459,0l-6.975,6.975,8.058,8.058,6.975-6.975A1.031,1.031,0,0,0,362.465,22.676Z" transform="translate(-315.056 -15.774)" fill="#31c5f0"/>
      <path id="Path_11584" data-name="Path 11584" d="M81.68,57.548,78.534,54.4,37.965,94.971l.016.017a1.883,1.883,0,0,0,2.013.424l8.8-3.43a1.862,1.862,0,0,0,.64-.418L81.68,59.319A1.252,1.252,0,0,0,81.68,57.548Z" transform="translate(-34.427 -50.802)" fill="#d9d9d9"/>
      <path id="Path_11585" data-name="Path 11585" d="M46.741,395.556l-8.778,8.779a1.884,1.884,0,0,0,2.029.441l8.79-3.424a1.877,1.877,0,0,0,.65-.424l1.34-1.34Z" transform="translate(-34.425 -360.166)" fill="#ff7f18"/>
      <path id="Path_11586" data-name="Path 11586" d="M401.652,57.7l-3.3-3.3-7.7,7.7,4.032,4.032,6.975-6.975A1.032,1.032,0,0,0,401.652,57.7Z" transform="translate(-354.243 -50.802)" fill="#0aadcf"/>
    </g>
    <g id="pencil-svgrepo-com" transform="translate(3064.982 4272.445) rotate(135)">
      <path id="Path_11587" data-name="Path 11587" d="M44.04,6.62,37.783.363a1.25,1.25,0,0,0-1.763,0L20.733,15.651l-16.8,16.8a1.9,1.9,0,0,0-.4.661l-3.4,8.76A1.877,1.877,0,0,0,2.554,44.3l8.758-3.413a1.852,1.852,0,0,0,.637-.416l8.827-8.827L44.04,8.383A1.246,1.246,0,0,0,44.04,6.62Z" transform="translate(0.088 0.002)" fill="#ededed"/>
      <path id="Path_11588" data-name="Path 11588" d="M13.348,8.039,5.309,0,3.976,1.333a1.862,1.862,0,0,0-.421.647L.006,11.186A.094.094,0,0,0,0,11.221a1.939,1.939,0,0,0,2.6,1.952l8.77-3.381a1.861,1.861,0,0,0,.647-.421Z" transform="translate(0 31.165)" fill="#ffc393"/>
      <path id="Path_11589" data-name="Path 11589" d="M14.805,6.622,8.548.365a1.246,1.246,0,0,0-1.763,0L0,7.151l8.02,8.02,6.786-6.786A1.247,1.247,0,0,0,14.805,6.622Z" transform="translate(29.324 0)" fill="#31c5f0"/>
      <path id="Path_11590" data-name="Path 11590" d="M43.492,3.117,40.374,0,0,40.374l0,0a1.874,1.874,0,0,0,2,.422l8.758-3.413a1.852,1.852,0,0,0,.637-.416L43.492,4.88A1.247,1.247,0,0,0,43.492,3.117Z" transform="translate(0.636 3.505)" fill="#d9d9d9"/>
      <path id="Path_11591" data-name="Path 11591" d="M8.736,0,0,8.736a1.869,1.869,0,0,0,2,.43l8.769-3.393a1.869,1.869,0,0,0,.647-.422l1.334-1.334Z" transform="translate(0.602 35.178)" fill="#ff7f18"/>
      <path id="Path_11592" data-name="Path 11592" d="M10.785,3.118,7.667,0,0,7.667l4,4L10.785,4.88A1.246,1.246,0,0,0,10.785,3.118Z" transform="translate(33.344 3.504)" fill="#0aadcf"/>
    </g>
  </g>
</svg>
