<svg xmlns="http://www.w3.org/2000/svg" width="286.934" height="132" viewBox="0 0 286.934 132">
  <g id="_2" data-name="2" transform="translate(-57 -35)">
    <rect id="Rectangle_3" data-name="Rectangle 3" width="132" height="286.934" transform="translate(57 167) rotate(-90)" fill="none"/>
    <g id="Group_2" data-name="Group 2">
      <g id="Group_17" data-name="Group 17" transform="translate(69 55)">
        <path id="Subtraction_1" data-name="Subtraction 1" d="M46.594,87.8c-1.851,0-3.675-.059-5.421-.174s-3.463-.292-5.1-.523-3.25-.525-4.785-.871-3.037-.758-4.466-1.221S24,84.021,22.672,83.443a40.594,40.594,0,0,1-3.829-1.918,37.726,37.726,0,0,1-3.512-2.268,36.338,36.338,0,0,1-3.194-2.616,35.882,35.882,0,0,1-2.844-2.93A34.941,34.941,0,0,1,6.827,70.5,35.426,35.426,0,0,1,4.741,67.01a37.358,37.358,0,0,1-1.706-3.771,40.81,40.81,0,0,1-1.329-4.051c-.378-1.391-.7-2.848-.948-4.332S.315,51.82.189,50.243,0,47.021,0,45.351a55.2,55.2,0,0,1,.383-6.561,48.391,48.391,0,0,1,1.149-6.183A44.456,44.456,0,0,1,3.447,26.8a43.177,43.177,0,0,1,2.681-5.428A41.162,41.162,0,0,1,9.5,16.448a39.129,39.129,0,0,1,4-4.3,39.789,39.789,0,0,1,4.628-3.667,43.181,43.181,0,0,1,5.253-3.038A48.527,48.527,0,0,1,29.2,3.064a54.589,54.589,0,0,1,6.309-1.7A63.726,63.726,0,0,1,42.313.34c2.34-.225,4.8-.34,7.3-.34,3.618,0,7.512.17,11.261.492a103.712,103.712,0,0,1,12.16,1.714A31.486,31.486,0,0,0,63,7.656a24.493,24.493,0,0,0-8.5,13.189c-1.383-.082-2.826-.123-4.289-.123-6.993,0-12.64,2.131-16.785,6.335s-6.246,10.06-6.246,17.406c0,7.032,1.763,12.61,5.24,16.578s8.407,5.98,14.653,5.98a31.873,31.873,0,0,0,6.453-.474V54.41H37.24V35.05H54.473c2.186,8.6,8.8,15.161,19.654,19.5,1.929.749,3.6,1.434,4.972,2.037V71.389c-.157,0-.315.005-.472.005a26.65,26.65,0,0,1-2.838-.156c-.96-.1-1.952-.26-2.949-.467s-2.027-.468-3.06-.778-2.1-.676-3.171-1.089a49.219,49.219,0,0,1-6.172-2.883,46.865,46.865,0,0,1-5.61-3.666V86.522c.508.215,1.029.425,1.546.626-1.668.218-3.335.381-4.956.49S48.172,87.8,46.594,87.8Z" transform="translate(0)" fill="#111"/>
        <path id="Path_3" data-name="Path 3" d="M63.262,48.732a26.16,26.16,0,0,1-4.529,15.312,26.947,26.947,0,0,1-12.7,9.716q-8.17,3.2-19.655,3.2A62.1,62.1,0,0,1,1.985,72.284V48.117a47.626,47.626,0,0,0,11.782,6.549,33.531,33.531,0,0,0,12.019,2.491A11.514,11.514,0,0,0,32.3,55.588a5.189,5.189,0,0,0,2.309-4.581,6.375,6.375,0,0,0-1.154-3.782,11.46,11.46,0,0,0-3.493-3.044,63.862,63.862,0,0,0-8.675-3.875Q.8,32.129.8,13.865.8,1.074,10.155-6.582t25.1-7.656q4.44,0,8.17.369t6.779.922q3.049.553,8.555,2.091V11.589Q48.046,5.5,37.685,5.5a12.621,12.621,0,0,0-6.868,1.66,5.145,5.145,0,0,0-2.605,4.551,5.793,5.793,0,0,0,2.1,4.581q2.1,1.815,8.792,4.7,13.2,5.535,18.679,12.114A23.642,23.642,0,0,1,63.262,48.732Z" transform="translate(52.842 14.238)" fill="none" stroke="#111" stroke-width="1"/>
      </g>
      <g id="Group_1" data-name="Group 1" transform="translate(0 0.04)">
        <text id="UI_UX" data-name="UI/UX" transform="translate(223 103.96)" fill="#111" font-size="37" font-family="Montserrat-Medium, Montserrat" font-weight="500"><tspan x="0" y="0">UX/UI</tspan></text>
        <text id="DESIGNER" transform="translate(224 128.235)" fill="#111" font-size="20" font-family="Montserrat-Light, Montserrat" font-weight="300"><tspan x="0" y="0">DESIGNER</tspan></text>
      </g>
      <g id="Group_18" data-name="Group 18" transform="translate(193 45)">
        <path id="Path_16" data-name="Path 16" d="M.042,14.431A.815.815,0,0,0,1.08,15.46l14.562-4.88L4.967,0C1.009,11.6,1.609,9.838.042,14.431Z" transform="translate(22.023 10.963) rotate(135)" fill="#111"/>
        <rect id="Rectangle_29" data-name="Rectangle 29" width="5.863" height="77.758" transform="translate(3.452 17.264)" fill="#111"/>
        <rect id="Rectangle_30" data-name="Rectangle 30" width="5.863" height="77.758" transform="translate(12.666 17.264)" fill="#111"/>
        <path id="Rectangle_31" data-name="Rectangle 31" d="M0,0H15.077V4.886a7.538,7.538,0,0,1-7.538,7.538h0A7.538,7.538,0,0,1,0,4.886Z" transform="translate(3.452 98.651)" fill="#00e29f"/>
      </g>
    </g>
  </g>
</svg>
