<svg xmlns="http://www.w3.org/2000/svg" xmlns:xlink="http://www.w3.org/1999/xlink" width="292" height="103.01" viewBox="0 0 292 103.01">
  <defs>
    <filter id="Union_2" x="0" y="0" width="160.224" height="103.01" filterUnits="userSpaceOnUse">
      <feOffset dy="3" input="SourceAlpha"/>
      <feGaussianBlur stdDeviation="3" result="blur"/>
      <feFlood flood-opacity="0.161"/>
      <feComposite operator="in" in2="blur"/>
      <feComposite in="SourceGraphic"/>
    </filter>
    <filter id="Union_2-2" x="0" y="0" width="160.224" height="103.01" filterUnits="userSpaceOnUse">
      <feOffset dy="3" input="SourceAlpha"/>
      <feGaussianBlur stdDeviation="3" result="blur-2"/>
      <feFlood flood-opacity="0.161" result="color"/>
      <feComposite operator="out" in="SourceGraphic" in2="blur-2"/>
      <feComposite operator="in" in="color"/>
      <feComposite operator="in" in2="SourceGraphic"/>
    </filter>
  </defs>
  <g id="_2" data-name="2" transform="translate(-2782 -3796)">
    <g data-type="innerShadowGroup">
      <g transform="matrix(1, 0, 0, 1, 2782, 3796)" filter="url(#Union_2)">
        <path id="Union_2-3" data-name="Union 2" d="M74.372,77.757a63.046,63.046,0,0,1-29.3,7.253C19.034,85.01,0,67.378,0,42.505S19.034,0,45.541,0c13.424,0,24.6,4.046,32.581,11.588C83.767,4.6,94.081,0,109.177,0c10.626,0,21.6,2.453,29.66,7.124l-7.124,17.165c-7.824-4.2-15.53-6.305-22.654-6.305-9.692,0-13.195,3.27-13.195,7.357,0,12.495,46.359,3.153,46.359,33.28,0,14.246-11.911,26.391-36.2,26.391C94.1,85.01,82.27,82.157,74.372,77.757Zm31.769-10.73c9.575,0,13.312-2.686,13.312-6.656,0-10.5-30.47-6.292-42.068-20.428L66.475,28.187l.011-.01C60.9,22.044,54.5,19.151,46.709,19.151c-14.013,0-23.355,9.225-23.355,23.354,0,13.779,9.342,23.355,23.121,23.355A29.373,29.373,0,0,0,58.97,63.174V47.668H79.405V59.126A51.608,51.608,0,0,0,106.142,67.028Z" transform="translate(9 6)" fill="#1a1833"/>
      </g>
      <g transform="matrix(1, 0, 0, 1, 2782, 3796)" filter="url(#Union_2-2)">
        <path id="Union_2-4" data-name="Union 2" d="M74.372,77.757a63.046,63.046,0,0,1-29.3,7.253C19.034,85.01,0,67.378,0,42.505S19.034,0,45.541,0c13.424,0,24.6,4.046,32.581,11.588C83.767,4.6,94.081,0,109.177,0c10.626,0,21.6,2.453,29.66,7.124l-7.124,17.165c-7.824-4.2-15.53-6.305-22.654-6.305-9.692,0-13.195,3.27-13.195,7.357,0,12.495,46.359,3.153,46.359,33.28,0,14.246-11.911,26.391-36.2,26.391C94.1,85.01,82.27,82.157,74.372,77.757Zm31.769-10.73c9.575,0,13.312-2.686,13.312-6.656,0-10.5-30.47-6.292-42.068-20.428L66.475,28.187l.011-.01C60.9,22.044,54.5,19.151,46.709,19.151c-14.013,0-23.355,9.225-23.355,23.354,0,13.779,9.342,23.355,23.121,23.355A29.373,29.373,0,0,0,58.97,63.174V47.668H79.405V59.126A51.608,51.608,0,0,0,106.142,67.028Z" transform="translate(9 6)" fill="#fff"/>
      </g>
    </g>
    <g id="Group_9012" data-name="Group 9012" transform="translate(-5 16.496)">
      <path id="Path_11572" data-name="Path 11572" d="M24.709-56.271c10.271,0,16.325-5.806,16.325-16.176V-91.7H31.358v18.955c0,5.954-2.481,8.336-6.55,8.336-4.118,0-6.6-2.382-6.6-8.336V-91.7H8.384v19.253C8.384-62.077,14.438-56.271,24.709-56.271Zm22.974-11.4h9.825V-91.7H47.683Zm32.849,11.4c10.271,0,16.325-5.806,16.325-16.176V-91.7H87.181v18.955c0,5.954-2.481,8.336-6.55,8.336-4.118,0-6.6-2.382-6.6-8.336V-91.7H64.207v19.253C64.207-62.077,70.261-56.271,80.532-56.271Zm55.724-.695-12.9-17.963L118-81.677,111.049-91.7H99.983l12.107,17.169,5.657,6.8,7.195,10.768Z" transform="translate(2941.5 3905.397)" fill="#1a1833"/>
      <g id="Group_18" data-name="Group 18" transform="matrix(-0.799, -0.602, 0.602, -0.799, 3051.293, 3853.401)">
        <path id="Path_16" data-name="Path 16" d="M.025.654A.5.5,0,0,1,.658.026L9.48,2.94,2.967,9.4C.6,2.369.961,3.436.025.654Z" transform="translate(6.703 51.876) rotate(-135)" fill="#31c5f0"/>
        <rect id="Rectangle_30" data-name="Rectangle 30" width="9.095" height="32.125" transform="translate(2.172 9.104)" fill="#31c5f0"/>
        <path id="Rectangle_31" data-name="Rectangle 31" d="M0,7.5H9.212V4.55A4.578,4.578,0,0,0,4.606,0h0A4.578,4.578,0,0,0,0,4.551Z" transform="translate(2.055 0)" fill="#31c5f0"/>
      </g>
      <path id="Path_16-2" data-name="Path 16" d="M.04.723A.537.537,0,0,1,.148.145a.538.538,0,0,1,.579-.1L11.09,3.992l-7.073,7C.82,2.738,1.305,3.992.04.723Z" transform="translate(2994.094 3801.504) rotate(45)" fill="#31c5f0"/>
      <path id="Rectangle_31-2" data-name="Rectangle 31" d="M0,9.146H9.985v-3.6A5.293,5.293,0,0,0,4.993,0h0A5.293,5.293,0,0,0,0,5.55Z" transform="translate(2999.12 3848.592) rotate(-180)" fill="#31c5f0"/>
    </g>
    <text id="DESIGNER" transform="translate(2945 3884)" fill="#1a1833" font-size="12" font-family="Montserrat-SemiBold, Montserrat" font-weight="600" letter-spacing="0.76em"><tspan x="0" y="0">DESIGNER</tspan></text>
  </g>
</svg>
