<svg xmlns="http://www.w3.org/2000/svg" width="367.819" height="121.256" viewBox="0 0 367.819 121.256">
  <g id="Group_9010" data-name="Group 9010" transform="translate(-1888.903 -3601)">
    <g id="Group_18" data-name="Group 18" transform="translate(2042.277 3601)">
      <path id="Path_16" data-name="Path 16" d="M.046,15.754a.89.89,0,0,0,1.133,1.123l15.9-5.327L5.422,0C1.1,12.663,1.757,10.74.046,15.754Z" transform="translate(24.042 11.968) rotate(135)" fill="#1a1833"/>
      <rect id="Rectangle_29" data-name="Rectangle 29" width="6.4" height="84.885" transform="translate(3.769 18.847)" fill="#1a1833"/>
      <rect id="Rectangle_30" data-name="Rectangle 30" width="6.4" height="84.885" transform="translate(13.828 18.847)" fill="#1a1833"/>
      <path id="Rectangle_31" data-name="Rectangle 31" d="M0,0H16.459V5.334A8.229,8.229,0,0,1,8.23,13.563h0A8.229,8.229,0,0,1,0,5.333Z" transform="translate(3.769 107.693)" fill="#1a1833"/>
    </g>
    <path id="Union_2" data-name="Union 2" d="M74.372,77.757a63.047,63.047,0,0,1-29.3,7.253C19.034,85.01,0,67.377,0,42.505S19.034,0,45.542,0c13.424,0,24.6,4.046,32.58,11.587C83.767,4.6,94.081,0,109.177,0c10.626,0,21.6,2.452,29.66,7.123l-7.123,17.165c-7.824-4.2-15.531-6.306-22.654-6.306-9.692,0-13.2,3.27-13.2,7.357,0,12.5,46.359,3.153,46.359,33.281,0,14.246-11.911,26.39-36.2,26.39C94.1,85.01,82.27,82.157,74.372,77.757Zm31.769-10.73c9.576,0,13.313-2.686,13.313-6.656,0-10.5-30.479-6.291-42.073-20.435L66.475,28.187l.011-.011C60.9,22.044,54.5,19.151,46.709,19.151c-14.013,0-23.354,9.225-23.354,23.354,0,13.78,9.341,23.354,23.121,23.354A29.369,29.369,0,0,0,58.97,63.174V49.668H79.406v9.459A51.612,51.612,0,0,0,106.141,67.028Z" transform="translate(1888.903 3619.859)" fill="#1a1833"/>
    <path id="Path_11567" data-name="Path 11567" d="M31.269-42.035c14.4,0,22.885-8.138,22.885-22.676V-91.7H40.59v26.571c0,8.347-3.478,11.686-9.182,11.686-5.773,0-9.251-3.339-9.251-11.686V-91.7H8.384v26.989C8.384-50.174,16.87-42.035,31.269-42.035Zm32.206-.974H77.247V-91.7H63.474Zm46.048.974c14.4,0,22.885-8.138,22.885-22.676V-91.7H118.843v26.571c0,8.347-3.478,11.686-9.182,11.686-5.773,0-9.251-3.339-9.251-11.686V-91.7H86.637v26.989C86.637-50.174,95.123-42.035,109.522-42.035Zm78.114-.974-18.085-25.18L186.523-91.7H171.638l-9.6,14.051L152.3-91.7H136.789l16.972,24.067L136.024-43.009h15.72L161.691-58.1l10.086,15.094Z" transform="translate(2069.086 3711.559)" fill="#1a1833"/>
    <path id="Path_11566" data-name="Path 11566" d="M6.486-25.067H16.8c7.649,0,12.871-4.717,12.871-11.793S24.445-48.653,16.8-48.653H6.486Zm4.38-3.706V-44.947h5.728c5.256,0,8.659,3.2,8.659,8.087s-3.4,8.087-8.659,8.087ZM38.7-28.74v-6.5H50.086v-3.605H38.7V-44.98H51.535v-3.673H34.318v23.586h17.69V-28.74ZM64.2-24.73c6.469,0,9.535-3.235,9.535-7.008,0-8.659-13.983-5.391-13.983-10.412,0-1.786,1.483-3.2,5.122-3.2a13.107,13.107,0,0,1,6.5,1.853l1.381-3.4a14.912,14.912,0,0,0-7.851-2.089c-6.469,0-9.5,3.235-9.5,7.042,0,8.761,14.017,5.425,14.017,10.513,0,1.752-1.55,3.066-5.223,3.066a13.069,13.069,0,0,1-7.783-2.594L54.9-27.56C56.859-25.876,60.532-24.73,64.2-24.73Zm13.882-.337h4.38V-48.653h-4.38Zm26.854-4.717a9.527,9.527,0,0,1-4.852,1.213c-4.987,0-8.525-3.5-8.525-8.289,0-4.886,3.538-8.289,8.558-8.289a8.754,8.754,0,0,1,6.5,2.7l2.763-2.7A12.184,12.184,0,0,0,99.92-48.99c-7.379,0-12.77,5.088-12.77,12.13s5.391,12.13,12.7,12.13a14.933,14.933,0,0,0,9.232-3v-9.4h-4.144Zm26.517-18.869v15.971L118.452-48.653h-3.605v23.586h4.347V-41.038L132.2-25.067H135.8V-48.653ZM146.52-28.74v-6.5h11.389v-3.605H146.52V-44.98h12.838v-3.673H142.139v23.586h17.69V-28.74Zm38.344,3.673-5.425-7.75a7.54,7.54,0,0,0,5.02-7.446c0-5.223-3.841-8.39-10.041-8.39h-9.7v23.586h4.38v-6.874h5.324a8.211,8.211,0,0,0,.91-.034l4.818,6.907Zm-4.818-15.2c0,2.965-1.988,4.717-5.829,4.717h-5.122v-9.4h5.122C178.058-44.947,180.046-43.228,180.046-40.263Z" transform="translate(2070.984 3729.6)" fill="#1a1833"/>
  </g>
</svg>
