<svg xmlns="http://www.w3.org/2000/svg" width="142.517" height="120.831" viewBox="0 0 142.517 120.831">
  <g id="Group_9011" data-name="Group 9011" transform="translate(-2602 -3805.859)">
    <g id="Group_18" data-name="Group 18" transform="translate(2602 3926.69) rotate(-90)">
      <path id="Path_16" data-name="Path 16" d="M.054,18.516a1.046,1.046,0,0,0,1.332,1.32L20.07,13.575,6.373,0C1.295,14.884,2.065,12.623.054,18.516Z" transform="translate(28.258 14.067) rotate(135)" fill="#1a1833"/>
      <rect id="Rectangle_29" data-name="Rectangle 29" width="7.523" height="99.769" transform="translate(4.43 22.151)" fill="#1a1833"/>
      <rect id="Rectangle_30" data-name="Rectangle 30" width="7.523" height="99.769" transform="translate(16.252 22.151)" fill="#1a1833"/>
      <path id="Rectangle_31" data-name="Rectangle 31" d="M0,0H19.345V6.269a9.672,9.672,0,0,1-9.672,9.672h0A9.672,9.672,0,0,1,0,6.268Z" transform="translate(4.43 126.577)" fill="#1a1833"/>
    </g>
    <path id="Union_3" data-name="Union 3" d="M74.372,77.757a63.047,63.047,0,0,1-29.3,7.253C19.034,85.01,0,67.377,0,42.505S19.034,0,45.542,0c13.424,0,24.6,4.046,32.58,11.587C83.767,4.6,94.081,0,109.177,0c10.626,0,21.6,2.452,29.66,7.123l-7.123,17.165c-7.824-4.2-15.531-6.306-22.654-6.306-9.692,0-13.2,3.27-13.2,7.357,0,12.5,46.359,3.153,46.359,33.281,0,14.246-11.911,26.39-36.2,26.39C94.1,85.01,82.27,82.157,74.372,77.757Zm31.769-10.73c9.576,0,13.313-2.686,13.313-6.656,0-10.5-30.479-6.291-42.073-20.435L66.475,28.187l.011-.011C60.9,22.044,54.5,19.151,46.709,19.151c-14.013,0-23.354,9.225-23.354,23.354,0,13.78,9.341,23.354,23.121,23.354A29.369,29.369,0,0,0,58.97,63.174V49.668H79.406v9.459A51.612,51.612,0,0,0,106.141,67.028Z" transform="translate(2602 3805.859)" fill="#1a1833"/>
  </g>
</svg>
