<svg xmlns="http://www.w3.org/2000/svg" width="31.992" height="24" viewBox="0 0 31.992 24">
  <g id="Gmail_icon__2020_" data-name="Gmail_icon_(2020)" transform="translate(-52 -41.983)">
    <path id="Path_1" data-name="Path 1" d="M54.181,76.814h5.09V64.453L52,59V74.632a2.181,2.181,0,0,0,2.181,2.181" transform="translate(0 -10.831)" fill="#4285f4"/>
    <path id="Path_2" data-name="Path 2" d="M120,76.814h5.09a2.181,2.181,0,0,0,2.181-2.181V59L120,64.453" transform="translate(-43.279 -10.831)" fill="#34a853"/>
    <path id="Path_3" data-name="Path 3" d="M120,44.17v9.452l7.271-5.453V45.261a3.272,3.272,0,0,0-5.235-2.618" transform="translate(-43.279)" fill="#fbbc04"/>
    <path id="Path_4" data-name="Path 4" d="M72,57.452V48l8.725,6.544L89.45,48v9.452L80.725,64" transform="translate(-12.729 -3.83)" fill="#ea4335"/>
    <path id="Path_5" data-name="Path 5" d="M52,45.261v2.908l7.271,5.453V44.17l-2.036-1.527A3.271,3.271,0,0,0,52,45.261" fill="#c5221f"/>
  </g>
</svg>
