<svg xmlns="http://www.w3.org/2000/svg" width="512.001" height="512.001" viewBox="0 0 512.001 512.001">
  <g id="graphic" transform="translate(0 0.001)">
    <g id="Group_1" data-name="Group 1">
      <path id="Path_1" data-name="Path 1" d="M503.706,230.013H492.889A238.355,238.355,0,0,0,343.379,34.281H461.391a25.987,25.987,0,1,0,0-16.588h-179.4v-9.4A8.294,8.294,0,0,0,273.693,0H238.306a8.294,8.294,0,0,0-8.294,8.294v9.4H50.609a25.987,25.987,0,1,0,0,16.588H168.622A238.362,238.362,0,0,0,19.111,230.014H8.294A8.294,8.294,0,0,0,0,238.308V273.7a8.294,8.294,0,0,0,8.294,8.294H43.68a8.294,8.294,0,0,0,8.294-8.294V238.308a8.294,8.294,0,0,0-8.294-8.294H35.8A221.773,221.773,0,0,1,230.013,35.8v7.882a8.287,8.287,0,0,0,4.562,7.4L124.625,287.9a8.294,8.294,0,0,0,.921,8.513c.563.741,54.672,72.7,59.892,147.406a26.028,26.028,0,0,0-17.351,24.506v17.693A26.017,26.017,0,0,0,194.074,512H317.927a26.017,26.017,0,0,0,25.987-25.987V468.32a26.026,26.026,0,0,0-17.35-24.505c5.221-74.6,59.33-146.668,59.892-147.406a8.294,8.294,0,0,0,.921-8.513L277.425,51.079a8.287,8.287,0,0,0,4.562-7.4V35.8A221.773,221.773,0,0,1,476.2,230.014H468.32a8.294,8.294,0,0,0-8.294,8.294V273.7a8.294,8.294,0,0,0,8.294,8.294h35.387A8.294,8.294,0,0,0,512,273.7V238.308A8.3,8.3,0,0,0,503.706,230.013ZM486.013,16.587a9.4,9.4,0,1,1-9.4,9.4A9.411,9.411,0,0,1,486.013,16.587ZM25.987,35.387a9.4,9.4,0,1,1,9.4-9.4A9.411,9.411,0,0,1,25.987,35.387Zm9.4,230.013h-18.8V246.6H26.61l.056,0,.045,0h8.675v18.8ZM246.6,16.587h18.8v18.8H246.6ZM327.326,468.32v17.693a9.41,9.41,0,0,1-9.4,9.4H194.073a9.411,9.411,0,0,1-9.4-9.4V468.32a9.41,9.41,0,0,1,9.4-9.4H317.926A9.41,9.41,0,0,1,327.326,468.32Zm42.945-177.877c-11.983,16.831-55.262,82.018-60.229,151.889H201.958c-4.967-69.871-48.246-135.058-60.229-151.889L247.706,62.184V257.558a34.834,34.834,0,1,0,16.588,0V62.184ZM256,273.14a18.246,18.246,0,1,1-18.246,18.246A18.267,18.267,0,0,1,256,273.14Zm239.413-7.74h-18.8V246.6h8.676l.045,0,.056,0h10.021v18.8Z" fill="#20c997"/>
    </g>
  </g>
</svg>
