<svg xmlns="http://www.w3.org/2000/svg" width="36.518" height="36.165" viewBox="0 0 36.518 36.165">
  <g id="barber" transform="translate(0 -1.978)">
    <path id="Path_2093" data-name="Path 2093" d="M164.3,37.982a2.526,2.526,0,0,1-2.517-2.35,4.5,4.5,0,1,0-4.937-7.415l-3.49-6.044a10.675,10.675,0,0,1,.85-.914,3.642,3.642,0,0,1,1.969-1.152.535.535,0,0,0,.42-.244c.99-1.529,7.605-15.527,7.886-16.123a.535.535,0,0,0-.942-.506L152.711,21.093,141.882,3.234a.535.535,0,0,0-.942.506c.281.6,6.9,14.593,7.886,16.123a.535.535,0,0,0,.42.244,3.641,3.641,0,0,1,1.969,1.152,10.669,10.669,0,0,1,.85.914l-3.49,6.044a4.514,4.514,0,1,0,.738.863l3.4-5.885,3.4,5.885a4.5,4.5,0,0,0,4.635,6.892,3.6,3.6,0,0,0,3.557,3.079.535.535,0,1,0,0-1.071Zm-5.445-24.957c-1.363,2.809-2.551,5.206-3.034,6.049a3.152,3.152,0,0,0-.8.276ZM149.6,19.074c-.483-.844-1.671-3.24-3.034-6.049L150.4,19.35A3.151,3.151,0,0,0,149.6,19.074Zm-4.052,15.914a3.435,3.435,0,1,1,3.435-3.435A3.439,3.439,0,0,1,145.549,34.988Zm10.89-3.435a3.435,3.435,0,1,1,3.435,3.435A3.439,3.439,0,0,1,156.438,31.552Z" transform="translate(-128.318 -0.909)" fill="#081938"/>
    <path id="Path_2094" data-name="Path 2094" d="M9.617,3.049a.535.535,0,0,0,0-1.071h-7.1A2.521,2.521,0,0,0,0,4.5V32.991a2.521,2.521,0,0,0,2.519,2.518h7.1a.535.535,0,1,0,0-1.071H3.054V33.432H9.617a.535.535,0,1,0,0-1.071H3.054V31.255H9.617a.535.535,0,1,0,0-1.071H3.054V29.077H9.617a.535.535,0,1,0,0-1.071H3.054V26.9H9.617a.535.535,0,0,0,0-1.071H3.054V24.723H9.617a.535.535,0,1,0,0-1.071H3.054V22.545H9.617a.535.535,0,0,0,0-1.071H3.054V20.368H9.617a.535.535,0,0,0,0-1.071H3.054V18.19H9.617a.535.535,0,0,0,0-1.071H3.054V16.013H9.617a.535.535,0,0,0,0-1.071H3.054V13.835H9.617a.535.535,0,0,0,0-1.071H3.054V11.658H9.617a.535.535,0,0,0,0-1.071H3.054V9.481H9.617a.535.535,0,0,0,0-1.071H3.054V7.3H9.617a.535.535,0,0,0,0-1.071H3.054V5.126H9.617a.535.535,0,0,0,0-1.071H3.054V3.049ZM1.071,32.991V4.5a1.449,1.449,0,0,1,.912-1.344V34.335A1.449,1.449,0,0,1,1.071,32.991Z" transform="translate(0 0)" fill="#081938"/>
  </g>
</svg>
