<svg xmlns="http://www.w3.org/2000/svg" width="51.177" height="39.568" viewBox="0 0 51.177 39.568">
  <path id="car" d="M51.16,77.386v6.219a4.5,4.5,0,0,1-4.5,4.5H37.828v2.34a1.884,1.884,0,0,0,1.882,1.882h4.444a1.884,1.884,0,0,0,1.882-1.882v-.528a.853.853,0,0,1,1.705,0v.528a3.591,3.591,0,0,1-3.587,3.587H39.71a3.591,3.591,0,0,1-3.587-3.587V88.1h-31v2.34a1.884,1.884,0,0,0,1.882,1.882H11.45a1.884,1.884,0,0,0,1.882-1.882v-.528a.853.853,0,0,1,1.705,0v.528a3.591,3.591,0,0,1-3.587,3.587H7.006a3.591,3.591,0,0,1-3.587-3.587V87.972A4.507,4.507,0,0,1,0,83.6V77.386a6.3,6.3,0,0,1,2.912-5.324l3.261-2.089,3.8-10.313a6.3,6.3,0,0,1,4.565-3.988,51.093,51.093,0,0,1,18.888-.6.853.853,0,0,1-.262,1.685,49.387,49.387,0,0,0-18.257.582,4.6,4.6,0,0,0-3.334,2.912L8.1,69.684h36.19a.853.853,0,0,1,0,1.705H7.123L3.832,73.5a4.6,4.6,0,0,0-2.126,3.888v6.219A2.8,2.8,0,0,0,4.5,86.4H46.661a2.8,2.8,0,0,0,2.794-2.794V77.386A4.6,4.6,0,0,0,47.328,73.5a.853.853,0,0,1,.92-1.436A6.3,6.3,0,0,1,51.16,77.386ZM15.1,77.433a2.921,2.921,0,0,1-1.544,5.4H10.554a3.36,3.36,0,1,1-.06-6.719A8.715,8.715,0,0,1,15.1,77.433Zm-.9,1.448a7.01,7.01,0,0,0-3.709-1.06,1.641,1.641,0,0,0-1.191.506,1.662,1.662,0,0,0,1.251,2.8H13.56A1.216,1.216,0,0,0,14.2,78.88Zm26.464-2.766a3.36,3.36,0,1,1-.06,6.719H37.6a2.921,2.921,0,0,1-1.544-5.4A8.715,8.715,0,0,1,40.666,76.115Zm0,1.705a7.011,7.011,0,0,0-3.709,1.06,1.216,1.216,0,0,0,.643,2.248h3.006a1.7,1.7,0,0,0,1.713-1.591A1.653,1.653,0,0,0,40.666,77.82Zm4.307-14.292a1.6,1.6,0,1,1-2.261,0,1.6,1.6,0,0,1,2.261,0Zm2.789-1.583a.853.853,0,0,0,0-1.206,5.539,5.539,0,0,0-7.838,0,.853.853,0,1,0,1.206,1.206,3.835,3.835,0,0,1,5.426,0A.853.853,0,0,0,47.761,61.946Zm-9.8-3.165a8.309,8.309,0,0,1,11.757,0,.853.853,0,0,0,1.206-1.206,10.013,10.013,0,0,0-14.169,0,.853.853,0,0,0,1.206,1.206Z" transform="translate(0 -54.464)"/>
</svg>
