<svg xmlns="http://www.w3.org/2000/svg" width="16.895" height="39.968" viewBox="0 0 16.895 39.968">
  <g id="clef" transform="translate(-149.081 0.201)">
    <g id="Group_243" data-name="Group 243" transform="translate(149.281 0)">
      <path id="Path_2097" data-name="Path 2097" d="M159.831,16.932v-3.7c.278-.184.554-.373.824-.566a14.23,14.23,0,0,0,3.5-3.424A8.6,8.6,0,0,0,165.775,4.5a5.107,5.107,0,0,0-.794-2.959A3.378,3.378,0,0,0,162.141,0,3.68,3.68,0,0,0,159,2.456a9.615,9.615,0,0,0-.487,3.655v6.41c-.288.184-.577.365-.862.543a21.924,21.924,0,0,0-4.437,3.337,9.337,9.337,0,0,0-2.366,4.23,7.688,7.688,0,0,0,1.194,6.054,6.861,6.861,0,0,0,5.891,2.984q.288,0,.58-.029v4.651a3.961,3.961,0,0,1-3.957,3.957,4,4,0,0,1-3.957-4.04v-.576a.659.659,0,1,0-1.319,0v.576a5.275,5.275,0,1,0,10.55.083V29.423a10.432,10.432,0,0,0,2.412-.923,6.549,6.549,0,0,0,3.331-4.266,6.042,6.042,0,0,0-.975-4.964A5.862,5.862,0,0,0,159.831,16.932Zm0-10.821a8.493,8.493,0,0,1,.39-3.16,2.432,2.432,0,0,1,1.962-1.631h.048a2.108,2.108,0,0,1,1.658.966,3.876,3.876,0,0,1,.566,2.2A7.293,7.293,0,0,1,163.073,8.5a12.95,12.95,0,0,1-3.186,3.1l-.055.04Zm-4.493,18.012a.66.66,0,0,0,1.074-.766A3.048,3.048,0,0,1,155.933,21a3.147,3.147,0,0,1,1.4-2.055,4.439,4.439,0,0,1,1.177-.511v9.886c-.2.021-.4.032-.6.035a5.589,5.589,0,0,1-4.777-2.4,6.381,6.381,0,0,1-1.006-5.021,8.009,8.009,0,0,1,2.04-3.625,20.622,20.622,0,0,1,4.179-3.126l.162-.1v2.989a5.841,5.841,0,0,0-1.875.752,4.47,4.47,0,0,0-2,2.916A4.37,4.37,0,0,0,155.339,24.124Zm8.953-.193a5.231,5.231,0,0,1-2.664,3.4,9.233,9.233,0,0,1-1.8.726v-9.8a4.567,4.567,0,0,1,3.695,1.777A4.734,4.734,0,0,1,164.292,23.931Z" transform="translate(-149.281 0)" stroke="#081938" stroke-width="0.4"/>
    </g>
  </g>
</svg>
