<svg xmlns="http://www.w3.org/2000/svg" width="37.35" height="48.991" viewBox="0 0 37.35 48.991">
  <path id="Icon_map-dentist" data-name="Icon map-dentist" d="M22.776,26.653c3.525,0,5.159,2.673,5.5,6.471a26.1,26.1,0,0,1-.119,3.767c-.4,5.1-.851,11.358,2.541,11.358,2.872,0,4.344-5.505,5.2-11.782.821-6.213-.051-9.3.38-12.064.816-5.227,5.378-9.914,3.969-16.579-.781-3.7-2.818-5.436-4.834-6.168-4.645-1.69-7.646,1.567-12.635,1.567S14.789-.034,10.142,1.656c-2.014.731-4.053,2.47-4.836,6.168C3.9,14.489,8.462,19.175,9.281,24.4c.426,2.759-.44,5.851.38,12.064.851,6.277,2.325,11.782,5.194,11.782,3.39,0,2.938-6.262,2.542-11.358a26.283,26.283,0,0,1-.12-3.768C17.618,29.326,19.276,26.653,22.776,26.653Z" transform="translate(-4.101 -0.258)" fill="none" stroke="#081938" stroke-width="2"/>
</svg>
