<svg xmlns="http://www.w3.org/2000/svg" width="37.553" height="39.268" viewBox="0 0 37.553 39.268">
  <path id="Icon_awesome-store" data-name="Icon awesome-store" d="M34.672,8.633,30.934,1.092A1.8,1.8,0,0,0,29.373,0H6.106A1.8,1.8,0,0,0,4.545,1.092L.807,8.633c-1.929,3.894-.219,9.31,3.386,9.928a4.757,4.757,0,0,0,.789.066,5.264,5.264,0,0,0,4.25-2.409,5.273,5.273,0,0,0,4.25,2.409,5.264,5.264,0,0,0,4.25-2.409,5.273,5.273,0,0,0,4.25,2.409,5.264,5.264,0,0,0,4.25-2.409,5.281,5.281,0,0,0,4.25,2.409,4.706,4.706,0,0,0,.789-.066C34.89,17.95,36.607,12.534,34.672,8.633ZM30.5,20.963a5.878,5.878,0,0,1-1.7-.277v7.264H6.681V20.687a6.136,6.136,0,0,1-1.7.277,6.177,6.177,0,0,1-1.037-.087A5.972,5.972,0,0,1,3,20.614V34.939a2.127,2.127,0,0,0,1.843,2.329h25.8a2.127,2.127,0,0,0,1.843-2.329V20.614a4.85,4.85,0,0,1-.945.262A6.366,6.366,0,0,1,30.5,20.963Z" transform="translate(1.036 1)" fill="none" stroke="#081938" stroke-width="2"/>
</svg>
