<svg xmlns="http://www.w3.org/2000/svg" width="43.708" height="44.35" viewBox="0 0 43.708 44.35">
  <path id="Icon_awesome-hotel" data-name="Icon awesome-hotel" d="M41.23,5.381a1.27,1.27,0,0,0,1.178-1.345V1.345A1.27,1.27,0,0,0,41.23,0H1.178A1.27,1.27,0,0,0,0,1.345V4.036A1.27,1.27,0,0,0,1.178,5.381H2.355V37.669H1.178A1.27,1.27,0,0,0,0,39.014V41.7A1.27,1.27,0,0,0,1.178,43.05h17.67V36.323a1.274,1.274,0,0,1,1.178-1.345h2.356a1.274,1.274,0,0,1,1.178,1.345V43.05H41.23A1.27,1.27,0,0,0,42.408,41.7V39.014a1.27,1.27,0,0,0-1.178-1.345H40.052V5.381ZM18.848,9.148a1.093,1.093,0,0,1,.942-1.076h2.827a1.093,1.093,0,0,1,.942,1.076v3.229a1.093,1.093,0,0,1-.942,1.076H19.79a1.093,1.093,0,0,1-.942-1.076Zm0,8.072a1.093,1.093,0,0,1,.942-1.076h2.827a1.093,1.093,0,0,1,.942,1.076v3.229a1.093,1.093,0,0,1-.942,1.076H19.79a1.093,1.093,0,0,1-.942-1.076ZM9.424,9.148a1.093,1.093,0,0,1,.942-1.076h2.827a1.093,1.093,0,0,1,.942,1.076v3.229a1.093,1.093,0,0,1-.942,1.076H10.366a1.093,1.093,0,0,1-.942-1.076Zm3.77,12.377H10.366a1.093,1.093,0,0,1-.942-1.076V17.22a1.093,1.093,0,0,1,.942-1.076h2.827a1.093,1.093,0,0,1,.942,1.076v3.229A1.093,1.093,0,0,1,13.194,21.525Zm.942,10.762c0-4.458,3.164-8.072,7.068-8.072s7.068,3.614,7.068,8.072ZM32.984,20.449a1.093,1.093,0,0,1-.942,1.076H29.215a1.093,1.093,0,0,1-.942-1.076V17.22a1.093,1.093,0,0,1,.942-1.076h2.827a1.093,1.093,0,0,1,.942,1.076Zm0-8.072a1.093,1.093,0,0,1-.942,1.076H29.215a1.093,1.093,0,0,1-.942-1.076V9.148a1.093,1.093,0,0,1,.942-1.076h2.827a1.093,1.093,0,0,1,.942,1.076Z" transform="translate(0.65 0.65)" fill="none" stroke="#081938" stroke-width="1.3"/>
</svg>
