<svg xmlns="http://www.w3.org/2000/svg" width="62.316" height="63.563" viewBox="0 0 62.316 63.563">
  <g id="logo" transform="translate(-5269 -2828)">
    <g id="Group_5" data-name="Group 5" transform="translate(5278.832 2828)">
      <g id="Group_3" data-name="Group 3" transform="translate(0 41.866)">
        <g id="Group_1" data-name="Group 1">
          <path id="Path_1" data-name="Path 1" d="M291.727,377.356c-9.583,0-19.283-1.61-19.283-4.688s9.7-4.688,19.283-4.688,19.284,1.61,19.284,4.688S301.31,377.356,291.727,377.356Zm0-8.314a63.771,63.771,0,0,0-13.145,1.2c-3.747.831-5.077,1.824-5.077,2.422s1.33,1.591,5.077,2.422a72.318,72.318,0,0,0,26.291,0c3.747-.831,5.077-1.824,5.077-2.422s-1.329-1.591-5.077-2.422A63.778,63.778,0,0,0,291.727,369.042Z" transform="translate(-272.444 -367.98)" fill="#081938"/>
        </g>
        <g id="Group_2" data-name="Group 2" transform="translate(10.959 2.664)">
          <path id="Path_2" data-name="Path 2" d="M363.4,392.117c-4.137,0-8.324-.7-8.324-2.024s4.187-2.024,8.324-2.024,8.324.7,8.324,2.024S367.534,392.117,363.4,392.117Zm0-3.589c-4.873,0-7.866.912-7.866,1.566s2.992,1.566,7.866,1.566,7.866-.912,7.866-1.566S368.271,388.527,363.4,388.527Z" transform="translate(-355.074 -388.069)" fill="#081938"/>
        </g>
      </g>
      <g id="Group_4" data-name="Group 4" transform="translate(2.105 0)">
        <path id="Path_3" data-name="Path 3" d="M333.044,60.756a71.288,71.288,0,0,0-13.462,11.187c-.028.041-.048.082-.07.116a138.172,138.172,0,0,0-13.9,16.32c-5.583-14.836-15.472-16.429-15.472-16.429,8.931-9.418,17.222,4.141,17.222,4.141a94.987,94.987,0,0,1,14.816-11.433,17.293,17.293,0,0,0-33.862,4.962c0,7.073,4.263,13.8,8.385,19.252a82.306,82.306,0,0,0,5.651,6.677c.629.677,1.271,1.333,1.927,1.982.239.232,1.134,1.34,1.332,1.34s1.005-1.012,1.244-1.251c.635-.622,1.251-1.257,1.859-1.9a84.2,84.2,0,0,0,5.816-6.847c3.814-5.044,7.75-11.188,8.311-17.681a72.323,72.323,0,0,1,15.786-12.964C337.621,58.228,333.064,60.743,333.044,60.756Zm-25.109,3.267a3.373,3.373,0,1,1-3.369,3.376A3.374,3.374,0,0,1,307.935,64.023Z" transform="translate(-288.315 -52.316)" fill="#d9001a"/>
      </g>
    </g>
    <g id="Group_328" data-name="Group 328" transform="translate(5269 2884.457)">
      <g id="Group_6" data-name="Group 6" transform="translate(0 0)">
        <path id="Path_4" data-name="Path 4" d="M203.219,483.692a1.9,1.9,0,0,1-.562,1.465,2.213,2.213,0,0,1-1.566.522h-2.78v-6.925h2.669a2.3,2.3,0,0,1,1.581.5,1.8,1.8,0,0,1,.567,1.425,1.623,1.623,0,0,1-.231.848,1.5,1.5,0,0,1-.642.587,1.559,1.559,0,0,1,.718.612A1.808,1.808,0,0,1,203.219,483.692Zm-3.593-2.107h1.255a.985.985,0,0,0,.687-.216.781.781,0,0,0,.236-.607.837.837,0,0,0-.236-.642.969.969,0,0,0-.687-.221h-1.255ZM201.9,483.6a.857.857,0,0,0-.236-.642.974.974,0,0,0-.708-.231h-1.335v1.806h1.335a.937.937,0,0,0,.708-.246A.953.953,0,0,0,201.9,483.6Z" transform="translate(-198.312 -478.654)" fill="#d9001a"/>
        <path id="Path_5" data-name="Path 5" d="M242.876,480.756q0-2.76,2.519-2.76a2.523,2.523,0,0,1,1.827.647,2.834,2.834,0,0,1,.672,2.113v1.586a2.8,2.8,0,0,1-.687,2.112,2.592,2.592,0,0,1-1.852.647q-2.479,0-2.479-2.76Zm3.7,1.566v-1.5a2.2,2.2,0,0,0-.291-1.28,1.035,1.035,0,0,0-.893-.4,1.053,1.053,0,0,0-.913.386,2.252,2.252,0,0,0-.281,1.29v1.5a2.089,2.089,0,0,0,.281,1.23,1.065,1.065,0,0,0,.913.376,1.046,1.046,0,0,0,.893-.387A2.038,2.038,0,0,0,246.579,482.321Z" transform="translate(-236.966 -477.996)" fill="#d9001a"/>
        <path id="Path_6" data-name="Path 6" d="M288.272,480.756q0-2.76,2.519-2.76a2.523,2.523,0,0,1,1.826.647,2.833,2.833,0,0,1,.672,2.113v1.586a2.8,2.8,0,0,1-.687,2.112,2.592,2.592,0,0,1-1.852.647q-2.479,0-2.479-2.76Zm3.7,1.566v-1.5a2.2,2.2,0,0,0-.291-1.28,1.035,1.035,0,0,0-.893-.4,1.053,1.053,0,0,0-.913.386,2.252,2.252,0,0,0-.281,1.29v1.5a2.089,2.089,0,0,0,.281,1.23,1.065,1.065,0,0,0,.913.376,1.046,1.046,0,0,0,.893-.387A2.038,2.038,0,0,0,291.975,482.321Z" transform="translate(-276.341 -477.996)" fill="#d9001a"/>
        <path id="Path_7" data-name="Path 7" d="M334.91,483.742v1.937H333.6v-6.925h1.315v3.231l2.4-3.231h1.576l-2.218,2.78,2.4,4.145h-1.525l-1.716-3.081Z" transform="translate(-315.653 -478.654)" fill="#d9001a"/>
        <path id="Path_8" data-name="Path 8" d="M402.478,485.679h-1.315v-4.1l-1.315,2.77h-.883l-1.335-2.8v4.135h-1.315v-6.925h1.315l1.776,3.823,1.756-3.823h1.315Z" transform="translate(-370.055 -478.654)" fill="#081938"/>
        <path id="Path_9" data-name="Path 9" d="M449.735,485.679H448.42v-2.84l-2.017-4.085h1.435l1.234,2.81,1.234-2.81h1.445l-2.017,4.074Z" transform="translate(-413.499 -478.654)" fill="#081938"/>
        <path id="Path_10" data-name="Path 10" d="M506.25,482.914h1.244a1.17,1.17,0,0,0,.366.808,1.388,1.388,0,0,0,.878.236q1.114,0,1.114-.913a.838.838,0,0,0-.221-.627,1.294,1.294,0,0,0-.7-.3l-.652-.11q-1.877-.311-1.877-1.927a1.93,1.93,0,0,1,.637-1.526,2.464,2.464,0,0,1,1.691-.562,2.321,2.321,0,0,1,1.621.542,2.214,2.214,0,0,1,.678,1.526h-1.265a1.017,1.017,0,0,0-.291-.733,1.38,1.38,0,0,0-1.535.005.828.828,0,0,0-.261.647.736.736,0,0,0,.231.572,1.454,1.454,0,0,0,.723.3l.732.13a1.861,1.861,0,0,1,1.786,1.947,1.952,1.952,0,0,1-.667,1.6,2.74,2.74,0,0,1-1.8.552,2.512,2.512,0,0,1-1.736-.557A2.263,2.263,0,0,1,506.25,482.914Z" transform="translate(-465.409 -477.996)" fill="#081938"/>
        <path id="Path_11" data-name="Path 11" d="M555.142,480.932a2.025,2.025,0,0,1-.607,1.54,2.312,2.312,0,0,1-1.661.577H551.6v2.629h-1.315v-6.925h2.589a2.3,2.3,0,0,1,1.661.582A2.106,2.106,0,0,1,555.142,480.932Zm-1.315,0a1.039,1.039,0,0,0-.266-.768,1.011,1.011,0,0,0-.748-.266H551.6v2h1.214a1.05,1.05,0,0,0,.743-.251A.922.922,0,0,0,553.828,480.932Z" transform="translate(-503.603 -478.654)" fill="#081938"/>
        <path id="Path_12" data-name="Path 12" d="M591.747,480.756q0-2.76,2.519-2.76a2.523,2.523,0,0,1,1.827.647,2.833,2.833,0,0,1,.672,2.113v1.586a2.8,2.8,0,0,1-.687,2.112,2.592,2.592,0,0,1-1.852.647q-2.479,0-2.479-2.76Zm3.7,1.566v-1.5a2.2,2.2,0,0,0-.291-1.28,1.035,1.035,0,0,0-.893-.4,1.053,1.053,0,0,0-.913.386,2.252,2.252,0,0,0-.281,1.29v1.5a2.089,2.089,0,0,0,.281,1.23,1.065,1.065,0,0,0,.913.376,1.046,1.046,0,0,0,.893-.387A2.039,2.039,0,0,0,595.45,482.321Z" transform="translate(-539.566 -477.996)" fill="#081938"/>
        <path id="Path_13" data-name="Path 13" d="M634.636,479.9v5.781h-1.325V479.9h-1.766v-1.144H636.4V479.9Z" transform="translate(-574.086 -478.654)" fill="#081938"/>
      </g>
    </g>
  </g>
</svg>
