<svg id="nail-polish" xmlns="http://www.w3.org/2000/svg" width="43.05" height="43.05" viewBox="0 0 43.05 43.05">
  <g id="Group_245" data-name="Group 245" transform="translate(0 13.948)">
    <g id="Group_244" data-name="Group 244">
      <path id="Path_2098" data-name="Path 2098" d="M35.375,176.947a1.543,1.543,0,0,0-.947-1.345c-.572-.233-1.634-.344-4.294,1.227a4.564,4.564,0,0,0-.319-3.05c.917-1.145,1.963-2.718,1.817-3.886a1.556,1.556,0,0,0-.956-1.359c-2.154-.876-7.048,3.055-8.868,4.511a4.12,4.12,0,0,0-.261-1.886c.894-1.094,1.985-2.674,1.839-3.839a1.519,1.519,0,0,0-.924-1.311c-1.218-.5-3.193.594-4.573,1.457-2.079,1.3-2.026,1.355-16.367,12.863A4.048,4.048,0,0,0,0,183.5v8.987a2.5,2.5,0,0,0,2.5,2.5H3.851a.631.631,0,1,0,0-1.261H2.5a1.24,1.24,0,0,1-1.238-1.238v-1.338l17.6-14.121c.541,3.04,3.942,3.183,5.888,1.756a33.4,33.4,0,0,0,4.136-3.915,3.316,3.316,0,0,1-1.117,3.467L8.584,193.724H6.794a.631.631,0,1,0,0,1.261H20.158a5.163,5.163,0,0,0,3.22-1.132L27.8,190.3a.631.631,0,1,0-.79-.984l-4.424,3.551a3.9,3.9,0,0,1-2.431.855H10.6l12.111-9.718a3.479,3.479,0,0,0,.541,1.38c.949,1.35,3.17,1.523,4.77.663A22.553,22.553,0,0,0,31.573,183a3.442,3.442,0,0,1-1.152,3.585l-1.112.893a.631.631,0,1,0,.79.984l1.112-.893a4.708,4.708,0,0,0,1.33-5.588C33.3,181.141,35.585,178.624,35.375,176.947Zm-16.809-8.419c2.532-1.582,3.293-1.4,3.42-1.352.035.014.115.047.147.3.2,1.611-4.782,6.446-6.143,7.346-1.164.752-2.669.558-3.156-.1a3.01,3.01,0,0,1-.392-1.536A64.868,64.868,0,0,1,18.566,168.528Zm.454,6.752L1.261,189.5v-6a2.792,2.792,0,0,1,1.049-2.188l8.96-7.19A2.671,2.671,0,0,0,13,176.336a4,4,0,0,0,2.846-.031c1.36-.521,3.719-2.936,4.694-4A3.165,3.165,0,0,1,19.02,175.28Zm4.99,2.479c-1.281.944-3.1.773-3.627-.126a3.319,3.319,0,0,1-.346-1.552,68.34,68.34,0,0,1,6.5-4.944c2.7-1.686,3.521-1.492,3.659-1.436.046.019.143.058.179.347C30.6,171.789,25.457,176.7,24.01,177.759Zm3.645,7.044c-1.046.672-2.824.748-3.415-.218a3.291,3.291,0,0,1-.349-1.523,63.6,63.6,0,0,1,6.441-4.879c2.672-1.66,3.485-1.468,3.62-1.413.044.018.137.056.172.334C34.341,178.841,28.984,183.942,27.655,184.8Z" transform="translate(0 -165.883)" fill="#081938"/>
    </g>
  </g>
  <g id="Group_247" data-name="Group 247" transform="translate(33.59)">
    <g id="Group_246" data-name="Group 246">
      <path id="Path_2099" data-name="Path 2099" d="M408.324,3.4a.631.631,0,0,0,.631-.631V1.695A1.7,1.7,0,0,0,407.26,0h-5.853a1.7,1.7,0,0,0-1.695,1.695V5.7a1.91,1.91,0,0,0,1.381,1.83l1.324.378v5.22a1.817,1.817,0,0,0,.321,1.033c-.086,1.48-.543,4.608-2.788,6.482a1.278,1.278,0,0,0,.013,1.965c1.085.8,1.431,1.443,2.333,1.443a1.62,1.62,0,0,0,1.454-.894,20.8,20.8,0,0,0,1.9-8.862,1.819,1.819,0,0,0,.422-1.167V8.95a2.282,2.282,0,0,0,2.19-.1,1.728,1.728,0,0,0,.693-1.391V5.714a.631.631,0,1,0-1.261,0V7.463a.477.477,0,0,1-.191.384c-.321.242-.546-.012-1.887-.339l-4.176-1.191a.644.644,0,0,1-.465-.616V1.695a.439.439,0,0,1,.433-.433h5.854a.439.439,0,0,1,.433.433V2.771A.63.63,0,0,0,408.324,3.4Zm-5.7,19.19a.364.364,0,0,1-.557.115l-1.3-1.071a.021.021,0,0,1-.007-.024,9.96,9.96,0,0,0,3.181-6.681,1.882,1.882,0,0,0,.428.021A19.006,19.006,0,0,1,402.622,22.591Zm1.056-14.324,1.133.323v4.537a.566.566,0,0,1-1.133,0Z" transform="translate(-399.495)" fill="#081938"/>
    </g>
  </g>
</svg>
