<svg xmlns="http://www.w3.org/2000/svg" width="36.277" height="37.111" viewBox="0 0 36.277 37.111">
  <g id="stethoscope" transform="translate(-10.7 0.4)">
    <g id="Group_240" data-name="Group 240" transform="translate(11.1 0)">
      <g id="Group_239" data-name="Group 239">
        <path id="Path_2095" data-name="Path 2095" d="M46.542,32.5A3.388,3.388,0,0,0,43.6,29.63l.006-.006a6.306,6.306,0,0,0-12.576.47,5.389,5.389,0,0,1-10.775,0V19.635a8.581,8.581,0,0,0,8.24-8.457V4.142A3.248,3.248,0,0,0,25.683.963V.669A.67.67,0,0,0,25,.008h-.717a1.385,1.385,0,0,0-1.465,1.3,1.377,1.377,0,0,0,1.33,1.426q.067,0,.134,0h.708a.67.67,0,0,0,.679-.661v-.21a2.349,2.349,0,0,1,1.894,2.283v7.035a7.684,7.684,0,0,1-7.783,7.58A7.684,7.684,0,0,1,12,11.178V4.142a2.349,2.349,0,0,1,1.91-2.283v.2a.67.67,0,0,0,.679.661h.717a1.385,1.385,0,0,0,1.465-1.3A1.377,1.377,0,0,0,15.441,0q-.067,0-.134,0H14.59a.67.67,0,0,0-.679.661v.3A3.248,3.248,0,0,0,11.1,4.142v7.035a8.581,8.581,0,0,0,8.24,8.457V30.094a6.3,6.3,0,0,0,12.6,0,5.393,5.393,0,0,1,10.742-.464,3.359,3.359,0,0,0-2.945,3.757A3.416,3.416,0,0,0,43.6,36.255,3.359,3.359,0,0,0,46.542,32.5ZM24.769,1.84h-.482a.483.483,0,0,1-.538-.416A.476.476,0,0,1,24.175.9a.5.5,0,0,1,.112,0h.482ZM14.824.9h.486a.483.483,0,0,1,.538.416.476.476,0,0,1-.427.524.5.5,0,0,1-.112,0h-.486ZM43.173,35.4v0a2.457,2.457,0,1,1,2.522-2.456A2.489,2.489,0,0,1,43.173,35.4Z" transform="translate(-11.1 0)" stroke="#081938" stroke-width="0.8"/>
      </g>
    </g>
    <g id="Group_242" data-name="Group 242" transform="translate(40.363 30.036)">
      <g id="Group_241" data-name="Group 241">
        <path id="Path_2096" data-name="Path 2096" d="M388.041,396.46a2.261,2.261,0,1,0,2.261,2.26A2.261,2.261,0,0,0,388.041,396.46Zm0,3.46a1.2,1.2,0,1,1,1.2-1.2A1.2,1.2,0,0,1,388.041,399.92Z" transform="translate(-385.78 -396.46)" stroke="#081938" stroke-width="0.8"/>
      </g>
    </g>
  </g>
</svg>
